<?xml version="1.0" encoding="UTF-8" standalone="no"?>
<svg
   xmlns:dc="http://purl.org/dc/elements/1.1/"
   xmlns:cc="http://creativecommons.org/ns#"
   xmlns:rdf="http://www.w3.org/1999/02/22-rdf-syntax-ns#"
   xmlns:svg="http://www.w3.org/2000/svg"
   xmlns="http://www.w3.org/2000/svg"
   xmlns:xlink="http://www.w3.org/1999/xlink"
   xmlns:sodipodi="http://sodipodi.sourceforge.net/DTD/sodipodi-0.dtd"
   xmlns:inkscape="http://www.inkscape.org/namespaces/inkscape"
   viewBox="0 0 106.33333 98.306664"
   height="98.306664"
   width="106.33333"
   xml:space="preserve"
   id="svg2"
   version="1.1"
   sodipodi:docname="BWKey.svg"
   inkscape:version="0.92.4 (5da689c313, 2019-01-14)"><sodipodi:namedview
     pagecolor="#ffffff"
     bordercolor="#666666"
     borderopacity="1"
     objecttolerance="10"
     gridtolerance="10"
     guidetolerance="10"
     inkscape:pageopacity="0"
     inkscape:pageshadow="2"
     inkscape:window-width="1920"
     inkscape:window-height="986"
     id="namedview21749"
     showgrid="false"
     fit-margin-top="0"
     fit-margin-left="0"
     fit-margin-right="0"
     fit-margin-bottom="0"
     inkscape:zoom="3.9333333"
     inkscape:cx="-3.0441521"
     inkscape:cy="59.25669"
     inkscape:window-x="-11"
     inkscape:window-y="-11"
     inkscape:window-maximized="1"
     inkscape:current-layer="svg2" /><metadata
     id="metadata8"><rdf:RDF><cc:Work
         rdf:about=""><dc:format>image/svg+xml</dc:format><dc:type
           rdf:resource="http://purl.org/dc/dcmitype/StillImage" /><dc:title></dc:title></cc:Work></rdf:RDF></metadata><defs
     id="defs6"><clipPath
   id="clipPath44"
   clipPathUnits="userSpaceOnUse"><path
     id="path42"
     d="M 47.73,0 H 456.28 V 360 H 47.73 Z"
     inkscape:connector-curvature="0" /></clipPath><clipPath
   id="clipPath54"
   clipPathUnits="userSpaceOnUse"><path
     id="path52"
     d="M 54.45,6.72 H 363.07 V 340.71 H 54.45 Z"
     inkscape:connector-curvature="0" /></clipPath><pattern
   id="pattern25476"
   xlink:href="#pattern25444"
   inkscape:collect="always"
   patternTransform="matrix(0.09694913,0,0,0.09694913,9.0885414e-6,-7.4218748e-6)" /><pattern
   patternUnits="userSpaceOnUse"
   width="500.06824"
   height="500"
   id="pattern25444"><path
     inkscape:connector-curvature="0"
     id="path25442"
     d="m 0.03411,484.7625 v -15.23749 l 15,14.97499 c 8.25,8.23625 15,15.09312 15,15.2375 0,0.14437 -6.75,0.2625 -15,0.2625 h -15 z M 38.76226,461.2282 2e-5,422.4564 0.26707,396.22447 0.53411,369.99254 65.53123,434.99627 130.52834,500 H 104.02642 77.5245 Z M 88.76495,411.23085 1e-5,322.4617 0.26706,296.22838 0.53411,269.99505 115.53248,384.99753 230.53085,500 H 204.03037 177.5299 Z M 138.76571,361.2316 0,222.4632 0.26706,196.22962 0.53411,169.99604 165.53297,334.99802 330.53184,500 h -26.5002 -26.50023 z M 186.76605,313.23194 0,126.46389 0.26706,100.23022 0.53411,73.99655 213.53323,286.99828 426.53234,500 h -26.5001 -26.5001 z M 236.78332,263.24921 0.03411,26.49842 V 13.24921 0 H 13.28491 26.5357 L 263.2849,236.75079 500.03414,473.50158 V 486.75079 500 h -13.2508 -13.2508 z M 286.53499,213.00172 73.53588,0 h 26.50011 26.50013 l 186.76602,186.76806 186.7661,186.76805 -0.2671,26.23367 -0.267,26.23367 z M 334.53524,165.00198 169.53638,0 h 26.50022 26.50021 l 138.76573,138.7684 138.7657,138.7684 -0.2671,26.23358 -0.267,26.23358 z M 384.53574,115.00247 269.53737,0 h 26.50047 26.5005 l 88.7649,88.76915 88.765,88.76915 -0.2671,26.23332 -0.267,26.23333 z M 434.53704,65.00372 369.53984,0 h 26.502 26.5019 l 38.7622,38.7718 38.7623,38.7718 -0.2671,26.23193 -0.267,26.23193 z M 484.53414,15 469.55914,0 h 15.2375 15.2375 v 15 c 0,8.25 -0.1182,15 -0.2625,15 -0.1444,0 -7.0013,-6.75 -15.2375,-15 z"
     style="fill:#000000" /></pattern><pattern
   patternUnits="userSpaceOnUse"
   width="48.48118"
   height="48.474562"
   patternTransform="matrix(0.75000002,0,0,-0.75000002,428.94476,266.12054)"
   id="pattern25496"><rect
     id="rect25447"
     y="0"
     x="0"
     height="48.474564"
     width="48.481178"
     style="fill:url(#pattern25476);stroke:none;stroke-width:0.09694913" /></pattern><filter
   style="color-interpolation-filters:sRGB;"
   inkscape:label="Greyscale"
   id="filter25528"><feColorMatrix
     values="0 0 1 0 0 0 0 1 0 0 0 0 1 0 0 0 0 0 1 0 "
     id="feColorMatrix25526" /></filter><filter
   style="color-interpolation-filters:sRGB;"
   inkscape:label="Greyscale"
   id="filter25532"><feColorMatrix
     values="0 0 1 0 0 0 0 1 0 0 0 0 1 0 0 0 0 0 1 0 "
     id="feColorMatrix25530" /></filter><filter
   style="color-interpolation-filters:sRGB;"
   inkscape:label="Greyscale"
   id="filter25536"><feColorMatrix
     values="0 0 1 0 0 0 0 1 0 0 0 0 1 0 0 0 0 0 1 0 "
     id="feColorMatrix25534" /></filter><filter
   style="color-interpolation-filters:sRGB;"
   inkscape:label="Greyscale"
   id="filter25540"><feColorMatrix
     values="0 0 1 0 0 0 0 1 0 0 0 0 1 0 0 0 0 0 1 0 "
     id="feColorMatrix25538" /></filter><filter
   style="color-interpolation-filters:sRGB;"
   inkscape:label="Greyscale"
   id="filter25544"><feColorMatrix
     values="0 0 1 0 0 0 0 1 0 0 0 0 1 0 0 0 0 0 1 0 "
     id="feColorMatrix25542" /></filter><filter
   style="color-interpolation-filters:sRGB;"
   inkscape:label="Greyscale"
   id="filter25548"><feColorMatrix
     values="0 0 1 0 0 0 0 1 0 0 0 0 1 0 0 0 0 0 1 0 "
     id="feColorMatrix25546" /></filter><filter
   style="color-interpolation-filters:sRGB;"
   inkscape:label="Greyscale"
   id="filter25552"><feColorMatrix
     values="0 0 1 0 0 0 0 1 0 0 0 0 1 0 0 0 0 0 1 0 "
     id="feColorMatrix25550" /></filter><filter
   style="color-interpolation-filters:sRGB;"
   inkscape:label="Greyscale"
   id="filter25556"><feColorMatrix
     values="0 0 1 0 0 0 0 1 0 0 0 0 1 0 0 0 0 0 1 0 "
     id="feColorMatrix25554" /></filter><filter
   style="color-interpolation-filters:sRGB;"
   inkscape:label="Greyscale"
   id="filter25560"><feColorMatrix
     values="0 0 1 0 0 0 0 1 0 0 0 0 1 0 0 0 0 0 1 0 "
     id="feColorMatrix25558" /></filter><filter
   style="color-interpolation-filters:sRGB;"
   inkscape:label="Greyscale"
   id="filter25564"><feColorMatrix
     values="0 0 1 0 0 0 0 1 0 0 0 0 1 0 0 0 0 0 1 0 "
     id="feColorMatrix25562" /></filter><filter
   style="color-interpolation-filters:sRGB;"
   inkscape:label="Greyscale"
   id="filter25568"><feColorMatrix
     values="0 0 1 0 0 0 0 1 0 0 0 0 1 0 0 0 0 0 1 0 "
     id="feColorMatrix25566" /></filter>
</defs><g
     id="g12"
     transform="matrix(1.3333333,0,0,-1.3333333,-496.05332,107.26666)" /><g
     id="g14"
     transform="matrix(1.3333333,0,0,-1.3333333,-496.05332,107.26666)" /><g
     id="g16"
     transform="matrix(1.3333333,0,0,-1.3333333,-496.05332,107.26666)" /><g
     id="g18"
     transform="matrix(1.3333333,0,0,-1.3333333,-496.05332,107.26666)" /><g
     id="g20"
     transform="matrix(1.3333333,0,0,-1.3333333,-496.05332,107.26666)" /><g
     id="g22"
     transform="matrix(1.3333333,0,0,-1.3333333,-496.05332,107.26666)" /><g
     id="g24"
     transform="matrix(1.3333333,0,0,-1.3333333,-496.05332,107.26666)" /><g
     id="g26"
     transform="matrix(1.3333333,0,0,-1.3333333,-496.05332,107.26666)" /><g
     id="g28"
     transform="matrix(1.3333333,0,0,-1.3333333,-496.05332,107.26666)" /><g
     id="g30"
     transform="matrix(1.3333333,0,0,-1.3333333,-496.05332,107.26666)" /><g
     id="g32"
     transform="matrix(1.3333333,0,0,-1.3333333,-496.05332,107.26666)" /><g
     id="g34"
     transform="matrix(1.3333333,0,0,-1.3333333,-496.05332,107.26666)" /><g
     id="g36"
     transform="matrix(1.3333333,0,0,-1.3333333,-496.05332,107.26666)" /><g
     id="g38"
     transform="matrix(1.3333333,0,0,-1.3333333,-496.05332,107.26666)"><g
       id="g40"
       clip-path="url(#clipPath44)" /></g><g
     id="g46"
     transform="matrix(1.3333333,0,0,-1.3333333,-496.05332,107.26666)" /><g
     id="g370"
     transform="matrix(1.3333333,0,0,-1.3333333,-496.05332,107.26666)" /><g
     id="g372"
     transform="matrix(1.3333333,0,0,-1.3333333,-496.05332,107.26666)" /><g
     id="g374"
     transform="matrix(1.3333333,0,0,-1.3333333,-496.05332,107.26666)" /><g
     id="g376"
     transform="matrix(1.3333333,0,0,-1.3333333,-496.05332,107.26666)" /><g
     id="g378"
     transform="matrix(1.3333333,0,0,-1.3333333,-496.05332,107.26666)" /><g
     id="g380"
     transform="matrix(1.3333333,0,0,-1.3333333,-496.05332,107.26666)" /><g
     id="g382"
     transform="matrix(1.3333333,0,0,-1.3333333,-496.05332,107.26666)" /><g
     id="g384"
     transform="matrix(1.3333333,0,0,-1.3333333,-496.05332,107.26666)" /><g
     id="g386"
     transform="matrix(1.3333333,0,0,-1.3333333,-496.05332,107.26666)" /><g
     id="g388"
     transform="matrix(1.3333333,0,0,-1.3333333,-496.05332,107.26666)" /><g
     id="g390"
     transform="matrix(1.3333333,0,0,-1.3333333,-496.05332,107.26666)" /><g
     id="g392"
     transform="matrix(1.3333333,0,0,-1.3333333,-496.05332,107.26666)" /><g
     id="g394"
     transform="matrix(1.3333333,0,0,-1.3333333,-496.05332,107.26666)" /><g
     id="g396"
     transform="matrix(1.3333333,0,0,-1.3333333,-496.05332,107.26666)" /><g
     id="g398"
     transform="matrix(1.3333333,0,0,-1.3333333,-496.05332,107.26666)" /><g
     id="g400"
     transform="matrix(1.3333333,0,0,-1.3333333,-496.05332,107.26666)" /><g
     id="g402"
     transform="matrix(1.3333333,0,0,-1.3333333,-496.05332,107.26666)" /><g
     id="g404"
     transform="matrix(1.3333333,0,0,-1.3333333,-496.05332,107.26666)" /><g
     id="g406"
     transform="matrix(1.3333333,0,0,-1.3333333,-496.05332,107.26666)" /><g
     id="g408"
     transform="matrix(1.3333333,0,0,-1.3333333,-496.05332,107.26666)" /><g
     id="g410"
     transform="matrix(1.3333333,0,0,-1.3333333,-496.05332,107.26666)" /><g
     id="g412"
     transform="matrix(1.3333333,0,0,-1.3333333,-496.05332,107.26666)" /><g
     id="g414"
     transform="matrix(1.3333333,0,0,-1.3333333,-496.05332,107.26666)" /><g
     id="g416"
     transform="matrix(1.3333333,0,0,-1.3333333,-496.05332,107.26666)" /><g
     id="g418"
     transform="matrix(1.3333333,0,0,-1.3333333,-496.05332,107.26666)" /><g
     id="g420"
     transform="matrix(1.3333333,0,0,-1.3333333,-496.05332,107.26666)" /><g
     id="g422"
     transform="matrix(1.3333333,0,0,-1.3333333,-496.05332,107.26666)" /><g
     id="g424"
     transform="matrix(1.3333333,0,0,-1.3333333,-496.05332,107.26666)" /><g
     id="g426"
     transform="matrix(1.3333333,0,0,-1.3333333,-496.05332,107.26666)" /><g
     id="g428"
     transform="matrix(1.3333333,0,0,-1.3333333,-496.05332,107.26666)" /><g
     id="g430"
     transform="matrix(1.3333333,0,0,-1.3333333,-496.05332,107.26666)" /><g
     id="g432"
     transform="matrix(1.3333333,0,0,-1.3333333,-496.05332,107.26666)" /><g
     id="g434"
     transform="matrix(1.3333333,0,0,-1.3333333,-496.05332,107.26666)" /><g
     id="g436"
     transform="matrix(1.3333333,0,0,-1.3333333,-496.05332,107.26666)" /><g
     id="g438"
     transform="matrix(1.3333333,0,0,-1.3333333,-496.05332,107.26666)" /><g
     id="g440"
     transform="matrix(1.3333333,0,0,-1.3333333,-496.05332,107.26666)" /><g
     id="g442"
     transform="matrix(1.3333333,0,0,-1.3333333,-496.05332,107.26666)" /><g
     id="g444"
     transform="matrix(1.3333333,0,0,-1.3333333,-496.05332,107.26666)" /><g
     id="g446"
     transform="matrix(1.3333333,0,0,-1.3333333,-496.05332,107.26666)" /><g
     id="g448"
     transform="matrix(1.3333333,0,0,-1.3333333,-496.05332,107.26666)" /><g
     id="g450"
     transform="matrix(1.3333333,0,0,-1.3333333,-496.05332,107.26666)" /><g
     id="g452"
     transform="matrix(1.3333333,0,0,-1.3333333,-496.05332,107.26666)"
     style="filter:url(#filter25568)"><path
       inkscape:connector-curvature="0"
       d="m 372.04,6.72 h 79.75 v 73.73 h -79.75 z"
       style="fill:#ffffff;fill-opacity:1;fill-rule:nonzero;stroke:none"
       id="path454" /></g><g
     id="g456"
     transform="matrix(1.3333333,0,0,-1.3333333,-496.05332,107.26666)" /><g
     id="g458"
     transform="matrix(1.3333333,0,0,-1.3333333,-496.05332,107.26666)" /><g
     id="g460"
     transform="matrix(1.3333333,0,0,-1.3333333,-496.05332,107.26666)" /><g
     id="g462"
     transform="matrix(1.3333333,0,0,-1.3333333,-496.05332,107.26666)"
     style="filter:url(#filter25564)"><text
   transform="matrix(1,0,0,-1,376.52,68.52)"
   style="font-style:normal;font-variant:normal;font-weight:normal;font-stretch:normal;font-size:9px;font-family:Helvetica;-inkscape-font-specification:'Helvetica, Normal';font-variant-ligatures:normal;font-variant-caps:normal;font-variant-numeric:normal;font-feature-settings:normal;text-align:start;writing-mode:lr-tb;text-anchor:start;fill:#000000;fill-opacity:1;fill-rule:nonzero;stroke:none"
   id="text466"><tspan
     sodipodi:role="line"
     id="tspan25570"
     x="0"
     y="0">Key</tspan></text>

</g><g
     id="g468"
     transform="matrix(1.3333333,0,0,-1.3333333,-496.05332,107.26666)" /><g
     id="g470"
     transform="matrix(1.3333333,0,0,-1.3333333,-496.05332,107.26666)" /><g
     id="g472"
     transform="matrix(1.3333333,0,0,-1.3333333,-496.05332,107.26666)" /><g
     id="g474"
     transform="matrix(1.3333333,0,0,-1.3333333,-496.05332,107.26666)"
     style="filter:url(#filter25560)"><path
       inkscape:connector-curvature="0"
       d="M 376.52,45.77 H 393.8 V 63.05 H 376.52 Z"
       style="fill:#ffffff;fill-opacity:1;fill-rule:nonzero;stroke:none"
       id="path476" /></g><g
     id="g478"
     transform="matrix(1.3333333,0,0,-1.3333333,-496.05332,107.26666)" /><g
     id="g480"
     transform="matrix(1.3333333,0,0,-1.3333333,-496.05332,107.26666)"
     style="filter:url(#filter25556)"><path
       inkscape:connector-curvature="0"
       d="m 377.09,46.33 h 16.15 v 16.15 h -16.15 z"
       style="fill:#f8766d;fill-opacity:1;fill-rule:nonzero;stroke:#000000;stroke-width:0.85000002;stroke-linecap:butt;stroke-linejoin:miter;stroke-miterlimit:10;stroke-dasharray:none;stroke-opacity:1"
       id="path482" /></g><g
     id="g484"
     transform="matrix(1.3333333,0,0,-1.3333333,-496.05332,107.26666)" /><g
     id="g486"
     transform="matrix(1.3333333,0,0,-1.3333333,-496.05332,107.26666)"
     style="filter:url(#filter25552)"><path
       inkscape:connector-curvature="0"
       d="M 376.52,28.49 H 393.8 V 45.77 H 376.52 Z"
       style="fill:#ffffff;fill-opacity:1;fill-rule:nonzero;stroke:none"
       id="path488" /></g><g
     id="g490"
     transform="matrix(1.3333333,0,0,-1.3333333,-496.05332,107.26666)" /><g
     id="g492"
     transform="matrix(1.3333333,0,0,-1.3333333,-496.05332,107.26666)"
     style="filter:url(#filter25548)"><path
       inkscape:connector-curvature="0"
       d="m 377.09,29.05 h 16.15 V 45.2 h -16.15 z"
       style="fill:#00bfc4;fill-opacity:1;fill-rule:nonzero;stroke:#000000;stroke-width:0.85000002;stroke-linecap:butt;stroke-linejoin:miter;stroke-miterlimit:10;stroke-dasharray:none;stroke-opacity:1"
       id="path494" /></g><g
     id="g496"
     transform="matrix(1.3333333,0,0,-1.3333333,-496.05332,107.26666)" /><g
     id="g498"
     transform="matrix(1.3333333,0,0,-1.3333333,-496.05332,107.26666)"
     style="filter:url(#filter25544)"><path
       inkscape:connector-curvature="0"
       d="M 376.52,11.21 H 393.8 V 28.49 H 376.52 Z"
       style="fill:#ffffff;fill-opacity:1;fill-rule:nonzero;stroke:none"
       id="path500" /></g><g
     id="g502"
     transform="matrix(1.3333333,0,0,-1.3333333,-496.05332,107.26666)" /><g
     id="g504"
     transform="matrix(1.3333333,0,0,-1.3333333,-496.05332,107.26666)"
     style="fill:url(#pattern25496);fill-opacity:1;filter:url(#filter25540)"><path
       inkscape:connector-curvature="0"
       d="m 377.09,11.77 h 16.15 v 16.15 h -16.15 z"
       style="fill:url(#pattern25496);fill-opacity:1;fill-rule:nonzero;stroke:#000000;stroke-width:0.85000002;stroke-linecap:butt;stroke-linejoin:miter;stroke-miterlimit:10;stroke-dasharray:none;stroke-opacity:1"
       id="path506" /></g><g
     id="g508"
     transform="matrix(1.3333333,0,0,-1.3333333,-496.05332,107.26666)" /><g
     id="g510"
     transform="matrix(1.3333333,0,0,-1.3333333,-496.05332,107.26666)" /><g
     id="g512"
     transform="matrix(1.3333333,0,0,-1.3333333,-496.05332,107.26666)" /><g
     id="g514"
     transform="matrix(1.3333333,0,0,-1.3333333,-496.05332,107.26666)"
     style="filter:url(#filter25536)"><text
   transform="matrix(1,0,0,-1,398.29,51.89)"
   style="font-variant:normal;font-weight:normal;font-size:7px;font-family:Helvetica;-inkscape-font-specification:Helvetica;writing-mode:lr-tb;fill:#000000;fill-opacity:1;fill-rule:nonzero;stroke:none"
   id="text518"><tspan
     x="0 5.0539999 6.6079998 10.5 12.446 17.5 21.392 23.337999 25.284 29.952999 33.452999 37.345001 41.237 45.129002"
     y="0"
     id="tspan516">Did Not Expand</tspan></text>

</g><g
     id="g520"
     transform="matrix(1.3333333,0,0,-1.3333333,-496.05332,107.26666)" /><g
     id="g522"
     transform="matrix(1.3333333,0,0,-1.3333333,-496.05332,107.26666)" /><g
     id="g524"
     transform="matrix(1.3333333,0,0,-1.3333333,-496.05332,107.26666)" /><g
     id="g526"
     transform="matrix(1.3333333,0,0,-1.3333333,-496.05332,107.26666)" /><g
     id="g528"
     transform="matrix(1.3333333,0,0,-1.3333333,-496.05332,107.26666)" /><g
     id="g530"
     transform="matrix(1.3333333,0,0,-1.3333333,-496.05332,107.26666)"
     style="filter:url(#filter25532)"><text
   transform="matrix(1,0,0,-1,398.29,34.61)"
   style="font-variant:normal;font-weight:normal;font-size:7px;font-family:Helvetica;-inkscape-font-specification:Helvetica;writing-mode:lr-tb;fill:#000000;fill-opacity:1;fill-rule:nonzero;stroke:none"
   id="text534"><tspan
     x="0 4.6690001 8.1689997 12.061 15.953 19.844999 23.737 27.629"
     y="0"
     id="tspan532">Expanded</tspan></text>

</g><g
     id="g536"
     transform="matrix(1.3333333,0,0,-1.3333333,-496.05332,107.26666)" /><g
     id="g538"
     transform="matrix(1.3333333,0,0,-1.3333333,-496.05332,107.26666)" /><g
     id="g540"
     transform="matrix(1.3333333,0,0,-1.3333333,-496.05332,107.26666)" /><g
     id="g542"
     transform="matrix(1.3333333,0,0,-1.3333333,-496.05332,107.26666)" /><g
     id="g544"
     transform="matrix(1.3333333,0,0,-1.3333333,-496.05332,107.26666)" /><text
     id="text550"
     style="font-variant:normal;font-weight:normal;font-size:7.00000017px;font-family:Helvetica;-inkscape-font-specification:'Helvetica, Normal';writing-mode:lr;fill:#000000;fill-opacity:1;fill-rule:nonzero;stroke:none;filter:url(#filter25528);font-style:normal;font-stretch:normal;text-anchor:start;text-align:start;font-variant-ligatures:normal;font-variant-caps:normal;font-variant-numeric:normal;font-feature-settings:normal;"
     transform="matrix(1.3333333,0,0,1.3333333,35,84.159994)"><tspan
       sodipodi:role="line"
       id="tspan25574">Missing Data</tspan></text>
<g
     id="g552"
     transform="matrix(1.3333333,0,0,-1.3333333,-496.05332,107.26666)" /><g
     id="g554"
     transform="matrix(1.3333333,0,0,-1.3333333,-496.05332,107.26666)" /><g
     id="g556"
     transform="matrix(1.3333333,0,0,-1.3333333,-496.05332,107.26666)" /><g
     id="g558"
     transform="matrix(1.3333333,0,0,-1.3333333,-496.05332,107.26666)" /><g
     id="g560"
     transform="matrix(1.3333333,0,0,-1.3333333,-496.05332,107.26666)" /><g
     id="g562"
     transform="matrix(1.3333333,0,0,-1.3333333,-496.05332,107.26666)" /><g
     id="g564"
     transform="matrix(1.3333333,0,0,-1.3333333,-496.05332,107.26666)" /><g
     id="g566"
     transform="matrix(1.3333333,0,0,-1.3333333,-496.05332,107.26666)" /><g
     id="g568"
     transform="matrix(1.3333333,0,0,-1.3333333,-496.05332,107.26666)" /><g
     id="g576"
     transform="matrix(1.3333333,0,0,-1.3333333,-496.05332,107.26666)" /><g
     id="g578"
     transform="matrix(1.3333333,0,0,-1.3333333,-496.05332,107.26666)" /><g
     id="g580"
     transform="matrix(1.3333333,0,0,-1.3333333,-496.05332,107.26666)" /><g
     id="g582"
     transform="matrix(1.3333333,0,0,-1.3333333,-496.05332,107.26666)" /><g
     id="g584"
     transform="matrix(1.3333333,0,0,-1.3333333,-496.05332,107.26666)" /><g
     id="g586"
     transform="matrix(1.3333333,0,0,-1.3333333,-496.05332,107.26666)" /><g
     id="g588"
     transform="matrix(1.3333333,0,0,-1.3333333,-496.05332,107.26666)" /></svg>