<?xml version="1.0" encoding="UTF-8" standalone="no"?>
<svg
   xmlns:dc="http://purl.org/dc/elements/1.1/"
   xmlns:cc="http://creativecommons.org/ns#"
   xmlns:rdf="http://www.w3.org/1999/02/22-rdf-syntax-ns#"
   xmlns:svg="http://www.w3.org/2000/svg"
   xmlns="http://www.w3.org/2000/svg"
   viewBox="0 0 480 336"
   height="336"
   width="480"
   xml:space="preserve"
   id="svg2"
   version="1.1"><metadata
     id="metadata8"><rdf:RDF><cc:Work
         rdf:about=""><dc:format>image/svg+xml</dc:format><dc:type
           rdf:resource="http://purl.org/dc/dcmitype/StillImage" /></cc:Work></rdf:RDF></metadata><defs
     id="defs6"><clipPath
       id="clipPath56"
       clipPathUnits="userSpaceOnUse"><path
         id="path54"
         d="M 45.36,31.91 H 354.52 V 207.32 H 45.36 Z" /></clipPath></defs><g
     transform="matrix(1.3333333,0,0,-1.3333333,0,336)"
     id="g10"><g
       id="g12" /><g
       id="g14" /><g
       id="g16" /><g
       id="g18" /><g
       id="g20" /><g
       id="g22" /><g
       id="g24" /><g
       id="g26" /><g
       id="g28" /><g
       id="g30" /><g
       id="g32" /><g
       id="g34" /><g
       id="g36" /><g
       id="g38" /><g
       id="g40" /><g
       id="g42" /><g
       id="g44"><path
         id="path46"
         style="fill:#ffffff;fill-opacity:1;fill-rule:nonzero;stroke:#ffffff;stroke-width:1.07000005;stroke-linecap:round;stroke-linejoin:round;stroke-miterlimit:10;stroke-dasharray:none;stroke-opacity:1"
         d="M 0,0 H 360 V 252 H 0 Z" /></g><g
       id="g48" /><g
       id="g50"><g
         clip-path="url(#clipPath56)"
         id="g52"><path
           id="path58"
           style="fill:#ffffff;fill-opacity:1;fill-rule:nonzero;stroke:none"
           d="M 45.36,31.91 H 354.52 V 207.32 H 45.36 Z" /><path
           id="path60"
           style="fill:none;stroke:#dedede;stroke-width:0.27000001;stroke-linecap:butt;stroke-linejoin:round;stroke-miterlimit:10;stroke-dasharray:none;stroke-opacity:1"
           d="M 45.36,67.52 H 354.52" /><path
           id="path62"
           style="fill:none;stroke:#dedede;stroke-width:0.27000001;stroke-linecap:butt;stroke-linejoin:round;stroke-miterlimit:10;stroke-dasharray:none;stroke-opacity:1"
           d="M 45.36,105.98 H 354.52" /><path
           id="path64"
           style="fill:none;stroke:#dedede;stroke-width:0.27000001;stroke-linecap:butt;stroke-linejoin:round;stroke-miterlimit:10;stroke-dasharray:none;stroke-opacity:1"
           d="M 45.36,144.45 H 354.52" /><path
           id="path66"
           style="fill:none;stroke:#dedede;stroke-width:0.27000001;stroke-linecap:butt;stroke-linejoin:round;stroke-miterlimit:10;stroke-dasharray:none;stroke-opacity:1"
           d="M 45.36,182.91 H 354.52" /><path
           id="path68"
           style="fill:none;stroke:#dedede;stroke-width:0.27000001;stroke-linecap:butt;stroke-linejoin:round;stroke-miterlimit:10;stroke-dasharray:none;stroke-opacity:1"
           d="M 75.02,31.91 V 207.32" /><path
           id="path70"
           style="fill:none;stroke:#dedede;stroke-width:0.27000001;stroke-linecap:butt;stroke-linejoin:round;stroke-miterlimit:10;stroke-dasharray:none;stroke-opacity:1"
           d="M 106.25,31.91 V 207.32" /><path
           id="path72"
           style="fill:none;stroke:#dedede;stroke-width:0.27000001;stroke-linecap:butt;stroke-linejoin:round;stroke-miterlimit:10;stroke-dasharray:none;stroke-opacity:1"
           d="M 137.48,31.91 V 207.32" /><path
           id="path74"
           style="fill:none;stroke:#dedede;stroke-width:0.27000001;stroke-linecap:butt;stroke-linejoin:round;stroke-miterlimit:10;stroke-dasharray:none;stroke-opacity:1"
           d="M 168.71,31.91 V 207.32" /><path
           id="path76"
           style="fill:none;stroke:#dedede;stroke-width:0.27000001;stroke-linecap:butt;stroke-linejoin:round;stroke-miterlimit:10;stroke-dasharray:none;stroke-opacity:1"
           d="M 199.94,31.91 V 207.32" /><path
           id="path78"
           style="fill:none;stroke:#dedede;stroke-width:0.27000001;stroke-linecap:butt;stroke-linejoin:round;stroke-miterlimit:10;stroke-dasharray:none;stroke-opacity:1"
           d="M 231.17,31.91 V 207.32" /><path
           id="path80"
           style="fill:none;stroke:#dedede;stroke-width:0.27000001;stroke-linecap:butt;stroke-linejoin:round;stroke-miterlimit:10;stroke-dasharray:none;stroke-opacity:1"
           d="M 262.4,31.91 V 207.32" /><path
           id="path82"
           style="fill:none;stroke:#dedede;stroke-width:0.27000001;stroke-linecap:butt;stroke-linejoin:round;stroke-miterlimit:10;stroke-dasharray:none;stroke-opacity:1"
           d="M 293.62,31.91 V 207.32" /><path
           id="path84"
           style="fill:none;stroke:#dedede;stroke-width:0.27000001;stroke-linecap:butt;stroke-linejoin:round;stroke-miterlimit:10;stroke-dasharray:none;stroke-opacity:1"
           d="M 324.85,31.91 V 207.32" /><path
           id="path86"
           style="fill:none;stroke:#dedede;stroke-width:0.52999997;stroke-linecap:butt;stroke-linejoin:round;stroke-miterlimit:10;stroke-dasharray:none;stroke-opacity:1"
           d="M 45.36,48.29 H 354.52" /><path
           id="path88"
           style="fill:none;stroke:#dedede;stroke-width:0.52999997;stroke-linecap:butt;stroke-linejoin:round;stroke-miterlimit:10;stroke-dasharray:none;stroke-opacity:1"
           d="M 45.36,86.75 H 354.52" /><path
           id="path90"
           style="fill:none;stroke:#dedede;stroke-width:0.52999997;stroke-linecap:butt;stroke-linejoin:round;stroke-miterlimit:10;stroke-dasharray:none;stroke-opacity:1"
           d="M 45.36,125.22 H 354.52" /><path
           id="path92"
           style="fill:none;stroke:#dedede;stroke-width:0.52999997;stroke-linecap:butt;stroke-linejoin:round;stroke-miterlimit:10;stroke-dasharray:none;stroke-opacity:1"
           d="M 45.36,163.68 H 354.52" /><path
           id="path94"
           style="fill:none;stroke:#dedede;stroke-width:0.52999997;stroke-linecap:butt;stroke-linejoin:round;stroke-miterlimit:10;stroke-dasharray:none;stroke-opacity:1"
           d="M 45.36,202.14 H 354.52" /><path
           id="path96"
           style="fill:none;stroke:#dedede;stroke-width:0.52999997;stroke-linecap:butt;stroke-linejoin:round;stroke-miterlimit:10;stroke-dasharray:none;stroke-opacity:1"
           d="M 59.41,31.91 V 207.32" /><path
           id="path98"
           style="fill:none;stroke:#dedede;stroke-width:0.52999997;stroke-linecap:butt;stroke-linejoin:round;stroke-miterlimit:10;stroke-dasharray:none;stroke-opacity:1"
           d="M 90.64,31.91 V 207.32" /><path
           id="path100"
           style="fill:none;stroke:#dedede;stroke-width:0.52999997;stroke-linecap:butt;stroke-linejoin:round;stroke-miterlimit:10;stroke-dasharray:none;stroke-opacity:1"
           d="M 121.87,31.91 V 207.32" /><path
           id="path102"
           style="fill:none;stroke:#dedede;stroke-width:0.52999997;stroke-linecap:butt;stroke-linejoin:round;stroke-miterlimit:10;stroke-dasharray:none;stroke-opacity:1"
           d="M 153.1,31.91 V 207.32" /><path
           id="path104"
           style="fill:none;stroke:#dedede;stroke-width:0.52999997;stroke-linecap:butt;stroke-linejoin:round;stroke-miterlimit:10;stroke-dasharray:none;stroke-opacity:1"
           d="M 184.32,31.91 V 207.32" /><path
           id="path106"
           style="fill:none;stroke:#dedede;stroke-width:0.52999997;stroke-linecap:butt;stroke-linejoin:round;stroke-miterlimit:10;stroke-dasharray:none;stroke-opacity:1"
           d="M 215.55,31.91 V 207.32" /><path
           id="path108"
           style="fill:none;stroke:#dedede;stroke-width:0.52999997;stroke-linecap:butt;stroke-linejoin:round;stroke-miterlimit:10;stroke-dasharray:none;stroke-opacity:1"
           d="M 246.78,31.91 V 207.32" /><path
           id="path110"
           style="fill:none;stroke:#dedede;stroke-width:0.52999997;stroke-linecap:butt;stroke-linejoin:round;stroke-miterlimit:10;stroke-dasharray:none;stroke-opacity:1"
           d="M 278.01,31.91 V 207.32" /><path
           id="path112"
           style="fill:none;stroke:#dedede;stroke-width:0.52999997;stroke-linecap:butt;stroke-linejoin:round;stroke-miterlimit:10;stroke-dasharray:none;stroke-opacity:1"
           d="M 309.24,31.91 V 207.32" /><path
           id="path114"
           style="fill:none;stroke:#dedede;stroke-width:0.52999997;stroke-linecap:butt;stroke-linejoin:round;stroke-miterlimit:10;stroke-dasharray:none;stroke-opacity:1"
           d="M 340.47,31.91 V 207.32" /><path
           id="path116"
           style="fill:none;stroke:#f8766d;stroke-width:1.07000005;stroke-linecap:butt;stroke-linejoin:round;stroke-miterlimit:10;stroke-dasharray:none;stroke-opacity:0.37600002"
           d="m 59.41,183.91 31.23,6.1 31.23,-32.33 31.23,14.3 31.22,-9.78 31.23,18.97 31.23,-14.98 31.23,-9.22 31.23,-0.83 31.23,43.21" /><path
           id="path118"
           style="fill:none;stroke:#00bfc4;stroke-width:1.07000005;stroke-linecap:butt;stroke-linejoin:round;stroke-miterlimit:10;stroke-dasharray:none;stroke-opacity:0.37600002"
           d="m 59.41,139.03 31.23,-31.01 31.23,-13.62 31.23,-14.65 31.22,6.35 31.23,13.9 31.23,16.79 31.23,15.83 31.23,14.36 31.23,32.79" /><path
           id="path120"
           style="fill:none;stroke:#00bfc4;stroke-width:0.70999998;stroke-linecap:round;stroke-linejoin:round;stroke-miterlimit:10;stroke-dasharray:none;stroke-opacity:1"
           d="m 260.97,127.04 c 0,0.78 0.64,1.42 1.43,1.42 0.78,0 1.42,-0.64 1.42,-1.42 0,-0.78 -0.64,-1.42 -1.42,-1.42 -0.79,0 -1.43,0.64 -1.43,1.42" /><path
           id="path122"
           style="fill:none;stroke:#f8766d;stroke-width:0.70999998;stroke-linecap:round;stroke-linejoin:round;stroke-miterlimit:10;stroke-dasharray:none;stroke-opacity:1"
           d="m 260.97,94.09 c 0,0.78 0.64,1.42 1.43,1.42 0.78,0 1.42,-0.64 1.42,-1.42 0,-0.78 -0.64,-1.42 -1.42,-1.42 -0.79,0 -1.43,0.64 -1.43,1.42" /><path
           id="path124"
           style="fill:#00bfc4;fill-opacity:1;fill-rule:nonzero;stroke:#00bfc4;stroke-width:0.70999998;stroke-linecap:round;stroke-linejoin:round;stroke-miterlimit:10;stroke-dasharray:none;stroke-opacity:1"
           d="m 120.05,99.76 c 0,0.78 0.64,1.42 1.42,1.42 0.78,0 1.42,-0.64 1.42,-1.42 0,-0.78 -0.64,-1.42 -1.42,-1.42 -0.78,0 -1.42,0.64 -1.42,1.42" /><path
           id="path126"
           style="fill:#f8766d;fill-opacity:1;fill-rule:nonzero;stroke:#f8766d;stroke-width:0.70999998;stroke-linecap:round;stroke-linejoin:round;stroke-miterlimit:10;stroke-dasharray:none;stroke-opacity:1"
           d="m 120.05,176.01 c 0,0.78 0.64,1.42 1.42,1.42 0.78,0 1.42,-0.64 1.42,-1.42 0,-0.78 -0.64,-1.42 -1.42,-1.42 -0.78,0 -1.42,0.64 -1.42,1.42" /><path
           id="path128"
           style="fill:#f8766d;fill-opacity:1;fill-rule:nonzero;stroke:#f8766d;stroke-width:0.70999998;stroke-linecap:round;stroke-linejoin:round;stroke-miterlimit:10;stroke-dasharray:none;stroke-opacity:1"
           d="m 260.97,170.34 c 0,0.78 0.64,1.42 1.43,1.42 0.78,0 1.42,-0.64 1.42,-1.42 0,-0.79 -0.64,-1.43 -1.42,-1.43 -0.79,0 -1.43,0.64 -1.43,1.43" /><path
           id="path130"
           style="fill:#00bfc4;fill-opacity:1;fill-rule:nonzero;stroke:#00bfc4;stroke-width:0.70999998;stroke-linecap:round;stroke-linejoin:round;stroke-miterlimit:10;stroke-dasharray:none;stroke-opacity:1"
           d="m 260.97,127.04 c 0,0.78 0.64,1.42 1.43,1.42 0.78,0 1.42,-0.64 1.42,-1.42 0,-0.78 -0.64,-1.42 -1.42,-1.42 -0.79,0 -1.43,0.64 -1.43,1.42" /><path
           id="path132"
           style="fill:none;stroke:#f8766d;stroke-width:1.07000005;stroke-linecap:butt;stroke-linejoin:round;stroke-miterlimit:10;stroke-dasharray:none;stroke-opacity:1"
           d="M 121.47,176.01 262.4,170.34" /><path
           id="path134"
           style="fill:none;stroke:#00bfc4;stroke-width:1.07000005;stroke-linecap:butt;stroke-linejoin:round;stroke-miterlimit:10;stroke-dasharray:none;stroke-opacity:1"
           d="M 121.47,99.76 262.4,127.04" /><path
           id="path136"
           style="fill:none;stroke:#000000;stroke-width:1.07000005;stroke-linecap:butt;stroke-linejoin:round;stroke-miterlimit:10;stroke-dasharray:4.27, 4.27;stroke-dashoffset:0;stroke-opacity:0.475"
           d="M 121.47,99.76 262.4,94.09" /><path
           id="path138"
           style="fill:none;stroke:#000000;stroke-width:1.07000005;stroke-linecap:butt;stroke-linejoin:round;stroke-miterlimit:10;stroke-dasharray:4.27, 4.27;stroke-dashoffset:0;stroke-opacity:0.34100001"
           d="M 121.47,176.01 V 99.76" /><path
           id="path140"
           style="fill:none;stroke:#000000;stroke-width:1.07000005;stroke-linecap:butt;stroke-linejoin:round;stroke-miterlimit:10;stroke-dasharray:4.27, 4.27;stroke-dashoffset:0;stroke-opacity:0.34100001"
           d="M 262.4,170.34 V 94.09" /><path
           id="path142"
           style="fill:none;stroke:#000000;stroke-width:1.07000005;stroke-linecap:butt;stroke-linejoin:round;stroke-miterlimit:10;stroke-dasharray:none;stroke-opacity:0.10199998"
           d="M 153.1,31.91 V 207.32" /><path
           id="path144"
           style="fill:#f8766d;fill-opacity:0.34100001;fill-rule:nonzero;stroke:none"
           d="M 59.41,60.2 90.64,39.88 h 31.23 L 153.1,79.75 V 39.88 H 121.87 90.64 59.41 Z" /><path
           id="path146"
           style="fill:none;stroke:#000000;stroke-width:1.07000005;stroke-linecap:butt;stroke-linejoin:round;stroke-miterlimit:10;stroke-dasharray:none;stroke-opacity:1"
           d="M 59.41,60.2 90.64,39.88 h 31.23 l 31.23,39.87" /><path
           id="path148"
           style="fill:none;stroke:#000000;stroke-width:1.07000005;stroke-linecap:butt;stroke-linejoin:round;stroke-miterlimit:10;stroke-dasharray:none;stroke-opacity:1"
           d="M 153.1,39.88 H 121.87 90.64 59.41" /><path
           id="path150"
           style="fill:none;stroke:#000000;stroke-width:1.07000005;stroke-linecap:butt;stroke-linejoin:round;stroke-miterlimit:10;stroke-dasharray:none;stroke-opacity:1"
           d="m 262.4,94.09 0.13,0.25 0.58,1.11 0.75,1.41 0.62,1.25 0.52,1.16 0.44,1.16 0.35,1.08 0.3,0.99 0.3,1.1 0.27,1.21 0.21,1.22 0.14,1.13 0.1,1.03 0.08,1.14 0.03,1.24 -0.03,1.24 -0.08,1.13 -0.1,1.03 -0.14,1.13 -0.21,1.22 -0.27,1.21 -0.3,1.1 -0.3,0.99 -0.35,1.08 -0.44,1.16 -0.52,1.16 -0.62,1.25 -0.75,1.41 -0.58,1.11 -0.13,0.25" /><path
           id="path152"
           style="fill:none;stroke:#000000;stroke-width:1.07000005;stroke-linecap:butt;stroke-linejoin:round;stroke-miterlimit:10;stroke-dasharray:none;stroke-opacity:1"
           d="m 267.19,124.02 -4.79,3.02 -0.22,-5.66" /><path
           id="path154"
           style="fill:none;stroke:#000000;stroke-width:1.07000005;stroke-linecap:butt;stroke-linejoin:round;stroke-miterlimit:10;stroke-dasharray:none;stroke-opacity:0.10199998"
           d="m 262.4,136.5 -0.04,-0.07 -0.17,-0.32 -0.21,-0.4 -0.18,-0.36 -0.15,-0.33 -0.13,-0.34 -0.1,-0.31 -0.08,-0.28 -0.09,-0.32 -0.08,-0.34 -0.06,-0.36 -0.04,-0.32 -0.03,-0.3 -0.02,-0.32 -0.01,-0.36 0.01,-0.35 0.02,-0.33 0.03,-0.3 0.04,-0.32 0.06,-0.35 0.08,-0.35 0.09,-0.31 0.08,-0.29 0.1,-0.31 0.13,-0.33 0.15,-0.33 0.18,-0.36 0.21,-0.41 0.17,-0.31 0.04,-0.08" /><path
           id="path156"
           style="fill:none;stroke:#000000;stroke-width:1.07000005;stroke-linecap:butt;stroke-linejoin:round;stroke-miterlimit:10;stroke-dasharray:none;stroke-opacity:0.10199998"
           d="m 257.6,130.06 4.8,-3.02 0.21,5.67" /><path
           id="path158"
           style="fill:none;stroke:#000000;stroke-width:1.07000005;stroke-linecap:butt;stroke-linejoin:round;stroke-miterlimit:10;stroke-dasharray:none;stroke-opacity:0.10199998"
           d="m 262.4,51.68 0.1,0.19 0.55,1.05 1.02,1.93 1.16,2.2 1.07,2.05 0.92,1.87 0.8,1.78 0.32,0.78 0.7,1.79 0.61,1.74 0.52,1.63 0.47,1.53 0.45,1.58 0.46,1.74 0.43,1.85 0.16,0.8 0.34,1.9 0.27,1.83 0.19,1.7 0.16,1.59 0.15,1.64 0.11,1.79 0.06,1.9 0.01,0.82 -0.04,1.93 -0.09,1.84 -0.14,1.7 -0.15,1.59 -0.17,1.64 -0.24,1.78 -0.3,1.88 -0.16,0.8 -0.4,1.89 -0.45,1.79 -0.46,1.65 -0.46,1.53 -0.48,1.57 -0.58,1.7 -0.66,1.78 -0.31,0.76 -0.77,1.78 -0.86,1.82 -1,1.97 -1.13,2.15 -1.13,2.13 -0.78,1.48 -0.27,0.51 v 0.01" /><path
           id="path160"
           style="fill:none;stroke:#000000;stroke-width:1.07000005;stroke-linecap:butt;stroke-linejoin:round;stroke-miterlimit:10;stroke-dasharray:none;stroke-opacity:0.10199998"
           d="m 267.19,124.02 -4.79,3.02 -0.22,-5.66" /><path
           id="path162"
           style="fill:none;stroke:#b3b3b3;stroke-width:1.07000005;stroke-linecap:round;stroke-linejoin:round;stroke-miterlimit:10;stroke-dasharray:none;stroke-opacity:1"
           d="M 45.36,31.91 H 354.52 V 207.32 H 45.36 Z" /></g></g><g
       id="g164" /><g
       id="g166" /><g
       id="g168" /><g
       id="g170" /><g
       id="g172" /><g
       id="g174" /><g
       id="g176" /><g
       id="g178" /><g
       id="g180" /><g
       id="g182" /><g
       id="g184" /><g
       id="g186" /><g
       id="g188" /><g
       id="g190" /><g
       id="g192" /><g
       id="g194"><text
         id="text198"
         style="font-variant:normal;font-weight:normal;font-size:9px;font-family:Helvetica;-inkscape-font-specification:Helvetica;writing-mode:lr-tb;fill:#4d4d4d;fill-opacity:1;fill-rule:nonzero;stroke:none"
         transform="matrix(1,0,0,-1,30.42,45.06)"><tspan
           id="tspan196"
           y="0"
           x="0 5.0040002">68</tspan></text>
<text
         id="text202"
         style="font-variant:normal;font-weight:normal;font-size:9px;font-family:Helvetica;-inkscape-font-specification:Helvetica;writing-mode:lr-tb;fill:#4d4d4d;fill-opacity:1;fill-rule:nonzero;stroke:none"
         transform="matrix(1,0,0,-1,30.42,83.52)"><tspan
           id="tspan200"
           y="0"
           x="0 5.0040002">70</tspan></text>
<text
         id="text206"
         style="font-variant:normal;font-weight:normal;font-size:9px;font-family:Helvetica;-inkscape-font-specification:Helvetica;writing-mode:lr-tb;fill:#4d4d4d;fill-opacity:1;fill-rule:nonzero;stroke:none"
         transform="matrix(1,0,0,-1,30.42,121.99)"><tspan
           id="tspan204"
           y="0"
           x="0 5.0040002">72</tspan></text>
<text
         id="text210"
         style="font-variant:normal;font-weight:normal;font-size:9px;font-family:Helvetica;-inkscape-font-specification:Helvetica;writing-mode:lr-tb;fill:#4d4d4d;fill-opacity:1;fill-rule:nonzero;stroke:none"
         transform="matrix(1,0,0,-1,30.42,160.45)"><tspan
           id="tspan208"
           y="0"
           x="0 5.0040002">74</tspan></text>
<text
         id="text214"
         style="font-variant:normal;font-weight:normal;font-size:9px;font-family:Helvetica;-inkscape-font-specification:Helvetica;writing-mode:lr-tb;fill:#4d4d4d;fill-opacity:1;fill-rule:nonzero;stroke:none"
         transform="matrix(1,0,0,-1,30.42,198.91)"><tspan
           id="tspan212"
           y="0"
           x="0 5.0040002">76</tspan></text>
</g><g
       id="g216" /><g
       id="g218" /><g
       id="g220"><path
         id="path222"
         style="fill:none;stroke:#b3b3b3;stroke-width:0.52999997;stroke-linecap:butt;stroke-linejoin:round;stroke-miterlimit:10;stroke-dasharray:none;stroke-opacity:1"
         d="m 42.62,48.29 h 2.74" /><path
         id="path224"
         style="fill:none;stroke:#b3b3b3;stroke-width:0.52999997;stroke-linecap:butt;stroke-linejoin:round;stroke-miterlimit:10;stroke-dasharray:none;stroke-opacity:1"
         d="m 42.62,86.75 h 2.74" /><path
         id="path226"
         style="fill:none;stroke:#b3b3b3;stroke-width:0.52999997;stroke-linecap:butt;stroke-linejoin:round;stroke-miterlimit:10;stroke-dasharray:none;stroke-opacity:1"
         d="m 42.62,125.22 h 2.74" /><path
         id="path228"
         style="fill:none;stroke:#b3b3b3;stroke-width:0.52999997;stroke-linecap:butt;stroke-linejoin:round;stroke-miterlimit:10;stroke-dasharray:none;stroke-opacity:1"
         d="m 42.62,163.68 h 2.74" /><path
         id="path230"
         style="fill:none;stroke:#b3b3b3;stroke-width:0.52999997;stroke-linecap:butt;stroke-linejoin:round;stroke-miterlimit:10;stroke-dasharray:none;stroke-opacity:1"
         d="m 42.62,202.14 h 2.74" /></g><g
       id="g232" /><g
       id="g234" /><g
       id="g236" /><g
       id="g238" /><g
       id="g240" /><g
       id="g242" /><g
       id="g244" /><g
       id="g246" /><g
       id="g248" /><g
       id="g250" /><g
       id="g252"><path
         id="path254"
         style="fill:none;stroke:#b3b3b3;stroke-width:0.52999997;stroke-linecap:butt;stroke-linejoin:round;stroke-miterlimit:10;stroke-dasharray:none;stroke-opacity:1"
         d="m 59.41,29.17 v 2.74" /><path
         id="path256"
         style="fill:none;stroke:#b3b3b3;stroke-width:0.52999997;stroke-linecap:butt;stroke-linejoin:round;stroke-miterlimit:10;stroke-dasharray:none;stroke-opacity:1"
         d="m 90.64,29.17 v 2.74" /><path
         id="path258"
         style="fill:none;stroke:#b3b3b3;stroke-width:0.52999997;stroke-linecap:butt;stroke-linejoin:round;stroke-miterlimit:10;stroke-dasharray:none;stroke-opacity:1"
         d="m 121.87,29.17 v 2.74" /><path
         id="path260"
         style="fill:none;stroke:#b3b3b3;stroke-width:0.52999997;stroke-linecap:butt;stroke-linejoin:round;stroke-miterlimit:10;stroke-dasharray:none;stroke-opacity:1"
         d="m 153.1,29.17 v 2.74" /><path
         id="path262"
         style="fill:none;stroke:#b3b3b3;stroke-width:0.52999997;stroke-linecap:butt;stroke-linejoin:round;stroke-miterlimit:10;stroke-dasharray:none;stroke-opacity:1"
         d="m 184.32,29.17 v 2.74" /><path
         id="path264"
         style="fill:none;stroke:#b3b3b3;stroke-width:0.52999997;stroke-linecap:butt;stroke-linejoin:round;stroke-miterlimit:10;stroke-dasharray:none;stroke-opacity:1"
         d="m 215.55,29.17 v 2.74" /><path
         id="path266"
         style="fill:none;stroke:#b3b3b3;stroke-width:0.52999997;stroke-linecap:butt;stroke-linejoin:round;stroke-miterlimit:10;stroke-dasharray:none;stroke-opacity:1"
         d="m 246.78,29.17 v 2.74" /><path
         id="path268"
         style="fill:none;stroke:#b3b3b3;stroke-width:0.52999997;stroke-linecap:butt;stroke-linejoin:round;stroke-miterlimit:10;stroke-dasharray:none;stroke-opacity:1"
         d="m 278.01,29.17 v 2.74" /><path
         id="path270"
         style="fill:none;stroke:#b3b3b3;stroke-width:0.52999997;stroke-linecap:butt;stroke-linejoin:round;stroke-miterlimit:10;stroke-dasharray:none;stroke-opacity:1"
         d="m 309.24,29.17 v 2.74" /><path
         id="path272"
         style="fill:none;stroke:#b3b3b3;stroke-width:0.52999997;stroke-linecap:butt;stroke-linejoin:round;stroke-miterlimit:10;stroke-dasharray:none;stroke-opacity:1"
         d="m 340.47,29.17 v 2.74" /></g><g
       id="g274" /><g
       id="g276"><text
         id="text280"
         style="font-variant:normal;font-weight:normal;font-size:9px;font-family:Helvetica;-inkscape-font-specification:Helvetica;writing-mode:lr-tb;fill:#4d4d4d;fill-opacity:1;fill-rule:nonzero;stroke:none"
         transform="matrix(1,0,0,-1,49.4,20.52)"><tspan
           id="tspan278"
           y="0"
           x="0 5.0040002 10.008 15.012">2010</tspan></text>
<text
         id="text284"
         style="font-variant:normal;font-weight:normal;font-size:9px;font-family:Helvetica;-inkscape-font-specification:Helvetica;writing-mode:lr-tb;fill:#4d4d4d;fill-opacity:1;fill-rule:nonzero;stroke:none"
         transform="matrix(1,0,0,-1,80.63,20.52)"><tspan
           id="tspan282"
           y="0"
           x="0 5.0040002 10.008 15.012">2011</tspan></text>
<text
         id="text288"
         style="font-variant:normal;font-weight:normal;font-size:9px;font-family:Helvetica;-inkscape-font-specification:Helvetica;writing-mode:lr-tb;fill:#4d4d4d;fill-opacity:1;fill-rule:nonzero;stroke:none"
         transform="matrix(1,0,0,-1,111.86,20.52)"><tspan
           id="tspan286"
           y="0"
           x="0 5.0040002 10.008 15.012">2012</tspan></text>
<text
         id="text292"
         style="font-variant:normal;font-weight:normal;font-size:9px;font-family:Helvetica;-inkscape-font-specification:Helvetica;writing-mode:lr-tb;fill:#4d4d4d;fill-opacity:1;fill-rule:nonzero;stroke:none"
         transform="matrix(1,0,0,-1,143.09,20.52)"><tspan
           id="tspan290"
           y="0"
           x="0 5.0040002 10.008 15.012">2013</tspan></text>
<text
         id="text296"
         style="font-variant:normal;font-weight:normal;font-size:9px;font-family:Helvetica;-inkscape-font-specification:Helvetica;writing-mode:lr-tb;fill:#4d4d4d;fill-opacity:1;fill-rule:nonzero;stroke:none"
         transform="matrix(1,0,0,-1,174.32,20.52)"><tspan
           id="tspan294"
           y="0"
           x="0 5.0040002 10.008 15.012">2014</tspan></text>
<text
         id="text300"
         style="font-variant:normal;font-weight:normal;font-size:9px;font-family:Helvetica;-inkscape-font-specification:Helvetica;writing-mode:lr-tb;fill:#4d4d4d;fill-opacity:1;fill-rule:nonzero;stroke:none"
         transform="matrix(1,0,0,-1,205.54,20.52)"><tspan
           id="tspan298"
           y="0"
           x="0 5.0040002 10.008 15.012">2015</tspan></text>
<text
         id="text304"
         style="font-variant:normal;font-weight:normal;font-size:9px;font-family:Helvetica;-inkscape-font-specification:Helvetica;writing-mode:lr-tb;fill:#4d4d4d;fill-opacity:1;fill-rule:nonzero;stroke:none"
         transform="matrix(1,0,0,-1,236.77,20.52)"><tspan
           id="tspan302"
           y="0"
           x="0 5.0040002 10.008 15.012">2016</tspan></text>
<text
         id="text308"
         style="font-variant:normal;font-weight:normal;font-size:9px;font-family:Helvetica;-inkscape-font-specification:Helvetica;writing-mode:lr-tb;fill:#4d4d4d;fill-opacity:1;fill-rule:nonzero;stroke:none"
         transform="matrix(1,0,0,-1,268,20.52)"><tspan
           id="tspan306"
           y="0"
           x="0 5.0040002 10.008 15.012">2017</tspan></text>
<text
         id="text312"
         style="font-variant:normal;font-weight:normal;font-size:9px;font-family:Helvetica;-inkscape-font-specification:Helvetica;writing-mode:lr-tb;fill:#4d4d4d;fill-opacity:1;fill-rule:nonzero;stroke:none"
         transform="matrix(1,0,0,-1,299.23,20.52)"><tspan
           id="tspan310"
           y="0"
           x="0 5.0040002 10.008 15.012">2018</tspan></text>
<text
         id="text316"
         style="font-variant:normal;font-weight:normal;font-size:9px;font-family:Helvetica;-inkscape-font-specification:Helvetica;writing-mode:lr-tb;fill:#4d4d4d;fill-opacity:1;fill-rule:nonzero;stroke:none"
         transform="matrix(1,0,0,-1,330.46,20.52)"><tspan
           id="tspan314"
           y="0"
           x="0 5.0040002 10.008 15.012">2019</tspan></text>
</g><g
       id="g318" /><g
       id="g320" /><g
       id="g322" /><g
       id="g324" /><g
       id="g326" /><g
       id="g328" /><g
       id="g330" /><g
       id="g332"><text
         id="text336"
         style="font-variant:normal;font-weight:normal;font-size:11px;font-family:Helvetica;-inkscape-font-specification:Helvetica;writing-mode:lr-tb;fill:#000000;fill-opacity:1;fill-rule:nonzero;stroke:none"
         transform="matrix(1,0,0,-1,188.32,7.9)"><tspan
           id="tspan334"
           y="0"
           x="0 7.9419999 14.058 17.115999">Date</tspan></text>
</g><g
       id="g338" /><g
       id="g340" /><g
       id="g342"><text
         id="text346"
         style="font-variant:normal;font-weight:normal;font-size:11px;font-family:Helvetica;-inkscape-font-specification:Helvetica;writing-mode:lr-tb;fill:#000000;fill-opacity:1;fill-rule:nonzero;stroke:none"
         transform="matrix(0,1,1,0,13.38,54.09)"><tspan
           id="tspan344"
           y="0"
           x="0 7.3369999 11 16.785999 22.011 28.127001 34.243 37.300999 43.417 49.313 51.755001 57.870998 60.929001 68.871002 74.987 81.102997 85.206001 88.264 91.321999 99.264 101.706 107.206 113.322 119.438 124.938">Preventable Heart Disease</tspan></text>
<text
         id="text350"
         style="font-variant:normal;font-weight:normal;font-size:11px;font-family:Helvetica;-inkscape-font-specification:Helvetica;writing-mode:lr-tb;fill:#000000;fill-opacity:1;fill-rule:nonzero;stroke:none"
         transform="matrix(0,1,1,0,25.26,86.998)"><tspan
           id="tspan348"
           y="0"
           x="0 9.1630001 15.279 19.382 22.440001 28.556 30.997999 33.439999 36.498001 41.998001 45.056 52.998001 59.113998 62.172001">Mortality Rate</tspan></text>
</g><g
       id="g352" /><g
       id="g354" /><g
       id="g356" /><g
       id="g358" /><g
       id="g360" /><g
       id="g362" /><g
       id="g364" /><g
       id="g366" /><g
       id="g368"><path
         id="path370"
         style="fill:#ffffff;fill-opacity:1;fill-rule:nonzero;stroke:none"
         d="m 116.99,218.28 h 165.9 v 28.24 h -165.9 z" /></g><g
       id="g372" /><g
       id="g374" /><g
       id="g376" /><g
       id="g378" /><g
       id="g380" /><g
       id="g382" /><g
       id="g384" /><g
       id="g386"><path
         id="path388"
         style="fill:#ffffff;fill-opacity:1;fill-rule:nonzero;stroke:none"
         d="m 127.95,223.76 h 17.28 v 17.28 h -17.28 z" /></g><g
       id="g390" /><g
       id="g392"><path
         id="path394"
         style="fill:none;stroke:#f8766d;stroke-width:1.07000005;stroke-linecap:butt;stroke-linejoin:round;stroke-miterlimit:10;stroke-dasharray:none;stroke-opacity:1"
         d="M 129.68,232.4 H 143.5" /></g><g
       id="g396" /><g
       id="g398"><path
         id="path400"
         style="fill:none;stroke:#f8766d;stroke-width:0.70999998;stroke-linecap:round;stroke-linejoin:round;stroke-miterlimit:10;stroke-dasharray:none;stroke-opacity:1"
         d="m 135.17,232.4 c 0,0.78 0.64,1.42 1.42,1.42 0.78,0 1.42,-0.64 1.42,-1.42 0,-0.78 -0.64,-1.42 -1.42,-1.42 -0.78,0 -1.42,0.64 -1.42,1.42" /></g><g
       id="g402" /><g
       id="g404"><path
         id="path406"
         style="fill:#f8766d;fill-opacity:1;fill-rule:nonzero;stroke:#f8766d;stroke-width:0.70999998;stroke-linecap:round;stroke-linejoin:round;stroke-miterlimit:10;stroke-dasharray:none;stroke-opacity:1"
         d="m 135.17,232.4 c 0,0.78 0.64,1.42 1.42,1.42 0.78,0 1.42,-0.64 1.42,-1.42 0,-0.78 -0.64,-1.42 -1.42,-1.42 -0.78,0 -1.42,0.64 -1.42,1.42" /></g><g
       id="g408" /><g
       id="g410"><path
         id="path412"
         style="fill:none;stroke:#f8766d;stroke-width:1.07000005;stroke-linecap:butt;stroke-linejoin:round;stroke-miterlimit:10;stroke-dasharray:none;stroke-opacity:1"
         d="M 129.68,232.4 H 143.5" /></g><g
       id="g414" /><g
       id="g416"><path
         id="path418"
         style="fill:#ffffff;fill-opacity:1;fill-rule:nonzero;stroke:none"
         d="m 224.71,223.76 h 17.28 v 17.28 h -17.28 z" /></g><g
       id="g420" /><g
       id="g422"><path
         id="path424"
         style="fill:none;stroke:#00bfc4;stroke-width:1.07000005;stroke-linecap:butt;stroke-linejoin:round;stroke-miterlimit:10;stroke-dasharray:none;stroke-opacity:1"
         d="m 226.44,232.4 h 13.83" /></g><g
       id="g426" /><g
       id="g428"><path
         id="path430"
         style="fill:none;stroke:#00bfc4;stroke-width:0.70999998;stroke-linecap:round;stroke-linejoin:round;stroke-miterlimit:10;stroke-dasharray:none;stroke-opacity:1"
         d="m 231.93,232.4 c 0,0.78 0.64,1.42 1.42,1.42 0.79,0 1.43,-0.64 1.43,-1.42 0,-0.78 -0.64,-1.42 -1.43,-1.42 -0.78,0 -1.42,0.64 -1.42,1.42" /></g><g
       id="g432" /><g
       id="g434"><path
         id="path436"
         style="fill:#00bfc4;fill-opacity:1;fill-rule:nonzero;stroke:#00bfc4;stroke-width:0.70999998;stroke-linecap:round;stroke-linejoin:round;stroke-miterlimit:10;stroke-dasharray:none;stroke-opacity:1"
         d="m 231.93,232.4 c 0,0.78 0.64,1.42 1.42,1.42 0.79,0 1.43,-0.64 1.43,-1.42 0,-0.78 -0.64,-1.42 -1.43,-1.42 -0.78,0 -1.42,0.64 -1.42,1.42" /></g><g
       id="g438" /><g
       id="g440"><path
         id="path442"
         style="fill:none;stroke:#00bfc4;stroke-width:1.07000005;stroke-linecap:butt;stroke-linejoin:round;stroke-miterlimit:10;stroke-dasharray:none;stroke-opacity:1"
         d="m 226.44,232.4 h 13.83" /></g><g
       id="g444" /><g
       id="g446" /><g
       id="g448" /><g
       id="g450"><text
         id="text454"
         style="font-variant:normal;font-weight:normal;font-size:9px;font-family:Helvetica;-inkscape-font-specification:Helvetica;writing-mode:lr-tb;fill:#000000;fill-opacity:1;fill-rule:nonzero;stroke:none"
         transform="matrix(1,0,0,-1,150.71,229.17)"><tspan
           id="tspan452"
           y="0"
           x="0 6.0029998 10.503 15.507 18.009001 23.013 28.017 30.518999 32.516998 37.016998 39.519001 46.016998 51.021 56.025002 58.527 61.523998 66.528">Synthetic Control</tspan></text>
</g><g
       id="g456" /><g
       id="g458" /><g
       id="g460" /><g
       id="g462" /><g
       id="g464" /><g
       id="g466"><text
         id="text470"
         style="font-variant:normal;font-weight:normal;font-size:9px;font-family:Helvetica;-inkscape-font-specification:Helvetica;writing-mode:lr-tb;fill:#000000;fill-opacity:1;fill-rule:nonzero;stroke:none"
         transform="matrix(1,0,0,-1,247.47,229.17)"><tspan
           id="tspan468"
           y="0"
           x="0 4.4190001 7.4159999 12.42 17.424 19.926001 24.93">Treated</tspan></text>
</g><g
       id="g472" /><g
       id="g474" /><g
       id="g476" /><g
       id="g478" /><g
       id="g480" /><g
       id="g482" /><g
       id="g484" /><g
       id="g486" /><g
       id="g488" /><g
       id="g490" /><g
       id="g492" /><g
       id="g494" /><g
       id="g496" /><g
       id="g498" /><g
       id="g500" /><g
       id="g502" /></g></svg>