<?xml version="1.0" encoding="UTF-8" standalone="no"?>
<svg
   viewBox="0 0 480 336"
   height="336"
   width="480"
   xml:space="preserve"
   id="svg2"
   version="1.1"
   sodipodi:docname="SDIDResults2kansas vs coloradoBW.svg"
   inkscape:version="1.3.2 (091e20e, 2023-11-25, custom)"
   xmlns:inkscape="http://www.inkscape.org/namespaces/inkscape"
   xmlns:sodipodi="http://sodipodi.sourceforge.net/DTD/sodipodi-0.dtd"
   xmlns="http://www.w3.org/2000/svg"
   xmlns:svg="http://www.w3.org/2000/svg"
   xmlns:rdf="http://www.w3.org/1999/02/22-rdf-syntax-ns#"
   xmlns:cc="http://creativecommons.org/ns#"
   xmlns:dc="http://purl.org/dc/elements/1.1/"><sodipodi:namedview
     pagecolor="#ffffff"
     bordercolor="#666666"
     borderopacity="1"
     objecttolerance="10"
     gridtolerance="10"
     guidetolerance="10"
     inkscape:pageopacity="0"
     inkscape:pageshadow="2"
     inkscape:window-width="1920"
     inkscape:window-height="986"
     id="namedview8329"
     showgrid="false"
     inkscape:zoom="1.9866333"
     inkscape:cx="94.380778"
     inkscape:cy="185.99305"
     inkscape:window-x="-11"
     inkscape:window-y="-11"
     inkscape:window-maximized="1"
     inkscape:current-layer="g326"
     inkscape:showpageshadow="2"
     inkscape:pagecheckerboard="0"
     inkscape:deskcolor="#d1d1d1" /><metadata
     id="metadata8"><rdf:RDF><cc:Work
         rdf:about=""><dc:format>image/svg+xml</dc:format><dc:type
           rdf:resource="http://purl.org/dc/dcmitype/StillImage" /><dc:title /></cc:Work></rdf:RDF></metadata><defs
     id="defs6"><clipPath
       id="clipPath56"
       clipPathUnits="userSpaceOnUse"><path
         id="path54"
         d="M 45.36,31.91 H 354.52 V 207.32 H 45.36 Z" /></clipPath><filter
       style="color-interpolation-filters:sRGB;"
       inkscape:label="Greyscale"
       id="filter8876"
       x="-0.0014861112"
       y="-0.002123016"
       width="1.0029722"
       height="1.004246"><feColorMatrix
         values="0 0 1 0 0 0 0 1 0 0 0 0 1 0 0 0 0 0 1 0 "
         id="feColorMatrix8874" /></filter></defs><g
     transform="matrix(1.3333333,0,0,-1.3333333,0,336)"
     id="g10"
     style="filter:url(#filter8876)"><g
       id="g12" /><g
       id="g14" /><g
       id="g16" /><g
       id="g18" /><g
       id="g20" /><g
       id="g22" /><g
       id="g24" /><g
       id="g26" /><g
       id="g28" /><g
       id="g30" /><g
       id="g32" /><g
       id="g34" /><g
       id="g36" /><g
       id="g38" /><g
       id="g40" /><g
       id="g42" /><g
       id="g44"><path
         id="path46"
         style="fill:#ffffff;fill-opacity:1;fill-rule:nonzero;stroke:#ffffff;stroke-width:1.07000005;stroke-linecap:round;stroke-linejoin:round;stroke-miterlimit:10;stroke-dasharray:none;stroke-opacity:1"
         d="M 0,0 H 360 V 252 H 0 Z"
         inkscape:connector-curvature="0" /></g><g
       id="g48" /><g
       id="g50"><g
         clip-path="url(#clipPath56)"
         id="g52"><path
           id="path58"
           style="fill:#ffffff;fill-opacity:1;fill-rule:nonzero;stroke:none"
           d="M 45.36,31.91 H 354.52 V 207.32 H 45.36 Z"
           inkscape:connector-curvature="0" /><path
           id="path60"
           style="fill:none;stroke:#dedede;stroke-width:0.27000001;stroke-linecap:butt;stroke-linejoin:round;stroke-miterlimit:10;stroke-dasharray:none;stroke-opacity:1"
           d="M 45.36,56.46 H 354.52"
           inkscape:connector-curvature="0" /><path
           id="path62"
           style="fill:none;stroke:#dedede;stroke-width:0.27000001;stroke-linecap:butt;stroke-linejoin:round;stroke-miterlimit:10;stroke-dasharray:none;stroke-opacity:1"
           d="M 45.36,105.78 H 354.52"
           inkscape:connector-curvature="0" /><path
           id="path64"
           style="fill:none;stroke:#dedede;stroke-width:0.27000001;stroke-linecap:butt;stroke-linejoin:round;stroke-miterlimit:10;stroke-dasharray:none;stroke-opacity:1"
           d="M 45.36,155.09 H 354.52"
           inkscape:connector-curvature="0" /><path
           id="path66"
           style="fill:none;stroke:#dedede;stroke-width:0.27000001;stroke-linecap:butt;stroke-linejoin:round;stroke-miterlimit:10;stroke-dasharray:none;stroke-opacity:1"
           d="M 45.36,204.41 H 354.52"
           inkscape:connector-curvature="0" /><path
           id="path68"
           style="fill:none;stroke:#dedede;stroke-width:0.27000001;stroke-linecap:butt;stroke-linejoin:round;stroke-miterlimit:10;stroke-dasharray:none;stroke-opacity:1"
           d="M 75.02,31.91 V 207.32"
           inkscape:connector-curvature="0" /><path
           id="path70"
           style="fill:none;stroke:#dedede;stroke-width:0.27000001;stroke-linecap:butt;stroke-linejoin:round;stroke-miterlimit:10;stroke-dasharray:none;stroke-opacity:1"
           d="M 106.25,31.91 V 207.32"
           inkscape:connector-curvature="0" /><path
           id="path72"
           style="fill:none;stroke:#dedede;stroke-width:0.27000001;stroke-linecap:butt;stroke-linejoin:round;stroke-miterlimit:10;stroke-dasharray:none;stroke-opacity:1"
           d="M 137.48,31.91 V 207.32"
           inkscape:connector-curvature="0" /><path
           id="path74"
           style="fill:none;stroke:#dedede;stroke-width:0.27000001;stroke-linecap:butt;stroke-linejoin:round;stroke-miterlimit:10;stroke-dasharray:none;stroke-opacity:1"
           d="M 168.71,31.91 V 207.32"
           inkscape:connector-curvature="0" /><path
           id="path76"
           style="fill:none;stroke:#dedede;stroke-width:0.27000001;stroke-linecap:butt;stroke-linejoin:round;stroke-miterlimit:10;stroke-dasharray:none;stroke-opacity:1"
           d="M 199.94,31.91 V 207.32"
           inkscape:connector-curvature="0" /><path
           id="path78"
           style="fill:none;stroke:#dedede;stroke-width:0.27000001;stroke-linecap:butt;stroke-linejoin:round;stroke-miterlimit:10;stroke-dasharray:none;stroke-opacity:1"
           d="M 231.17,31.91 V 207.32"
           inkscape:connector-curvature="0" /><path
           id="path80"
           style="fill:none;stroke:#dedede;stroke-width:0.27000001;stroke-linecap:butt;stroke-linejoin:round;stroke-miterlimit:10;stroke-dasharray:none;stroke-opacity:1"
           d="M 262.4,31.91 V 207.32"
           inkscape:connector-curvature="0" /><path
           id="path82"
           style="fill:none;stroke:#dedede;stroke-width:0.27000001;stroke-linecap:butt;stroke-linejoin:round;stroke-miterlimit:10;stroke-dasharray:none;stroke-opacity:1"
           d="M 293.62,31.91 V 207.32"
           inkscape:connector-curvature="0" /><path
           id="path84"
           style="fill:none;stroke:#dedede;stroke-width:0.27000001;stroke-linecap:butt;stroke-linejoin:round;stroke-miterlimit:10;stroke-dasharray:none;stroke-opacity:1"
           d="M 324.85,31.91 V 207.32"
           inkscape:connector-curvature="0" /><path
           id="path86"
           style="fill:none;stroke:#dedede;stroke-width:0.52999997;stroke-linecap:butt;stroke-linejoin:round;stroke-miterlimit:10;stroke-dasharray:none;stroke-opacity:1"
           d="M 45.36,81.12 H 354.52"
           inkscape:connector-curvature="0" /><path
           id="path88"
           style="fill:none;stroke:#dedede;stroke-width:0.52999997;stroke-linecap:butt;stroke-linejoin:round;stroke-miterlimit:10;stroke-dasharray:none;stroke-opacity:1"
           d="M 45.36,130.44 H 354.52"
           inkscape:connector-curvature="0" /><path
           id="path90"
           style="fill:none;stroke:#dedede;stroke-width:0.52999997;stroke-linecap:butt;stroke-linejoin:round;stroke-miterlimit:10;stroke-dasharray:none;stroke-opacity:1"
           d="M 45.36,179.75 H 354.52"
           inkscape:connector-curvature="0" /><path
           id="path92"
           style="fill:none;stroke:#dedede;stroke-width:0.52999997;stroke-linecap:butt;stroke-linejoin:round;stroke-miterlimit:10;stroke-dasharray:none;stroke-opacity:1"
           d="M 59.41,31.91 V 207.32"
           inkscape:connector-curvature="0" /><path
           id="path94"
           style="fill:none;stroke:#dedede;stroke-width:0.52999997;stroke-linecap:butt;stroke-linejoin:round;stroke-miterlimit:10;stroke-dasharray:none;stroke-opacity:1"
           d="M 90.64,31.91 V 207.32"
           inkscape:connector-curvature="0" /><path
           id="path96"
           style="fill:none;stroke:#dedede;stroke-width:0.52999997;stroke-linecap:butt;stroke-linejoin:round;stroke-miterlimit:10;stroke-dasharray:none;stroke-opacity:1"
           d="M 121.87,31.91 V 207.32"
           inkscape:connector-curvature="0" /><path
           id="path98"
           style="fill:none;stroke:#dedede;stroke-width:0.52999997;stroke-linecap:butt;stroke-linejoin:round;stroke-miterlimit:10;stroke-dasharray:none;stroke-opacity:1"
           d="M 153.1,31.91 V 207.32"
           inkscape:connector-curvature="0" /><path
           id="path100"
           style="fill:none;stroke:#dedede;stroke-width:0.52999997;stroke-linecap:butt;stroke-linejoin:round;stroke-miterlimit:10;stroke-dasharray:none;stroke-opacity:1"
           d="M 184.32,31.91 V 207.32"
           inkscape:connector-curvature="0" /><path
           id="path102"
           style="fill:none;stroke:#dedede;stroke-width:0.52999997;stroke-linecap:butt;stroke-linejoin:round;stroke-miterlimit:10;stroke-dasharray:none;stroke-opacity:1"
           d="M 215.55,31.91 V 207.32"
           inkscape:connector-curvature="0" /><path
           id="path104"
           style="fill:none;stroke:#dedede;stroke-width:0.52999997;stroke-linecap:butt;stroke-linejoin:round;stroke-miterlimit:10;stroke-dasharray:none;stroke-opacity:1"
           d="M 246.78,31.91 V 207.32"
           inkscape:connector-curvature="0" /><path
           id="path106"
           style="fill:none;stroke:#dedede;stroke-width:0.52999997;stroke-linecap:butt;stroke-linejoin:round;stroke-miterlimit:10;stroke-dasharray:none;stroke-opacity:1"
           d="M 278.01,31.91 V 207.32"
           inkscape:connector-curvature="0" /><path
           id="path108"
           style="fill:none;stroke:#dedede;stroke-width:0.52999997;stroke-linecap:butt;stroke-linejoin:round;stroke-miterlimit:10;stroke-dasharray:none;stroke-opacity:1"
           d="M 309.24,31.91 V 207.32"
           inkscape:connector-curvature="0" /><path
           id="path110"
           style="fill:none;stroke:#dedede;stroke-width:0.52999997;stroke-linecap:butt;stroke-linejoin:round;stroke-miterlimit:10;stroke-dasharray:none;stroke-opacity:1"
           d="M 340.47,31.91 V 207.32"
           inkscape:connector-curvature="0" /><path
           id="path112"
           style="fill:none;stroke:#f8766d;stroke-width:1.07000005;stroke-linecap:butt;stroke-linejoin:round;stroke-miterlimit:10;stroke-dasharray:none;stroke-opacity:0.37600002"
           d="m 59.41,152.61 31.23,-8.82 31.23,-3.48 31.23,-3.33 31.22,7.08 31.23,4.31 31.23,19.04 31.23,7.7 31.23,16.36 31.23,7.88"
           inkscape:connector-curvature="0" /><path
           id="path114"
           style="fill:none;stroke:#00bfc4;stroke-width:1.07000005;stroke-linecap:butt;stroke-linejoin:round;stroke-miterlimit:10;stroke-dasharray:none;stroke-opacity:0.37600002"
           d="m 59.41,100.9 31.23,-9.26 31.23,-2.84 31.23,-5.45 31.22,-3.6 31.23,8.31 31.23,6.41 31.23,1.69 31.23,-6.34 31.23,2.81"
           inkscape:connector-curvature="0" /><path
           id="path116"
           style="fill:none;stroke:#00bfc4;stroke-width:0.70999998;stroke-linecap:round;stroke-linejoin:round;stroke-miterlimit:10;stroke-dasharray:none;stroke-opacity:1"
           d="m 260.97,90.15 c 0,0.78 0.64,1.42 1.43,1.42 0.78,0 1.42,-0.64 1.42,-1.42 0,-0.78 -0.64,-1.42 -1.42,-1.42 -0.79,0 -1.43,0.64 -1.43,1.42"
           inkscape:connector-curvature="0" /><path
           id="path118"
           style="fill:none;stroke:#f8766d;stroke-width:0.70999998;stroke-linecap:round;stroke-linejoin:round;stroke-miterlimit:10;stroke-dasharray:none;stroke-opacity:1"
           d="m 260.97,118.09 c 0,0.78 0.64,1.42 1.43,1.42 0.78,0 1.42,-0.64 1.42,-1.42 0,-0.78 -0.64,-1.42 -1.42,-1.42 -0.79,0 -1.43,0.64 -1.43,1.42"
           inkscape:connector-curvature="0" /><path
           id="path120"
           style="fill:#00bfc4;fill-opacity:1;fill-rule:nonzero;stroke:#00bfc4;stroke-width:0.70999998;stroke-linecap:round;stroke-linejoin:round;stroke-miterlimit:10;stroke-dasharray:none;stroke-opacity:1"
           d="m 115.65,89.85 c 0,0.78 0.64,1.42 1.42,1.42 0.78,0 1.42,-0.64 1.42,-1.42 0,-0.78 -0.64,-1.42 -1.42,-1.42 -0.78,0 -1.42,0.64 -1.42,1.42"
           inkscape:connector-curvature="0" /><path
           id="path122"
           style="fill:#f8766d;fill-opacity:1;fill-rule:nonzero;stroke:#f8766d;stroke-width:0.70999998;stroke-linecap:round;stroke-linejoin:round;stroke-miterlimit:10;stroke-dasharray:none;stroke-opacity:1"
           d="m 115.65,142.72 c 0,0.79 0.64,1.42 1.42,1.42 0.78,0 1.42,-0.63 1.42,-1.42 0,-0.78 -0.64,-1.42 -1.42,-1.42 -0.78,0 -1.42,0.64 -1.42,1.42"
           inkscape:connector-curvature="0" /><path
           id="path124"
           style="fill:#f8766d;fill-opacity:1;fill-rule:nonzero;stroke:#f8766d;stroke-width:0.70999998;stroke-linecap:round;stroke-linejoin:round;stroke-miterlimit:10;stroke-dasharray:none;stroke-opacity:1"
           d="m 260.97,170.96 c 0,0.79 0.64,1.42 1.43,1.42 0.78,0 1.42,-0.63 1.42,-1.42 0,-0.78 -0.64,-1.42 -1.42,-1.42 -0.79,0 -1.43,0.64 -1.43,1.42"
           inkscape:connector-curvature="0" /><path
           id="path126"
           style="fill:#00bfc4;fill-opacity:1;fill-rule:nonzero;stroke:#00bfc4;stroke-width:0.70999998;stroke-linecap:round;stroke-linejoin:round;stroke-miterlimit:10;stroke-dasharray:none;stroke-opacity:1"
           d="m 260.97,90.15 c 0,0.78 0.64,1.42 1.43,1.42 0.78,0 1.42,-0.64 1.42,-1.42 0,-0.78 -0.64,-1.42 -1.42,-1.42 -0.79,0 -1.43,0.64 -1.43,1.42"
           inkscape:connector-curvature="0" /><path
           id="path128"
           style="fill:none;stroke:#f8766d;stroke-width:1.07000005;stroke-linecap:butt;stroke-linejoin:round;stroke-miterlimit:10;stroke-dasharray:none;stroke-opacity:1"
           d="M 117.07,142.72 262.4,170.96"
           inkscape:connector-curvature="0" /><path
           id="path130"
           style="fill:none;stroke:#00bfc4;stroke-width:1.07000005;stroke-linecap:butt;stroke-linejoin:round;stroke-miterlimit:10;stroke-dasharray:none;stroke-opacity:1"
           d="m 117.07,89.85 145.33,0.3"
           inkscape:connector-curvature="0" /><path
           id="path132"
           style="fill:none;stroke:#000000;stroke-width:1.07000005;stroke-linecap:butt;stroke-linejoin:round;stroke-miterlimit:10;stroke-dasharray:4.27, 4.27;stroke-dashoffset:0;stroke-opacity:0.475"
           d="M 117.07,89.85 262.4,118.09"
           inkscape:connector-curvature="0" /><path
           id="path134"
           style="fill:none;stroke:#000000;stroke-width:1.07000005;stroke-linecap:butt;stroke-linejoin:round;stroke-miterlimit:10;stroke-dasharray:4.27, 4.27;stroke-dashoffset:0;stroke-opacity:0.34100001"
           d="M 117.07,142.72 V 89.85"
           inkscape:connector-curvature="0" /><path
           id="path136"
           style="fill:none;stroke:#000000;stroke-width:1.07000005;stroke-linecap:butt;stroke-linejoin:round;stroke-miterlimit:10;stroke-dasharray:4.27, 4.27;stroke-dashoffset:0;stroke-opacity:0.34100001"
           d="M 262.4,170.96 V 118.09"
           inkscape:connector-curvature="0" /><path
           id="path138"
           style="fill:none;stroke:#000000;stroke-width:1.07000005;stroke-linecap:butt;stroke-linejoin:round;stroke-miterlimit:10;stroke-dasharray:none;stroke-opacity:0.10199998"
           d="M 153.1,31.91 V 207.32"
           inkscape:connector-curvature="0" /><path
           id="path140"
           style="fill:#f8766d;fill-opacity:0.34100001;fill-rule:nonzero;stroke:none"
           d="m 59.41,62.52 31.23,-17.7 31.23,-4.94 31.23,39.87 V 39.88 H 121.87 90.64 59.41 Z"
           inkscape:connector-curvature="0" /><path
           id="path142"
           style="fill:none;stroke:#000000;stroke-width:1.07000005;stroke-linecap:butt;stroke-linejoin:round;stroke-miterlimit:10;stroke-dasharray:none;stroke-opacity:1"
           d="m 59.41,62.52 31.23,-17.7 31.23,-4.94 31.23,39.87"
           inkscape:connector-curvature="0" /><path
           id="path144"
           style="fill:none;stroke:#000000;stroke-width:1.07000005;stroke-linecap:butt;stroke-linejoin:round;stroke-miterlimit:10;stroke-dasharray:none;stroke-opacity:1"
           d="M 153.1,39.88 H 121.87 90.64 59.41"
           inkscape:connector-curvature="0" /><path
           id="path146"
           style="fill:none;stroke:#000000;stroke-width:1.07000005;stroke-linecap:butt;stroke-linejoin:round;stroke-miterlimit:10;stroke-dasharray:none;stroke-opacity:1"
           d="m 262.4,118.09 -0.12,-0.21 -0.49,-0.95 -0.63,-1.19 -0.53,-1.06 -0.44,-0.98 -0.37,-0.99 -0.3,-0.91 -0.26,-0.85 -0.25,-0.93 -0.23,-1.02 -0.17,-1.04 -0.12,-0.95 -0.09,-0.88 -0.07,-0.96 -0.02,-1.05 0.02,-1.05 0.07,-0.96 0.09,-0.88 0.12,-0.96 0.17,-1.03 0.23,-1.03 0.25,-0.93 0.26,-0.84 0.3,-0.92 0.37,-0.98 0.44,-0.98 0.53,-1.06 0.63,-1.2 0.49,-0.94 0.12,-0.21"
           inkscape:connector-curvature="0" /><path
           id="path148"
           style="fill:none;stroke:#000000;stroke-width:1.07000005;stroke-linecap:butt;stroke-linejoin:round;stroke-miterlimit:10;stroke-dasharray:none;stroke-opacity:1"
           d="m 257.6,93.17 4.8,-3.02 0.21,5.66"
           inkscape:connector-curvature="0" /><path
           id="path150"
           style="fill:none;stroke:#000000;stroke-width:1.07000005;stroke-linecap:butt;stroke-linejoin:round;stroke-miterlimit:10;stroke-dasharray:none;stroke-opacity:0.10199998"
           d="m 262.4,125.71 -0.14,-0.26 -0.61,-1.15 -0.79,-1.5 -0.67,-1.33 -0.55,-1.22 -0.05,-0.13 -0.47,-1.23 -0.37,-1.15 -0.32,-1.05 -0.32,-1.15 -0.29,-1.27 -0.02,-0.13 -0.22,-1.3 -0.15,-1.19 -0.11,-1.1 -0.09,-1.18 -0.04,-1.31 v -0.13 l 0.03,-1.32 0.09,-1.2 0.1,-1.09 0.15,-1.19 0.21,-1.28 0.03,-0.13 0.28,-1.29 0.32,-1.16 0.31,-1.05 0.37,-1.14 0.46,-1.22 0.05,-0.12 0.54,-1.23 0.66,-1.31 0.78,-1.49 0.65,-1.23 0.18,-0.33 v 0"
           inkscape:connector-curvature="0" /><path
           id="path152"
           style="fill:none;stroke:#000000;stroke-width:1.07000005;stroke-linecap:butt;stroke-linejoin:round;stroke-miterlimit:10;stroke-dasharray:none;stroke-opacity:0.10199998"
           d="m 257.6,93.17 4.8,-3.02 0.21,5.66"
           inkscape:connector-curvature="0" /><path
           id="path154"
           style="fill:none;stroke:#000000;stroke-width:1.07000005;stroke-linecap:butt;stroke-linejoin:round;stroke-miterlimit:10;stroke-dasharray:none;stroke-opacity:0.10199998"
           d="m 262.4,110.47 -0.09,-0.16 -0.36,-0.68 -0.46,-0.87 -0.38,-0.77 -0.32,-0.72 -0.27,-0.71 -0.22,-0.67 -0.18,-0.61 -0.19,-0.68 -0.16,-0.74 -0.13,-0.76 -0.09,-0.69 -0.06,-0.64 -0.05,-0.7 -0.02,-0.76 0.02,-0.77 0.05,-0.69 0.06,-0.64 0.09,-0.7 0.13,-0.75 0.16,-0.75 0.19,-0.67 0.18,-0.62 0.22,-0.66 0.27,-0.72 0.32,-0.71 0.38,-0.77 0.46,-0.87 0.36,-0.69 0.09,-0.15"
           inkscape:connector-curvature="0" /><path
           id="path156"
           style="fill:none;stroke:#000000;stroke-width:1.07000005;stroke-linecap:butt;stroke-linejoin:round;stroke-miterlimit:10;stroke-dasharray:none;stroke-opacity:0.10199998"
           d="m 257.6,93.17 4.8,-3.02 0.21,5.66"
           inkscape:connector-curvature="0" /><path
           id="path158"
           style="fill:none;stroke:#b3b3b3;stroke-width:1.07000005;stroke-linecap:round;stroke-linejoin:round;stroke-miterlimit:10;stroke-dasharray:none;stroke-opacity:1"
           d="M 45.36,31.91 H 354.52 V 207.32 H 45.36 Z"
           inkscape:connector-curvature="0" /></g></g><g
       id="g160" /><g
       id="g162" /><g
       id="g164" /><g
       id="g166" /><g
       id="g168" /><g
       id="g170" /><g
       id="g172" /><g
       id="g174" /><g
       id="g176" /><g
       id="g178" /><g
       id="g180" /><g
       id="g182" /><g
       id="g184" /><g
       id="g186" /><g
       id="g188" /><g
       id="g190"><text
   id="text194"
   style="font-variant:normal;font-weight:normal;font-size:9px;font-family:Helvetica;-inkscape-font-specification:Helvetica;writing-mode:lr-tb;fill:#4d4d4d;fill-opacity:1;fill-rule:nonzero;stroke:none"
   transform="matrix(1,0,0,-1,30.42,77.89)"><tspan
     id="tspan192"
     y="0"
     x="0 5.0040002">40</tspan></text>

<text
   id="text198"
   style="font-variant:normal;font-weight:normal;font-size:9px;font-family:Helvetica;-inkscape-font-specification:Helvetica;writing-mode:lr-tb;fill:#4d4d4d;fill-opacity:1;fill-rule:nonzero;stroke:none"
   transform="matrix(1,0,0,-1,30.42,127.21)"><tspan
     id="tspan196"
     y="0"
     x="0 5.0040002">50</tspan></text>

<text
   id="text202"
   style="font-variant:normal;font-weight:normal;font-size:9px;font-family:Helvetica;-inkscape-font-specification:Helvetica;writing-mode:lr-tb;fill:#4d4d4d;fill-opacity:1;fill-rule:nonzero;stroke:none"
   transform="matrix(1,0,0,-1,30.42,176.52)"><tspan
     id="tspan200"
     y="0"
     x="0 5.0040002">60</tspan></text>

</g><g
       id="g204" /><g
       id="g206" /><g
       id="g208"><path
         id="path210"
         style="fill:none;stroke:#b3b3b3;stroke-width:0.52999997;stroke-linecap:butt;stroke-linejoin:round;stroke-miterlimit:10;stroke-dasharray:none;stroke-opacity:1"
         d="m 42.62,81.12 h 2.74"
         inkscape:connector-curvature="0" /><path
         id="path212"
         style="fill:none;stroke:#b3b3b3;stroke-width:0.52999997;stroke-linecap:butt;stroke-linejoin:round;stroke-miterlimit:10;stroke-dasharray:none;stroke-opacity:1"
         d="m 42.62,130.44 h 2.74"
         inkscape:connector-curvature="0" /><path
         id="path214"
         style="fill:none;stroke:#b3b3b3;stroke-width:0.52999997;stroke-linecap:butt;stroke-linejoin:round;stroke-miterlimit:10;stroke-dasharray:none;stroke-opacity:1"
         d="m 42.62,179.75 h 2.74"
         inkscape:connector-curvature="0" /></g><g
       id="g216" /><g
       id="g218" /><g
       id="g220" /><g
       id="g222" /><g
       id="g224" /><g
       id="g226" /><g
       id="g228" /><g
       id="g230" /><g
       id="g232" /><g
       id="g234" /><g
       id="g236"><path
         id="path238"
         style="fill:none;stroke:#b3b3b3;stroke-width:0.52999997;stroke-linecap:butt;stroke-linejoin:round;stroke-miterlimit:10;stroke-dasharray:none;stroke-opacity:1"
         d="m 59.41,29.17 v 2.74"
         inkscape:connector-curvature="0" /><path
         id="path240"
         style="fill:none;stroke:#b3b3b3;stroke-width:0.52999997;stroke-linecap:butt;stroke-linejoin:round;stroke-miterlimit:10;stroke-dasharray:none;stroke-opacity:1"
         d="m 90.64,29.17 v 2.74"
         inkscape:connector-curvature="0" /><path
         id="path242"
         style="fill:none;stroke:#b3b3b3;stroke-width:0.52999997;stroke-linecap:butt;stroke-linejoin:round;stroke-miterlimit:10;stroke-dasharray:none;stroke-opacity:1"
         d="m 121.87,29.17 v 2.74"
         inkscape:connector-curvature="0" /><path
         id="path244"
         style="fill:none;stroke:#b3b3b3;stroke-width:0.52999997;stroke-linecap:butt;stroke-linejoin:round;stroke-miterlimit:10;stroke-dasharray:none;stroke-opacity:1"
         d="m 153.1,29.17 v 2.74"
         inkscape:connector-curvature="0" /><path
         id="path246"
         style="fill:none;stroke:#b3b3b3;stroke-width:0.52999997;stroke-linecap:butt;stroke-linejoin:round;stroke-miterlimit:10;stroke-dasharray:none;stroke-opacity:1"
         d="m 184.32,29.17 v 2.74"
         inkscape:connector-curvature="0" /><path
         id="path248"
         style="fill:none;stroke:#b3b3b3;stroke-width:0.52999997;stroke-linecap:butt;stroke-linejoin:round;stroke-miterlimit:10;stroke-dasharray:none;stroke-opacity:1"
         d="m 215.55,29.17 v 2.74"
         inkscape:connector-curvature="0" /><path
         id="path250"
         style="fill:none;stroke:#b3b3b3;stroke-width:0.52999997;stroke-linecap:butt;stroke-linejoin:round;stroke-miterlimit:10;stroke-dasharray:none;stroke-opacity:1"
         d="m 246.78,29.17 v 2.74"
         inkscape:connector-curvature="0" /><path
         id="path252"
         style="fill:none;stroke:#b3b3b3;stroke-width:0.52999997;stroke-linecap:butt;stroke-linejoin:round;stroke-miterlimit:10;stroke-dasharray:none;stroke-opacity:1"
         d="m 278.01,29.17 v 2.74"
         inkscape:connector-curvature="0" /><path
         id="path254"
         style="fill:none;stroke:#b3b3b3;stroke-width:0.52999997;stroke-linecap:butt;stroke-linejoin:round;stroke-miterlimit:10;stroke-dasharray:none;stroke-opacity:1"
         d="m 309.24,29.17 v 2.74"
         inkscape:connector-curvature="0" /><path
         id="path256"
         style="fill:none;stroke:#b3b3b3;stroke-width:0.52999997;stroke-linecap:butt;stroke-linejoin:round;stroke-miterlimit:10;stroke-dasharray:none;stroke-opacity:1"
         d="m 340.47,29.17 v 2.74"
         inkscape:connector-curvature="0" /></g><g
       id="g258" /><g
       id="g260"><text
   id="text264"
   style="font-variant:normal;font-weight:normal;font-size:9px;font-family:Helvetica;-inkscape-font-specification:Helvetica;writing-mode:lr-tb;fill:#4d4d4d;fill-opacity:1;fill-rule:nonzero;stroke:none"
   transform="matrix(1,0,0,-1,49.4,20.52)"><tspan
     id="tspan262"
     y="0"
     x="0 5.0040002 10.008 15.012">2010</tspan></text>

<text
   id="text268"
   style="font-variant:normal;font-weight:normal;font-size:9px;font-family:Helvetica;-inkscape-font-specification:Helvetica;writing-mode:lr-tb;fill:#4d4d4d;fill-opacity:1;fill-rule:nonzero;stroke:none"
   transform="matrix(1,0,0,-1,80.63,20.52)"><tspan
     id="tspan266"
     y="0"
     x="0 5.0040002 10.008 15.012">2011</tspan></text>

<text
   id="text272"
   style="font-variant:normal;font-weight:normal;font-size:9px;font-family:Helvetica;-inkscape-font-specification:Helvetica;writing-mode:lr-tb;fill:#4d4d4d;fill-opacity:1;fill-rule:nonzero;stroke:none"
   transform="matrix(1,0,0,-1,111.86,20.52)"><tspan
     id="tspan270"
     y="0"
     x="0 5.0040002 10.008 15.012">2012</tspan></text>

<text
   id="text276"
   style="font-variant:normal;font-weight:normal;font-size:9px;font-family:Helvetica;-inkscape-font-specification:Helvetica;writing-mode:lr-tb;fill:#4d4d4d;fill-opacity:1;fill-rule:nonzero;stroke:none"
   transform="matrix(1,0,0,-1,143.09,20.52)"><tspan
     id="tspan274"
     y="0"
     x="0 5.0040002 10.008 15.012">2013</tspan></text>

<text
   id="text280"
   style="font-variant:normal;font-weight:normal;font-size:9px;font-family:Helvetica;-inkscape-font-specification:Helvetica;writing-mode:lr-tb;fill:#4d4d4d;fill-opacity:1;fill-rule:nonzero;stroke:none"
   transform="matrix(1,0,0,-1,174.32,20.52)"><tspan
     id="tspan278"
     y="0"
     x="0 5.0040002 10.008 15.012">2014</tspan></text>

<text
   id="text284"
   style="font-variant:normal;font-weight:normal;font-size:9px;font-family:Helvetica;-inkscape-font-specification:Helvetica;writing-mode:lr-tb;fill:#4d4d4d;fill-opacity:1;fill-rule:nonzero;stroke:none"
   transform="matrix(1,0,0,-1,205.54,20.52)"><tspan
     id="tspan282"
     y="0"
     x="0 5.0040002 10.008 15.012">2015</tspan></text>

<text
   id="text288"
   style="font-variant:normal;font-weight:normal;font-size:9px;font-family:Helvetica;-inkscape-font-specification:Helvetica;writing-mode:lr-tb;fill:#4d4d4d;fill-opacity:1;fill-rule:nonzero;stroke:none"
   transform="matrix(1,0,0,-1,236.77,20.52)"><tspan
     id="tspan286"
     y="0"
     x="0 5.0040002 10.008 15.012">2016</tspan></text>

<text
   id="text292"
   style="font-variant:normal;font-weight:normal;font-size:9px;font-family:Helvetica;-inkscape-font-specification:Helvetica;writing-mode:lr-tb;fill:#4d4d4d;fill-opacity:1;fill-rule:nonzero;stroke:none"
   transform="matrix(1,0,0,-1,268,20.52)"><tspan
     id="tspan290"
     y="0"
     x="0 5.0040002 10.008 15.012">2017</tspan></text>

<text
   id="text296"
   style="font-variant:normal;font-weight:normal;font-size:9px;font-family:Helvetica;-inkscape-font-specification:Helvetica;writing-mode:lr-tb;fill:#4d4d4d;fill-opacity:1;fill-rule:nonzero;stroke:none"
   transform="matrix(1,0,0,-1,299.23,20.52)"><tspan
     id="tspan294"
     y="0"
     x="0 5.0040002 10.008 15.012">2018</tspan></text>

<text
   id="text300"
   style="font-variant:normal;font-weight:normal;font-size:9px;font-family:Helvetica;-inkscape-font-specification:Helvetica;writing-mode:lr-tb;fill:#4d4d4d;fill-opacity:1;fill-rule:nonzero;stroke:none"
   transform="matrix(1,0,0,-1,330.46,20.52)"><tspan
     id="tspan298"
     y="0"
     x="0 5.0040002 10.008 15.012">2019</tspan></text>

</g><g
       id="g302" /><g
       id="g304" /><g
       id="g306" /><g
       id="g308" /><g
       id="g310" /><g
       id="g312" /><g
       id="g314" /><g
       id="g316"><text
   id="text320"
   style="font-variant:normal;font-weight:normal;font-size:11px;font-family:Helvetica;-inkscape-font-specification:Helvetica;writing-mode:lr-tb;fill:#000000;fill-opacity:1;fill-rule:nonzero;stroke:none"
   transform="matrix(1,0,0,-1,188.32,7.9)"><tspan
     id="tspan318"
     y="0"
     x="0 7.9419999 14.058 17.115999">Date</tspan></text>

</g><g
       id="g322" /><g
       id="g324" /><g
       id="g326"><text
   id="text330"
   style="font-variant:normal;font-weight:normal;font-size:11px;font-family:Helvetica;-inkscape-font-specification:Helvetica;writing-mode:lr-tb;fill:#000000;fill-opacity:1;fill-rule:nonzero;stroke:none"
   transform="matrix(0,1,1,0,13.38,54.09)"><tspan
     id="tspan328"
     y="0"
     x="0 7.3369999 11 16.785999 22.011 28.127001 34.243 37.300999 43.417 49.313 51.755001 57.870998 60.929001 68.871002 74.987 81.102997 85.206001 88.264 91.321999 99.264 101.706 107.206 113.322 119.438 124.938">Preventable Heart Disease</tspan></text>

<text
   id="text334"
   style="font-style:normal;font-variant:normal;font-weight:normal;font-stretch:normal;font-size:11px;font-family:Helvetica;-inkscape-font-specification:'Helvetica, Normal';font-variant-ligatures:normal;font-variant-caps:normal;font-variant-numeric:normal;font-variant-east-asian:normal;writing-mode:lr-tb;fill:#000000;fill-opacity:1;fill-rule:nonzero;stroke:none"
   transform="matrix(0,1,1,0,0,0)"
   x="55.498001"
   y="25.26"><tspan
     sodipodi:role="line"
     id="tspan1"
     x="55.498001"
     y="25.26">Mortality Rate per 100,000</tspan></text>

</g><g
       id="g336" /><g
       id="g338" /><g
       id="g340" /><g
       id="g342" /><g
       id="g344" /><g
       id="g346" /><g
       id="g348" /><g
       id="g350" /><g
       id="g352"><path
         id="path354"
         style="fill:#ffffff;fill-opacity:1;fill-rule:nonzero;stroke:none"
         d="m 116.99,218.28 h 165.9 v 28.24 h -165.9 z"
         inkscape:connector-curvature="0" /></g><g
       id="g356" /><g
       id="g358" /><g
       id="g360" /><g
       id="g362" /><g
       id="g364" /><g
       id="g366" /><g
       id="g368" /><g
       id="g370"><path
         id="path372"
         style="fill:#ffffff;fill-opacity:1;fill-rule:nonzero;stroke:none"
         d="m 127.95,223.76 h 17.28 v 17.28 h -17.28 z"
         inkscape:connector-curvature="0" /></g><g
       id="g374" /><g
       id="g376"><path
         id="path378"
         style="fill:none;stroke:#f8766d;stroke-width:1.07000005;stroke-linecap:butt;stroke-linejoin:round;stroke-miterlimit:10;stroke-dasharray:none;stroke-opacity:1"
         d="M 129.68,232.4 H 143.5"
         inkscape:connector-curvature="0" /></g><g
       id="g380" /><g
       id="g382"><path
         id="path384"
         style="fill:none;stroke:#f8766d;stroke-width:0.70999998;stroke-linecap:round;stroke-linejoin:round;stroke-miterlimit:10;stroke-dasharray:none;stroke-opacity:1"
         d="m 135.17,232.4 c 0,0.78 0.64,1.42 1.42,1.42 0.78,0 1.42,-0.64 1.42,-1.42 0,-0.78 -0.64,-1.42 -1.42,-1.42 -0.78,0 -1.42,0.64 -1.42,1.42"
         inkscape:connector-curvature="0" /></g><g
       id="g386" /><g
       id="g388"><path
         id="path390"
         style="fill:#f8766d;fill-opacity:1;fill-rule:nonzero;stroke:#f8766d;stroke-width:0.70999998;stroke-linecap:round;stroke-linejoin:round;stroke-miterlimit:10;stroke-dasharray:none;stroke-opacity:1"
         d="m 135.17,232.4 c 0,0.78 0.64,1.42 1.42,1.42 0.78,0 1.42,-0.64 1.42,-1.42 0,-0.78 -0.64,-1.42 -1.42,-1.42 -0.78,0 -1.42,0.64 -1.42,1.42"
         inkscape:connector-curvature="0" /></g><g
       id="g392" /><g
       id="g394"><path
         id="path396"
         style="fill:none;stroke:#f8766d;stroke-width:1.07000005;stroke-linecap:butt;stroke-linejoin:round;stroke-miterlimit:10;stroke-dasharray:none;stroke-opacity:1"
         d="M 129.68,232.4 H 143.5"
         inkscape:connector-curvature="0" /></g><g
       id="g398" /><g
       id="g400"><path
         id="path402"
         style="fill:#ffffff;fill-opacity:1;fill-rule:nonzero;stroke:none"
         d="m 224.71,223.76 h 17.28 v 17.28 h -17.28 z"
         inkscape:connector-curvature="0" /></g><g
       id="g404" /><g
       id="g406"><path
         id="path408"
         style="fill:none;stroke:#00bfc4;stroke-width:1.07000005;stroke-linecap:butt;stroke-linejoin:round;stroke-miterlimit:10;stroke-dasharray:none;stroke-opacity:1"
         d="m 226.44,232.4 h 13.83"
         inkscape:connector-curvature="0" /></g><g
       id="g410" /><g
       id="g412"><path
         id="path414"
         style="fill:none;stroke:#00bfc4;stroke-width:0.70999998;stroke-linecap:round;stroke-linejoin:round;stroke-miterlimit:10;stroke-dasharray:none;stroke-opacity:1"
         d="m 231.93,232.4 c 0,0.78 0.64,1.42 1.42,1.42 0.79,0 1.43,-0.64 1.43,-1.42 0,-0.78 -0.64,-1.42 -1.43,-1.42 -0.78,0 -1.42,0.64 -1.42,1.42"
         inkscape:connector-curvature="0" /></g><g
       id="g416" /><g
       id="g418"><path
         id="path420"
         style="fill:#00bfc4;fill-opacity:1;fill-rule:nonzero;stroke:#00bfc4;stroke-width:0.70999998;stroke-linecap:round;stroke-linejoin:round;stroke-miterlimit:10;stroke-dasharray:none;stroke-opacity:1"
         d="m 231.93,232.4 c 0,0.78 0.64,1.42 1.42,1.42 0.79,0 1.43,-0.64 1.43,-1.42 0,-0.78 -0.64,-1.42 -1.43,-1.42 -0.78,0 -1.42,0.64 -1.42,1.42"
         inkscape:connector-curvature="0" /></g><g
       id="g422" /><g
       id="g424"><path
         id="path426"
         style="fill:none;stroke:#00bfc4;stroke-width:1.07000005;stroke-linecap:butt;stroke-linejoin:round;stroke-miterlimit:10;stroke-dasharray:none;stroke-opacity:1"
         d="m 226.44,232.4 h 13.83"
         inkscape:connector-curvature="0" /></g><g
       id="g428" /><g
       id="g430" /><g
       id="g432" /><g
       id="g434"><text
   id="text438"
   style="font-variant:normal;font-weight:normal;font-size:9px;font-family:Helvetica;-inkscape-font-specification:Helvetica;writing-mode:lr-tb;fill:#000000;fill-opacity:1;fill-rule:nonzero;stroke:none"
   transform="matrix(1,0,0,-1,150.71,229.17)"><tspan
     id="tspan436"
     y="0"
     x="0 6.0029998 10.503 15.507 18.009001 23.013 28.017 30.518999 32.516998 37.016998 39.519001 46.016998 51.021 56.025002 58.527 61.523998 66.528">Synthetic Control</tspan></text>

</g><g
       id="g440" /><g
       id="g442" /><g
       id="g444" /><g
       id="g446" /><g
       id="g448" /><g
       id="g450"><text
   id="text454"
   style="font-variant:normal;font-weight:normal;font-size:9px;font-family:Helvetica;-inkscape-font-specification:Helvetica;writing-mode:lr-tb;fill:#000000;fill-opacity:1;fill-rule:nonzero;stroke:none"
   transform="matrix(1,0,0,-1,247.47,229.17)"><tspan
     id="tspan452"
     y="0"
     x="0 4.4190001 7.4159999 12.42 17.424 19.926001 24.93">Treated</tspan></text>

</g><g
       id="g456" /><g
       id="g458" /><g
       id="g460" /><g
       id="g462" /><g
       id="g464" /><g
       id="g466" /><g
       id="g468" /><g
       id="g470" /><g
       id="g472" /><g
       id="g474" /><g
       id="g476" /><g
       id="g478" /><g
       id="g480" /><g
       id="g482" /><g
       id="g484" /><g
       id="g486" /></g></svg>
