<?xml version="1.0" encoding="UTF-8" standalone="no"?>
<svg
   xmlns:dc="http://purl.org/dc/elements/1.1/"
   xmlns:cc="http://creativecommons.org/ns#"
   xmlns:rdf="http://www.w3.org/1999/02/22-rdf-syntax-ns#"
   xmlns:svg="http://www.w3.org/2000/svg"
   xmlns="http://www.w3.org/2000/svg"
   viewBox="0 0 480 336"
   height="336"
   width="480"
   xml:space="preserve"
   id="svg2"
   version="1.1"><metadata
     id="metadata8"><rdf:RDF><cc:Work
         rdf:about=""><dc:format>image/svg+xml</dc:format><dc:type
           rdf:resource="http://purl.org/dc/dcmitype/StillImage" /></cc:Work></rdf:RDF></metadata><defs
     id="defs6"><clipPath
       id="clipPath56"
       clipPathUnits="userSpaceOnUse"><path
         id="path54"
         d="M 45.36,31.91 H 354.52 V 207.32 H 45.36 Z" /></clipPath></defs><g
     transform="matrix(1.3333333,0,0,-1.3333333,0,336)"
     id="g10"><g
       id="g12" /><g
       id="g14" /><g
       id="g16" /><g
       id="g18" /><g
       id="g20" /><g
       id="g22" /><g
       id="g24" /><g
       id="g26" /><g
       id="g28" /><g
       id="g30" /><g
       id="g32" /><g
       id="g34" /><g
       id="g36" /><g
       id="g38" /><g
       id="g40" /><g
       id="g42" /><g
       id="g44"><path
         id="path46"
         style="fill:#ffffff;fill-opacity:1;fill-rule:nonzero;stroke:#ffffff;stroke-width:1.07000005;stroke-linecap:round;stroke-linejoin:round;stroke-miterlimit:10;stroke-dasharray:none;stroke-opacity:1"
         d="M 0,0 H 360 V 252 H 0 Z" /></g><g
       id="g48" /><g
       id="g50"><g
         clip-path="url(#clipPath56)"
         id="g52"><path
           id="path58"
           style="fill:#ffffff;fill-opacity:1;fill-rule:nonzero;stroke:none"
           d="M 45.36,31.91 H 354.52 V 207.32 H 45.36 Z" /><path
           id="path60"
           style="fill:none;stroke:#dedede;stroke-width:0.27000001;stroke-linecap:butt;stroke-linejoin:round;stroke-miterlimit:10;stroke-dasharray:none;stroke-opacity:1"
           d="M 45.36,53.54 H 354.52" /><path
           id="path62"
           style="fill:none;stroke:#dedede;stroke-width:0.27000001;stroke-linecap:butt;stroke-linejoin:round;stroke-miterlimit:10;stroke-dasharray:none;stroke-opacity:1"
           d="M 45.36,85.98 H 354.52" /><path
           id="path64"
           style="fill:none;stroke:#dedede;stroke-width:0.27000001;stroke-linecap:butt;stroke-linejoin:round;stroke-miterlimit:10;stroke-dasharray:none;stroke-opacity:1"
           d="M 45.36,118.41 H 354.52" /><path
           id="path66"
           style="fill:none;stroke:#dedede;stroke-width:0.27000001;stroke-linecap:butt;stroke-linejoin:round;stroke-miterlimit:10;stroke-dasharray:none;stroke-opacity:1"
           d="M 45.36,150.85 H 354.52" /><path
           id="path68"
           style="fill:none;stroke:#dedede;stroke-width:0.27000001;stroke-linecap:butt;stroke-linejoin:round;stroke-miterlimit:10;stroke-dasharray:none;stroke-opacity:1"
           d="M 45.36,183.28 H 354.52" /><path
           id="path70"
           style="fill:none;stroke:#dedede;stroke-width:0.27000001;stroke-linecap:butt;stroke-linejoin:round;stroke-miterlimit:10;stroke-dasharray:none;stroke-opacity:1"
           d="M 75.02,31.91 V 207.32" /><path
           id="path72"
           style="fill:none;stroke:#dedede;stroke-width:0.27000001;stroke-linecap:butt;stroke-linejoin:round;stroke-miterlimit:10;stroke-dasharray:none;stroke-opacity:1"
           d="M 106.25,31.91 V 207.32" /><path
           id="path74"
           style="fill:none;stroke:#dedede;stroke-width:0.27000001;stroke-linecap:butt;stroke-linejoin:round;stroke-miterlimit:10;stroke-dasharray:none;stroke-opacity:1"
           d="M 137.48,31.91 V 207.32" /><path
           id="path76"
           style="fill:none;stroke:#dedede;stroke-width:0.27000001;stroke-linecap:butt;stroke-linejoin:round;stroke-miterlimit:10;stroke-dasharray:none;stroke-opacity:1"
           d="M 168.71,31.91 V 207.32" /><path
           id="path78"
           style="fill:none;stroke:#dedede;stroke-width:0.27000001;stroke-linecap:butt;stroke-linejoin:round;stroke-miterlimit:10;stroke-dasharray:none;stroke-opacity:1"
           d="M 199.94,31.91 V 207.32" /><path
           id="path80"
           style="fill:none;stroke:#dedede;stroke-width:0.27000001;stroke-linecap:butt;stroke-linejoin:round;stroke-miterlimit:10;stroke-dasharray:none;stroke-opacity:1"
           d="M 231.17,31.91 V 207.32" /><path
           id="path82"
           style="fill:none;stroke:#dedede;stroke-width:0.27000001;stroke-linecap:butt;stroke-linejoin:round;stroke-miterlimit:10;stroke-dasharray:none;stroke-opacity:1"
           d="M 262.4,31.91 V 207.32" /><path
           id="path84"
           style="fill:none;stroke:#dedede;stroke-width:0.27000001;stroke-linecap:butt;stroke-linejoin:round;stroke-miterlimit:10;stroke-dasharray:none;stroke-opacity:1"
           d="M 293.62,31.91 V 207.32" /><path
           id="path86"
           style="fill:none;stroke:#dedede;stroke-width:0.27000001;stroke-linecap:butt;stroke-linejoin:round;stroke-miterlimit:10;stroke-dasharray:none;stroke-opacity:1"
           d="M 324.85,31.91 V 207.32" /><path
           id="path88"
           style="fill:none;stroke:#dedede;stroke-width:0.52999997;stroke-linecap:butt;stroke-linejoin:round;stroke-miterlimit:10;stroke-dasharray:none;stroke-opacity:1"
           d="M 45.36,37.33 H 354.52" /><path
           id="path90"
           style="fill:none;stroke:#dedede;stroke-width:0.52999997;stroke-linecap:butt;stroke-linejoin:round;stroke-miterlimit:10;stroke-dasharray:none;stroke-opacity:1"
           d="M 45.36,69.76 H 354.52" /><path
           id="path92"
           style="fill:none;stroke:#dedede;stroke-width:0.52999997;stroke-linecap:butt;stroke-linejoin:round;stroke-miterlimit:10;stroke-dasharray:none;stroke-opacity:1"
           d="M 45.36,102.19 H 354.52" /><path
           id="path94"
           style="fill:none;stroke:#dedede;stroke-width:0.52999997;stroke-linecap:butt;stroke-linejoin:round;stroke-miterlimit:10;stroke-dasharray:none;stroke-opacity:1"
           d="M 45.36,134.63 H 354.52" /><path
           id="path96"
           style="fill:none;stroke:#dedede;stroke-width:0.52999997;stroke-linecap:butt;stroke-linejoin:round;stroke-miterlimit:10;stroke-dasharray:none;stroke-opacity:1"
           d="M 45.36,167.06 H 354.52" /><path
           id="path98"
           style="fill:none;stroke:#dedede;stroke-width:0.52999997;stroke-linecap:butt;stroke-linejoin:round;stroke-miterlimit:10;stroke-dasharray:none;stroke-opacity:1"
           d="M 45.36,199.5 H 354.52" /><path
           id="path100"
           style="fill:none;stroke:#dedede;stroke-width:0.52999997;stroke-linecap:butt;stroke-linejoin:round;stroke-miterlimit:10;stroke-dasharray:none;stroke-opacity:1"
           d="M 59.41,31.91 V 207.32" /><path
           id="path102"
           style="fill:none;stroke:#dedede;stroke-width:0.52999997;stroke-linecap:butt;stroke-linejoin:round;stroke-miterlimit:10;stroke-dasharray:none;stroke-opacity:1"
           d="M 90.64,31.91 V 207.32" /><path
           id="path104"
           style="fill:none;stroke:#dedede;stroke-width:0.52999997;stroke-linecap:butt;stroke-linejoin:round;stroke-miterlimit:10;stroke-dasharray:none;stroke-opacity:1"
           d="M 121.87,31.91 V 207.32" /><path
           id="path106"
           style="fill:none;stroke:#dedede;stroke-width:0.52999997;stroke-linecap:butt;stroke-linejoin:round;stroke-miterlimit:10;stroke-dasharray:none;stroke-opacity:1"
           d="M 153.1,31.91 V 207.32" /><path
           id="path108"
           style="fill:none;stroke:#dedede;stroke-width:0.52999997;stroke-linecap:butt;stroke-linejoin:round;stroke-miterlimit:10;stroke-dasharray:none;stroke-opacity:1"
           d="M 184.32,31.91 V 207.32" /><path
           id="path110"
           style="fill:none;stroke:#dedede;stroke-width:0.52999997;stroke-linecap:butt;stroke-linejoin:round;stroke-miterlimit:10;stroke-dasharray:none;stroke-opacity:1"
           d="M 215.55,31.91 V 207.32" /><path
           id="path112"
           style="fill:none;stroke:#dedede;stroke-width:0.52999997;stroke-linecap:butt;stroke-linejoin:round;stroke-miterlimit:10;stroke-dasharray:none;stroke-opacity:1"
           d="M 246.78,31.91 V 207.32" /><path
           id="path114"
           style="fill:none;stroke:#dedede;stroke-width:0.52999997;stroke-linecap:butt;stroke-linejoin:round;stroke-miterlimit:10;stroke-dasharray:none;stroke-opacity:1"
           d="M 278.01,31.91 V 207.32" /><path
           id="path116"
           style="fill:none;stroke:#dedede;stroke-width:0.52999997;stroke-linecap:butt;stroke-linejoin:round;stroke-miterlimit:10;stroke-dasharray:none;stroke-opacity:1"
           d="M 309.24,31.91 V 207.32" /><path
           id="path118"
           style="fill:none;stroke:#dedede;stroke-width:0.52999997;stroke-linecap:butt;stroke-linejoin:round;stroke-miterlimit:10;stroke-dasharray:none;stroke-opacity:1"
           d="M 340.47,31.91 V 207.32" /><path
           id="path120"
           style="fill:none;stroke:#f8766d;stroke-width:1.07000005;stroke-linecap:butt;stroke-linejoin:round;stroke-miterlimit:10;stroke-dasharray:none;stroke-opacity:0.37600002"
           d="m 59.41,150.95 31.23,-0.23 31.23,4.69 31.23,-14.91 31.22,10.82 31.23,42 31.23,-9.79 31.23,0.15 31.23,-32.19 31.23,15.08" /><path
           id="path122"
           style="fill:none;stroke:#00bfc4;stroke-width:1.07000005;stroke-linecap:butt;stroke-linejoin:round;stroke-miterlimit:10;stroke-dasharray:none;stroke-opacity:0.37600002"
           d="m 59.41,97.83 31.23,-19.59 31.23,11.26 31.23,2.78 31.22,3.96 31.23,-4.68 31.23,13.63 31.23,-8.64 31.23,-7.42 31.23,-5.49" /><path
           id="path124"
           style="fill:none;stroke:#00bfc4;stroke-width:0.70999998;stroke-linecap:round;stroke-linejoin:round;stroke-miterlimit:10;stroke-dasharray:none;stroke-opacity:1"
           d="m 260.97,93.72 c 0,0.78 0.64,1.42 1.43,1.42 0.78,0 1.42,-0.64 1.42,-1.42 0,-0.78 -0.64,-1.42 -1.42,-1.42 -0.79,0 -1.43,0.64 -1.43,1.42" /><path
           id="path126"
           style="fill:none;stroke:#f8766d;stroke-width:0.70999998;stroke-linecap:round;stroke-linejoin:round;stroke-miterlimit:10;stroke-dasharray:none;stroke-opacity:1"
           d="m 260.97,121.94 c 0,0.78 0.64,1.42 1.43,1.42 0.78,0 1.42,-0.64 1.42,-1.42 0,-0.78 -0.64,-1.42 -1.42,-1.42 -0.79,0 -1.43,0.64 -1.43,1.42" /><path
           id="path128"
           style="fill:#00bfc4;fill-opacity:1;fill-rule:nonzero;stroke:#00bfc4;stroke-width:0.70999998;stroke-linecap:round;stroke-linejoin:round;stroke-miterlimit:10;stroke-dasharray:none;stroke-opacity:1"
           d="m 123.07,93.97 c 0,0.78 0.64,1.42 1.42,1.42 0.79,0 1.43,-0.64 1.43,-1.42 0,-0.78 -0.64,-1.42 -1.43,-1.42 -0.78,0 -1.42,0.64 -1.42,1.42" /><path
           id="path130"
           style="fill:#f8766d;fill-opacity:1;fill-rule:nonzero;stroke:#f8766d;stroke-width:0.70999998;stroke-linecap:round;stroke-linejoin:round;stroke-miterlimit:10;stroke-dasharray:none;stroke-opacity:1"
           d="m 123.07,143.69 c 0,0.78 0.64,1.42 1.42,1.42 0.79,0 1.43,-0.64 1.43,-1.42 0,-0.78 -0.64,-1.42 -1.43,-1.42 -0.78,0 -1.42,0.64 -1.42,1.42" /><path
           id="path132"
           style="fill:#f8766d;fill-opacity:1;fill-rule:nonzero;stroke:#f8766d;stroke-width:0.70999998;stroke-linecap:round;stroke-linejoin:round;stroke-miterlimit:10;stroke-dasharray:none;stroke-opacity:1"
           d="m 260.97,171.65 c 0,0.78 0.64,1.42 1.43,1.42 0.78,0 1.42,-0.64 1.42,-1.42 0,-0.78 -0.64,-1.42 -1.42,-1.42 -0.79,0 -1.43,0.64 -1.43,1.42" /><path
           id="path134"
           style="fill:#00bfc4;fill-opacity:1;fill-rule:nonzero;stroke:#00bfc4;stroke-width:0.70999998;stroke-linecap:round;stroke-linejoin:round;stroke-miterlimit:10;stroke-dasharray:none;stroke-opacity:1"
           d="m 260.97,93.72 c 0,0.78 0.64,1.42 1.43,1.42 0.78,0 1.42,-0.64 1.42,-1.42 0,-0.78 -0.64,-1.42 -1.42,-1.42 -0.79,0 -1.43,0.64 -1.43,1.42" /><path
           id="path136"
           style="fill:none;stroke:#f8766d;stroke-width:1.07000005;stroke-linecap:butt;stroke-linejoin:round;stroke-miterlimit:10;stroke-dasharray:none;stroke-opacity:1"
           d="M 124.49,143.69 262.4,171.65" /><path
           id="path138"
           style="fill:none;stroke:#00bfc4;stroke-width:1.07000005;stroke-linecap:butt;stroke-linejoin:round;stroke-miterlimit:10;stroke-dasharray:none;stroke-opacity:1"
           d="M 124.49,93.97 262.4,93.72" /><path
           id="path140"
           style="fill:none;stroke:#000000;stroke-width:1.07000005;stroke-linecap:butt;stroke-linejoin:round;stroke-miterlimit:10;stroke-dasharray:4.27, 4.27;stroke-dashoffset:0;stroke-opacity:0.475"
           d="M 124.49,93.97 262.4,121.94" /><path
           id="path142"
           style="fill:none;stroke:#000000;stroke-width:1.07000005;stroke-linecap:butt;stroke-linejoin:round;stroke-miterlimit:10;stroke-dasharray:4.27, 4.27;stroke-dashoffset:0;stroke-opacity:0.34100001"
           d="M 124.49,143.69 V 93.97" /><path
           id="path144"
           style="fill:none;stroke:#000000;stroke-width:1.07000005;stroke-linecap:butt;stroke-linejoin:round;stroke-miterlimit:10;stroke-dasharray:4.27, 4.27;stroke-dashoffset:0;stroke-opacity:0.34100001"
           d="M 262.4,171.65 V 121.94" /><path
           id="path146"
           style="fill:none;stroke:#000000;stroke-width:1.07000005;stroke-linecap:butt;stroke-linejoin:round;stroke-miterlimit:10;stroke-dasharray:none;stroke-opacity:0.10199998"
           d="M 153.1,31.91 V 207.32" /><path
           id="path148"
           style="fill:#f8766d;fill-opacity:0.34100001;fill-rule:nonzero;stroke:none"
           d="M 59.41,56.74 90.64,39.88 h 31.23 L 153.1,78.24 V 39.88 H 121.87 90.64 59.41 Z" /><path
           id="path150"
           style="fill:none;stroke:#000000;stroke-width:1.07000005;stroke-linecap:butt;stroke-linejoin:round;stroke-miterlimit:10;stroke-dasharray:none;stroke-opacity:1"
           d="M 59.41,56.74 90.64,39.88 h 31.23 l 31.23,38.36" /><path
           id="path152"
           style="fill:none;stroke:#000000;stroke-width:1.07000005;stroke-linecap:butt;stroke-linejoin:round;stroke-miterlimit:10;stroke-dasharray:none;stroke-opacity:1"
           d="M 153.1,39.88 H 121.87 90.64 59.41" /><path
           id="path154"
           style="fill:none;stroke:#000000;stroke-width:1.07000005;stroke-linecap:butt;stroke-linejoin:round;stroke-miterlimit:10;stroke-dasharray:none;stroke-opacity:1"
           d="m 262.4,121.94 -0.12,-0.22 -0.5,-0.95 -0.64,-1.21 -0.53,-1.07 -0.44,-0.99 -0.38,-0.99 -0.3,-0.93 -0.26,-0.85 -0.25,-0.94 -0.23,-1.03 -0.18,-1.05 -0.12,-0.96 -0.09,-0.89 -0.07,-0.97 -0.02,-1.06 0.02,-1.06 0.07,-0.97 0.09,-0.89 0.12,-0.97 0.18,-1.04 0.23,-1.04 0.25,-0.94 0.26,-0.85 0.3,-0.92 0.38,-1 0.44,-0.99 0.53,-1.07 0.64,-1.21 0.5,-0.95 0.12,-0.21" /><path
           id="path156"
           style="fill:none;stroke:#000000;stroke-width:1.07000005;stroke-linecap:butt;stroke-linejoin:round;stroke-miterlimit:10;stroke-dasharray:none;stroke-opacity:1"
           d="m 257.6,96.74 4.8,-3.02 0.21,5.66" /><path
           id="path158"
           style="fill:none;stroke:#000000;stroke-width:1.07000005;stroke-linecap:butt;stroke-linejoin:round;stroke-miterlimit:10;stroke-dasharray:none;stroke-opacity:0.10199998"
           d="m 262.4,199.35 -0.09,-0.17 -0.51,-0.96 -1.03,-1.95 -1.34,-2.54 -1.36,-2.58 -1.24,-2.39 -1.09,-2.22 -0.96,-2.11 -0.72,-1.69 -0.83,-2.12 -0.75,-2.09 -0.66,-1.99 -0.58,-1.86 -0.54,-1.8 -0.54,-1.9 -0.54,-2.05 -0.52,-2.18 -0.36,-1.76 -0.41,-2.25 -0.34,-2.2 -0.26,-2.07 -0.2,-1.94 -0.19,-1.87 -0.16,-1.97 -0.14,-2.11 -0.08,-2.24 -0.02,-1.81 0.03,-2.28 0.1,-2.22 0.14,-2.09 0.17,-1.93 0.19,-1.88 0.21,-1.96 0.28,-2.1 0.35,-2.21 0.33,-1.78 0.47,-2.23 0.52,-2.16 0.54,-2.02 0.55,-1.87 0.54,-1.8 0.59,-1.88 0.68,-2.01 0.77,-2.11 0.66,-1.68 0.9,-2.1 0.99,-2.13 1.12,-2.25 1.26,-2.43 1.38,-2.6 1.3,-2.47 0.94,-1.77 0.4,-0.77 0.05,-0.08" /><path
           id="path160"
           style="fill:none;stroke:#000000;stroke-width:1.07000005;stroke-linecap:butt;stroke-linejoin:round;stroke-miterlimit:10;stroke-dasharray:none;stroke-opacity:0.10199998"
           d="m 257.6,96.74 4.8,-3.02 0.21,5.66" /><path
           id="path162"
           style="fill:none;stroke:#000000;stroke-width:1.07000005;stroke-linecap:butt;stroke-linejoin:round;stroke-miterlimit:10;stroke-dasharray:none;stroke-opacity:0.10199998"
           d="m 262.4,44.53 0.12,0.22 0.59,1.13 0.92,1.75 0.88,1.68 0.74,1.5 0.62,1.44 0.01,0.01 0.55,1.45 0.47,1.37 0.39,1.26 0.37,1.27 0.37,1.41 0.33,1.51 0.26,1.53 0.2,1.44 0.13,1.31 0.12,1.31 0.09,1.45 0.04,1.55 -0.04,1.55 -0.09,1.45 -0.12,1.32 -0.13,1.31 -0.2,1.44 -0.26,1.52 -0.33,1.52 -0.37,1.41 -0.37,1.26 -0.39,1.26 -0.47,1.38 -0.55,1.44 -0.63,1.44 -0.74,1.51 -0.87,1.68 -0.92,1.74 -0.6,1.14 -0.12,0.23 v 0" /><path
           id="path164"
           style="fill:none;stroke:#000000;stroke-width:1.07000005;stroke-linecap:butt;stroke-linejoin:round;stroke-miterlimit:10;stroke-dasharray:none;stroke-opacity:0.10199998"
           d="m 267.19,90.7 -4.79,3.02 -0.22,-5.67" /><path
           id="path166"
           style="fill:none;stroke:#b3b3b3;stroke-width:1.07000005;stroke-linecap:round;stroke-linejoin:round;stroke-miterlimit:10;stroke-dasharray:none;stroke-opacity:1"
           d="M 45.36,31.91 H 354.52 V 207.32 H 45.36 Z" /></g></g><g
       id="g168" /><g
       id="g170" /><g
       id="g172" /><g
       id="g174" /><g
       id="g176" /><g
       id="g178" /><g
       id="g180" /><g
       id="g182" /><g
       id="g184" /><g
       id="g186" /><g
       id="g188" /><g
       id="g190" /><g
       id="g192" /><g
       id="g194" /><g
       id="g196" /><g
       id="g198"><text
         id="text202"
         style="font-variant:normal;font-weight:normal;font-size:9px;font-family:Helvetica;-inkscape-font-specification:Helvetica;writing-mode:lr-tb;fill:#4d4d4d;fill-opacity:1;fill-rule:nonzero;stroke:none"
         transform="matrix(1,0,0,-1,30.42,34.09)"><tspan
           id="tspan200"
           y="0"
           x="0 5.0040002">54</tspan></text>
<text
         id="text206"
         style="font-variant:normal;font-weight:normal;font-size:9px;font-family:Helvetica;-inkscape-font-specification:Helvetica;writing-mode:lr-tb;fill:#4d4d4d;fill-opacity:1;fill-rule:nonzero;stroke:none"
         transform="matrix(1,0,0,-1,30.42,66.53)"><tspan
           id="tspan204"
           y="0"
           x="0 5.0040002">56</tspan></text>
<text
         id="text210"
         style="font-variant:normal;font-weight:normal;font-size:9px;font-family:Helvetica;-inkscape-font-specification:Helvetica;writing-mode:lr-tb;fill:#4d4d4d;fill-opacity:1;fill-rule:nonzero;stroke:none"
         transform="matrix(1,0,0,-1,30.42,98.96)"><tspan
           id="tspan208"
           y="0"
           x="0 5.0040002">58</tspan></text>
<text
         id="text214"
         style="font-variant:normal;font-weight:normal;font-size:9px;font-family:Helvetica;-inkscape-font-specification:Helvetica;writing-mode:lr-tb;fill:#4d4d4d;fill-opacity:1;fill-rule:nonzero;stroke:none"
         transform="matrix(1,0,0,-1,30.42,131.4)"><tspan
           id="tspan212"
           y="0"
           x="0 5.0040002">60</tspan></text>
<text
         id="text218"
         style="font-variant:normal;font-weight:normal;font-size:9px;font-family:Helvetica;-inkscape-font-specification:Helvetica;writing-mode:lr-tb;fill:#4d4d4d;fill-opacity:1;fill-rule:nonzero;stroke:none"
         transform="matrix(1,0,0,-1,30.42,163.83)"><tspan
           id="tspan216"
           y="0"
           x="0 5.0040002">62</tspan></text>
<text
         id="text222"
         style="font-variant:normal;font-weight:normal;font-size:9px;font-family:Helvetica;-inkscape-font-specification:Helvetica;writing-mode:lr-tb;fill:#4d4d4d;fill-opacity:1;fill-rule:nonzero;stroke:none"
         transform="matrix(1,0,0,-1,30.42,196.27)"><tspan
           id="tspan220"
           y="0"
           x="0 5.0040002">64</tspan></text>
</g><g
       id="g224" /><g
       id="g226" /><g
       id="g228"><path
         id="path230"
         style="fill:none;stroke:#b3b3b3;stroke-width:0.52999997;stroke-linecap:butt;stroke-linejoin:round;stroke-miterlimit:10;stroke-dasharray:none;stroke-opacity:1"
         d="m 42.62,37.33 h 2.74" /><path
         id="path232"
         style="fill:none;stroke:#b3b3b3;stroke-width:0.52999997;stroke-linecap:butt;stroke-linejoin:round;stroke-miterlimit:10;stroke-dasharray:none;stroke-opacity:1"
         d="m 42.62,69.76 h 2.74" /><path
         id="path234"
         style="fill:none;stroke:#b3b3b3;stroke-width:0.52999997;stroke-linecap:butt;stroke-linejoin:round;stroke-miterlimit:10;stroke-dasharray:none;stroke-opacity:1"
         d="m 42.62,102.19 h 2.74" /><path
         id="path236"
         style="fill:none;stroke:#b3b3b3;stroke-width:0.52999997;stroke-linecap:butt;stroke-linejoin:round;stroke-miterlimit:10;stroke-dasharray:none;stroke-opacity:1"
         d="m 42.62,134.63 h 2.74" /><path
         id="path238"
         style="fill:none;stroke:#b3b3b3;stroke-width:0.52999997;stroke-linecap:butt;stroke-linejoin:round;stroke-miterlimit:10;stroke-dasharray:none;stroke-opacity:1"
         d="m 42.62,167.06 h 2.74" /><path
         id="path240"
         style="fill:none;stroke:#b3b3b3;stroke-width:0.52999997;stroke-linecap:butt;stroke-linejoin:round;stroke-miterlimit:10;stroke-dasharray:none;stroke-opacity:1"
         d="m 42.62,199.5 h 2.74" /></g><g
       id="g242" /><g
       id="g244" /><g
       id="g246" /><g
       id="g248" /><g
       id="g250" /><g
       id="g252" /><g
       id="g254" /><g
       id="g256" /><g
       id="g258" /><g
       id="g260" /><g
       id="g262"><path
         id="path264"
         style="fill:none;stroke:#b3b3b3;stroke-width:0.52999997;stroke-linecap:butt;stroke-linejoin:round;stroke-miterlimit:10;stroke-dasharray:none;stroke-opacity:1"
         d="m 59.41,29.17 v 2.74" /><path
         id="path266"
         style="fill:none;stroke:#b3b3b3;stroke-width:0.52999997;stroke-linecap:butt;stroke-linejoin:round;stroke-miterlimit:10;stroke-dasharray:none;stroke-opacity:1"
         d="m 90.64,29.17 v 2.74" /><path
         id="path268"
         style="fill:none;stroke:#b3b3b3;stroke-width:0.52999997;stroke-linecap:butt;stroke-linejoin:round;stroke-miterlimit:10;stroke-dasharray:none;stroke-opacity:1"
         d="m 121.87,29.17 v 2.74" /><path
         id="path270"
         style="fill:none;stroke:#b3b3b3;stroke-width:0.52999997;stroke-linecap:butt;stroke-linejoin:round;stroke-miterlimit:10;stroke-dasharray:none;stroke-opacity:1"
         d="m 153.1,29.17 v 2.74" /><path
         id="path272"
         style="fill:none;stroke:#b3b3b3;stroke-width:0.52999997;stroke-linecap:butt;stroke-linejoin:round;stroke-miterlimit:10;stroke-dasharray:none;stroke-opacity:1"
         d="m 184.32,29.17 v 2.74" /><path
         id="path274"
         style="fill:none;stroke:#b3b3b3;stroke-width:0.52999997;stroke-linecap:butt;stroke-linejoin:round;stroke-miterlimit:10;stroke-dasharray:none;stroke-opacity:1"
         d="m 215.55,29.17 v 2.74" /><path
         id="path276"
         style="fill:none;stroke:#b3b3b3;stroke-width:0.52999997;stroke-linecap:butt;stroke-linejoin:round;stroke-miterlimit:10;stroke-dasharray:none;stroke-opacity:1"
         d="m 246.78,29.17 v 2.74" /><path
         id="path278"
         style="fill:none;stroke:#b3b3b3;stroke-width:0.52999997;stroke-linecap:butt;stroke-linejoin:round;stroke-miterlimit:10;stroke-dasharray:none;stroke-opacity:1"
         d="m 278.01,29.17 v 2.74" /><path
         id="path280"
         style="fill:none;stroke:#b3b3b3;stroke-width:0.52999997;stroke-linecap:butt;stroke-linejoin:round;stroke-miterlimit:10;stroke-dasharray:none;stroke-opacity:1"
         d="m 309.24,29.17 v 2.74" /><path
         id="path282"
         style="fill:none;stroke:#b3b3b3;stroke-width:0.52999997;stroke-linecap:butt;stroke-linejoin:round;stroke-miterlimit:10;stroke-dasharray:none;stroke-opacity:1"
         d="m 340.47,29.17 v 2.74" /></g><g
       id="g284" /><g
       id="g286"><text
         id="text290"
         style="font-variant:normal;font-weight:normal;font-size:9px;font-family:Helvetica;-inkscape-font-specification:Helvetica;writing-mode:lr-tb;fill:#4d4d4d;fill-opacity:1;fill-rule:nonzero;stroke:none"
         transform="matrix(1,0,0,-1,49.4,20.52)"><tspan
           id="tspan288"
           y="0"
           x="0 5.0040002 10.008 15.012">2010</tspan></text>
<text
         id="text294"
         style="font-variant:normal;font-weight:normal;font-size:9px;font-family:Helvetica;-inkscape-font-specification:Helvetica;writing-mode:lr-tb;fill:#4d4d4d;fill-opacity:1;fill-rule:nonzero;stroke:none"
         transform="matrix(1,0,0,-1,80.63,20.52)"><tspan
           id="tspan292"
           y="0"
           x="0 5.0040002 10.008 15.012">2011</tspan></text>
<text
         id="text298"
         style="font-variant:normal;font-weight:normal;font-size:9px;font-family:Helvetica;-inkscape-font-specification:Helvetica;writing-mode:lr-tb;fill:#4d4d4d;fill-opacity:1;fill-rule:nonzero;stroke:none"
         transform="matrix(1,0,0,-1,111.86,20.52)"><tspan
           id="tspan296"
           y="0"
           x="0 5.0040002 10.008 15.012">2012</tspan></text>
<text
         id="text302"
         style="font-variant:normal;font-weight:normal;font-size:9px;font-family:Helvetica;-inkscape-font-specification:Helvetica;writing-mode:lr-tb;fill:#4d4d4d;fill-opacity:1;fill-rule:nonzero;stroke:none"
         transform="matrix(1,0,0,-1,143.09,20.52)"><tspan
           id="tspan300"
           y="0"
           x="0 5.0040002 10.008 15.012">2013</tspan></text>
<text
         id="text306"
         style="font-variant:normal;font-weight:normal;font-size:9px;font-family:Helvetica;-inkscape-font-specification:Helvetica;writing-mode:lr-tb;fill:#4d4d4d;fill-opacity:1;fill-rule:nonzero;stroke:none"
         transform="matrix(1,0,0,-1,174.32,20.52)"><tspan
           id="tspan304"
           y="0"
           x="0 5.0040002 10.008 15.012">2014</tspan></text>
<text
         id="text310"
         style="font-variant:normal;font-weight:normal;font-size:9px;font-family:Helvetica;-inkscape-font-specification:Helvetica;writing-mode:lr-tb;fill:#4d4d4d;fill-opacity:1;fill-rule:nonzero;stroke:none"
         transform="matrix(1,0,0,-1,205.54,20.52)"><tspan
           id="tspan308"
           y="0"
           x="0 5.0040002 10.008 15.012">2015</tspan></text>
<text
         id="text314"
         style="font-variant:normal;font-weight:normal;font-size:9px;font-family:Helvetica;-inkscape-font-specification:Helvetica;writing-mode:lr-tb;fill:#4d4d4d;fill-opacity:1;fill-rule:nonzero;stroke:none"
         transform="matrix(1,0,0,-1,236.77,20.52)"><tspan
           id="tspan312"
           y="0"
           x="0 5.0040002 10.008 15.012">2016</tspan></text>
<text
         id="text318"
         style="font-variant:normal;font-weight:normal;font-size:9px;font-family:Helvetica;-inkscape-font-specification:Helvetica;writing-mode:lr-tb;fill:#4d4d4d;fill-opacity:1;fill-rule:nonzero;stroke:none"
         transform="matrix(1,0,0,-1,268,20.52)"><tspan
           id="tspan316"
           y="0"
           x="0 5.0040002 10.008 15.012">2017</tspan></text>
<text
         id="text322"
         style="font-variant:normal;font-weight:normal;font-size:9px;font-family:Helvetica;-inkscape-font-specification:Helvetica;writing-mode:lr-tb;fill:#4d4d4d;fill-opacity:1;fill-rule:nonzero;stroke:none"
         transform="matrix(1,0,0,-1,299.23,20.52)"><tspan
           id="tspan320"
           y="0"
           x="0 5.0040002 10.008 15.012">2018</tspan></text>
<text
         id="text326"
         style="font-variant:normal;font-weight:normal;font-size:9px;font-family:Helvetica;-inkscape-font-specification:Helvetica;writing-mode:lr-tb;fill:#4d4d4d;fill-opacity:1;fill-rule:nonzero;stroke:none"
         transform="matrix(1,0,0,-1,330.46,20.52)"><tspan
           id="tspan324"
           y="0"
           x="0 5.0040002 10.008 15.012">2019</tspan></text>
</g><g
       id="g328" /><g
       id="g330" /><g
       id="g332" /><g
       id="g334" /><g
       id="g336" /><g
       id="g338" /><g
       id="g340" /><g
       id="g342"><text
         id="text346"
         style="font-variant:normal;font-weight:normal;font-size:11px;font-family:Helvetica;-inkscape-font-specification:Helvetica;writing-mode:lr-tb;fill:#000000;fill-opacity:1;fill-rule:nonzero;stroke:none"
         transform="matrix(1,0,0,-1,188.32,7.9)"><tspan
           id="tspan344"
           y="0"
           x="0 7.9419999 14.058 17.115999">Date</tspan></text>
</g><g
       id="g348" /><g
       id="g350" /><g
       id="g352"><text
         id="text356"
         style="font-variant:normal;font-weight:normal;font-size:11px;font-family:Helvetica;-inkscape-font-specification:Helvetica;writing-mode:lr-tb;fill:#000000;fill-opacity:1;fill-rule:nonzero;stroke:none"
         transform="matrix(0,1,1,0,13.38,54.09)"><tspan
           id="tspan354"
           y="0"
           x="0 7.3369999 11 16.785999 22.011 28.127001 34.243 37.300999 43.417 49.313 51.755001 57.870998 60.929001 68.871002 74.987 81.102997 85.206001 88.264 91.321999 99.264 101.706 107.206 113.322 119.438 124.938">Preventable Heart Disease</tspan></text>
<text
         id="text360"
         style="font-variant:normal;font-weight:normal;font-size:11px;font-family:Helvetica;-inkscape-font-specification:Helvetica;writing-mode:lr-tb;fill:#000000;fill-opacity:1;fill-rule:nonzero;stroke:none"
         transform="matrix(0,1,1,0,25.26,86.998)"><tspan
           id="tspan358"
           y="0"
           x="0 9.1630001 15.279 19.382 22.440001 28.556 30.997999 33.439999 36.498001 41.998001 45.056 52.998001 59.113998 62.172001">Mortality Rate</tspan></text>
</g><g
       id="g362" /><g
       id="g364" /><g
       id="g366" /><g
       id="g368" /><g
       id="g370" /><g
       id="g372" /><g
       id="g374" /><g
       id="g376" /><g
       id="g378"><path
         id="path380"
         style="fill:#ffffff;fill-opacity:1;fill-rule:nonzero;stroke:none"
         d="m 116.99,218.28 h 165.9 v 28.24 h -165.9 z" /></g><g
       id="g382" /><g
       id="g384" /><g
       id="g386" /><g
       id="g388" /><g
       id="g390" /><g
       id="g392" /><g
       id="g394" /><g
       id="g396"><path
         id="path398"
         style="fill:#ffffff;fill-opacity:1;fill-rule:nonzero;stroke:none"
         d="m 127.95,223.76 h 17.28 v 17.28 h -17.28 z" /></g><g
       id="g400" /><g
       id="g402"><path
         id="path404"
         style="fill:none;stroke:#f8766d;stroke-width:1.07000005;stroke-linecap:butt;stroke-linejoin:round;stroke-miterlimit:10;stroke-dasharray:none;stroke-opacity:1"
         d="M 129.68,232.4 H 143.5" /></g><g
       id="g406" /><g
       id="g408"><path
         id="path410"
         style="fill:none;stroke:#f8766d;stroke-width:0.70999998;stroke-linecap:round;stroke-linejoin:round;stroke-miterlimit:10;stroke-dasharray:none;stroke-opacity:1"
         d="m 135.17,232.4 c 0,0.78 0.64,1.42 1.42,1.42 0.78,0 1.42,-0.64 1.42,-1.42 0,-0.78 -0.64,-1.42 -1.42,-1.42 -0.78,0 -1.42,0.64 -1.42,1.42" /></g><g
       id="g412" /><g
       id="g414"><path
         id="path416"
         style="fill:#f8766d;fill-opacity:1;fill-rule:nonzero;stroke:#f8766d;stroke-width:0.70999998;stroke-linecap:round;stroke-linejoin:round;stroke-miterlimit:10;stroke-dasharray:none;stroke-opacity:1"
         d="m 135.17,232.4 c 0,0.78 0.64,1.42 1.42,1.42 0.78,0 1.42,-0.64 1.42,-1.42 0,-0.78 -0.64,-1.42 -1.42,-1.42 -0.78,0 -1.42,0.64 -1.42,1.42" /></g><g
       id="g418" /><g
       id="g420"><path
         id="path422"
         style="fill:none;stroke:#f8766d;stroke-width:1.07000005;stroke-linecap:butt;stroke-linejoin:round;stroke-miterlimit:10;stroke-dasharray:none;stroke-opacity:1"
         d="M 129.68,232.4 H 143.5" /></g><g
       id="g424" /><g
       id="g426"><path
         id="path428"
         style="fill:#ffffff;fill-opacity:1;fill-rule:nonzero;stroke:none"
         d="m 224.71,223.76 h 17.28 v 17.28 h -17.28 z" /></g><g
       id="g430" /><g
       id="g432"><path
         id="path434"
         style="fill:none;stroke:#00bfc4;stroke-width:1.07000005;stroke-linecap:butt;stroke-linejoin:round;stroke-miterlimit:10;stroke-dasharray:none;stroke-opacity:1"
         d="m 226.44,232.4 h 13.83" /></g><g
       id="g436" /><g
       id="g438"><path
         id="path440"
         style="fill:none;stroke:#00bfc4;stroke-width:0.70999998;stroke-linecap:round;stroke-linejoin:round;stroke-miterlimit:10;stroke-dasharray:none;stroke-opacity:1"
         d="m 231.93,232.4 c 0,0.78 0.64,1.42 1.42,1.42 0.79,0 1.43,-0.64 1.43,-1.42 0,-0.78 -0.64,-1.42 -1.43,-1.42 -0.78,0 -1.42,0.64 -1.42,1.42" /></g><g
       id="g442" /><g
       id="g444"><path
         id="path446"
         style="fill:#00bfc4;fill-opacity:1;fill-rule:nonzero;stroke:#00bfc4;stroke-width:0.70999998;stroke-linecap:round;stroke-linejoin:round;stroke-miterlimit:10;stroke-dasharray:none;stroke-opacity:1"
         d="m 231.93,232.4 c 0,0.78 0.64,1.42 1.42,1.42 0.79,0 1.43,-0.64 1.43,-1.42 0,-0.78 -0.64,-1.42 -1.43,-1.42 -0.78,0 -1.42,0.64 -1.42,1.42" /></g><g
       id="g448" /><g
       id="g450"><path
         id="path452"
         style="fill:none;stroke:#00bfc4;stroke-width:1.07000005;stroke-linecap:butt;stroke-linejoin:round;stroke-miterlimit:10;stroke-dasharray:none;stroke-opacity:1"
         d="m 226.44,232.4 h 13.83" /></g><g
       id="g454" /><g
       id="g456" /><g
       id="g458" /><g
       id="g460"><text
         id="text464"
         style="font-variant:normal;font-weight:normal;font-size:9px;font-family:Helvetica;-inkscape-font-specification:Helvetica;writing-mode:lr-tb;fill:#000000;fill-opacity:1;fill-rule:nonzero;stroke:none"
         transform="matrix(1,0,0,-1,150.71,229.17)"><tspan
           id="tspan462"
           y="0"
           x="0 6.0029998 10.503 15.507 18.009001 23.013 28.017 30.518999 32.516998 37.016998 39.519001 46.016998 51.021 56.025002 58.527 61.523998 66.528">Synthetic Control</tspan></text>
</g><g
       id="g466" /><g
       id="g468" /><g
       id="g470" /><g
       id="g472" /><g
       id="g474" /><g
       id="g476"><text
         id="text480"
         style="font-variant:normal;font-weight:normal;font-size:9px;font-family:Helvetica;-inkscape-font-specification:Helvetica;writing-mode:lr-tb;fill:#000000;fill-opacity:1;fill-rule:nonzero;stroke:none"
         transform="matrix(1,0,0,-1,247.47,229.17)"><tspan
           id="tspan478"
           y="0"
           x="0 4.4190001 7.4159999 12.42 17.424 19.926001 24.93">Treated</tspan></text>
</g><g
       id="g482" /><g
       id="g484" /><g
       id="g486" /><g
       id="g488" /><g
       id="g490" /><g
       id="g492" /><g
       id="g494" /><g
       id="g496" /><g
       id="g498" /><g
       id="g500" /><g
       id="g502" /><g
       id="g504" /><g
       id="g506" /><g
       id="g508" /><g
       id="g510" /><g
       id="g512" /></g></svg>