<?xml version="1.0" encoding="UTF-8" standalone="no"?>
<svg
   viewBox="0 0 480 336"
   height="336"
   width="480"
   xml:space="preserve"
   id="svg2"
   version="1.1"
   sodipodi:docname="SDIDResults2nebraska vs iowa, coloradoBW.svg"
   inkscape:version="1.3.2 (091e20e, 2023-11-25, custom)"
   xmlns:inkscape="http://www.inkscape.org/namespaces/inkscape"
   xmlns:sodipodi="http://sodipodi.sourceforge.net/DTD/sodipodi-0.dtd"
   xmlns="http://www.w3.org/2000/svg"
   xmlns:svg="http://www.w3.org/2000/svg"
   xmlns:rdf="http://www.w3.org/1999/02/22-rdf-syntax-ns#"
   xmlns:cc="http://creativecommons.org/ns#"
   xmlns:dc="http://purl.org/dc/elements/1.1/"><sodipodi:namedview
     pagecolor="#ffffff"
     bordercolor="#666666"
     borderopacity="1"
     objecttolerance="10"
     gridtolerance="10"
     guidetolerance="10"
     inkscape:pageopacity="0"
     inkscape:pageshadow="2"
     inkscape:window-width="1920"
     inkscape:window-height="986"
     id="namedview11466"
     showgrid="false"
     inkscape:zoom="1.9866333"
     inkscape:cx="101.93124"
     inkscape:cy="100.42115"
     inkscape:window-x="-11"
     inkscape:window-y="-11"
     inkscape:window-maximized="1"
     inkscape:current-layer="g324"
     inkscape:showpageshadow="2"
     inkscape:pagecheckerboard="0"
     inkscape:deskcolor="#d1d1d1" /><metadata
     id="metadata8"><rdf:RDF><cc:Work
         rdf:about=""><dc:format>image/svg+xml</dc:format><dc:type
           rdf:resource="http://purl.org/dc/dcmitype/StillImage" /><dc:title /></cc:Work></rdf:RDF></metadata><defs
     id="defs6"><clipPath
       id="clipPath56"
       clipPathUnits="userSpaceOnUse"><path
         id="path54"
         d="M 45.36,31.91 H 354.52 V 207.32 H 45.36 Z" /></clipPath><filter
       style="color-interpolation-filters:sRGB;"
       inkscape:label="Greyscale"
       id="filter12013"
       x="-0.0014861112"
       y="-0.002123016"
       width="1.0029722"
       height="1.004246"><feColorMatrix
         values="0 0 1 0 0 0 0 1 0 0 0 0 1 0 0 0 0 0 1 0 "
         id="feColorMatrix12011" /></filter></defs><g
     transform="matrix(1.3333333,0,0,-1.3333333,0,336)"
     id="g10"
     style="filter:url(#filter12013)"><g
       id="g12" /><g
       id="g14" /><g
       id="g16" /><g
       id="g18" /><g
       id="g20" /><g
       id="g22" /><g
       id="g24" /><g
       id="g26" /><g
       id="g28" /><g
       id="g30" /><g
       id="g32" /><g
       id="g34" /><g
       id="g36" /><g
       id="g38" /><g
       id="g40" /><g
       id="g42" /><g
       id="g44"><path
         id="path46"
         style="fill:#ffffff;fill-opacity:1;fill-rule:nonzero;stroke:#ffffff;stroke-width:1.07000005;stroke-linecap:round;stroke-linejoin:round;stroke-miterlimit:10;stroke-dasharray:none;stroke-opacity:1"
         d="M 0,0 H 360 V 252 H 0 Z"
         inkscape:connector-curvature="0" /></g><g
       id="g48" /><g
       id="g50"><g
         clip-path="url(#clipPath56)"
         id="g52"><path
           id="path58"
           style="fill:#ffffff;fill-opacity:1;fill-rule:nonzero;stroke:none"
           d="M 45.36,31.91 H 354.52 V 207.32 H 45.36 Z"
           inkscape:connector-curvature="0" /><path
           id="path60"
           style="fill:none;stroke:#dedede;stroke-width:0.27000001;stroke-linecap:butt;stroke-linejoin:round;stroke-miterlimit:10;stroke-dasharray:none;stroke-opacity:1"
           d="M 45.36,58.38 H 354.52"
           inkscape:connector-curvature="0" /><path
           id="path62"
           style="fill:none;stroke:#dedede;stroke-width:0.27000001;stroke-linecap:butt;stroke-linejoin:round;stroke-miterlimit:10;stroke-dasharray:none;stroke-opacity:1"
           d="M 45.36,115.88 H 354.52"
           inkscape:connector-curvature="0" /><path
           id="path64"
           style="fill:none;stroke:#dedede;stroke-width:0.27000001;stroke-linecap:butt;stroke-linejoin:round;stroke-miterlimit:10;stroke-dasharray:none;stroke-opacity:1"
           d="M 45.36,173.39 H 354.52"
           inkscape:connector-curvature="0" /><path
           id="path66"
           style="fill:none;stroke:#dedede;stroke-width:0.27000001;stroke-linecap:butt;stroke-linejoin:round;stroke-miterlimit:10;stroke-dasharray:none;stroke-opacity:1"
           d="M 75.02,31.91 V 207.32"
           inkscape:connector-curvature="0" /><path
           id="path68"
           style="fill:none;stroke:#dedede;stroke-width:0.27000001;stroke-linecap:butt;stroke-linejoin:round;stroke-miterlimit:10;stroke-dasharray:none;stroke-opacity:1"
           d="M 106.25,31.91 V 207.32"
           inkscape:connector-curvature="0" /><path
           id="path70"
           style="fill:none;stroke:#dedede;stroke-width:0.27000001;stroke-linecap:butt;stroke-linejoin:round;stroke-miterlimit:10;stroke-dasharray:none;stroke-opacity:1"
           d="M 137.48,31.91 V 207.32"
           inkscape:connector-curvature="0" /><path
           id="path72"
           style="fill:none;stroke:#dedede;stroke-width:0.27000001;stroke-linecap:butt;stroke-linejoin:round;stroke-miterlimit:10;stroke-dasharray:none;stroke-opacity:1"
           d="M 168.71,31.91 V 207.32"
           inkscape:connector-curvature="0" /><path
           id="path74"
           style="fill:none;stroke:#dedede;stroke-width:0.27000001;stroke-linecap:butt;stroke-linejoin:round;stroke-miterlimit:10;stroke-dasharray:none;stroke-opacity:1"
           d="M 199.94,31.91 V 207.32"
           inkscape:connector-curvature="0" /><path
           id="path76"
           style="fill:none;stroke:#dedede;stroke-width:0.27000001;stroke-linecap:butt;stroke-linejoin:round;stroke-miterlimit:10;stroke-dasharray:none;stroke-opacity:1"
           d="M 231.17,31.91 V 207.32"
           inkscape:connector-curvature="0" /><path
           id="path78"
           style="fill:none;stroke:#dedede;stroke-width:0.27000001;stroke-linecap:butt;stroke-linejoin:round;stroke-miterlimit:10;stroke-dasharray:none;stroke-opacity:1"
           d="M 262.4,31.91 V 207.32"
           inkscape:connector-curvature="0" /><path
           id="path80"
           style="fill:none;stroke:#dedede;stroke-width:0.27000001;stroke-linecap:butt;stroke-linejoin:round;stroke-miterlimit:10;stroke-dasharray:none;stroke-opacity:1"
           d="M 293.62,31.91 V 207.32"
           inkscape:connector-curvature="0" /><path
           id="path82"
           style="fill:none;stroke:#dedede;stroke-width:0.27000001;stroke-linecap:butt;stroke-linejoin:round;stroke-miterlimit:10;stroke-dasharray:none;stroke-opacity:1"
           d="M 324.85,31.91 V 207.32"
           inkscape:connector-curvature="0" /><path
           id="path84"
           style="fill:none;stroke:#dedede;stroke-width:0.52999997;stroke-linecap:butt;stroke-linejoin:round;stroke-miterlimit:10;stroke-dasharray:none;stroke-opacity:1"
           d="M 45.36,87.13 H 354.52"
           inkscape:connector-curvature="0" /><path
           id="path86"
           style="fill:none;stroke:#dedede;stroke-width:0.52999997;stroke-linecap:butt;stroke-linejoin:round;stroke-miterlimit:10;stroke-dasharray:none;stroke-opacity:1"
           d="M 45.36,144.63 H 354.52"
           inkscape:connector-curvature="0" /><path
           id="path88"
           style="fill:none;stroke:#dedede;stroke-width:0.52999997;stroke-linecap:butt;stroke-linejoin:round;stroke-miterlimit:10;stroke-dasharray:none;stroke-opacity:1"
           d="M 45.36,202.14 H 354.52"
           inkscape:connector-curvature="0" /><path
           id="path90"
           style="fill:none;stroke:#dedede;stroke-width:0.52999997;stroke-linecap:butt;stroke-linejoin:round;stroke-miterlimit:10;stroke-dasharray:none;stroke-opacity:1"
           d="M 59.41,31.91 V 207.32"
           inkscape:connector-curvature="0" /><path
           id="path92"
           style="fill:none;stroke:#dedede;stroke-width:0.52999997;stroke-linecap:butt;stroke-linejoin:round;stroke-miterlimit:10;stroke-dasharray:none;stroke-opacity:1"
           d="M 90.64,31.91 V 207.32"
           inkscape:connector-curvature="0" /><path
           id="path94"
           style="fill:none;stroke:#dedede;stroke-width:0.52999997;stroke-linecap:butt;stroke-linejoin:round;stroke-miterlimit:10;stroke-dasharray:none;stroke-opacity:1"
           d="M 121.87,31.91 V 207.32"
           inkscape:connector-curvature="0" /><path
           id="path96"
           style="fill:none;stroke:#dedede;stroke-width:0.52999997;stroke-linecap:butt;stroke-linejoin:round;stroke-miterlimit:10;stroke-dasharray:none;stroke-opacity:1"
           d="M 153.1,31.91 V 207.32"
           inkscape:connector-curvature="0" /><path
           id="path98"
           style="fill:none;stroke:#dedede;stroke-width:0.52999997;stroke-linecap:butt;stroke-linejoin:round;stroke-miterlimit:10;stroke-dasharray:none;stroke-opacity:1"
           d="M 184.32,31.91 V 207.32"
           inkscape:connector-curvature="0" /><path
           id="path100"
           style="fill:none;stroke:#dedede;stroke-width:0.52999997;stroke-linecap:butt;stroke-linejoin:round;stroke-miterlimit:10;stroke-dasharray:none;stroke-opacity:1"
           d="M 215.55,31.91 V 207.32"
           inkscape:connector-curvature="0" /><path
           id="path102"
           style="fill:none;stroke:#dedede;stroke-width:0.52999997;stroke-linecap:butt;stroke-linejoin:round;stroke-miterlimit:10;stroke-dasharray:none;stroke-opacity:1"
           d="M 246.78,31.91 V 207.32"
           inkscape:connector-curvature="0" /><path
           id="path104"
           style="fill:none;stroke:#dedede;stroke-width:0.52999997;stroke-linecap:butt;stroke-linejoin:round;stroke-miterlimit:10;stroke-dasharray:none;stroke-opacity:1"
           d="M 278.01,31.91 V 207.32"
           inkscape:connector-curvature="0" /><path
           id="path106"
           style="fill:none;stroke:#dedede;stroke-width:0.52999997;stroke-linecap:butt;stroke-linejoin:round;stroke-miterlimit:10;stroke-dasharray:none;stroke-opacity:1"
           d="M 309.24,31.91 V 207.32"
           inkscape:connector-curvature="0" /><path
           id="path108"
           style="fill:none;stroke:#dedede;stroke-width:0.52999997;stroke-linecap:butt;stroke-linejoin:round;stroke-miterlimit:10;stroke-dasharray:none;stroke-opacity:1"
           d="M 340.47,31.91 V 207.32"
           inkscape:connector-curvature="0" /><path
           id="path110"
           style="fill:none;stroke:#f8766d;stroke-width:1.07000005;stroke-linecap:butt;stroke-linejoin:round;stroke-miterlimit:10;stroke-dasharray:none;stroke-opacity:0.37600002"
           d="m 59.41,111.86 31.23,-9.76 31.23,-16.31 31.23,-6.04 31.22,5.01 31.23,9.47 31.23,6.79 31.23,3.43 31.23,6.14 31.23,5.68"
           inkscape:connector-curvature="0" /><path
           id="path112"
           style="fill:none;stroke:#00bfc4;stroke-width:1.07000005;stroke-linecap:butt;stroke-linejoin:round;stroke-miterlimit:10;stroke-dasharray:none;stroke-opacity:0.37600002"
           d="m 59.41,188.12 31.23,-18.18 31.23,-8 31.23,-10.5 31.22,-1.29 31.23,-0.24 31.23,7.32 31.23,10.7 31.23,7.18 31.23,24.24"
           inkscape:connector-curvature="0" /><path
           id="path114"
           style="fill:none;stroke:#00bfc4;stroke-width:0.70999998;stroke-linecap:round;stroke-linejoin:round;stroke-miterlimit:10;stroke-dasharray:none;stroke-opacity:1"
           d="m 260.97,166.61 c 0,0.79 0.64,1.43 1.43,1.43 0.78,0 1.42,-0.64 1.42,-1.43 0,-0.78 -0.64,-1.42 -1.42,-1.42 -0.79,0 -1.43,0.64 -1.43,1.42"
           inkscape:connector-curvature="0" /><path
           id="path116"
           style="fill:none;stroke:#f8766d;stroke-width:0.70999998;stroke-linecap:round;stroke-linejoin:round;stroke-miterlimit:10;stroke-dasharray:none;stroke-opacity:1"
           d="m 260.97,175.84 c 0,0.78 0.64,1.42 1.43,1.42 0.78,0 1.42,-0.64 1.42,-1.42 0,-0.78 -0.64,-1.42 -1.42,-1.42 -0.79,0 -1.43,0.64 -1.43,1.42"
           inkscape:connector-curvature="0" /><path
           id="path118"
           style="fill:#00bfc4;fill-opacity:1;fill-rule:nonzero;stroke:#00bfc4;stroke-width:0.70999998;stroke-linecap:round;stroke-linejoin:round;stroke-miterlimit:10;stroke-dasharray:none;stroke-opacity:1"
           d="m 125.87,160.95 c 0,0.78 0.64,1.42 1.42,1.42 0.78,0 1.42,-0.64 1.42,-1.42 0,-0.78 -0.64,-1.42 -1.42,-1.42 -0.78,0 -1.42,0.64 -1.42,1.42"
           inkscape:connector-curvature="0" /><path
           id="path120"
           style="fill:#f8766d;fill-opacity:1;fill-rule:nonzero;stroke:#f8766d;stroke-width:0.70999998;stroke-linecap:round;stroke-linejoin:round;stroke-miterlimit:10;stroke-dasharray:none;stroke-opacity:1"
           d="m 125.87,87 c 0,0.78 0.64,1.42 1.42,1.42 0.78,0 1.42,-0.64 1.42,-1.42 0,-0.79 -0.64,-1.43 -1.42,-1.43 -0.78,0 -1.42,0.64 -1.42,1.43"
           inkscape:connector-curvature="0" /><path
           id="path122"
           style="fill:#f8766d;fill-opacity:1;fill-rule:nonzero;stroke:#f8766d;stroke-width:0.70999998;stroke-linecap:round;stroke-linejoin:round;stroke-miterlimit:10;stroke-dasharray:none;stroke-opacity:1"
           d="m 260.97,101.89 c 0,0.78 0.64,1.42 1.43,1.42 0.78,0 1.42,-0.64 1.42,-1.42 0,-0.78 -0.64,-1.42 -1.42,-1.42 -0.79,0 -1.43,0.64 -1.43,1.42"
           inkscape:connector-curvature="0" /><path
           id="path124"
           style="fill:#00bfc4;fill-opacity:1;fill-rule:nonzero;stroke:#00bfc4;stroke-width:0.70999998;stroke-linecap:round;stroke-linejoin:round;stroke-miterlimit:10;stroke-dasharray:none;stroke-opacity:1"
           d="m 260.97,166.61 c 0,0.79 0.64,1.43 1.43,1.43 0.78,0 1.42,-0.64 1.42,-1.43 0,-0.78 -0.64,-1.42 -1.42,-1.42 -0.79,0 -1.43,0.64 -1.43,1.42"
           inkscape:connector-curvature="0" /><path
           id="path126"
           style="fill:none;stroke:#f8766d;stroke-width:1.07000005;stroke-linecap:butt;stroke-linejoin:round;stroke-miterlimit:10;stroke-dasharray:none;stroke-opacity:1"
           d="M 127.29,87 262.4,101.89"
           inkscape:connector-curvature="0" /><path
           id="path128"
           style="fill:none;stroke:#00bfc4;stroke-width:1.07000005;stroke-linecap:butt;stroke-linejoin:round;stroke-miterlimit:10;stroke-dasharray:none;stroke-opacity:1"
           d="m 127.29,160.95 135.11,5.66"
           inkscape:connector-curvature="0" /><path
           id="path130"
           style="fill:none;stroke:#000000;stroke-width:1.07000005;stroke-linecap:butt;stroke-linejoin:round;stroke-miterlimit:10;stroke-dasharray:4.27, 4.27;stroke-dashoffset:0;stroke-opacity:0.475"
           d="M 127.29,160.95 262.4,175.84"
           inkscape:connector-curvature="0" /><path
           id="path132"
           style="fill:none;stroke:#000000;stroke-width:1.07000005;stroke-linecap:butt;stroke-linejoin:round;stroke-miterlimit:10;stroke-dasharray:4.27, 4.27;stroke-dashoffset:0;stroke-opacity:0.34100001"
           d="m 127.29,87 v 73.95"
           inkscape:connector-curvature="0" /><path
           id="path134"
           style="fill:none;stroke:#000000;stroke-width:1.07000005;stroke-linecap:butt;stroke-linejoin:round;stroke-miterlimit:10;stroke-dasharray:4.27, 4.27;stroke-dashoffset:0;stroke-opacity:0.34100001"
           d="m 262.4,101.89 v 73.95"
           inkscape:connector-curvature="0" /><path
           id="path136"
           style="fill:none;stroke:#000000;stroke-width:1.07000005;stroke-linecap:butt;stroke-linejoin:round;stroke-miterlimit:10;stroke-dasharray:none;stroke-opacity:0.10199998"
           d="M 153.1,31.91 V 207.32"
           inkscape:connector-curvature="0" /><path
           id="path138"
           style="fill:#f8766d;fill-opacity:0.34100001;fill-rule:nonzero;stroke:none"
           d="m 59.41,52.84 31.23,-12.96 31.23,27.57 31.23,12.3 V 39.88 H 121.87 90.64 59.41 Z"
           inkscape:connector-curvature="0" /><path
           id="path140"
           style="fill:none;stroke:#000000;stroke-width:1.07000005;stroke-linecap:butt;stroke-linejoin:round;stroke-miterlimit:10;stroke-dasharray:none;stroke-opacity:1"
           d="m 59.41,52.84 31.23,-12.96 31.23,27.57 31.23,12.3"
           inkscape:connector-curvature="0" /><path
           id="path142"
           style="fill:none;stroke:#000000;stroke-width:1.07000005;stroke-linecap:butt;stroke-linejoin:round;stroke-miterlimit:10;stroke-dasharray:none;stroke-opacity:1"
           d="M 153.1,39.88 H 121.87 90.64 59.41"
           inkscape:connector-curvature="0" /><path
           id="path144"
           style="fill:none;stroke:#000000;stroke-width:1.07000005;stroke-linecap:butt;stroke-linejoin:round;stroke-miterlimit:10;stroke-dasharray:none;stroke-opacity:1"
           d="m 262.4,175.84 -0.04,-0.07 -0.17,-0.31 -0.2,-0.39 -0.18,-0.35 -0.14,-0.33 -0.13,-0.32 -0.09,-0.3 -0.09,-0.28 -0.08,-0.31 -0.08,-0.34 -0.06,-0.34 -0.03,-0.32 -0.03,-0.29 -0.03,-0.31 v -0.35 -0.35 l 0.03,-0.32 0.03,-0.29 0.03,-0.31 0.06,-0.34 0.08,-0.34 0.08,-0.31 0.09,-0.28 0.09,-0.3 0.13,-0.32 0.14,-0.33 0.18,-0.35 0.2,-0.39 0.17,-0.32 0.04,-0.07"
           inkscape:connector-curvature="0" /><path
           id="path146"
           style="fill:none;stroke:#000000;stroke-width:1.07000005;stroke-linecap:butt;stroke-linejoin:round;stroke-miterlimit:10;stroke-dasharray:none;stroke-opacity:1"
           d="m 257.6,169.63 4.8,-3.02 0.21,5.67"
           inkscape:connector-curvature="0" /><path
           id="path148"
           style="fill:none;stroke:#000000;stroke-width:1.07000005;stroke-linecap:butt;stroke-linejoin:round;stroke-miterlimit:10;stroke-dasharray:none;stroke-opacity:0.10199998"
           d="m 262.4,194.21 -0.11,-0.21 -0.5,-0.93 -0.62,-1.18 -0.52,-1.05 -0.43,-0.97 -0.37,-0.97 -0.3,-0.9 -0.25,-0.84 -0.25,-0.91 -0.22,-1.02 -0.18,-1.02 -0.11,-0.95 -0.09,-0.86 -0.07,-0.95 -0.02,-1.04 0.02,-1.04 0.07,-0.94 0.09,-0.87 0.11,-0.94 0.18,-1.03 0.22,-1.01 0.25,-0.92 0.25,-0.83 0.3,-0.91 0.37,-0.97 0.43,-0.97 0.52,-1.04 0.62,-1.19 0.5,-0.93 0.11,-0.21"
           inkscape:connector-curvature="0" /><path
           id="path150"
           style="fill:none;stroke:#000000;stroke-width:1.07000005;stroke-linecap:butt;stroke-linejoin:round;stroke-miterlimit:10;stroke-dasharray:none;stroke-opacity:0.10199998"
           d="m 257.6,169.63 4.8,-3.02 0.21,5.67"
           inkscape:connector-curvature="0" /><path
           id="path152"
           style="fill:none;stroke:#000000;stroke-width:1.07000005;stroke-linecap:butt;stroke-linejoin:round;stroke-miterlimit:10;stroke-dasharray:none;stroke-opacity:0.10199998"
           d="m 262.4,157.48 0.03,0.07 0.17,0.3 0.2,0.4 0.17,0.34 0.15,0.32 0.12,0.32 0.1,0.3 0.08,0.28 0.08,0.3 0.08,0.34 0.06,0.34 0.03,0.31 0.03,0.29 0.02,0.31 0.01,0.35 -0.01,0.34 -0.02,0.31 -0.03,0.29 -0.03,0.31 -0.06,0.34 -0.08,0.34 -0.08,0.3 -0.08,0.28 -0.1,0.3 -0.12,0.32 -0.15,0.32 -0.17,0.35 -0.2,0.39 -0.17,0.3 -0.03,0.07"
           inkscape:connector-curvature="0" /><path
           id="path154"
           style="fill:none;stroke:#000000;stroke-width:1.07000005;stroke-linecap:butt;stroke-linejoin:round;stroke-miterlimit:10;stroke-dasharray:none;stroke-opacity:0.10199998"
           d="m 267.19,163.6 -4.79,3.01 -0.22,-5.66"
           inkscape:connector-curvature="0" /><path
           id="path156"
           style="fill:none;stroke:#b3b3b3;stroke-width:1.07000005;stroke-linecap:round;stroke-linejoin:round;stroke-miterlimit:10;stroke-dasharray:none;stroke-opacity:1"
           d="M 45.36,31.91 H 354.52 V 207.32 H 45.36 Z"
           inkscape:connector-curvature="0" /></g></g><g
       id="g158" /><g
       id="g160" /><g
       id="g162" /><g
       id="g164" /><g
       id="g166" /><g
       id="g168" /><g
       id="g170" /><g
       id="g172" /><g
       id="g174" /><g
       id="g176" /><g
       id="g178" /><g
       id="g180" /><g
       id="g182" /><g
       id="g184" /><g
       id="g186" /><g
       id="g188"><text
   id="text192"
   style="font-variant:normal;font-weight:normal;font-size:9px;font-family:Helvetica;-inkscape-font-specification:Helvetica;writing-mode:lr-tb;fill:#4d4d4d;fill-opacity:1;fill-rule:nonzero;stroke:none"
   transform="matrix(1,0,0,-1,30.42,83.9)"><tspan
     id="tspan190"
     y="0"
     x="0 5.0040002">45</tspan></text>

<text
   id="text196"
   style="font-variant:normal;font-weight:normal;font-size:9px;font-family:Helvetica;-inkscape-font-specification:Helvetica;writing-mode:lr-tb;fill:#4d4d4d;fill-opacity:1;fill-rule:nonzero;stroke:none"
   transform="matrix(1,0,0,-1,30.42,141.4)"><tspan
     id="tspan194"
     y="0"
     x="0 5.0040002">50</tspan></text>

<text
   id="text200"
   style="font-variant:normal;font-weight:normal;font-size:9px;font-family:Helvetica;-inkscape-font-specification:Helvetica;writing-mode:lr-tb;fill:#4d4d4d;fill-opacity:1;fill-rule:nonzero;stroke:none"
   transform="matrix(1,0,0,-1,30.42,198.91)"><tspan
     id="tspan198"
     y="0"
     x="0 5.0040002">55</tspan></text>

</g><g
       id="g202" /><g
       id="g204" /><g
       id="g206"><path
         id="path208"
         style="fill:none;stroke:#b3b3b3;stroke-width:0.52999997;stroke-linecap:butt;stroke-linejoin:round;stroke-miterlimit:10;stroke-dasharray:none;stroke-opacity:1"
         d="m 42.62,87.13 h 2.74"
         inkscape:connector-curvature="0" /><path
         id="path210"
         style="fill:none;stroke:#b3b3b3;stroke-width:0.52999997;stroke-linecap:butt;stroke-linejoin:round;stroke-miterlimit:10;stroke-dasharray:none;stroke-opacity:1"
         d="m 42.62,144.63 h 2.74"
         inkscape:connector-curvature="0" /><path
         id="path212"
         style="fill:none;stroke:#b3b3b3;stroke-width:0.52999997;stroke-linecap:butt;stroke-linejoin:round;stroke-miterlimit:10;stroke-dasharray:none;stroke-opacity:1"
         d="m 42.62,202.14 h 2.74"
         inkscape:connector-curvature="0" /></g><g
       id="g214" /><g
       id="g216" /><g
       id="g218" /><g
       id="g220" /><g
       id="g222" /><g
       id="g224" /><g
       id="g226" /><g
       id="g228" /><g
       id="g230" /><g
       id="g232" /><g
       id="g234"><path
         id="path236"
         style="fill:none;stroke:#b3b3b3;stroke-width:0.52999997;stroke-linecap:butt;stroke-linejoin:round;stroke-miterlimit:10;stroke-dasharray:none;stroke-opacity:1"
         d="m 59.41,29.17 v 2.74"
         inkscape:connector-curvature="0" /><path
         id="path238"
         style="fill:none;stroke:#b3b3b3;stroke-width:0.52999997;stroke-linecap:butt;stroke-linejoin:round;stroke-miterlimit:10;stroke-dasharray:none;stroke-opacity:1"
         d="m 90.64,29.17 v 2.74"
         inkscape:connector-curvature="0" /><path
         id="path240"
         style="fill:none;stroke:#b3b3b3;stroke-width:0.52999997;stroke-linecap:butt;stroke-linejoin:round;stroke-miterlimit:10;stroke-dasharray:none;stroke-opacity:1"
         d="m 121.87,29.17 v 2.74"
         inkscape:connector-curvature="0" /><path
         id="path242"
         style="fill:none;stroke:#b3b3b3;stroke-width:0.52999997;stroke-linecap:butt;stroke-linejoin:round;stroke-miterlimit:10;stroke-dasharray:none;stroke-opacity:1"
         d="m 153.1,29.17 v 2.74"
         inkscape:connector-curvature="0" /><path
         id="path244"
         style="fill:none;stroke:#b3b3b3;stroke-width:0.52999997;stroke-linecap:butt;stroke-linejoin:round;stroke-miterlimit:10;stroke-dasharray:none;stroke-opacity:1"
         d="m 184.32,29.17 v 2.74"
         inkscape:connector-curvature="0" /><path
         id="path246"
         style="fill:none;stroke:#b3b3b3;stroke-width:0.52999997;stroke-linecap:butt;stroke-linejoin:round;stroke-miterlimit:10;stroke-dasharray:none;stroke-opacity:1"
         d="m 215.55,29.17 v 2.74"
         inkscape:connector-curvature="0" /><path
         id="path248"
         style="fill:none;stroke:#b3b3b3;stroke-width:0.52999997;stroke-linecap:butt;stroke-linejoin:round;stroke-miterlimit:10;stroke-dasharray:none;stroke-opacity:1"
         d="m 246.78,29.17 v 2.74"
         inkscape:connector-curvature="0" /><path
         id="path250"
         style="fill:none;stroke:#b3b3b3;stroke-width:0.52999997;stroke-linecap:butt;stroke-linejoin:round;stroke-miterlimit:10;stroke-dasharray:none;stroke-opacity:1"
         d="m 278.01,29.17 v 2.74"
         inkscape:connector-curvature="0" /><path
         id="path252"
         style="fill:none;stroke:#b3b3b3;stroke-width:0.52999997;stroke-linecap:butt;stroke-linejoin:round;stroke-miterlimit:10;stroke-dasharray:none;stroke-opacity:1"
         d="m 309.24,29.17 v 2.74"
         inkscape:connector-curvature="0" /><path
         id="path254"
         style="fill:none;stroke:#b3b3b3;stroke-width:0.52999997;stroke-linecap:butt;stroke-linejoin:round;stroke-miterlimit:10;stroke-dasharray:none;stroke-opacity:1"
         d="m 340.47,29.17 v 2.74"
         inkscape:connector-curvature="0" /></g><g
       id="g256" /><g
       id="g258"><text
   id="text262"
   style="font-variant:normal;font-weight:normal;font-size:9px;font-family:Helvetica;-inkscape-font-specification:Helvetica;writing-mode:lr-tb;fill:#4d4d4d;fill-opacity:1;fill-rule:nonzero;stroke:none"
   transform="matrix(1,0,0,-1,49.4,20.52)"><tspan
     id="tspan260"
     y="0"
     x="0 5.0040002 10.008 15.012">2010</tspan></text>

<text
   id="text266"
   style="font-variant:normal;font-weight:normal;font-size:9px;font-family:Helvetica;-inkscape-font-specification:Helvetica;writing-mode:lr-tb;fill:#4d4d4d;fill-opacity:1;fill-rule:nonzero;stroke:none"
   transform="matrix(1,0,0,-1,80.63,20.52)"><tspan
     id="tspan264"
     y="0"
     x="0 5.0040002 10.008 15.012">2011</tspan></text>

<text
   id="text270"
   style="font-variant:normal;font-weight:normal;font-size:9px;font-family:Helvetica;-inkscape-font-specification:Helvetica;writing-mode:lr-tb;fill:#4d4d4d;fill-opacity:1;fill-rule:nonzero;stroke:none"
   transform="matrix(1,0,0,-1,111.86,20.52)"><tspan
     id="tspan268"
     y="0"
     x="0 5.0040002 10.008 15.012">2012</tspan></text>

<text
   id="text274"
   style="font-variant:normal;font-weight:normal;font-size:9px;font-family:Helvetica;-inkscape-font-specification:Helvetica;writing-mode:lr-tb;fill:#4d4d4d;fill-opacity:1;fill-rule:nonzero;stroke:none"
   transform="matrix(1,0,0,-1,143.09,20.52)"><tspan
     id="tspan272"
     y="0"
     x="0 5.0040002 10.008 15.012">2013</tspan></text>

<text
   id="text278"
   style="font-variant:normal;font-weight:normal;font-size:9px;font-family:Helvetica;-inkscape-font-specification:Helvetica;writing-mode:lr-tb;fill:#4d4d4d;fill-opacity:1;fill-rule:nonzero;stroke:none"
   transform="matrix(1,0,0,-1,174.32,20.52)"><tspan
     id="tspan276"
     y="0"
     x="0 5.0040002 10.008 15.012">2014</tspan></text>

<text
   id="text282"
   style="font-variant:normal;font-weight:normal;font-size:9px;font-family:Helvetica;-inkscape-font-specification:Helvetica;writing-mode:lr-tb;fill:#4d4d4d;fill-opacity:1;fill-rule:nonzero;stroke:none"
   transform="matrix(1,0,0,-1,205.54,20.52)"><tspan
     id="tspan280"
     y="0"
     x="0 5.0040002 10.008 15.012">2015</tspan></text>

<text
   id="text286"
   style="font-variant:normal;font-weight:normal;font-size:9px;font-family:Helvetica;-inkscape-font-specification:Helvetica;writing-mode:lr-tb;fill:#4d4d4d;fill-opacity:1;fill-rule:nonzero;stroke:none"
   transform="matrix(1,0,0,-1,236.77,20.52)"><tspan
     id="tspan284"
     y="0"
     x="0 5.0040002 10.008 15.012">2016</tspan></text>

<text
   id="text290"
   style="font-variant:normal;font-weight:normal;font-size:9px;font-family:Helvetica;-inkscape-font-specification:Helvetica;writing-mode:lr-tb;fill:#4d4d4d;fill-opacity:1;fill-rule:nonzero;stroke:none"
   transform="matrix(1,0,0,-1,268,20.52)"><tspan
     id="tspan288"
     y="0"
     x="0 5.0040002 10.008 15.012">2017</tspan></text>

<text
   id="text294"
   style="font-variant:normal;font-weight:normal;font-size:9px;font-family:Helvetica;-inkscape-font-specification:Helvetica;writing-mode:lr-tb;fill:#4d4d4d;fill-opacity:1;fill-rule:nonzero;stroke:none"
   transform="matrix(1,0,0,-1,299.23,20.52)"><tspan
     id="tspan292"
     y="0"
     x="0 5.0040002 10.008 15.012">2018</tspan></text>

<text
   id="text298"
   style="font-variant:normal;font-weight:normal;font-size:9px;font-family:Helvetica;-inkscape-font-specification:Helvetica;writing-mode:lr-tb;fill:#4d4d4d;fill-opacity:1;fill-rule:nonzero;stroke:none"
   transform="matrix(1,0,0,-1,330.46,20.52)"><tspan
     id="tspan296"
     y="0"
     x="0 5.0040002 10.008 15.012">2019</tspan></text>

</g><g
       id="g300" /><g
       id="g302" /><g
       id="g304" /><g
       id="g306" /><g
       id="g308" /><g
       id="g310" /><g
       id="g312" /><g
       id="g314"><text
   id="text318"
   style="font-variant:normal;font-weight:normal;font-size:11px;font-family:Helvetica;-inkscape-font-specification:Helvetica;writing-mode:lr-tb;fill:#000000;fill-opacity:1;fill-rule:nonzero;stroke:none"
   transform="matrix(1,0,0,-1,188.32,7.9)"><tspan
     id="tspan316"
     y="0"
     x="0 7.9419999 14.058 17.115999">Date</tspan></text>

</g><g
       id="g320" /><g
       id="g322" /><g
       id="g324"><text
   id="text328"
   style="font-variant:normal;font-weight:normal;font-size:11px;font-family:Helvetica;-inkscape-font-specification:Helvetica;writing-mode:lr-tb;fill:#000000;fill-opacity:1;fill-rule:nonzero;stroke:none"
   transform="matrix(0,1,1,0,13.38,54.09)"><tspan
     id="tspan326"
     y="0"
     x="0 7.3369999 11 16.785999 22.011 28.127001 34.243 37.300999 43.417 49.313 51.755001 57.870998 60.929001 68.871002 74.987 81.102997 85.206001 88.264 91.321999 99.264 101.706 107.206 113.322 119.438 124.938">Preventable Heart Disease</tspan></text>

<text
   id="text332"
   style="font-style:normal;font-variant:normal;font-weight:normal;font-stretch:normal;font-size:11px;font-family:Helvetica;-inkscape-font-specification:'Helvetica, Normal';font-variant-ligatures:normal;font-variant-caps:normal;font-variant-numeric:normal;font-variant-east-asian:normal;writing-mode:lr-tb;fill:#000000;fill-opacity:1;fill-rule:nonzero;stroke:none"
   transform="matrix(0,1,1,0,0,0)"
   x="55.498001"
   y="25.26"><tspan
     sodipodi:role="line"
     id="tspan1"
     x="55.498001"
     y="25.26">Mortality Rate per 100,000</tspan></text>

</g><g
       id="g334" /><g
       id="g336" /><g
       id="g338" /><g
       id="g340" /><g
       id="g342" /><g
       id="g344" /><g
       id="g346" /><g
       id="g348" /><g
       id="g350"><path
         id="path352"
         style="fill:#ffffff;fill-opacity:1;fill-rule:nonzero;stroke:none"
         d="m 116.99,218.28 h 165.9 v 28.24 h -165.9 z"
         inkscape:connector-curvature="0" /></g><g
       id="g354" /><g
       id="g356" /><g
       id="g358" /><g
       id="g360" /><g
       id="g362" /><g
       id="g364" /><g
       id="g366" /><g
       id="g368"><path
         id="path370"
         style="fill:#ffffff;fill-opacity:1;fill-rule:nonzero;stroke:none"
         d="m 127.95,223.76 h 17.28 v 17.28 h -17.28 z"
         inkscape:connector-curvature="0" /></g><g
       id="g372" /><g
       id="g374"><path
         id="path376"
         style="fill:none;stroke:#f8766d;stroke-width:1.07000005;stroke-linecap:butt;stroke-linejoin:round;stroke-miterlimit:10;stroke-dasharray:none;stroke-opacity:1"
         d="M 129.68,232.4 H 143.5"
         inkscape:connector-curvature="0" /></g><g
       id="g378" /><g
       id="g380"><path
         id="path382"
         style="fill:none;stroke:#f8766d;stroke-width:0.70999998;stroke-linecap:round;stroke-linejoin:round;stroke-miterlimit:10;stroke-dasharray:none;stroke-opacity:1"
         d="m 135.17,232.4 c 0,0.78 0.64,1.42 1.42,1.42 0.78,0 1.42,-0.64 1.42,-1.42 0,-0.78 -0.64,-1.42 -1.42,-1.42 -0.78,0 -1.42,0.64 -1.42,1.42"
         inkscape:connector-curvature="0" /></g><g
       id="g384" /><g
       id="g386"><path
         id="path388"
         style="fill:#f8766d;fill-opacity:1;fill-rule:nonzero;stroke:#f8766d;stroke-width:0.70999998;stroke-linecap:round;stroke-linejoin:round;stroke-miterlimit:10;stroke-dasharray:none;stroke-opacity:1"
         d="m 135.17,232.4 c 0,0.78 0.64,1.42 1.42,1.42 0.78,0 1.42,-0.64 1.42,-1.42 0,-0.78 -0.64,-1.42 -1.42,-1.42 -0.78,0 -1.42,0.64 -1.42,1.42"
         inkscape:connector-curvature="0" /></g><g
       id="g390" /><g
       id="g392"><path
         id="path394"
         style="fill:none;stroke:#f8766d;stroke-width:1.07000005;stroke-linecap:butt;stroke-linejoin:round;stroke-miterlimit:10;stroke-dasharray:none;stroke-opacity:1"
         d="M 129.68,232.4 H 143.5"
         inkscape:connector-curvature="0" /></g><g
       id="g396" /><g
       id="g398"><path
         id="path400"
         style="fill:#ffffff;fill-opacity:1;fill-rule:nonzero;stroke:none"
         d="m 224.71,223.76 h 17.28 v 17.28 h -17.28 z"
         inkscape:connector-curvature="0" /></g><g
       id="g402" /><g
       id="g404"><path
         id="path406"
         style="fill:none;stroke:#00bfc4;stroke-width:1.07000005;stroke-linecap:butt;stroke-linejoin:round;stroke-miterlimit:10;stroke-dasharray:none;stroke-opacity:1"
         d="m 226.44,232.4 h 13.83"
         inkscape:connector-curvature="0" /></g><g
       id="g408" /><g
       id="g410"><path
         id="path412"
         style="fill:none;stroke:#00bfc4;stroke-width:0.70999998;stroke-linecap:round;stroke-linejoin:round;stroke-miterlimit:10;stroke-dasharray:none;stroke-opacity:1"
         d="m 231.93,232.4 c 0,0.78 0.64,1.42 1.42,1.42 0.79,0 1.43,-0.64 1.43,-1.42 0,-0.78 -0.64,-1.42 -1.43,-1.42 -0.78,0 -1.42,0.64 -1.42,1.42"
         inkscape:connector-curvature="0" /></g><g
       id="g414" /><g
       id="g416"><path
         id="path418"
         style="fill:#00bfc4;fill-opacity:1;fill-rule:nonzero;stroke:#00bfc4;stroke-width:0.70999998;stroke-linecap:round;stroke-linejoin:round;stroke-miterlimit:10;stroke-dasharray:none;stroke-opacity:1"
         d="m 231.93,232.4 c 0,0.78 0.64,1.42 1.42,1.42 0.79,0 1.43,-0.64 1.43,-1.42 0,-0.78 -0.64,-1.42 -1.43,-1.42 -0.78,0 -1.42,0.64 -1.42,1.42"
         inkscape:connector-curvature="0" /></g><g
       id="g420" /><g
       id="g422"><path
         id="path424"
         style="fill:none;stroke:#00bfc4;stroke-width:1.07000005;stroke-linecap:butt;stroke-linejoin:round;stroke-miterlimit:10;stroke-dasharray:none;stroke-opacity:1"
         d="m 226.44,232.4 h 13.83"
         inkscape:connector-curvature="0" /></g><g
       id="g426" /><g
       id="g428" /><g
       id="g430" /><g
       id="g432"><text
   id="text436"
   style="font-variant:normal;font-weight:normal;font-size:9px;font-family:Helvetica;-inkscape-font-specification:Helvetica;writing-mode:lr-tb;fill:#000000;fill-opacity:1;fill-rule:nonzero;stroke:none"
   transform="matrix(1,0,0,-1,150.71,229.17)"><tspan
     id="tspan434"
     y="0"
     x="0 6.0029998 10.503 15.507 18.009001 23.013 28.017 30.518999 32.516998 37.016998 39.519001 46.016998 51.021 56.025002 58.527 61.523998 66.528">Synthetic Control</tspan></text>

</g><g
       id="g438" /><g
       id="g440" /><g
       id="g442" /><g
       id="g444" /><g
       id="g446" /><g
       id="g448"><text
   id="text452"
   style="font-variant:normal;font-weight:normal;font-size:9px;font-family:Helvetica;-inkscape-font-specification:Helvetica;writing-mode:lr-tb;fill:#000000;fill-opacity:1;fill-rule:nonzero;stroke:none"
   transform="matrix(1,0,0,-1,247.47,229.17)"><tspan
     id="tspan450"
     y="0"
     x="0 4.4190001 7.4159999 12.42 17.424 19.926001 24.93">Treated</tspan></text>

</g><g
       id="g454" /><g
       id="g456" /><g
       id="g458" /><g
       id="g460" /><g
       id="g462" /><g
       id="g464" /><g
       id="g466" /><g
       id="g468" /><g
       id="g470" /><g
       id="g472" /><g
       id="g474" /><g
       id="g476" /><g
       id="g478" /><g
       id="g480" /><g
       id="g482" /><g
       id="g484" /></g></svg>
