<?xml version="1.0" encoding="UTF-8" standalone="no"?>
<svg
   xmlns:dc="http://purl.org/dc/elements/1.1/"
   xmlns:cc="http://creativecommons.org/ns#"
   xmlns:rdf="http://www.w3.org/1999/02/22-rdf-syntax-ns#"
   xmlns:svg="http://www.w3.org/2000/svg"
   xmlns="http://www.w3.org/2000/svg"
   viewBox="0 0 480 336"
   height="336"
   width="480"
   xml:space="preserve"
   id="svg2"
   version="1.1"><metadata
     id="metadata8"><rdf:RDF><cc:Work
         rdf:about=""><dc:format>image/svg+xml</dc:format><dc:type
           rdf:resource="http://purl.org/dc/dcmitype/StillImage" /></cc:Work></rdf:RDF></metadata><defs
     id="defs6"><clipPath
       id="clipPath56"
       clipPathUnits="userSpaceOnUse"><path
         id="path54"
         d="M 50.36,31.91 H 354.52 V 207.32 H 50.36 Z" /></clipPath></defs><g
     transform="matrix(1.3333333,0,0,-1.3333333,0,336)"
     id="g10"><g
       id="g12" /><g
       id="g14" /><g
       id="g16" /><g
       id="g18" /><g
       id="g20" /><g
       id="g22" /><g
       id="g24" /><g
       id="g26" /><g
       id="g28" /><g
       id="g30" /><g
       id="g32" /><g
       id="g34" /><g
       id="g36" /><g
       id="g38" /><g
       id="g40" /><g
       id="g42" /><g
       id="g44"><path
         id="path46"
         style="fill:#ffffff;fill-opacity:1;fill-rule:nonzero;stroke:#ffffff;stroke-width:1.07000005;stroke-linecap:round;stroke-linejoin:round;stroke-miterlimit:10;stroke-dasharray:none;stroke-opacity:1"
         d="M 0,0 H 360 V 252 H 0 Z" /></g><g
       id="g48" /><g
       id="g50"><g
         clip-path="url(#clipPath56)"
         id="g52"><path
           id="path58"
           style="fill:#ffffff;fill-opacity:1;fill-rule:nonzero;stroke:none"
           d="M 50.36,31.91 H 354.52 V 207.32 H 50.36 Z" /><path
           id="path60"
           style="fill:none;stroke:#dedede;stroke-width:0.27000001;stroke-linecap:butt;stroke-linejoin:round;stroke-miterlimit:10;stroke-dasharray:none;stroke-opacity:1"
           d="M 50.36,47.68 H 354.52" /><path
           id="path62"
           style="fill:none;stroke:#dedede;stroke-width:0.27000001;stroke-linecap:butt;stroke-linejoin:round;stroke-miterlimit:10;stroke-dasharray:none;stroke-opacity:1"
           d="M 50.36,81.29 H 354.52" /><path
           id="path64"
           style="fill:none;stroke:#dedede;stroke-width:0.27000001;stroke-linecap:butt;stroke-linejoin:round;stroke-miterlimit:10;stroke-dasharray:none;stroke-opacity:1"
           d="M 50.36,114.89 H 354.52" /><path
           id="path66"
           style="fill:none;stroke:#dedede;stroke-width:0.27000001;stroke-linecap:butt;stroke-linejoin:round;stroke-miterlimit:10;stroke-dasharray:none;stroke-opacity:1"
           d="M 50.36,148.5 H 354.52" /><path
           id="path68"
           style="fill:none;stroke:#dedede;stroke-width:0.27000001;stroke-linecap:butt;stroke-linejoin:round;stroke-miterlimit:10;stroke-dasharray:none;stroke-opacity:1"
           d="M 50.36,182.11 H 354.52" /><path
           id="path70"
           style="fill:none;stroke:#dedede;stroke-width:0.27000001;stroke-linecap:butt;stroke-linejoin:round;stroke-miterlimit:10;stroke-dasharray:none;stroke-opacity:1"
           d="M 79.55,31.91 V 207.32" /><path
           id="path72"
           style="fill:none;stroke:#dedede;stroke-width:0.27000001;stroke-linecap:butt;stroke-linejoin:round;stroke-miterlimit:10;stroke-dasharray:none;stroke-opacity:1"
           d="M 110.27,31.91 V 207.32" /><path
           id="path74"
           style="fill:none;stroke:#dedede;stroke-width:0.27000001;stroke-linecap:butt;stroke-linejoin:round;stroke-miterlimit:10;stroke-dasharray:none;stroke-opacity:1"
           d="M 140.99,31.91 V 207.32" /><path
           id="path76"
           style="fill:none;stroke:#dedede;stroke-width:0.27000001;stroke-linecap:butt;stroke-linejoin:round;stroke-miterlimit:10;stroke-dasharray:none;stroke-opacity:1"
           d="M 171.72,31.91 V 207.32" /><path
           id="path78"
           style="fill:none;stroke:#dedede;stroke-width:0.27000001;stroke-linecap:butt;stroke-linejoin:round;stroke-miterlimit:10;stroke-dasharray:none;stroke-opacity:1"
           d="M 202.44,31.91 V 207.32" /><path
           id="path80"
           style="fill:none;stroke:#dedede;stroke-width:0.27000001;stroke-linecap:butt;stroke-linejoin:round;stroke-miterlimit:10;stroke-dasharray:none;stroke-opacity:1"
           d="M 233.16,31.91 V 207.32" /><path
           id="path82"
           style="fill:none;stroke:#dedede;stroke-width:0.27000001;stroke-linecap:butt;stroke-linejoin:round;stroke-miterlimit:10;stroke-dasharray:none;stroke-opacity:1"
           d="M 263.89,31.91 V 207.32" /><path
           id="path84"
           style="fill:none;stroke:#dedede;stroke-width:0.27000001;stroke-linecap:butt;stroke-linejoin:round;stroke-miterlimit:10;stroke-dasharray:none;stroke-opacity:1"
           d="M 294.61,31.91 V 207.32" /><path
           id="path86"
           style="fill:none;stroke:#dedede;stroke-width:0.27000001;stroke-linecap:butt;stroke-linejoin:round;stroke-miterlimit:10;stroke-dasharray:none;stroke-opacity:1"
           d="M 325.33,31.91 V 207.32" /><path
           id="path88"
           style="fill:none;stroke:#dedede;stroke-width:0.52999997;stroke-linecap:butt;stroke-linejoin:round;stroke-miterlimit:10;stroke-dasharray:none;stroke-opacity:1"
           d="M 50.36,64.48 H 354.52" /><path
           id="path90"
           style="fill:none;stroke:#dedede;stroke-width:0.52999997;stroke-linecap:butt;stroke-linejoin:round;stroke-miterlimit:10;stroke-dasharray:none;stroke-opacity:1"
           d="M 50.36,98.09 H 354.52" /><path
           id="path92"
           style="fill:none;stroke:#dedede;stroke-width:0.52999997;stroke-linecap:butt;stroke-linejoin:round;stroke-miterlimit:10;stroke-dasharray:none;stroke-opacity:1"
           d="M 50.36,131.7 H 354.52" /><path
           id="path94"
           style="fill:none;stroke:#dedede;stroke-width:0.52999997;stroke-linecap:butt;stroke-linejoin:round;stroke-miterlimit:10;stroke-dasharray:none;stroke-opacity:1"
           d="M 50.36,165.3 H 354.52" /><path
           id="path96"
           style="fill:none;stroke:#dedede;stroke-width:0.52999997;stroke-linecap:butt;stroke-linejoin:round;stroke-miterlimit:10;stroke-dasharray:none;stroke-opacity:1"
           d="M 50.36,198.91 H 354.52" /><path
           id="path98"
           style="fill:none;stroke:#dedede;stroke-width:0.52999997;stroke-linecap:butt;stroke-linejoin:round;stroke-miterlimit:10;stroke-dasharray:none;stroke-opacity:1"
           d="M 64.19,31.91 V 207.32" /><path
           id="path100"
           style="fill:none;stroke:#dedede;stroke-width:0.52999997;stroke-linecap:butt;stroke-linejoin:round;stroke-miterlimit:10;stroke-dasharray:none;stroke-opacity:1"
           d="M 94.91,31.91 V 207.32" /><path
           id="path102"
           style="fill:none;stroke:#dedede;stroke-width:0.52999997;stroke-linecap:butt;stroke-linejoin:round;stroke-miterlimit:10;stroke-dasharray:none;stroke-opacity:1"
           d="M 125.63,31.91 V 207.32" /><path
           id="path104"
           style="fill:none;stroke:#dedede;stroke-width:0.52999997;stroke-linecap:butt;stroke-linejoin:round;stroke-miterlimit:10;stroke-dasharray:none;stroke-opacity:1"
           d="M 156.36,31.91 V 207.32" /><path
           id="path106"
           style="fill:none;stroke:#dedede;stroke-width:0.52999997;stroke-linecap:butt;stroke-linejoin:round;stroke-miterlimit:10;stroke-dasharray:none;stroke-opacity:1"
           d="M 187.08,31.91 V 207.32" /><path
           id="path108"
           style="fill:none;stroke:#dedede;stroke-width:0.52999997;stroke-linecap:butt;stroke-linejoin:round;stroke-miterlimit:10;stroke-dasharray:none;stroke-opacity:1"
           d="M 217.8,31.91 V 207.32" /><path
           id="path110"
           style="fill:none;stroke:#dedede;stroke-width:0.52999997;stroke-linecap:butt;stroke-linejoin:round;stroke-miterlimit:10;stroke-dasharray:none;stroke-opacity:1"
           d="M 248.53,31.91 V 207.32" /><path
           id="path112"
           style="fill:none;stroke:#dedede;stroke-width:0.52999997;stroke-linecap:butt;stroke-linejoin:round;stroke-miterlimit:10;stroke-dasharray:none;stroke-opacity:1"
           d="M 279.25,31.91 V 207.32" /><path
           id="path114"
           style="fill:none;stroke:#dedede;stroke-width:0.52999997;stroke-linecap:butt;stroke-linejoin:round;stroke-miterlimit:10;stroke-dasharray:none;stroke-opacity:1"
           d="M 309.97,31.91 V 207.32" /><path
           id="path116"
           style="fill:none;stroke:#dedede;stroke-width:0.52999997;stroke-linecap:butt;stroke-linejoin:round;stroke-miterlimit:10;stroke-dasharray:none;stroke-opacity:1"
           d="M 340.7,31.91 V 207.32" /><path
           id="path118"
           style="fill:none;stroke:#f8766d;stroke-width:1.07000005;stroke-linecap:butt;stroke-linejoin:round;stroke-miterlimit:10;stroke-dasharray:none;stroke-opacity:0.37600002"
           d="m 64.19,106.39 30.72,-7.98 30.72,-0.01 30.73,2.51 30.72,0.96 30.72,-6.06 30.73,8.99 30.72,12.35 30.72,27.77 30.73,54.43" /><path
           id="path120"
           style="fill:none;stroke:#00bfc4;stroke-width:1.07000005;stroke-linecap:butt;stroke-linejoin:round;stroke-miterlimit:10;stroke-dasharray:none;stroke-opacity:0.37600002"
           d="m 64.19,95.07 30.72,-11.75 30.72,-0.9 30.73,-2.67 30.72,7.57 30.72,27.15 30.73,20.65 30.72,3.02 30.72,4.98 30.73,6.53" /><path
           id="path122"
           style="fill:none;stroke:#00bfc4;stroke-width:0.70999998;stroke-linecap:round;stroke-linejoin:round;stroke-miterlimit:10;stroke-dasharray:none;stroke-opacity:1"
           d="m 262.47,127.97 c 0,0.78 0.64,1.42 1.42,1.42 0.78,0 1.42,-0.64 1.42,-1.42 0,-0.78 -0.64,-1.42 -1.42,-1.42 -0.78,0 -1.42,0.64 -1.42,1.42" /><path
           id="path124"
           style="fill:none;stroke:#f8766d;stroke-width:0.70999998;stroke-linecap:round;stroke-linejoin:round;stroke-miterlimit:10;stroke-dasharray:none;stroke-opacity:1"
           d="m 262.47,109.53 c 0,0.79 0.64,1.43 1.42,1.43 0.78,0 1.42,-0.64 1.42,-1.43 0,-0.78 -0.64,-1.42 -1.42,-1.42 -0.78,0 -1.42,0.64 -1.42,1.42" /><path
           id="path126"
           style="fill:#00bfc4;fill-opacity:1;fill-rule:nonzero;stroke:#00bfc4;stroke-width:0.70999998;stroke-linecap:round;stroke-linejoin:round;stroke-miterlimit:10;stroke-dasharray:none;stroke-opacity:1"
           d="m 125.03,84.49 c 0,0.78 0.64,1.42 1.42,1.42 0.78,0 1.42,-0.64 1.42,-1.42 0,-0.79 -0.64,-1.43 -1.42,-1.43 -0.78,0 -1.42,0.64 -1.42,1.43" /><path
           id="path128"
           style="fill:#f8766d;fill-opacity:1;fill-rule:nonzero;stroke:#f8766d;stroke-width:0.70999998;stroke-linecap:round;stroke-linejoin:round;stroke-miterlimit:10;stroke-dasharray:none;stroke-opacity:1"
           d="m 125.03,102.27 c 0,0.78 0.64,1.42 1.42,1.42 0.78,0 1.42,-0.64 1.42,-1.42 0,-0.79 -0.64,-1.42 -1.42,-1.42 -0.78,0 -1.42,0.63 -1.42,1.42" /><path
           id="path130"
           style="fill:#f8766d;fill-opacity:1;fill-rule:nonzero;stroke:#f8766d;stroke-width:0.70999998;stroke-linecap:round;stroke-linejoin:round;stroke-miterlimit:10;stroke-dasharray:none;stroke-opacity:1"
           d="m 262.47,127.32 c 0,0.78 0.64,1.42 1.42,1.42 0.78,0 1.42,-0.64 1.42,-1.42 0,-0.79 -0.64,-1.43 -1.42,-1.43 -0.78,0 -1.42,0.64 -1.42,1.43" /><path
           id="path132"
           style="fill:#00bfc4;fill-opacity:1;fill-rule:nonzero;stroke:#00bfc4;stroke-width:0.70999998;stroke-linecap:round;stroke-linejoin:round;stroke-miterlimit:10;stroke-dasharray:none;stroke-opacity:1"
           d="m 262.47,127.97 c 0,0.78 0.64,1.42 1.42,1.42 0.78,0 1.42,-0.64 1.42,-1.42 0,-0.78 -0.64,-1.42 -1.42,-1.42 -0.78,0 -1.42,0.64 -1.42,1.42" /><path
           id="path134"
           style="fill:none;stroke:#f8766d;stroke-width:1.07000005;stroke-linecap:butt;stroke-linejoin:round;stroke-miterlimit:10;stroke-dasharray:none;stroke-opacity:1"
           d="m 126.45,102.27 137.44,25.05" /><path
           id="path136"
           style="fill:none;stroke:#00bfc4;stroke-width:1.07000005;stroke-linecap:butt;stroke-linejoin:round;stroke-miterlimit:10;stroke-dasharray:none;stroke-opacity:1"
           d="m 126.45,84.49 137.44,43.48" /><path
           id="path138"
           style="fill:none;stroke:#000000;stroke-width:1.07000005;stroke-linecap:butt;stroke-linejoin:round;stroke-miterlimit:10;stroke-dasharray:4.27, 4.27;stroke-dashoffset:0;stroke-opacity:0.475"
           d="m 126.45,84.49 137.44,25.04" /><path
           id="path140"
           style="fill:none;stroke:#000000;stroke-width:1.07000005;stroke-linecap:butt;stroke-linejoin:round;stroke-miterlimit:10;stroke-dasharray:4.27, 4.27;stroke-dashoffset:0;stroke-opacity:0.34100001"
           d="M 126.45,102.27 V 84.49" /><path
           id="path142"
           style="fill:none;stroke:#000000;stroke-width:1.07000005;stroke-linecap:butt;stroke-linejoin:round;stroke-miterlimit:10;stroke-dasharray:4.27, 4.27;stroke-dashoffset:0;stroke-opacity:0.34100001"
           d="M 263.89,127.32 V 109.53" /><path
           id="path144"
           style="fill:none;stroke:#000000;stroke-width:1.07000005;stroke-linecap:butt;stroke-linejoin:round;stroke-miterlimit:10;stroke-dasharray:none;stroke-opacity:0.10199998"
           d="M 156.36,31.91 V 207.32" /><path
           id="path146"
           style="fill:#f8766d;fill-opacity:0.34100001;fill-rule:nonzero;stroke:none"
           d="m 64.19,58.95 30.72,-19.07 30.72,6.33 30.73,33.54 V 39.88 H 125.63 94.91 64.19 Z" /><path
           id="path148"
           style="fill:none;stroke:#000000;stroke-width:1.07000005;stroke-linecap:butt;stroke-linejoin:round;stroke-miterlimit:10;stroke-dasharray:none;stroke-opacity:1"
           d="m 64.19,58.95 30.72,-19.07 30.72,6.33 30.73,33.54" /><path
           id="path150"
           style="fill:none;stroke:#000000;stroke-width:1.07000005;stroke-linecap:butt;stroke-linejoin:round;stroke-miterlimit:10;stroke-dasharray:none;stroke-opacity:1"
           d="M 156.36,39.88 H 125.63 94.91 64.19" /><path
           id="path152"
           style="fill:none;stroke:#000000;stroke-width:1.07000005;stroke-linecap:butt;stroke-linejoin:round;stroke-miterlimit:10;stroke-dasharray:none;stroke-opacity:1"
           d="m 263.89,109.53 0.07,0.15 0.33,0.62 0.42,0.79 0.34,0.69 0.29,0.65 0.25,0.65 0.2,0.61 0.16,0.55 0.17,0.62 0.15,0.67 0.12,0.69 0.08,0.63 0.05,0.58 0.05,0.63 0.02,0.69 -0.02,0.7 -0.05,0.63 -0.05,0.58 -0.08,0.63 -0.12,0.68 -0.15,0.68 -0.17,0.61 -0.16,0.56 -0.2,0.6 -0.25,0.65 -0.29,0.65 -0.34,0.7 -0.42,0.79 -0.33,0.62 -0.07,0.14" /><path
           id="path154"
           style="fill:none;stroke:#000000;stroke-width:1.07000005;stroke-linecap:butt;stroke-linejoin:round;stroke-miterlimit:10;stroke-dasharray:none;stroke-opacity:1"
           d="m 268.69,124.95 -4.8,3.02 -0.22,-5.66" /><path
           id="path156"
           style="fill:none;stroke:#000000;stroke-width:1.07000005;stroke-linecap:butt;stroke-linejoin:round;stroke-miterlimit:10;stroke-dasharray:none;stroke-opacity:0.10199998"
           d="m 263.89,132.17 -0.02,-0.04 -0.07,-0.14 -0.1,-0.18 -0.08,-0.16 -0.06,-0.14 -0.06,-0.15 -0.05,-0.14 -0.03,-0.13 -0.04,-0.13 -0.04,-0.16 -0.02,-0.15 -0.02,-0.15 -0.01,-0.13 -0.01,-0.14 -0.01,-0.16 0.01,-0.16 0.01,-0.14 0.01,-0.14 0.02,-0.14 0.02,-0.15 0.04,-0.16 0.04,-0.14 0.03,-0.12 0.05,-0.14 0.06,-0.15 0.06,-0.15 0.08,-0.16 0.1,-0.18 0.07,-0.14 0.02,-0.03" /><path
           id="path158"
           style="fill:none;stroke:#000000;stroke-width:1.07000005;stroke-linecap:butt;stroke-linejoin:round;stroke-miterlimit:10;stroke-dasharray:none;stroke-opacity:0.10199998"
           d="m 259.09,130.99 4.8,-3.02 0.21,5.67" /><path
           id="path160"
           style="fill:none;stroke:#000000;stroke-width:1.07000005;stroke-linecap:butt;stroke-linejoin:round;stroke-miterlimit:10;stroke-dasharray:none;stroke-opacity:0.10199998"
           d="m 263.89,86.9 0.13,0.25 0.6,1.14 0.85,1.62 0.76,1.48 0.63,1.33 0.27,0.64 0.5,1.32 0.42,1.24 0.34,1.14 0.34,1.2 0.33,1.33 0.14,0.67 0.24,1.4 0.17,1.3 0.12,1.18 0.1,1.24 0.06,1.37 0.01,0.69 -0.04,1.41 -0.08,1.31 -0.11,1.18 -0.14,1.24 -0.21,1.36 -0.12,0.67 -0.31,1.38 -0.33,1.27 -0.34,1.14 -0.38,1.18 -0.46,1.3 -0.25,0.63 -0.58,1.32 -0.69,1.39 -0.83,1.58 -0.78,1.48 -0.35,0.66 -0.01,0.03" /><path
           id="path162"
           style="fill:none;stroke:#000000;stroke-width:1.07000005;stroke-linecap:butt;stroke-linejoin:round;stroke-miterlimit:10;stroke-dasharray:none;stroke-opacity:0.10199998"
           d="m 268.69,124.95 -4.8,3.02 -0.22,-5.66" /><path
           id="path164"
           style="fill:none;stroke:#b3b3b3;stroke-width:1.07000005;stroke-linecap:round;stroke-linejoin:round;stroke-miterlimit:10;stroke-dasharray:none;stroke-opacity:1"
           d="M 50.36,31.91 H 354.52 V 207.32 H 50.36 Z" /></g></g><g
       id="g166" /><g
       id="g168" /><g
       id="g170" /><g
       id="g172" /><g
       id="g174" /><g
       id="g176" /><g
       id="g178" /><g
       id="g180" /><g
       id="g182" /><g
       id="g184" /><g
       id="g186" /><g
       id="g188" /><g
       id="g190" /><g
       id="g192" /><g
       id="g194" /><g
       id="g196"><text
         id="text200"
         style="font-variant:normal;font-weight:normal;font-size:9px;font-family:Helvetica;-inkscape-font-specification:Helvetica;writing-mode:lr-tb;fill:#4d4d4d;fill-opacity:1;fill-rule:nonzero;stroke:none"
         transform="matrix(1,0,0,-1,35.42,61.25)"><tspan
           id="tspan198"
           y="0"
           x="0 5.0040002">95</tspan></text>
<text
         id="text204"
         style="font-variant:normal;font-weight:normal;font-size:9px;font-family:Helvetica;-inkscape-font-specification:Helvetica;writing-mode:lr-tb;fill:#4d4d4d;fill-opacity:1;fill-rule:nonzero;stroke:none"
         transform="matrix(1,0,0,-1,30.42,94.86)"><tspan
           id="tspan202"
           y="0"
           x="0 5.0040002 10.008">100</tspan></text>
<text
         id="text208"
         style="font-variant:normal;font-weight:normal;font-size:9px;font-family:Helvetica;-inkscape-font-specification:Helvetica;writing-mode:lr-tb;fill:#4d4d4d;fill-opacity:1;fill-rule:nonzero;stroke:none"
         transform="matrix(1,0,0,-1,30.42,128.47)"><tspan
           id="tspan206"
           y="0"
           x="0 5.0040002 10.008">105</tspan></text>
<text
         id="text212"
         style="font-variant:normal;font-weight:normal;font-size:9px;font-family:Helvetica;-inkscape-font-specification:Helvetica;writing-mode:lr-tb;fill:#4d4d4d;fill-opacity:1;fill-rule:nonzero;stroke:none"
         transform="matrix(1,0,0,-1,30.42,162.07)"><tspan
           id="tspan210"
           y="0"
           x="0 5.0040002 10.008">110</tspan></text>
<text
         id="text216"
         style="font-variant:normal;font-weight:normal;font-size:9px;font-family:Helvetica;-inkscape-font-specification:Helvetica;writing-mode:lr-tb;fill:#4d4d4d;fill-opacity:1;fill-rule:nonzero;stroke:none"
         transform="matrix(1,0,0,-1,30.42,195.68)"><tspan
           id="tspan214"
           y="0"
           x="0 5.0040002 10.008">115</tspan></text>
</g><g
       id="g218" /><g
       id="g220" /><g
       id="g222"><path
         id="path224"
         style="fill:none;stroke:#b3b3b3;stroke-width:0.52999997;stroke-linecap:butt;stroke-linejoin:round;stroke-miterlimit:10;stroke-dasharray:none;stroke-opacity:1"
         d="m 47.62,64.48 h 2.74" /><path
         id="path226"
         style="fill:none;stroke:#b3b3b3;stroke-width:0.52999997;stroke-linecap:butt;stroke-linejoin:round;stroke-miterlimit:10;stroke-dasharray:none;stroke-opacity:1"
         d="m 47.62,98.09 h 2.74" /><path
         id="path228"
         style="fill:none;stroke:#b3b3b3;stroke-width:0.52999997;stroke-linecap:butt;stroke-linejoin:round;stroke-miterlimit:10;stroke-dasharray:none;stroke-opacity:1"
         d="m 47.62,131.7 h 2.74" /><path
         id="path230"
         style="fill:none;stroke:#b3b3b3;stroke-width:0.52999997;stroke-linecap:butt;stroke-linejoin:round;stroke-miterlimit:10;stroke-dasharray:none;stroke-opacity:1"
         d="m 47.62,165.3 h 2.74" /><path
         id="path232"
         style="fill:none;stroke:#b3b3b3;stroke-width:0.52999997;stroke-linecap:butt;stroke-linejoin:round;stroke-miterlimit:10;stroke-dasharray:none;stroke-opacity:1"
         d="m 47.62,198.91 h 2.74" /></g><g
       id="g234" /><g
       id="g236" /><g
       id="g238" /><g
       id="g240" /><g
       id="g242" /><g
       id="g244" /><g
       id="g246" /><g
       id="g248" /><g
       id="g250" /><g
       id="g252" /><g
       id="g254"><path
         id="path256"
         style="fill:none;stroke:#b3b3b3;stroke-width:0.52999997;stroke-linecap:butt;stroke-linejoin:round;stroke-miterlimit:10;stroke-dasharray:none;stroke-opacity:1"
         d="m 64.19,29.17 v 2.74" /><path
         id="path258"
         style="fill:none;stroke:#b3b3b3;stroke-width:0.52999997;stroke-linecap:butt;stroke-linejoin:round;stroke-miterlimit:10;stroke-dasharray:none;stroke-opacity:1"
         d="m 94.91,29.17 v 2.74" /><path
         id="path260"
         style="fill:none;stroke:#b3b3b3;stroke-width:0.52999997;stroke-linecap:butt;stroke-linejoin:round;stroke-miterlimit:10;stroke-dasharray:none;stroke-opacity:1"
         d="m 125.63,29.17 v 2.74" /><path
         id="path262"
         style="fill:none;stroke:#b3b3b3;stroke-width:0.52999997;stroke-linecap:butt;stroke-linejoin:round;stroke-miterlimit:10;stroke-dasharray:none;stroke-opacity:1"
         d="m 156.36,29.17 v 2.74" /><path
         id="path264"
         style="fill:none;stroke:#b3b3b3;stroke-width:0.52999997;stroke-linecap:butt;stroke-linejoin:round;stroke-miterlimit:10;stroke-dasharray:none;stroke-opacity:1"
         d="m 187.08,29.17 v 2.74" /><path
         id="path266"
         style="fill:none;stroke:#b3b3b3;stroke-width:0.52999997;stroke-linecap:butt;stroke-linejoin:round;stroke-miterlimit:10;stroke-dasharray:none;stroke-opacity:1"
         d="m 217.8,29.17 v 2.74" /><path
         id="path268"
         style="fill:none;stroke:#b3b3b3;stroke-width:0.52999997;stroke-linecap:butt;stroke-linejoin:round;stroke-miterlimit:10;stroke-dasharray:none;stroke-opacity:1"
         d="m 248.53,29.17 v 2.74" /><path
         id="path270"
         style="fill:none;stroke:#b3b3b3;stroke-width:0.52999997;stroke-linecap:butt;stroke-linejoin:round;stroke-miterlimit:10;stroke-dasharray:none;stroke-opacity:1"
         d="m 279.25,29.17 v 2.74" /><path
         id="path272"
         style="fill:none;stroke:#b3b3b3;stroke-width:0.52999997;stroke-linecap:butt;stroke-linejoin:round;stroke-miterlimit:10;stroke-dasharray:none;stroke-opacity:1"
         d="m 309.97,29.17 v 2.74" /><path
         id="path274"
         style="fill:none;stroke:#b3b3b3;stroke-width:0.52999997;stroke-linecap:butt;stroke-linejoin:round;stroke-miterlimit:10;stroke-dasharray:none;stroke-opacity:1"
         d="m 340.7,29.17 v 2.74" /></g><g
       id="g276" /><g
       id="g278"><text
         id="text282"
         style="font-variant:normal;font-weight:normal;font-size:9px;font-family:Helvetica;-inkscape-font-specification:Helvetica;writing-mode:lr-tb;fill:#4d4d4d;fill-opacity:1;fill-rule:nonzero;stroke:none"
         transform="matrix(1,0,0,-1,54.18,20.52)"><tspan
           id="tspan280"
           y="0"
           x="0 5.0040002 10.008 15.012">2010</tspan></text>
<text
         id="text286"
         style="font-variant:normal;font-weight:normal;font-size:9px;font-family:Helvetica;-inkscape-font-specification:Helvetica;writing-mode:lr-tb;fill:#4d4d4d;fill-opacity:1;fill-rule:nonzero;stroke:none"
         transform="matrix(1,0,0,-1,84.9,20.52)"><tspan
           id="tspan284"
           y="0"
           x="0 5.0040002 10.008 15.012">2011</tspan></text>
<text
         id="text290"
         style="font-variant:normal;font-weight:normal;font-size:9px;font-family:Helvetica;-inkscape-font-specification:Helvetica;writing-mode:lr-tb;fill:#4d4d4d;fill-opacity:1;fill-rule:nonzero;stroke:none"
         transform="matrix(1,0,0,-1,115.62,20.52)"><tspan
           id="tspan288"
           y="0"
           x="0 5.0040002 10.008 15.012">2012</tspan></text>
<text
         id="text294"
         style="font-variant:normal;font-weight:normal;font-size:9px;font-family:Helvetica;-inkscape-font-specification:Helvetica;writing-mode:lr-tb;fill:#4d4d4d;fill-opacity:1;fill-rule:nonzero;stroke:none"
         transform="matrix(1,0,0,-1,146.35,20.52)"><tspan
           id="tspan292"
           y="0"
           x="0 5.0040002 10.008 15.012">2013</tspan></text>
<text
         id="text298"
         style="font-variant:normal;font-weight:normal;font-size:9px;font-family:Helvetica;-inkscape-font-specification:Helvetica;writing-mode:lr-tb;fill:#4d4d4d;fill-opacity:1;fill-rule:nonzero;stroke:none"
         transform="matrix(1,0,0,-1,177.07,20.52)"><tspan
           id="tspan296"
           y="0"
           x="0 5.0040002 10.008 15.012">2014</tspan></text>
<text
         id="text302"
         style="font-variant:normal;font-weight:normal;font-size:9px;font-family:Helvetica;-inkscape-font-specification:Helvetica;writing-mode:lr-tb;fill:#4d4d4d;fill-opacity:1;fill-rule:nonzero;stroke:none"
         transform="matrix(1,0,0,-1,207.79,20.52)"><tspan
           id="tspan300"
           y="0"
           x="0 5.0040002 10.008 15.012">2015</tspan></text>
<text
         id="text306"
         style="font-variant:normal;font-weight:normal;font-size:9px;font-family:Helvetica;-inkscape-font-specification:Helvetica;writing-mode:lr-tb;fill:#4d4d4d;fill-opacity:1;fill-rule:nonzero;stroke:none"
         transform="matrix(1,0,0,-1,238.52,20.52)"><tspan
           id="tspan304"
           y="0"
           x="0 5.0040002 10.008 15.012">2016</tspan></text>
<text
         id="text310"
         style="font-variant:normal;font-weight:normal;font-size:9px;font-family:Helvetica;-inkscape-font-specification:Helvetica;writing-mode:lr-tb;fill:#4d4d4d;fill-opacity:1;fill-rule:nonzero;stroke:none"
         transform="matrix(1,0,0,-1,269.24,20.52)"><tspan
           id="tspan308"
           y="0"
           x="0 5.0040002 10.008 15.012">2017</tspan></text>
<text
         id="text314"
         style="font-variant:normal;font-weight:normal;font-size:9px;font-family:Helvetica;-inkscape-font-specification:Helvetica;writing-mode:lr-tb;fill:#4d4d4d;fill-opacity:1;fill-rule:nonzero;stroke:none"
         transform="matrix(1,0,0,-1,299.96,20.52)"><tspan
           id="tspan312"
           y="0"
           x="0 5.0040002 10.008 15.012">2018</tspan></text>
<text
         id="text318"
         style="font-variant:normal;font-weight:normal;font-size:9px;font-family:Helvetica;-inkscape-font-specification:Helvetica;writing-mode:lr-tb;fill:#4d4d4d;fill-opacity:1;fill-rule:nonzero;stroke:none"
         transform="matrix(1,0,0,-1,330.69,20.52)"><tspan
           id="tspan316"
           y="0"
           x="0 5.0040002 10.008 15.012">2019</tspan></text>
</g><g
       id="g320" /><g
       id="g322" /><g
       id="g324" /><g
       id="g326" /><g
       id="g328" /><g
       id="g330" /><g
       id="g332" /><g
       id="g334"><text
         id="text338"
         style="font-variant:normal;font-weight:normal;font-size:11px;font-family:Helvetica;-inkscape-font-specification:Helvetica;writing-mode:lr-tb;fill:#000000;fill-opacity:1;fill-rule:nonzero;stroke:none"
         transform="matrix(1,0,0,-1,190.82,7.9)"><tspan
           id="tspan336"
           y="0"
           x="0 7.9419999 14.058 17.115999">Date</tspan></text>
</g><g
       id="g340" /><g
       id="g342" /><g
       id="g344"><text
         id="text348"
         style="font-variant:normal;font-weight:normal;font-size:11px;font-family:Helvetica;-inkscape-font-specification:Helvetica;writing-mode:lr-tb;fill:#000000;fill-opacity:1;fill-rule:nonzero;stroke:none"
         transform="matrix(0,1,1,0,13.38,54.09)"><tspan
           id="tspan346"
           y="0"
           x="0 7.3369999 11 16.785999 22.011 28.127001 34.243 37.300999 43.417 49.313 51.755001 57.870998 60.929001 68.871002 74.987 81.102997 85.206001 88.264 91.321999 99.264 101.706 107.206 113.322 119.438 124.938">Preventable Heart Disease</tspan></text>
<text
         id="text352"
         style="font-variant:normal;font-weight:normal;font-size:11px;font-family:Helvetica;-inkscape-font-specification:Helvetica;writing-mode:lr-tb;fill:#000000;fill-opacity:1;fill-rule:nonzero;stroke:none"
         transform="matrix(0,1,1,0,25.26,86.998)"><tspan
           id="tspan350"
           y="0"
           x="0 9.1630001 15.279 19.382 22.440001 28.556 30.997999 33.439999 36.498001 41.998001 45.056 52.998001 59.113998 62.172001">Mortality Rate</tspan></text>
</g><g
       id="g354" /><g
       id="g356" /><g
       id="g358" /><g
       id="g360" /><g
       id="g362" /><g
       id="g364" /><g
       id="g366" /><g
       id="g368" /><g
       id="g370"><path
         id="path372"
         style="fill:#ffffff;fill-opacity:1;fill-rule:nonzero;stroke:none"
         d="m 119.49,218.28 h 165.9 v 28.24 h -165.9 z" /></g><g
       id="g374" /><g
       id="g376" /><g
       id="g378" /><g
       id="g380" /><g
       id="g382" /><g
       id="g384" /><g
       id="g386" /><g
       id="g388"><path
         id="path390"
         style="fill:#ffffff;fill-opacity:1;fill-rule:nonzero;stroke:none"
         d="m 130.45,223.76 h 17.28 v 17.28 h -17.28 z" /></g><g
       id="g392" /><g
       id="g394"><path
         id="path396"
         style="fill:none;stroke:#f8766d;stroke-width:1.07000005;stroke-linecap:butt;stroke-linejoin:round;stroke-miterlimit:10;stroke-dasharray:none;stroke-opacity:1"
         d="M 132.18,232.4 H 146" /></g><g
       id="g398" /><g
       id="g400"><path
         id="path402"
         style="fill:none;stroke:#f8766d;stroke-width:0.70999998;stroke-linecap:round;stroke-linejoin:round;stroke-miterlimit:10;stroke-dasharray:none;stroke-opacity:1"
         d="m 137.67,232.4 c 0,0.78 0.64,1.42 1.42,1.42 0.78,0 1.42,-0.64 1.42,-1.42 0,-0.78 -0.64,-1.42 -1.42,-1.42 -0.78,0 -1.42,0.64 -1.42,1.42" /></g><g
       id="g404" /><g
       id="g406"><path
         id="path408"
         style="fill:#f8766d;fill-opacity:1;fill-rule:nonzero;stroke:#f8766d;stroke-width:0.70999998;stroke-linecap:round;stroke-linejoin:round;stroke-miterlimit:10;stroke-dasharray:none;stroke-opacity:1"
         d="m 137.67,232.4 c 0,0.78 0.64,1.42 1.42,1.42 0.78,0 1.42,-0.64 1.42,-1.42 0,-0.78 -0.64,-1.42 -1.42,-1.42 -0.78,0 -1.42,0.64 -1.42,1.42" /></g><g
       id="g410" /><g
       id="g412"><path
         id="path414"
         style="fill:none;stroke:#f8766d;stroke-width:1.07000005;stroke-linecap:butt;stroke-linejoin:round;stroke-miterlimit:10;stroke-dasharray:none;stroke-opacity:1"
         d="M 132.18,232.4 H 146" /></g><g
       id="g416" /><g
       id="g418"><path
         id="path420"
         style="fill:#ffffff;fill-opacity:1;fill-rule:nonzero;stroke:none"
         d="m 227.22,223.76 h 17.28 v 17.28 h -17.28 z" /></g><g
       id="g422" /><g
       id="g424"><path
         id="path426"
         style="fill:none;stroke:#00bfc4;stroke-width:1.07000005;stroke-linecap:butt;stroke-linejoin:round;stroke-miterlimit:10;stroke-dasharray:none;stroke-opacity:1"
         d="m 228.94,232.4 h 13.83" /></g><g
       id="g428" /><g
       id="g430"><path
         id="path432"
         style="fill:none;stroke:#00bfc4;stroke-width:0.70999998;stroke-linecap:round;stroke-linejoin:round;stroke-miterlimit:10;stroke-dasharray:none;stroke-opacity:1"
         d="m 234.43,232.4 c 0,0.78 0.64,1.42 1.43,1.42 0.78,0 1.42,-0.64 1.42,-1.42 0,-0.78 -0.64,-1.42 -1.42,-1.42 -0.79,0 -1.43,0.64 -1.43,1.42" /></g><g
       id="g434" /><g
       id="g436"><path
         id="path438"
         style="fill:#00bfc4;fill-opacity:1;fill-rule:nonzero;stroke:#00bfc4;stroke-width:0.70999998;stroke-linecap:round;stroke-linejoin:round;stroke-miterlimit:10;stroke-dasharray:none;stroke-opacity:1"
         d="m 234.43,232.4 c 0,0.78 0.64,1.42 1.43,1.42 0.78,0 1.42,-0.64 1.42,-1.42 0,-0.78 -0.64,-1.42 -1.42,-1.42 -0.79,0 -1.43,0.64 -1.43,1.42" /></g><g
       id="g440" /><g
       id="g442"><path
         id="path444"
         style="fill:none;stroke:#00bfc4;stroke-width:1.07000005;stroke-linecap:butt;stroke-linejoin:round;stroke-miterlimit:10;stroke-dasharray:none;stroke-opacity:1"
         d="m 228.94,232.4 h 13.83" /></g><g
       id="g446" /><g
       id="g448" /><g
       id="g450" /><g
       id="g452"><text
         id="text456"
         style="font-variant:normal;font-weight:normal;font-size:9px;font-family:Helvetica;-inkscape-font-specification:Helvetica;writing-mode:lr-tb;fill:#000000;fill-opacity:1;fill-rule:nonzero;stroke:none"
         transform="matrix(1,0,0,-1,153.21,229.17)"><tspan
           id="tspan454"
           y="0"
           x="0 6.0029998 10.503 15.507 18.009001 23.013 28.017 30.518999 32.516998 37.016998 39.519001 46.016998 51.021 56.025002 58.527 61.523998 66.528">Synthetic Control</tspan></text>
</g><g
       id="g458" /><g
       id="g460" /><g
       id="g462" /><g
       id="g464" /><g
       id="g466" /><g
       id="g468"><text
         id="text472"
         style="font-variant:normal;font-weight:normal;font-size:9px;font-family:Helvetica;-inkscape-font-specification:Helvetica;writing-mode:lr-tb;fill:#000000;fill-opacity:1;fill-rule:nonzero;stroke:none"
         transform="matrix(1,0,0,-1,249.98,229.17)"><tspan
           id="tspan470"
           y="0"
           x="0 4.4190001 7.4159999 12.42 17.424 19.926001 24.93">Treated</tspan></text>
</g><g
       id="g474" /><g
       id="g476" /><g
       id="g478" /><g
       id="g480" /><g
       id="g482" /><g
       id="g484" /><g
       id="g486" /><g
       id="g488" /><g
       id="g490" /><g
       id="g492" /><g
       id="g494" /><g
       id="g496" /><g
       id="g498" /><g
       id="g500" /><g
       id="g502" /><g
       id="g504" /></g></svg>