<?xml version="1.0" encoding="UTF-8"?>
<svg width="347.39" height="405.96" version="1.1" viewBox="0 0 347.39 405.96" xml:space="preserve" xmlns="http://www.w3.org/2000/svg" xmlns:cc="http://creativecommons.org/ns#" xmlns:dc="http://purl.org/dc/elements/1.1/" xmlns:rdf="http://www.w3.org/1999/02/22-rdf-syntax-ns#" xmlns:xlink="http://www.w3.org/1999/xlink"><metadata><rdf:RDF><cc:Work rdf:about=""><dc:format>image/svg+xml</dc:format><dc:type rdf:resource="http://purl.org/dc/dcmitype/StillImage"/></cc:Work></rdf:RDF></metadata><defs><pattern id="pattern220" patternTransform="matrix(1.9799 -1.9799 1.9799 1.9799 0 0)" preserveAspectRatio="xMidYMid" xlink:href="#Strips1_1"/><pattern id="pattern219" patternTransform="matrix(1.9799 -1.9799 1.9799 1.9799 0 0)" preserveAspectRatio="xMidYMid" xlink:href="#Strips1_1"/><pattern id="Strips1_1" width="2" height="10" fill="#000000" patternTransform="translate(0) scale(2)" patternUnits="userSpaceOnUse" preserveAspectRatio="xMidYMid">
      <rect y="-.5" width="1" height="11"/>
    </pattern><clipPath><path d="m59.21 0h385.58v360h-385.58z"/></clipPath><clipPath id="clipPath1"><path d="m87.907 471.04h380.88v-445.32h-380.88z" stroke-width="1.3333"/></clipPath><clipPath id="clipPath2"><path d="m87.907 471.04h380.88v-445.32h-380.88z" stroke-width="1.3333"/></clipPath><clipPath id="clipPath3"><path d="m87.907 471.04h380.88v-445.32h-380.88z" stroke-width="1.3333"/></clipPath><clipPath id="clipPath4"><path d="m87.907 471.04h380.88v-445.32h-380.88z" stroke-width="1.3333"/></clipPath><clipPath id="clipPath5"><path d="m87.907 471.04h380.88v-445.32h-380.88z" stroke-width="1.3333"/></clipPath><clipPath id="clipPath6"><path d="m87.907 471.04h380.88v-445.32h-380.88z" stroke-width="1.3333"/></clipPath><clipPath id="clipPath7"><path d="m87.907 471.04h380.88v-445.32h-380.88z" stroke-width="1.3333"/></clipPath><clipPath id="clipPath8"><path d="m87.907 471.04h380.88v-445.32h-380.88z" stroke-width="1.3333"/></clipPath><clipPath id="clipPath9"><path d="m87.907 471.04h380.88v-445.32h-380.88z" stroke-width="1.3333"/></clipPath><clipPath id="clipPath10"><path d="m87.907 471.04h380.88v-445.32h-380.88z" stroke-width="1.3333"/></clipPath><clipPath id="clipPath11"><path d="m87.907 471.04h380.88v-445.32h-380.88z" stroke-width="1.3333"/></clipPath><clipPath id="clipPath13"><path d="m87.907 471.04h380.88v-445.32h-380.88z" stroke-width="1.3333"/></clipPath><clipPath id="clipPath15"><path d="m87.907 471.04h380.88v-445.32h-380.88z" stroke-width="1.3333"/></clipPath><clipPath id="clipPath17"><path d="m87.907 471.04h380.88v-445.32h-380.88z" stroke-width="1.3333"/></clipPath><clipPath id="clipPath19"><path d="m87.907 471.04h380.88v-445.32h-380.88z" stroke-width="1.3333"/></clipPath><clipPath id="clipPath21"><path d="m87.907 471.04h380.88v-445.32h-380.88z" stroke-width="1.3333"/></clipPath><clipPath id="clipPath23"><path d="m87.907 471.04h380.88v-445.32h-380.88z" stroke-width="1.3333"/></clipPath><clipPath id="clipPath25"><path d="m87.907 471.04h380.88v-445.32h-380.88z" stroke-width="1.3333"/></clipPath><clipPath id="clipPath27"><path d="m87.907 471.04h380.88v-445.32h-380.88z" stroke-width="1.3333"/></clipPath><clipPath id="clipPath29"><path d="m87.907 471.04h380.88v-445.32h-380.88z" stroke-width="1.3333"/></clipPath><clipPath id="clipPath31"><path d="m87.907 471.04h380.88v-445.32h-380.88z" stroke-width="1.3333"/></clipPath><clipPath id="clipPath33"><path d="m87.907 471.04h380.88v-445.32h-380.88z" stroke-width="1.3333"/></clipPath><clipPath id="clipPath35"><path d="m87.907 471.04h380.88v-445.32h-380.88z" stroke-width="1.3333"/></clipPath><clipPath id="clipPath37"><path d="m87.907 471.04h380.88v-445.32h-380.88z" stroke-width="1.3333"/></clipPath><clipPath id="clipPath39"><path d="m87.907 471.04h380.88v-445.32h-380.88z" stroke-width="1.3333"/></clipPath><clipPath id="clipPath41"><path d="m87.907 471.04h380.88v-445.32h-380.88z" stroke-width="1.3333"/></clipPath><clipPath id="clipPath42"><path d="m87.907 471.04h380.88v-445.32h-380.88z" stroke-width="1.3333"/></clipPath><clipPath id="clipPath43"><path d="m87.907 471.04h380.88v-445.32h-380.88z" stroke-width="1.3333"/></clipPath><clipPath id="clipPath45"><path d="m87.907 471.04h380.88v-445.32h-380.88z" stroke-width="1.3333"/></clipPath><clipPath id="clipPath46"><path d="m87.907 471.04h380.88v-445.32h-380.88z" stroke-width="1.3333"/></clipPath><clipPath id="clipPath47"><path d="m87.907 471.04h380.88v-445.32h-380.88z" stroke-width="1.3333"/></clipPath><clipPath id="clipPath48"><path d="m87.907 471.04h380.88v-445.32h-380.88z" stroke-width="1.3333"/></clipPath><clipPath id="clipPath49"><path d="m87.907 471.04h380.88v-445.32h-380.88z" stroke-width="1.3333"/></clipPath><clipPath id="clipPath50"><path d="m87.907 471.04h380.88v-445.32h-380.88z" stroke-width="1.3333"/></clipPath><clipPath id="clipPath51"><path d="m87.907 471.04h380.88v-445.32h-380.88z" stroke-width="1.3333"/></clipPath><clipPath id="clipPath52"><path d="m87.907 471.04h380.88v-445.32h-380.88z" stroke-width="1.3333"/></clipPath><clipPath id="clipPath53"><path d="m87.907 471.04h380.88v-445.32h-380.88z" stroke-width="1.3333"/></clipPath><clipPath id="clipPath54"><path d="m87.907 471.04h380.88v-445.32h-380.88z" stroke-width="1.3333"/></clipPath><clipPath id="clipPath55"><path d="m87.907 471.04h380.88v-445.32h-380.88z" stroke-width="1.3333"/></clipPath><clipPath id="clipPath57"><path d="m87.907 471.04h380.88v-445.32h-380.88z" stroke-width="1.3333"/></clipPath><clipPath id="clipPath59"><path d="m87.907 471.04h380.88v-445.32h-380.88z" stroke-width="1.3333"/></clipPath><clipPath id="clipPath61"><path d="m87.907 471.04h380.88v-445.32h-380.88z" stroke-width="1.3333"/></clipPath><clipPath id="clipPath63"><path d="m87.907 471.04h380.88v-445.32h-380.88z" stroke-width="1.3333"/></clipPath><clipPath id="clipPath65"><path d="m87.907 471.04h380.88v-445.32h-380.88z" stroke-width="1.3333"/></clipPath><clipPath id="clipPath67"><path d="m87.907 471.04h380.88v-445.32h-380.88z" stroke-width="1.3333"/></clipPath><clipPath id="clipPath69"><path d="m87.907 471.04h380.88v-445.32h-380.88z" stroke-width="1.3333"/></clipPath><clipPath id="clipPath71"><path d="m87.907 471.04h380.88v-445.32h-380.88z" stroke-width="1.3333"/></clipPath><clipPath id="clipPath73"><path d="m87.907 471.04h380.88v-445.32h-380.88z" stroke-width="1.3333"/></clipPath><clipPath id="clipPath75"><path d="m87.907 471.04h380.88v-445.32h-380.88z" stroke-width="1.3333"/></clipPath><clipPath id="clipPath77"><path d="m87.907 471.04h380.88v-445.32h-380.88z" stroke-width="1.3333"/></clipPath><clipPath id="clipPath79"><path d="m87.907 471.04h380.88v-445.32h-380.88z" stroke-width="1.3333"/></clipPath><clipPath id="clipPath81"><path d="m87.907 471.04h380.88v-445.32h-380.88z" stroke-width="1.3333"/></clipPath><clipPath id="clipPath83"><path d="m87.907 471.04h380.88v-445.32h-380.88z" stroke-width="1.3333"/></clipPath><clipPath id="clipPath85"><path d="m87.907 471.04h380.88v-445.32h-380.88z" stroke-width="1.3333"/></clipPath><clipPath id="clipPath87"><path d="m87.907 471.04h380.88v-445.32h-380.88z" stroke-width="1.3333"/></clipPath><clipPath id="clipPath89"><path d="m87.907 471.04h380.88v-445.32h-380.88z" stroke-width="1.3333"/></clipPath><clipPath id="clipPath91"><path d="m87.907 471.04h380.88v-445.32h-380.88z" stroke-width="1.3333"/></clipPath><clipPath id="clipPath93"><path d="m87.907 471.04h380.88v-445.32h-380.88z" stroke-width="1.3333"/></clipPath><clipPath id="clipPath95"><path d="m87.907 471.04h380.88v-445.32h-380.88z" stroke-width="1.3333"/></clipPath><clipPath id="clipPath97"><path d="m87.907 471.04h380.88v-445.32h-380.88z" stroke-width="1.3333"/></clipPath><clipPath id="clipPath99"><path d="m87.907 471.04h380.88v-445.32h-380.88z" stroke-width="1.3333"/></clipPath><clipPath id="clipPath101"><path d="m87.907 471.04h380.88v-445.32h-380.88z" stroke-width="1.3333"/></clipPath><clipPath id="clipPath103"><path d="m87.907 471.04h380.88v-445.32h-380.88z" stroke-width="1.3333"/></clipPath><clipPath id="clipPath105"><path d="m87.907 471.04h380.88v-445.32h-380.88z" stroke-width="1.3333"/></clipPath><clipPath id="clipPath107"><path d="m87.907 471.04h380.88v-445.32h-380.88z" stroke-width="1.3333"/></clipPath><clipPath id="clipPath109"><path d="m87.907 471.04h380.88v-445.32h-380.88z" stroke-width="1.3333"/></clipPath><clipPath id="clipPath111"><path d="m87.907 471.04h380.88v-445.32h-380.88z" stroke-width="1.3333"/></clipPath><clipPath id="clipPath113"><path d="m87.907 471.04h380.88v-445.32h-380.88z" stroke-width="1.3333"/></clipPath><clipPath id="clipPath115"><path d="m87.907 471.04h380.88v-445.32h-380.88z" stroke-width="1.3333"/></clipPath><clipPath id="clipPath117"><path d="m87.907 471.04h380.88v-445.32h-380.88z" stroke-width="1.3333"/></clipPath><clipPath id="clipPath119"><path d="m87.907 471.04h380.88v-445.32h-380.88z" stroke-width="1.3333"/></clipPath><clipPath id="clipPath121"><path d="m87.907 471.04h380.88v-445.32h-380.88z" stroke-width="1.3333"/></clipPath><clipPath id="clipPath123"><path d="m87.907 471.04h380.88v-445.32h-380.88z" stroke-width="1.3333"/></clipPath><clipPath id="clipPath125"><path d="m87.907 471.04h380.88v-445.32h-380.88z" stroke-width="1.3333"/></clipPath><clipPath id="clipPath127"><path d="m87.907 471.04h380.88v-445.32h-380.88z" stroke-width="1.3333"/></clipPath><clipPath id="clipPath129"><path d="m87.907 471.04h380.88v-445.32h-380.88z" stroke-width="1.3333"/></clipPath><clipPath id="clipPath131"><path d="m87.907 471.04h380.88v-445.32h-380.88z" stroke-width="1.3333"/></clipPath><clipPath id="clipPath133"><path d="m87.907 471.04h380.88v-445.32h-380.88z" stroke-width="1.3333"/></clipPath><clipPath id="clipPath135"><path d="m87.907 471.04h380.88v-445.32h-380.88z" stroke-width="1.3333"/></clipPath><clipPath id="clipPath137"><path d="m87.907 471.04h380.88v-445.32h-380.88z" stroke-width="1.3333"/></clipPath><clipPath id="clipPath139"><path d="m87.907 471.04h380.88v-445.32h-380.88z" stroke-width="1.3333"/></clipPath><clipPath id="clipPath141"><path d="m87.907 471.04h380.88v-445.32h-380.88z" stroke-width="1.3333"/></clipPath><clipPath id="clipPath143"><path d="m87.907 471.04h380.88v-445.32h-380.88z" stroke-width="1.3333"/></clipPath><clipPath id="clipPath145"><path d="m87.907 471.04h380.88v-445.32h-380.88z" stroke-width="1.3333"/></clipPath><clipPath id="clipPath147"><path d="m87.907 471.04h380.88v-445.32h-380.88z" stroke-width="1.3333"/></clipPath><clipPath id="clipPath149"><path d="m87.907 471.04h380.88v-445.32h-380.88z" stroke-width="1.3333"/></clipPath><clipPath id="clipPath151"><path d="m87.907 471.04h380.88v-445.32h-380.88z" stroke-width="1.3333"/></clipPath><clipPath id="clipPath153"><path d="m87.907 471.04h380.88v-445.32h-380.88z" stroke-width="1.3333"/></clipPath><clipPath id="clipPath155"><path d="m87.907 471.04h380.88v-445.32h-380.88z" stroke-width="1.3333"/></clipPath><clipPath id="clipPath157"><path d="m87.907 471.04h380.88v-445.32h-380.88z" stroke-width="1.3333"/></clipPath><clipPath id="clipPath159"><path d="m87.907 471.04h380.88v-445.32h-380.88z" stroke-width="1.3333"/></clipPath><clipPath id="clipPath161"><path d="m87.907 471.04h380.88v-445.32h-380.88z" stroke-width="1.3333"/></clipPath><clipPath id="clipPath163"><path d="m87.907 471.04h380.88v-445.32h-380.88z" stroke-width="1.3333"/></clipPath><clipPath id="clipPath165"><path d="m87.907 471.04h380.88v-445.32h-380.88z" stroke-width="1.3333"/></clipPath><clipPath id="clipPath167"><path d="m87.907 471.04h380.88v-445.32h-380.88z" stroke-width="1.3333"/></clipPath><clipPath id="clipPath169"><path d="m87.907 471.04h380.88v-445.32h-380.88z" stroke-width="1.3333"/></clipPath><clipPath id="clipPath171"><path d="m87.907 471.04h380.88v-445.32h-380.88z" stroke-width="1.3333"/></clipPath><clipPath id="clipPath173"><path d="m87.907 471.04h380.88v-445.32h-380.88z" stroke-width="1.3333"/></clipPath><clipPath id="clipPath175"><path d="m87.907 471.04h380.88v-445.32h-380.88z" stroke-width="1.3333"/></clipPath><clipPath id="clipPath177"><path d="m87.907 471.04h380.88v-445.32h-380.88z" stroke-width="1.3333"/></clipPath><clipPath id="clipPath179"><path d="m87.907 471.04h380.88v-445.32h-380.88z" stroke-width="1.3333"/></clipPath><clipPath id="clipPath181"><path d="m87.907 471.04h380.88v-445.32h-380.88z" stroke-width="1.3333"/></clipPath><clipPath id="clipPath183"><path d="m87.907 471.04h380.88v-445.32h-380.88z" stroke-width="1.3333"/></clipPath><clipPath id="clipPath185"><path d="m87.907 471.04h380.88v-445.32h-380.88z" stroke-width="1.3333"/></clipPath><clipPath id="clipPath187"><path d="m87.907 471.04h380.88v-445.32h-380.88z" stroke-width="1.3333"/></clipPath><clipPath id="clipPath189"><path d="m87.907 471.04h380.88v-445.32h-380.88z" stroke-width="1.3333"/></clipPath><clipPath id="clipPath191"><path d="m87.907 471.04h380.88v-445.32h-380.88z" stroke-width="1.3333"/></clipPath><clipPath id="clipPath193"><path d="m87.907 471.04h380.88v-445.32h-380.88z" stroke-width="1.3333"/></clipPath><clipPath id="clipPath195"><path d="m87.907 471.04h380.88v-445.32h-380.88z" stroke-width="1.3333"/></clipPath><clipPath id="clipPath197"><path d="m87.907 471.04h380.88v-445.32h-380.88z" stroke-width="1.3333"/></clipPath><clipPath id="clipPath199"><path d="m87.907 471.04h380.88v-445.32h-380.88z" stroke-width="1.3333"/></clipPath><clipPath id="clipPath201"><path d="m87.907 471.04h380.88v-445.32h-380.88z" stroke-width="1.3333"/></clipPath><clipPath id="clipPath203"><path d="m87.907 471.04h380.88v-445.32h-380.88z" stroke-width="1.3333"/></clipPath><clipPath id="clipPath205"><path d="m87.907 471.04h380.88v-445.32h-380.88z" stroke-width="1.3333"/></clipPath><clipPath id="clipPath207"><path d="m87.907 471.04h380.88v-445.32h-380.88z" stroke-width="1.3333"/></clipPath><clipPath id="clipPath209"><path d="m87.907 471.04h380.88v-445.32h-380.88z" stroke-width="1.3333"/></clipPath><clipPath id="clipPath211"><path d="m87.907 471.04h380.88v-445.32h-380.88z" stroke-width="1.3333"/></clipPath><clipPath id="clipPath213"><path d="m87.907 471.04h380.88v-445.32h-380.88z" stroke-width="1.3333"/></clipPath><clipPath id="clipPath215"><path d="m87.907 471.04h380.88v-445.32h-380.88z" stroke-width="1.3333"/></clipPath><filter id="filter220" x="-.013061" y="-.025572" width="1.0261" height="1.0511" color-interpolation-filters="sRGB"><feColorMatrix values="0 0 1 0 0 0 0 1 0 0 0 0 1 0 0 0 0 0 1 0 "/></filter><filter id="filter221" x="-.016595" y="-.014726" width="1.0332" height="1.0295" color-interpolation-filters="sRGB"><feColorMatrix values="0 0 1 0 0 0 0 1 0 0 0 0 1 0 0 0 0 0 1 0 "/></filter><filter id="filter222" x="-.010288" y="-.017382" width="1.0206" height="1.0348" color-interpolation-filters="sRGB"><feColorMatrix values="0 0 1 0 0 0 0 1 0 0 0 0 1 0 0 0 0 0 1 0 "/></filter><filter id="filter223" x="-.020482" y="-.01284" width="1.041" height="1.0257" color-interpolation-filters="sRGB"><feColorMatrix values="0 0 1 0 0 0 0 1 0 0 0 0 1 0 0 0 0 0 1 0 "/></filter><filter id="filter224" x="-.010246" y="-.019731" width="1.0205" height="1.0395" color-interpolation-filters="sRGB"><feColorMatrix values="0 0 1 0 0 0 0 1 0 0 0 0 1 0 0 0 0 0 1 0 "/></filter><filter id="filter225" x="-.012319" y="-.024941" width="1.0246" height="1.0499" color-interpolation-filters="sRGB"><feColorMatrix values="0 0 1 0 0 0 0 1 0 0 0 0 1 0 0 0 0 0 1 0 "/></filter><filter id="filter226" x="-.014896" y="-.01954" width="1.0298" height="1.0391" color-interpolation-filters="sRGB"><feColorMatrix values="0 0 1 0 0 0 0 1 0 0 0 0 1 0 0 0 0 0 1 0 "/></filter><filter id="filter227" x="-.015097" y="-.013121" width="1.0302" height="1.0262" color-interpolation-filters="sRGB"><feColorMatrix values="0 0 1 0 0 0 0 1 0 0 0 0 1 0 0 0 0 0 1 0 "/></filter><filter id="filter228" x="-.014003" y="-.014565" width="1.028" height="1.0291" color-interpolation-filters="sRGB"><feColorMatrix values="0 0 1 0 0 0 0 1 0 0 0 0 1 0 0 0 0 0 1 0 "/></filter><filter id="filter229" x="-.012755" y="-.019486" width="1.0255" height="1.039" color-interpolation-filters="sRGB"><feColorMatrix values="0 0 1 0 0 0 0 1 0 0 0 0 1 0 0 0 0 0 1 0 "/></filter><filter id="filter230" x="-.013125" y="-.025711" width="1.0263" height="1.0514" color-interpolation-filters="sRGB"><feColorMatrix values="0 0 1 0 0 0 0 1 0 0 0 0 1 0 0 0 0 0 1 0 "/></filter><filter id="filter231" x="-.011855" y="-.022886" width="1.0237" height="1.0458" color-interpolation-filters="sRGB"><feColorMatrix values="0 0 1 0 0 0 0 1 0 0 0 0 1 0 0 0 0 0 1 0 "/></filter><filter id="filter232" x="-.014129" y="-.010821" width="1.0283" height="1.0216" color-interpolation-filters="sRGB"><feColorMatrix values="0 0 1 0 0 0 0 1 0 0 0 0 1 0 0 0 0 0 1 0 "/></filter><filter id="filter233" x="-.016919" y="-.034302" width="1.0338" height="1.0686" color-interpolation-filters="sRGB"><feColorMatrix values="0 0 1 0 0 0 0 1 0 0 0 0 1 0 0 0 0 0 1 0 "/></filter><filter id="filter234" x="-.016955" y="-.013154" width="1.0339" height="1.0263" color-interpolation-filters="sRGB"><feColorMatrix values="0 0 1 0 0 0 0 1 0 0 0 0 1 0 0 0 0 0 1 0 "/></filter><filter id="filter235" x="-.017504" y="-.034191" width="1.035" height="1.0684" color-interpolation-filters="sRGB"><feColorMatrix values="0 0 1 0 0 0 0 1 0 0 0 0 1 0 0 0 0 0 1 0 "/></filter><filter id="filter236" x="-.028619" y="-.011471" width="1.0572" height="1.0229" color-interpolation-filters="sRGB"><feColorMatrix values="0 0 1 0 0 0 0 1 0 0 0 0 1 0 0 0 0 0 1 0 "/></filter><filter id="filter237" x="-.01317" y="-.017034" width="1.0263" height="1.0341" color-interpolation-filters="sRGB"><feColorMatrix values="0 0 1 0 0 0 0 1 0 0 0 0 1 0 0 0 0 0 1 0 "/></filter><filter id="filter238" x="-.012504" y="-.012705" width="1.025" height="1.0254" color-interpolation-filters="sRGB"><feColorMatrix values="0 0 1 0 0 0 0 1 0 0 0 0 1 0 0 0 0 0 1 0 "/></filter><filter id="filter239" x="-.024425" y="-.020823" width="1.0488" height="1.0416" color-interpolation-filters="sRGB"><feColorMatrix values="0 0 1 0 0 0 0 1 0 0 0 0 1 0 0 0 0 0 1 0 "/></filter><filter id="filter240" x="-.014319" y="-.020581" width="1.0286" height="1.0412" color-interpolation-filters="sRGB"><feColorMatrix values="0 0 1 0 0 0 0 1 0 0 0 0 1 0 0 0 0 0 1 0 "/></filter><filter id="filter241" x="-.020094" y="-.013146" width="1.0402" height="1.0263" color-interpolation-filters="sRGB"><feColorMatrix values="0 0 1 0 0 0 0 1 0 0 0 0 1 0 0 0 0 0 1 0 "/></filter><filter id="filter242" x="-.013117" y="-.025358" width="1.0262" height="1.0507" color-interpolation-filters="sRGB"><feColorMatrix values="0 0 1 0 0 0 0 1 0 0 0 0 1 0 0 0 0 0 1 0 "/></filter><filter id="filter243" x="-.015034" y="-.026026" width="1.0301" height="1.0521" color-interpolation-filters="sRGB"><feColorMatrix values="0 0 1 0 0 0 0 1 0 0 0 0 1 0 0 0 0 0 1 0 "/></filter><filter id="filter244" x="-.016026" y="-.011583" width="1.0321" height="1.0232" color-interpolation-filters="sRGB"><feColorMatrix values="0 0 1 0 0 0 0 1 0 0 0 0 1 0 0 0 0 0 1 0 "/></filter><filter id="filter245" x="-.015034" y="-.026414" width="1.0301" height="1.0528" color-interpolation-filters="sRGB"><feColorMatrix values="0 0 1 0 0 0 0 1 0 0 0 0 1 0 0 0 0 0 1 0 "/></filter><filter id="filter246" x="-.0088448" y="-.01116" width="1.0177" height="1.0223" color-interpolation-filters="sRGB"><feColorMatrix values="0 0 1 0 0 0 0 1 0 0 0 0 1 0 0 0 0 0 1 0 "/></filter><filter id="filter247" x="-.0075447" y="-.012836" width="1.0151" height="1.0257" color-interpolation-filters="sRGB"><feColorMatrix values="0 0 1 0 0 0 0 1 0 0 0 0 1 0 0 0 0 0 1 0 "/></filter><filter id="filter248" x="-.014238" y="-.015222" width="1.0285" height="1.0304" color-interpolation-filters="sRGB"><feColorMatrix values="0 0 1 0 0 0 0 1 0 0 0 0 1 0 0 0 0 0 1 0 "/></filter><filter id="filter249" x="-.0086912" y="-.012851" width="1.0174" height="1.0257" color-interpolation-filters="sRGB"><feColorMatrix values="0 0 1 0 0 0 0 1 0 0 0 0 1 0 0 0 0 0 1 0 "/></filter><filter id="filter250" x="-.013736" y="-.01144" width="1.0275" height="1.0229" color-interpolation-filters="sRGB"><feColorMatrix values="0 0 1 0 0 0 0 1 0 0 0 0 1 0 0 0 0 0 1 0 "/></filter><filter id="filter251" x="-.020772" y="-.017192" width="1.0415" height="1.0344" color-interpolation-filters="sRGB"><feColorMatrix values="0 0 1 0 0 0 0 1 0 0 0 0 1 0 0 0 0 0 1 0 "/></filter><filter id="filter252" x="-.015141" y="-.030035" width="1.0303" height="1.0601" color-interpolation-filters="sRGB"><feColorMatrix values="0 0 1 0 0 0 0 1 0 0 0 0 1 0 0 0 0 0 1 0 "/></filter><filter id="filter253" x="-.016032" y="-.019397" width="1.0321" height="1.0388" color-interpolation-filters="sRGB"><feColorMatrix values="0 0 1 0 0 0 0 1 0 0 0 0 1 0 0 0 0 0 1 0 "/></filter><filter id="filter254" x="-.017547" y="-.013089" width="1.0351" height="1.0262" color-interpolation-filters="sRGB"><feColorMatrix values="0 0 1 0 0 0 0 1 0 0 0 0 1 0 0 0 0 0 1 0 "/></filter><filter id="filter255" x="-.015044" y="-.01448" width="1.0301" height="1.029" color-interpolation-filters="sRGB"><feColorMatrix values="0 0 1 0 0 0 0 1 0 0 0 0 1 0 0 0 0 0 1 0 "/></filter><filter id="filter256" x="-.017276" y="-.025267" width="1.0346" height="1.0505" color-interpolation-filters="sRGB"><feColorMatrix values="0 0 1 0 0 0 0 1 0 0 0 0 1 0 0 0 0 0 1 0 "/></filter><filter id="filter257" x="-.014451" y="-.01655" width="1.0289" height="1.0331" color-interpolation-filters="sRGB"><feColorMatrix values="0 0 1 0 0 0 0 1 0 0 0 0 1 0 0 0 0 0 1 0 "/></filter><filter id="filter258" x="-.017526" y="-.012855" width="1.0351" height="1.0257" color-interpolation-filters="sRGB"><feColorMatrix values="0 0 1 0 0 0 0 1 0 0 0 0 1 0 0 0 0 0 1 0 "/></filter><filter id="filter259" x="-.020019" y="-.020094" width="1.04" height="1.0402" color-interpolation-filters="sRGB"><feColorMatrix values="0 0 1 0 0 0 0 1 0 0 0 0 1 0 0 0 0 0 1 0 "/></filter><filter id="filter260" x="-.016621" y="-.025313" width="1.0332" height="1.0506" color-interpolation-filters="sRGB"><feColorMatrix values="0 0 1 0 0 0 0 1 0 0 0 0 1 0 0 0 0 0 1 0 "/></filter><filter id="filter261" x="-.021039" y="-.017511" width="1.0421" height="1.035" color-interpolation-filters="sRGB"><feColorMatrix values="0 0 1 0 0 0 0 1 0 0 0 0 1 0 0 0 0 0 1 0 "/></filter><filter id="filter262" x="-.0088412" y="-.018855" width="1.0177" height="1.0377" color-interpolation-filters="sRGB"><feColorMatrix values="0 0 1 0 0 0 0 1 0 0 0 0 1 0 0 0 0 0 1 0 "/></filter><filter id="filter263" x="-.011644" y="-.024481" width="1.0233" height="1.049" color-interpolation-filters="sRGB"><feColorMatrix values="0 0 1 0 0 0 0 1 0 0 0 0 1 0 0 0 0 0 1 0 "/></filter><filter id="filter264" x="-.011583" y="-.023585" width="1.0232" height="1.0472" color-interpolation-filters="sRGB"><feColorMatrix values="0 0 1 0 0 0 0 1 0 0 0 0 1 0 0 0 0 0 1 0 "/></filter><filter id="filter265" x="-.02451" y="-.020732" width="1.049" height="1.0415" color-interpolation-filters="sRGB"><feColorMatrix values="0 0 1 0 0 0 0 1 0 0 0 0 1 0 0 0 0 0 1 0 "/></filter><filter id="filter266" x="-.01269" y="-.013001" width="1.0254" height="1.026" color-interpolation-filters="sRGB"><feColorMatrix values="0 0 1 0 0 0 0 1 0 0 0 0 1 0 0 0 0 0 1 0 "/></filter><filter id="filter267" x="-.024524" y="-.014466" width="1.049" height="1.0289" color-interpolation-filters="sRGB"><feColorMatrix values="0 0 1 0 0 0 0 1 0 0 0 0 1 0 0 0 0 0 1 0 "/></filter><filter id="filter268" x="-.020492" y="-.020482" width="1.041" height="1.041" color-interpolation-filters="sRGB"><feColorMatrix values="0 0 1 0 0 0 0 1 0 0 0 0 1 0 0 0 0 0 1 0 "/></filter><filter id="filter269" x="-.011462" y="-.024897" width="1.0229" height="1.0498" color-interpolation-filters="sRGB"><feColorMatrix values="0 0 1 0 0 0 0 1 0 0 0 0 1 0 0 0 0 0 1 0 "/></filter><filter id="filter270" x="-.011045" y="-.0093881" width="1.0221" height="1.0188" color-interpolation-filters="sRGB"><feColorMatrix values="0 0 1 0 0 0 0 1 0 0 0 0 1 0 0 0 0 0 1 0 "/></filter><filter id="filter271" x="-.016792" y="-.017518" width="1.0336" height="1.035" color-interpolation-filters="sRGB"><feColorMatrix values="0 0 1 0 0 0 0 1 0 0 0 0 1 0 0 0 0 0 1 0 "/></filter><filter id="filter272" x="-.011053" y="-.013415" width="1.0221" height="1.0268" color-interpolation-filters="sRGB"><feColorMatrix values="0 0 1 0 0 0 0 1 0 0 0 0 1 0 0 0 0 0 1 0 "/></filter><filter id="filter273" x="-.025418" y="-.020571" width="1.0508" height="1.0411" color-interpolation-filters="sRGB"><feColorMatrix values="0 0 1 0 0 0 0 1 0 0 0 0 1 0 0 0 0 0 1 0 "/></filter><filter id="filter274" x="-.014793" y="-.020433" width="1.0296" height="1.0409" color-interpolation-filters="sRGB"><feColorMatrix values="0 0 1 0 0 0 0 1 0 0 0 0 1 0 0 0 0 0 1 0 "/></filter><filter id="filter275" x="-.014138" y="-.022558" width="1.0283" height="1.0451" color-interpolation-filters="sRGB"><feColorMatrix values="0 0 1 0 0 0 0 1 0 0 0 0 1 0 0 0 0 0 1 0 "/></filter><filter id="filter276" x="-.024118" y="-.022182" width="1.0482" height="1.0444" color-interpolation-filters="sRGB"><feColorMatrix values="0 0 1 0 0 0 0 1 0 0 0 0 1 0 0 0 0 0 1 0 "/></filter><filter id="filter277" x="-.018422" y="-.024927" width="1.0368" height="1.0499" color-interpolation-filters="sRGB"><feColorMatrix values="0 0 1 0 0 0 0 1 0 0 0 0 1 0 0 0 0 0 1 0 "/></filter><filter id="filter278" x="-.017109" y="-.013005" width="1.0342" height="1.026" color-interpolation-filters="sRGB"><feColorMatrix values="0 0 1 0 0 0 0 1 0 0 0 0 1 0 0 0 0 0 1 0 "/></filter><filter id="filter279" x="-.018638" y="-.020792" width="1.0373" height="1.0416" color-interpolation-filters="sRGB"><feColorMatrix values="0 0 1 0 0 0 0 1 0 0 0 0 1 0 0 0 0 0 1 0 "/></filter><filter id="filter280" x="-.019486" y="-.034413" width="1.039" height="1.0688" color-interpolation-filters="sRGB"><feColorMatrix values="0 0 1 0 0 0 0 1 0 0 0 0 1 0 0 0 0 0 1 0 "/></filter><filter id="filter281" x="-.011354" y="-.014252" width="1.0227" height="1.0285" color-interpolation-filters="sRGB"><feColorMatrix values="0 0 1 0 0 0 0 1 0 0 0 0 1 0 0 0 0 0 1 0 "/></filter><filter id="filter282" x="-.016769" y="-.026041" width="1.0335" height="1.0521" color-interpolation-filters="sRGB"><feColorMatrix values="0 0 1 0 0 0 0 1 0 0 0 0 1 0 0 0 0 0 1 0 "/></filter><filter id="filter283" x="-.010136" y="-.014054" width="1.0203" height="1.0281" color-interpolation-filters="sRGB"><feColorMatrix values="0 0 1 0 0 0 0 1 0 0 0 0 1 0 0 0 0 0 1 0 "/></filter><filter id="filter284" x="-.025118" y="-.014876" width="1.0502" height="1.0298" color-interpolation-filters="sRGB"><feColorMatrix values="0 0 1 0 0 0 0 1 0 0 0 0 1 0 0 0 0 0 1 0 "/></filter><filter id="filter285" x="-.033544" y="-.023876" width="1.0671" height="1.0478" color-interpolation-filters="sRGB"><feColorMatrix values="0 0 1 0 0 0 0 1 0 0 0 0 1 0 0 0 0 0 1 0 "/></filter><filter id="filter286" x="-.020631" y="-.025313" width="1.0413" height="1.0506" color-interpolation-filters="sRGB"><feColorMatrix values="0 0 1 0 0 0 0 1 0 0 0 0 1 0 0 0 0 0 1 0 "/></filter><filter id="filter287" x="-.007702" y="-.018706" width="1.0154" height="1.0374" color-interpolation-filters="sRGB"><feColorMatrix values="0 0 1 0 0 0 0 1 0 0 0 0 1 0 0 0 0 0 1 0 "/></filter><filter id="filter288" x="-.0091045" y="-.022321" width="1.0182" height="1.0446" color-interpolation-filters="sRGB"><feColorMatrix values="0 0 1 0 0 0 0 1 0 0 0 0 1 0 0 0 0 0 1 0 "/></filter><filter id="filter289" x="-.034" y="-.025541" width="1.068" height="1.0511" color-interpolation-filters="sRGB"><feColorMatrix values="0 0 1 0 0 0 0 1 0 0 0 0 1 0 0 0 0 0 1 0 "/></filter><filter id="filter290" x="-.016865" y="-.020472" width="1.0337" height="1.0409" color-interpolation-filters="sRGB"><feColorMatrix values="0 0 1 0 0 0 0 1 0 0 0 0 1 0 0 0 0 0 1 0 "/></filter><filter id="filter291" x="-.028371" y="-.020502" width="1.0567" height="1.041" color-interpolation-filters="sRGB"><feColorMatrix values="0 0 1 0 0 0 0 1 0 0 0 0 1 0 0 0 0 0 1 0 "/></filter><filter id="filter292" x="-.010409" y="-.012136" width="1.0208" height="1.0243" color-interpolation-filters="sRGB"><feColorMatrix values="0 0 1 0 0 0 0 1 0 0 0 0 1 0 0 0 0 0 1 0 "/></filter><filter id="filter293" x="-.020803" y="-.030335" width="1.0416" height="1.0607" color-interpolation-filters="sRGB"><feColorMatrix values="0 0 1 0 0 0 0 1 0 0 0 0 1 0 0 0 0 0 1 0 "/></filter><filter id="filter294" x="-.01315" y="-.025946" width="1.0263" height="1.0519" color-interpolation-filters="sRGB"><feColorMatrix values="0 0 1 0 0 0 0 1 0 0 0 0 1 0 0 0 0 0 1 0 "/></filter><filter id="filter295" x="-.011628" y="-.017902" width="1.0233" height="1.0358" color-interpolation-filters="sRGB"><feColorMatrix values="0 0 1 0 0 0 0 1 0 0 0 0 1 0 0 0 0 0 1 0 "/></filter><filter id="filter296" x="-.015012" y="-.025899" width="1.03" height="1.0518" color-interpolation-filters="sRGB"><feColorMatrix values="0 0 1 0 0 0 0 1 0 0 0 0 1 0 0 0 0 0 1 0 "/></filter><filter id="filter297" x="-.016454" y="-.025267" width="1.0329" height="1.0505" color-interpolation-filters="sRGB"><feColorMatrix values="0 0 1 0 0 0 0 1 0 0 0 0 1 0 0 0 0 0 1 0 "/></filter><filter id="filter298" x="-.012016" y="-.018186" width="1.024" height="1.0364" color-interpolation-filters="sRGB"><feColorMatrix values="0 0 1 0 0 0 0 1 0 0 0 0 1 0 0 0 0 0 1 0 "/></filter><filter id="filter299" x="-.013186" y="-.012134" width="1.0264" height="1.0243" color-interpolation-filters="sRGB"><feColorMatrix values="0 0 1 0 0 0 0 1 0 0 0 0 1 0 0 0 0 0 1 0 "/></filter><filter id="filter300" x="-.020792" y="-.033203" width="1.0416" height="1.0664" color-interpolation-filters="sRGB"><feColorMatrix values="0 0 1 0 0 0 0 1 0 0 0 0 1 0 0 0 0 0 1 0 "/></filter><filter id="filter301" x="-.020571" y="-.012922" width="1.0411" height="1.0258" color-interpolation-filters="sRGB"><feColorMatrix values="0 0 1 0 0 0 0 1 0 0 0 0 1 0 0 0 0 0 1 0 "/></filter><filter id="filter302" x="-.033864" y="-.025602" width="1.0677" height="1.0512" color-interpolation-filters="sRGB"><feColorMatrix values="0 0 1 0 0 0 0 1 0 0 0 0 1 0 0 0 0 0 1 0 "/></filter><filter id="filter303" x="-.011431" y="-.011945" width="1.0229" height="1.0239" color-interpolation-filters="sRGB"><feColorMatrix values="0 0 1 0 0 0 0 1 0 0 0 0 1 0 0 0 0 0 1 0 "/></filter><filter id="filter304" x="-.013174" y="-.020571" width="1.0263" height="1.0411" color-interpolation-filters="sRGB"><feColorMatrix values="0 0 1 0 0 0 0 1 0 0 0 0 1 0 0 0 0 0 1 0 "/></filter><filter id="filter305" x="-.017269" y="-.026496" width="1.0345" height="1.053" color-interpolation-filters="sRGB"><feColorMatrix values="0 0 1 0 0 0 0 1 0 0 0 0 1 0 0 0 0 0 1 0 "/></filter><filter id="filter306" x="-.033703" y="-.012941" width="1.0674" height="1.0259" color-interpolation-filters="sRGB"><feColorMatrix values="0 0 1 0 0 0 0 1 0 0 0 0 1 0 0 0 0 0 1 0 "/></filter><filter id="filter307" x="-.011615" y="-.014829" width="1.0232" height="1.0297" color-interpolation-filters="sRGB"><feColorMatrix values="0 0 1 0 0 0 0 1 0 0 0 0 1 0 0 0 0 0 1 0 "/></filter><filter id="filter308" x="-.021186" y="-.034" width="1.0424" height="1.068" color-interpolation-filters="sRGB"><feColorMatrix values="0 0 1 0 0 0 0 1 0 0 0 0 1 0 0 0 0 0 1 0 "/></filter><filter id="filter309" x="-.017482" y="-.019722" width="1.035" height="1.0394" color-interpolation-filters="sRGB"><feColorMatrix values="0 0 1 0 0 0 0 1 0 0 0 0 1 0 0 0 0 0 1 0 "/></filter><filter id="filter310" x="-.017326" y="-.025118" width="1.0347" height="1.0502" color-interpolation-filters="sRGB"><feColorMatrix values="0 0 1 0 0 0 0 1 0 0 0 0 1 0 0 0 0 0 1 0 "/></filter><filter id="filter311" x="-.02551" y="-.025449" width="1.051" height="1.0509" color-interpolation-filters="sRGB"><feColorMatrix values="0 0 1 0 0 0 0 1 0 0 0 0 1 0 0 0 0 0 1 0 "/></filter><filter id="filter312" x="-.020925" y="-.019222" width="1.0419" height="1.0384" color-interpolation-filters="sRGB"><feColorMatrix values="0 0 1 0 0 0 0 1 0 0 0 0 1 0 0 0 0 0 1 0 "/></filter><filter id="filter313" x="-.02481" y="-.021464" width="1.0496" height="1.0429" color-interpolation-filters="sRGB"><feColorMatrix values="0 0 1 0 0 0 0 1 0 0 0 0 1 0 0 0 0 0 1 0 "/></filter><filter id="filter314" x="-.011815" y="-.012736" width="1.0236" height="1.0255" color-interpolation-filters="sRGB"><feColorMatrix values="0 0 1 0 0 0 0 1 0 0 0 0 1 0 0 0 0 0 1 0 "/></filter><filter id="filter315" x="-.025571" y="-.025434" width="1.0511" height="1.0509" color-interpolation-filters="sRGB"><feColorMatrix values="0 0 1 0 0 0 0 1 0 0 0 0 1 0 0 0 0 0 1 0 "/></filter><filter id="filter316" x="-.013129" y="-.025962" width="1.0263" height="1.0519" color-interpolation-filters="sRGB"><feColorMatrix values="0 0 1 0 0 0 0 1 0 0 0 0 1 0 0 0 0 0 1 0 "/></filter><filter id="filter317" x="-.017068" y="-.024052" width="1.0341" height="1.0481" color-interpolation-filters="sRGB"><feColorMatrix values="0 0 1 0 0 0 0 1 0 0 0 0 1 0 0 0 0 0 1 0 "/></filter><filter id="filter318" x="-.0079737" y="-.010016" width="1.0159" height="1.02" color-interpolation-filters="sRGB"><feColorMatrix values="0 0 1 0 0 0 0 1 0 0 0 0 1 0 0 0 0 0 1 0 "/></filter><filter id="filter319" x="-.012398" y="-.020066" width="1.0248" height="1.0401" color-interpolation-filters="sRGB"><feColorMatrix values="0 0 1 0 0 0 0 1 0 0 0 0 1 0 0 0 0 0 1 0 "/></filter><filter id="filter320" x="-.025742" y="-.025742" width="1.0515" height="1.0515" color-interpolation-filters="sRGB"><feColorMatrix values="0 0 1 0 0 0 0 1 0 0 0 0 1 0 0 0 0 0 1 0 "/></filter><filter id="filter321" x="-.018209" y="-.024781" width="1.0364" height="1.0496" color-interpolation-filters="sRGB"><feColorMatrix values="0 0 1 0 0 0 0 1 0 0 0 0 1 0 0 0 0 0 1 0 "/></filter><filter id="filter322" x="-.027924" y="-.025313" width="1.0558" height="1.0506" color-interpolation-filters="sRGB"><feColorMatrix values="0 0 1 0 0 0 0 1 0 0 0 0 1 0 0 0 0 0 1 0 "/></filter><filter id="filter323" x="-.013617" y="-.012981" width="1.0272" height="1.026" color-interpolation-filters="sRGB"><feColorMatrix values="0 0 1 0 0 0 0 1 0 0 0 0 1 0 0 0 0 0 1 0 "/></filter><filter id="filter324" x="-.0061072" y="-.01113" width="1.0122" height="1.0223" color-interpolation-filters="sRGB"><feColorMatrix values="0 0 1 0 0 0 0 1 0 0 0 0 1 0 0 0 0 0 1 0 "/></filter><filter id="filter325" x="-.013093" y="-.009863" width="1.0262" height="1.0197" color-interpolation-filters="sRGB"><feColorMatrix values="0 0 1 0 0 0 0 1 0 0 0 0 1 0 0 0 0 0 1 0 "/></filter><filter id="filter326" x="-.015505" y="-.02617" width="1.031" height="1.0523" color-interpolation-filters="sRGB"><feColorMatrix values="0 0 1 0 0 0 0 1 0 0 0 0 1 0 0 0 0 0 1 0 "/></filter><filter id="filter327" x="-.016511" y="-.013948" width="1.033" height="1.0279" color-interpolation-filters="sRGB"><feColorMatrix values="0 0 1 0 0 0 0 1 0 0 0 0 1 0 0 0 0 0 1 0 "/></filter><filter id="filter328" x="-.025836" y="-.025946" width="1.0517" height="1.0519" color-interpolation-filters="sRGB"><feColorMatrix values="0 0 1 0 0 0 0 1 0 0 0 0 1 0 0 0 0 0 1 0 "/></filter><filter id="filter329" x="-.017041" y="-.014819" width="1.0341" height="1.0296" color-interpolation-filters="sRGB"><feColorMatrix values="0 0 1 0 0 0 0 1 0 0 0 0 1 0 0 0 0 0 1 0 "/></filter><filter id="filter330" x="-.0099976" y="-.014783" width="1.02" height="1.0296" color-interpolation-filters="sRGB"><feColorMatrix values="0 0 1 0 0 0 0 1 0 0 0 0 1 0 0 0 0 0 1 0 "/></filter><filter id="filter331" x="-.012344" y="-.026122" width="1.0247" height="1.0522" color-interpolation-filters="sRGB"><feColorMatrix values="0 0 1 0 0 0 0 1 0 0 0 0 1 0 0 0 0 0 1 0 "/></filter><filter id="filter332" x="-.012132" y="-.022973" width="1.0243" height="1.0459" color-interpolation-filters="sRGB"><feColorMatrix values="0 0 1 0 0 0 0 1 0 0 0 0 1 0 0 0 0 0 1 0 "/></filter><filter id="filter333" x="-.01797" y="-.011894" width="1.0359" height="1.0238" color-interpolation-filters="sRGB"><feColorMatrix values="0 0 1 0 0 0 0 1 0 0 0 0 1 0 0 0 0 0 1 0 "/></filter><filter id="filter334" x="-.025282" y="-.021617" width="1.0506" height="1.0432" color-interpolation-filters="sRGB"><feColorMatrix values="0 0 1 0 0 0 0 1 0 0 0 0 1 0 0 0 0 0 1 0 "/></filter><filter id="filter335" x="-.031716" y="-.015211" width="1.0634" height="1.0304" color-interpolation-filters="sRGB"><feColorMatrix values="0 0 1 0 0 0 0 1 0 0 0 0 1 0 0 0 0 0 1 0 "/></filter><filter id="filter336" x="-.016745" y="-.026154" width="1.0335" height="1.0523" color-interpolation-filters="sRGB"><feColorMatrix values="0 0 1 0 0 0 0 1 0 0 0 0 1 0 0 0 0 0 1 0 "/></filter><filter id="filter337" x="-.025388" y="-.024161" width="1.0508" height="1.0483" color-interpolation-filters="sRGB"><feColorMatrix values="0 0 1 0 0 0 0 1 0 0 0 0 1 0 0 0 0 0 1 0 "/></filter><filter id="filter338" x="-.01467" y="-.0095142" width="1.0293" height="1.019" color-interpolation-filters="sRGB"><feColorMatrix values="0 0 1 0 0 0 0 1 0 0 0 0 1 0 0 0 0 0 1 0 "/></filter></defs><g transform="matrix(1.3333 0 0 -1.3333 -104.66 434.61)"/><g fill="#00bfc4" stroke="#000" stroke-linejoin="round" stroke-miterlimit="10" stroke-width="1.1333"><path transform="translate(-104.66 -45.393)" d="m160.63 216.33 3.04 0.0533 18.28 0.50667-0.12 4.8 21.413 0.62667-0.25333 9.4267-0.18667 6.7467-0.0933-0.0133-3.7467-0.0933-10.36-0.29333-9.6-0.30667-6.64-0.21333-7.56-0.26667-2.6533-0.0933-2.2933-0.0933z" clip-path="url(#clipPath215)" filter="url(#filter220)"/><path transform="translate(-104.66 -45.393)" d="m353.52 158.59 21.293-0.46666 10.747-0.26667 1.4933 16.173 0.61334 21.613-14.973 0.34666-17.253 0.34667-0.45333-21.6z" clip-path="url(#clipPath213)" filter="url(#filter221)"/><path transform="translate(-104.66 -45.393)" d="m295.28 89.107 14.587-0.05333 12.053-0.08 0.16 13.347 5.3867 2.8933 0.0667 5.32 2.8533-1.9733 0.46667 3.8933 7.7067-4.4267 2.28 4.7733-1.7867 1.96 5.0267-3.12 2.04 5.1733h4.1467l0.08 4.2667-1.28-0.0533-30.84 0.45333-21.44 0.0933-1.52-10.787z" clip-path="url(#clipPath211)" filter="url(#filter222)"/><path transform="translate(-104.66 -45.393)" d="m134.89 150.17 23.827 1.04 2.8133 0.10667-0.84 21.573-8.3867-0.30667-0.92 21.72-16.067-0.69333 0.98666-21.68-2.44-0.10667z" clip-path="url(#clipPath209)" filter="url(#filter223)"/><path transform="translate(-104.66 -45.393)" d="m228.05 49.613 15.107 0.25333 28.24 0.25333 10.133 0.05333-0.0533 17.373h1.5333l-0.04 10.773-5.36 0.01333-5.3333-0.01333 0.0133-5.4133-26.773-0.28-0.0667 5.4-16.08-0.30667-1.6667-10.813z" clip-path="url(#clipPath207)" filter="url(#filter224)"/><path transform="translate(-104.66 -45.393)" d="m115.67 214.4 43.467 1.9067 1.4933 0.0267-0.77333 20.787-9.6133-0.37334-9.32-0.38666-9.7333-0.42667-16.56-0.8z" clip-path="url(#clipPath205)" filter="url(#filter225)"/><path transform="translate(-104.66 -45.393)" d="m169.36 47.973 3.6 0.12 25.773 0.88 7.9733 0.2-0.33333 11.867-5.3333-0.14667-0.16 5.3867-3.32-0.09333-0.32 10.787-26.76-0.86667 0.2-5.3867 0.2-5.4-2.2133-0.08z" clip-path="url(#clipPath203)" filter="url(#filter226)"/><path transform="translate(-104.66 -45.393)" d="m248.25 164.12 9.12 0.0933 0.0933-10.56 3.2 0.0267 23.547 0.13333 1.5733 21.453-0.28 21.573-24.733-0.18667-5.32-3.52 0.38666-2.8533-5.3333-10.453-1.1333-4.88 2.3733-2.24z" clip-path="url(#clipPath201)" filter="url(#filter227)"/><path transform="translate(-104.66 -45.393)" d="m385.56 157.85 10.707-0.26667 25.893-0.85333 0.61333 5.4 0.49334 4.28-0.42667 4.4267 3.1867 5.9333-0.72 8.4 0.29333 5.2533-0.0133 3.48 0.04 0.0667-1.32 0.4-19.52 0.76-17.12 0.50667-0.61334-21.613z" clip-path="url(#clipPath199)" filter="url(#filter228)"/><path transform="translate(-104.66 -45.393)" d="m329.68 49.88 5.32-0.08 37.413-0.77333 0.48 17.52 1.2133 10.8-16.053 0.33333-26.8 0.42667-0.13334-10.773-1.2133 0.01333z" clip-path="url(#clipPath197)" filter="url(#filter229)"/><path transform="translate(-104.66 -45.393)" d="m331.84 239.57-0.14666-21.267 41.507-0.74666 1.1867-0.0267 0.48 21.493-2.6933 0.0533-14.827 0.30666-9.0933 0.0533-4.28 0.04-12.12 0.0933z" clip-path="url(#clipPath195)" filter="url(#filter230)"/><path transform="translate(-104.66 -45.393)" d="m124.24 45.96 27.373 1.3333 17.747 0.68-0.69334 17.267 2.2133 0.08-0.2 5.4-12.347-0.49333-35.253-1.6133 0.66666-13.213z" clip-path="url(#clipPath193)" filter="url(#filter231)"/><path transform="translate(-104.66 -45.393)" d="m159.55 129.79 19.08 0.72 0.32-9.28 3.2533 2.8133 7.3067 1.6 2.1733-2.6133 3.0267 1.2667-0.42666 9.7733 2.4267 3.16-0.44 15.267 2.56 0.0667-0.54666 19.707-16.093-0.46666-0.0533 1.7867-21.44-0.69333 0.84-21.573-2.8133-0.10667z" clip-path="url(#clipPath191)" filter="url(#filter232)"/><path transform="translate(-104.66 -45.393)" d="m318.23 121.48 30.84-0.45333 1.28 0.0533 0.21333 10.787 1.0533-0.0267 0.10667 5.28-32.04 0.42667-1.36-5.2933z" clip-path="url(#clipPath189)" filter="url(#filter233)"/><path transform="translate(-104.66 -45.393)" d="m260.77 196.65 24.733 0.18667 7.0533 0.0267-0.0267 21.68 1.6533 0.0267-0.04 21.16h-0.0133l-11.72-0.0533-6.12-0.0667-8.8533-0.0667h-0.54663l-4.36-7.9867-0.6-4.5733 3.08-6.4533 0.37333-7.04-1.64-4 1.3067-9.9067z" clip-path="url(#clipPath187)" filter="url(#filter234)"/><path transform="translate(-104.66 -45.393)" d="m319.68 137.55 32.04-0.42667 0.33333 16.16-32.24 0.41333z" clip-path="url(#clipPath185)" filter="url(#filter235)"/></g><path transform="translate(-104.66 -45.393)" d="m117.73 173.89 0.65333-11.987 0.61334-12.547 15.893 0.81333-1.0267 21.653 2.44 0.10667-0.98666 21.68-8.1467-0.37333-0.26667 5.52-10.4-0.52 0.30667-6.2267 0.22667-4.4933z" clip-path="url(#clipPath183)" fill="url(#pattern220)" filter="url(#filter236)" stroke="#000" stroke-linejoin="round" stroke-miterlimit="10" stroke-width="1.1333"/><g fill="#00bfc4" stroke="#000" stroke-linejoin="round" stroke-miterlimit="10" stroke-width="1.1333"><path transform="translate(-104.66 -45.393)" d="m375.65 98.907 31.48-0.90667-0.12 1.2667-0.0267 0.29333 1.88 4.72 1.6667 3.9867 1.5333 5.7067 1.9067 5.44 3.0667 6.0667 1.64 4.44-24.173 0.86667-17.093 0.48-0.58666-21.6z" clip-path="url(#clipPath181)" filter="url(#filter237)"/><path transform="translate(-104.66 -45.393)" d="m199.85 190.45 16.067 0.37333-0.12 5.36 17.867 0.38667-0.28 16.067 10.72 0.14666 0.90667 5.4133-7.48 6.1333 0.32 2.1867-4.8133 0.88 0.04 1.76-11.053 5.8933-2.9067-1.9333-1.8267 1.5333-3.6267-1.9333-3.8267 0.44-0.42666-2.4933-6.4267 1.08 0.25333-9.4267-1.9733-4.9067 0.36-21.533-1.9333-0.0533z" clip-path="url(#clipPath179)" filter="url(#filter238)"/><path transform="translate(-104.66 -45.393)" d="m351.61 131.84 21.533-0.46667 0.46666 21.453 1.2 5.2933-21.293 0.46666-0.0933-4.4933-1.3733-0.81333-0.33333-16.16z" clip-path="url(#clipPath177)" filter="url(#filter239)"/><path transform="translate(-104.66 -45.393)" d="m164.33 194.79 35.36 1.04 1.9333 0.0533-0.36 21.533 1.9733 4.9067-21.413-0.62667 0.12-4.8-18.28-0.50667z" clip-path="url(#clipPath175)" filter="url(#filter240)"/><path transform="translate(-104.66 -45.393)" d="m284.21 153.81 3.36 0.0133 23.213-0.0667 1.6267 21.493-0.0133 21.613h-19.84l-7.0533-0.0267 0.28-21.573z" clip-path="url(#clipPath173)" filter="url(#filter241)"/><path transform="translate(-104.66 -45.393)" d="m330 196.8 25.44-0.46667 17.253-0.34667 0.50667 21.573-41.507 0.74666-1.4667 0.0267z" clip-path="url(#clipPath171)" filter="url(#filter242)"/><path transform="translate(-104.66 -45.393)" d="m292.56 196.87h19.84l17.6-0.0667 0.22667 21.533-36.04 0.24-1.6533-0.0267z" clip-path="url(#clipPath169)" filter="url(#filter243)"/><path transform="translate(-104.66 -45.393)" d="m245.45 78.027 0.0667-5.4 26.773 0.28-0.0133 5.4133 5.3333 0.01333-0.04 10.76 1.56 21.653 1.6 10.8-16.12-0.08-16.067-0.21334-1.6933-10.813 0.32-21.613-1.8-5.4133z" clip-path="url(#clipPath167)" filter="url(#filter244)"/><path transform="translate(-104.66 -45.393)" d="m294.19 218.57 36.04-0.24 1.4667-0.0267 0.14666 21.267-3.7467 0.0267-10.88 0.10666-6.2667 0.04-5.2133-0.0133-4.6 0.0267-6.9867-0.0267z" clip-path="url(#clipPath165)" filter="url(#filter245)"/><path transform="translate(-104.66 -45.393)" d="m119.01 149.24 0.21333-4.0267 0.70667-12.773 0.70667-12.373 0.48-10.427 0.0667-1.52 5.0267 2.7333 2.8133-3.5333 2.24 1.4 0.88-4 3.12-0.22667-1.28-1.8 6.1333-2.2533 1.8667 2.9733-1.6 2.0133 4 3.12 10.52-2.9867-0.65333-1.9467 2.2-2.5333 3.96-0.54667 11.467 1.84 6.72 3.16 4.4667 5.0667-4.04 5.48-0.08 5.1467-0.32 9.28-19.08-0.72-0.82666 21.427-23.827-1.04-15.893-0.81333z" clip-path="url(#clipPath163)" filter="url(#filter246)"/><path transform="translate(-104.66 -45.393)" d="m189.68 120.07 21.373 0.58666 37.493 0.6 16.067 0.21334-0.08 10.76-3.6533-0.0133-0.21333 21.467-3.2-0.0267-0.0933 10.56-9.12-0.0933-0.44-5.76-2.3733-2.28-9.3733 1.2-3.7067-1.7467-0.62666-4.72-3.1333-6.84 2.9467-2.5067-2.3467-2.7333-8.9733 1.92-2.7467-0.68-4.5067 2.4933-9.2133-4.9467-7.0533-0.29333-2.4267-3.16 0.42666-9.7733-3.0267-1.2667-2.1733 2.6133z" clip-path="url(#clipPath161)" filter="url(#filter247)"/><path transform="translate(-104.66 -45.393)" d="m196.71 137.23 7.0533 0.29333 9.2133 4.9467 4.5067-2.4933 2.7467 0.68 8.9733-1.92 2.3467 2.7333-2.9467 2.5067 3.1333 6.84 0.62666 4.72 3.7067 1.7467-0.0533 1.4533-21.347-0.41333-0.34667 16.133-14.013-0.34667-2.0267-1.84 0.54666-19.707-2.56-0.0667z" clip-path="url(#clipPath159)" filter="url(#filter248)"/><path transform="translate(-104.66 -45.393)" d="m200.31 174.11 14.013 0.34667 35.053 0.49333 1.1333 4.88 5.3333 10.453-0.38666 2.8533 5.32 3.52 4.28 2.9333-1.3067 9.9067-5.6267 2.2933-6.9733-1.24-6.1333 7.6533-0.90667-5.4133-10.72-0.14666 0.28-16.067-17.867-0.38667 0.12-5.36-16.067-0.37333z" clip-path="url(#clipPath157)" filter="url(#filter249)"/><path transform="translate(-104.66 -45.393)" d="m170.48 76.107 26.76 0.86667 10.693 0.26667-0.28 10.8 2.1067 0.04-0.52 21.64 2.0933 0.0533-0.28 10.88-21.373-0.58666-0.17334 5.5733-7.3067-1.6-3.2533-2.8133 0.08-5.1467 4.04-5.48-4.4667-5.0667-6.72-3.16 0.57333-15.413-2.3733-0.09333z" clip-path="url(#clipPath155)" filter="url(#filter250)"/><path transform="translate(-104.66 -45.393)" d="m350.13 110.24 4.28-0.08-0.2-10.76 5.3733-0.13333 16.067-0.36 1.1733 10.76 0.58666 21.6-4.2667 0.10666-21.533 0.46667-1.0533 0.0267-0.21333-10.787-0.08-4.2667z" clip-path="url(#clipPath153)" filter="url(#filter251)"/><path transform="translate(-104.66 -45.393)" d="m214.67 158.32 21.347 0.41333 0.0533-1.4533 9.3733-1.2 2.3733 2.28 0.44 5.76 3.4933 8.5867-2.3733 2.24-35.053-0.49333z" clip-path="url(#clipPath151)" filter="url(#filter252)"/><path transform="translate(-104.66 -45.393)" d="m372.41 49.027 7.08-0.18667 22.24-0.70667 0.17334 3.3867 1.8267 4.8 1.64 5.8267 1.4133 3.6133 0.97333 2.8-1.56 5.28-0.10667 2.4667-0.0133 0.2-31.973 0.84-1.2133-10.8z" clip-path="url(#clipPath149)" filter="url(#filter253)"/><path transform="translate(-104.66 -45.393)" d="m277.61 78.333 5.36-0.01333 26.813-0.04 0.08 10.773-14.587 0.05333-0.0133 21.68 1.52 10.787h-10.707l-3.96-0.0133h-1.3734l-0.0133-0.0133-1.6-10.8-1.56-21.653z" clip-path="url(#clipPath147)" filter="url(#filter254)"/><path transform="translate(-104.66 -45.393)" d="m321.92 88.973 9.4667-0.09333-0.13333-10.773 26.8-0.42667 0.21334 10.787 1.32 10.8-5.3733 0.13333 0.2 10.76-4.28 0.08 0.13334 6.5733h-4.1467l-2.04-5.1733-5.0267 3.12 1.7867-1.96-2.28-4.7733-7.7067 4.4267-0.46667-3.8933-2.8533 1.9733-0.0667-5.32-5.3867-2.8933z" clip-path="url(#clipPath145)" filter="url(#filter255)"/><path transform="translate(-104.66 -45.393)" d="m372.69 195.99 14.973-0.34666 17.12-0.50667 0.70666 21.507-31.107 0.89333-1.1867 0.0267z" clip-path="url(#clipPath143)" filter="url(#filter256)"/><path transform="translate(-104.66 -45.393)" d="m206.37 61.04 0.33333-11.867 16.107 0.33333 5.24 0.10667-0.34667 17.293 1.6667 10.813 16.08 0.30667-0.08 5.3867-32.213-0.65333 0.41334-16.147-7.3333-0.18667z" clip-path="url(#clipPath141)" filter="url(#filter257)"/><path transform="translate(-104.66 -45.393)" d="m404.79 195.13 19.52-0.76 1.32-0.4 0.18666 0.37333 1.92 3.8667 1.84 8.04 2.84 4.6533 2.08 2.32 0.49334 6.1733 2.12 8.3467-0.61334 3.88-0.0533 0.33334 0.68 5.0133-22.347 0.85333-6.2933 0.22667-1.48-3.7733-0.57333-17.08-0.93334-0.56z" clip-path="url(#clipPath139)" filter="url(#filter258)"/><path transform="translate(-104.66 -45.393)" d="m281.53 50.173 10.947 0.01333 15.8-0.06667 0.0933 17.413 1.3467-0.01333 0.0667 10.76-26.813 0.04 0.04-10.773h-1.5333z" clip-path="url(#clipPath137)" filter="url(#filter259)"/><path transform="translate(-104.66 -45.393)" d="m374.39 217.53 31.107-0.89333 0.93334 0.56 0.57333 17.08 1.48 3.7733-13.547 0.46667-10.107 0.28-8.6933 0.2-1.2667 0.0267z" clip-path="url(#clipPath135)" filter="url(#filter260)"/><path transform="translate(-104.66 -45.393)" d="m260.88 132.21 3.6533 0.0133 0.08-10.76 16.12 0.08 0.0133 0.0133h1.3734l3.96 0.0133-0.0133 10.773h1.5333l-0.0267 21.48-3.36-0.0133-23.547-0.13333z" clip-path="url(#clipPath133)" filter="url(#filter261)"/><path transform="translate(-104.66 -45.393)" d="m202.99 231.75 6.4267-1.08 0.42666 2.4933 3.8267-0.44 3.6267 1.9333 1.8267-1.5333 2.9067 1.9333 11.053-5.8933-0.04-1.76 4.8133-0.88-0.32-2.1867 7.48-6.1333 6.1333-7.6533 6.9733 1.24 5.6267-2.2933 1.64 4-0.37333 7.04-3.08 6.4533 0.6 4.5733 4.36 7.9867-10.787-0.0933-14.867-0.18667-11.133-0.18666-8.28-0.14667-10.227-0.22667-8.8-0.21333z" clip-path="url(#clipPath131)" filter="url(#filter262)"/><path transform="translate(-104.66 -45.393)" d="m115.81 211.64 0.6-11.467 0.0933-1.9333 10.4 0.52 0.26667-5.52 8.1467 0.37333 16.067 0.69333 12.947 0.48-0.66667 21.6-3.04-0.0533-1.4933-0.0267-43.467-1.9067z" clip-path="url(#clipPath129)" filter="url(#filter263)"/><path transform="translate(-104.66 -45.393)" d="m152.31 172.59 8.3867 0.30667 21.44 0.69333 0.0533-1.7867 16.093 0.46666 2.0267 1.84-0.45333 16.347-0.16 5.3733-35.36-1.04-12.947-0.48z" clip-path="url(#clipPath127)" filter="url(#filter264)"/><path transform="translate(-104.66 -45.393)" d="m373.15 131.37 4.2667-0.10666 17.093-0.48 0.64 21.533 1.12 5.2667-10.707 0.26667-10.747 0.26667-1.2-5.2933z" clip-path="url(#clipPath125)" filter="url(#filter265)"/><path transform="translate(-104.66 -45.393)" d="m310.79 153.76 9.0267-0.0667 32.24-0.41333 1.3733 0.81333 0.0933 4.4933 1.4667 16.147 0.45333 21.6-25.44 0.46667-17.6 0.0667 0.0133-21.613z" clip-path="url(#clipPath123)" filter="url(#filter266)"/><path transform="translate(-104.66 -45.393)" d="m308.28 50.12 6.0933-0.04 15.307-0.2 0.22667 17.467 1.2133-0.01333 0.13334 10.773 0.13333 10.773-9.4667 0.09333-12.053 0.08-0.08-10.773-0.0667-10.76-1.3467 0.01333z" clip-path="url(#clipPath121)" filter="url(#filter267)"/><path transform="translate(-104.66 -45.393)" d="m394.51 130.79 24.173-0.86667 0.52 1.4133 1.3733 4.7333 0.10667 4.52 0.08 3.64 1.1333 10.093 0.26667 2.4133-25.893 0.85333-1.12-5.2667z" clip-path="url(#clipPath119)" filter="url(#filter268)"/><path transform="translate(-104.66 -45.393)" d="m358.05 77.68 16.053-0.33333 31.973-0.84-0.0267 0.52 0.65334 6.2933 0.24 5.32 0.54666 5.36-0.36 4-31.48 0.90667-16.067 0.36-1.32-10.8z" clip-path="url(#clipPath117)" filter="url(#filter269)"/><path transform="translate(-104.66 -45.393)" d="m197.56 66.187 3.32 0.09333 0.16-5.3867 5.3333 0.14667-0.13334 5.3867 7.3333 0.18667-0.41334 16.147 32.213 0.65333 1.8 5.4133-0.32 21.613 1.6933 10.813-37.493-0.6 0.28-10.88-2.0933-0.0533 0.52-21.64-2.1067-0.04 0.28-10.8-10.693-0.26669z" clip-path="url(#clipPath115)" filter="url(#filter270)"/><path transform="translate(-104.66 -45.393)" d="m286.08 121.57h10.707l21.44-0.0933 0.0933 10.773 1.36 5.2933 0.13334 16.147-9.0267 0.0667-23.213 0.0667 0.0267-21.48h-1.5333z" clip-path="url(#clipPath113)" filter="url(#filter271)"/><path transform="translate(-104.66 -45.393)" d="m123.08 68.613 35.253 1.6133 12.347 0.49333-0.2 5.3867-0.4 10.76 2.3733 0.09333-0.57333 15.413-11.467-1.84-3.96 0.54667-2.2 2.5333 0.65333 1.9467-10.52 2.9867-4-3.12 1.6-2.0133-1.8667-2.9733-6.1333 2.2533 1.28 1.8-3.12 0.22667-0.88 4-2.24-1.4-2.8133 3.5333-5.0267-2.7333 0.72-15.2 0.44-9.16 0.30667-6.4933z" clip-path="url(#clipPath111)" filter="url(#filter272)"/></g><g fill="#f8766d" stroke="#000" stroke-linejoin="round" stroke-miterlimit="10" stroke-width="1.1333"><path transform="translate(-104.66 -45.393)" d="m342.21 363.76 21.253-0.52 0.0933 4.3067 0.29333 1.0533 0.65334 21.84-17.32 0.28-4 0.0667-0.41334-21.653z" clip-path="url(#clipPath109)" filter="url(#filter273)"/><path transform="translate(-104.66 -45.393)" d="m346.08 320.36 32.12-0.50666 5.36-0.10667 0.28 5.3733 0.54667 21.653-21.267 0.4-16.373 0.30666z" clip-path="url(#clipPath107)" filter="url(#filter274)"/><path transform="translate(-104.66 -45.393)" d="m193.85 396.73 39.76 0.85333-0.34667 24.267-38.747-0.86666-0.98667-8.0933z" clip-path="url(#clipPath105)" filter="url(#filter275)"/><path transform="translate(-104.66 -45.393)" d="m372.97 431.04 1.5733-1.7867 0.04-13.533 1.3467-5.04 19.88-0.54666 0.65334 19.64-2.9733 0.58667-4.5733-0.76-2.5867-0.37333-0.84 0.8-1.2 3.36-2 1.8667-3.8667 0.42667-3.2267-2.6667-2.0133-1.9067z" clip-path="url(#clipPath103)" filter="url(#filter276)"/><path transform="translate(-104.66 -45.393)" d="m415.87 324.21 10.707-0.44 19.08-0.77334 0.54667 11.373 0.42667 10.12-19.387 0.86666-10.693 0.37334z" clip-path="url(#clipPath101)" filter="url(#filter277)"/><path transform="translate(-104.66 -45.393)" d="m343.97 239.48 4.28-0.04 9.0933-0.0533 14.827-0.30666 2.6933-0.0533 1.2667-0.0267 0.50667 21.533 0.45333 21.587-32.147 0.45334h-0.2l-0.32-20.667-0.13334-0.88z" clip-path="url(#clipPath99)" filter="url(#filter278)"/><path transform="translate(-104.66 -45.393)" d="m315.56 378.32-0.17333-4.3067 4.4-5.0267-2.0533-4.8933 19.147-0.25334 5.3333-0.08 0.56 5.3733 0.41334 21.653-22.627 0.22667-3.56-9.7067-4.2133-0.96z" clip-path="url(#clipPath97)" filter="url(#filter279)"/><path transform="translate(-104.66 -45.393)" d="m307.8 348.16 12.28-0.24 16.64-0.29333 0.16 16.213-19.147 0.25334 0.41333-2.92-9.6933-7.3867z" clip-path="url(#clipPath95)" filter="url(#filter280)"/><path transform="translate(-104.66 -45.393)" d="m111.13 293.83 0.81333-0.0267 0.36-7.8267 0.26667-5.4533 47.24 2.0533-0.38667 10.733-1.28 26.973-26.627-1.0667-11.147-0.54667-10.467 1.5867 0.36-7.4533z" clip-path="url(#clipPath93)" filter="url(#filter281)"/><path transform="translate(-104.66 -45.393)" d="m267.44 239.55 8.8533 0.0667 6.12 0.0667 11.72 0.0533h0.0133l6.9867 0.0267 0.0933 21.547-30.92-0.12 1.04-3.4133 4.24-2.44-3.3333-11.147z" clip-path="url(#clipPath91)" filter="url(#filter282)"/><path transform="translate(-104.66 -45.393)" d="m320.55 391.03 0.0133-0.0133 22.627-0.22667 4-0.0667 0.08 8.0133 27.16 10.213 1.5067 1.7333-1.3467 5.04-0.04 13.533-1.5733 1.7867-3.6267-1.16-2.2133-0.81333-1.2933-0.68-3.5867-1.9067-2.2-0.62667-2.0533-2.0933-0.93333-2.16-1.24-2.5067-7.5333-2.1733-3.8267-4.24-4.32-0.93333-1.3467-5.2533-3.8133-0.69334-4.0267-3.7867-3.84-6.5467-7.0933-2.4667z" clip-path="url(#clipPath89)" filter="url(#filter283)"/><path transform="translate(-104.66 -45.393)" d="m377.21 287.52 21.32-0.49333 0.78667 21.547 0.45333 16.12-15.933 0.42666-0.28-5.3733-5.36 0.10667z" clip-path="url(#clipPath87)" filter="url(#filter284)"/><path transform="translate(-104.66 -45.393)" d="m418.13 431.59-0.57333-16.84 10.693-0.42667 5.36-0.2 0.84 23.733-4.6133-1.8667-2.6533 0.66666-2.3467-1.8933-0.44-0.36-4.8533-0.41333-1.5867-1.16z" clip-path="url(#clipPath85)" filter="url(#filter285)"/><path transform="translate(-104.66 -45.393)" d="m398.53 287.03 10.707-0.32 1-0.0667 14.96-0.45333 0.48 10.747 0.32 10.693-26.68 0.94667z" clip-path="url(#clipPath83)" filter="url(#filter286)"/><path transform="translate(-104.66 -45.393)" d="m202.71 238.48 0.0933 0.0133 8.8 0.21333 10.227 0.22667 8.28 0.14667 11.133 0.18666 14.867 0.18667 10.787 0.0933h0.54663l4.8133 4.64 3.3333 11.147-4.24 2.44-1.04 3.4133-2.4667 3.6 6.2667 3.9867-49.067-0.52-23.027-0.49333z" clip-path="url(#clipPath81)" filter="url(#filter287)"/><path transform="translate(-104.66 -45.393)" d="m107.71 364.71 61.133 2.4133-0.49334 3.5333-5.3333 6.68-4.2 0.64-4.56 4.12-0.29333 8-42-1.9067-5.36-0.21333 0.0667-1.5733 0.16-3.4267z" clip-path="url(#clipPath79)" filter="url(#filter288)"/><path transform="translate(-104.66 -45.393)" d="m363.85 368.6 16.013-0.34666 0.65333 21.8-6.7467 0.21333-9.2667 0.17333z" clip-path="url(#clipPath77)" filter="url(#filter289)"/><path transform="translate(-104.66 -45.393)" d="m377.09 282.12-0.45333-21.587 26.293-0.69333 0.44 1.7733 5.96-0.16 0.6 16.147 0.30667 9.04-1 0.0667-10.707 0.32-21.32 0.49333z" clip-path="url(#clipPath75)" filter="url(#filter290)"/><path transform="translate(-104.66 -45.393)" d="m426 307.63-0.32-10.693 18.693-0.8 0.50667 10.64 0.52 10.8 0.25333 5.4267-19.08 0.77334z" clip-path="url(#clipPath73)" filter="url(#filter291)"/><path transform="translate(-104.66 -45.393)" d="m223.84 295.15 0.4-21.52 0.8-5.3733 49.067 0.52 2.92 5.6533-1.4667 5.5733 2.0533 2.8-2.8933 9.1333 1.9867 4.96-4.9067-0.42667-0.61333 7.96-0.62667 3.36-4.9067 4.76-3.4933-0.22667-2.9333-3.3467-1.8533 3.2133-8.4667-0.88-4.9867 3.64-5.0133-1.4933 0.24-15.307-15.973-0.24z" clip-path="url(#clipPath71)" filter="url(#filter292)"/><path transform="translate(-104.66 -45.393)" d="m347.19 390.72 17.32-0.28 9.2667-0.17333 0.65334 18.68-27.16-10.213z" clip-path="url(#clipPath69)" filter="url(#filter293)"/><path transform="translate(-104.66 -45.393)" d="m301.65 261.31 42.64-0.28 0.13334 0.88 0.32 20.667-37.147 0.29333-5.92-0.0133z" clip-path="url(#clipPath67)" filter="url(#filter294)"/><path transform="translate(-104.66 -45.393)" d="m106.6 387.97 5.36 0.21333 42 1.9067-1.0533 29.533-21.547-0.88-1.3067-0.0667-24.827-1.1333 0.84-17.92z" clip-path="url(#clipPath65)" filter="url(#filter295)"/><path transform="translate(-104.66 -45.393)" d="m307.6 282.87 37.147-0.29333h0.2l0.4 21.493-26.147 0.30667-11.467 0.08z" clip-path="url(#clipPath63)" filter="url(#filter296)"/><path transform="translate(-104.66 -45.393)" d="m409.93 277.6 9.5333-0.29334 0.56-1.88 22.773-0.92 0.58667 1.16 0.12 2.4 0.86666 18.067-18.693 0.8-0.48-10.747-14.96 0.45333z" clip-path="url(#clipPath61)" filter="url(#filter297)"/><path transform="translate(-104.66 -45.393)" d="m309.91 391.09 10.64-0.0667-0.52 1.9733 7.0933 2.4667 3.84 6.5467 4.0267 3.7867 3.8133 0.69334 1.3467 5.2533 4.32 0.93333 3.8267 4.24 7.5333 2.1733 1.24 2.5067-15.84 0.28-18.44 0.21333-12.68 0.0933z" clip-path="url(#clipPath59)" filter="url(#filter298)"/><path transform="translate(-104.66 -45.393)" d="m200.49 327.36 0.0267-0.04 4.96-1.5467 3.4267 1.08 4.32-3.4533 8.1067 0.88 3.3867-4.1733 3.32-1.0267 0.89334-2.0933 5.84-0.18667 4.1333-3.3467-0.82667 3.5333-0.33333 21.507-0.66667 10.853 5.32 0.04-0.13333 10.76-0.76-0.0133-42.08-0.76z" clip-path="url(#clipPath57)" filter="url(#filter299)"/><path transform="translate(-104.66 -45.393)" d="m399.32 308.57 26.68-0.94667 0.57333 16.147-10.707 0.44-16.093 0.48z" clip-path="url(#clipPath55)" filter="url(#filter300)"/><path transform="translate(-104.66 -45.393)" d="m319.2 304.37 26.147-0.30667 0.50666 1.0133 0.22667 15.28 0.66667 27.12-10.027 0.14667-16.64 0.29333-0.2-21.867z" clip-path="url(#clipPath54)" filter="url(#filter301)"/><path transform="translate(-104.66 -45.393)" d="m379.87 368.25 5.1867-0.08 10.853-0.25334 0.69333 21.653-16.08 0.48z" clip-path="url(#clipPath53)" filter="url(#filter302)"/><path transform="translate(-104.66 -45.393)" d="m114.63 235.13 16.56 0.8 9.7333 0.42667 9.32 0.38666 9.6133 0.37334 2.2933 0.0933-2.3333 45.36-47.24-2.0533 0.37333-7.6267 0.41334-9.5867 0.2-4.16 0.57333-11.907 0.30667-7.1067 0.04-1.0667z" clip-path="url(#clipPath52)" filter="url(#filter303)"/><path transform="translate(-104.66 -45.393)" d="m265.71 326.12h37.56l0.57333 0.56 0.08 19.933-1.4133 2.8133 3.8 1.44-0.0667 2.8-6.9733-1.96-5.16 0.38667-2.3867-4.0667 2.04-2.8933-8.5733-4.12-12.413-2.96-0.90667-5.24-8.5733-1.4133z" clip-path="url(#clipPath51)" filter="url(#filter304)"/><path transform="translate(-104.66 -45.393)" d="m373.77 390.27 6.7467-0.21333 16.08-0.48 9.24-0.28 0.74667 20.467-10.773 0.37334-19.88 0.54666-1.5067-1.7333z" clip-path="url(#clipPath50)" filter="url(#filter305)"/><path transform="translate(-104.66 -45.393)" d="m303.28 304.45h4.4533l11.467-0.08 0.68 21.68 0.2 21.867-12.28 0.24-3.88-1.5467-0.08-19.933-0.57333-0.56z" clip-path="url(#clipPath49)" filter="url(#filter306)"/><path transform="translate(-104.66 -45.393)" d="m193.08 377.41 4.72 0.85333 0.68-1.1867 0.94666-17.707 42.08 0.76-0.14667 9.5467-6.8933 2.2133-0.48 0.90666-0.37333 24.787-39.76-0.85333-1.1333-5.4133z" clip-path="url(#clipPath48)" filter="url(#filter307)"/><path transform="translate(-104.66 -45.393)" d="m336.72 347.63 10.027-0.14667 16.373-0.30666 0.34667 16.067-21.253 0.52-5.3333 0.08z" clip-path="url(#clipPath47)" filter="url(#filter308)"/><path transform="translate(-104.66 -45.393)" d="m241.51 360.13 0.76 0.0133 0.13333-10.76 30.24 0.25333-0.04 19.947 1.1733 8.0667-11.133-3.3067-6.6133 3.7733-2.44-1.1333-0.25333-1.7733-2.04-0.4-3.96-4.44-5.9733-0.69334z" clip-path="url(#clipPath46)" filter="url(#filter309)"/><path transform="translate(-104.66 -45.393)" d="m383.84 325.12 15.933-0.42666 16.093-0.48 0.68 21.52-10.68 0.42666-21.293 0.6-0.18666 0.0133z" clip-path="url(#clipPath45)" filter="url(#filter310)"/><path transform="translate(-104.66 -45.393)" d="m405.87 346.16 10.68-0.42666 10.693-0.37334 0.84 21.52-10.747 0.41334-10.747 0.33333z" clip-path="url(#clipPath43)" filter="url(#filter311)"/><path transform="translate(-104.66 -45.393)" d="m109.91 320.25 10.467-1.5867 11.147 0.54667-1.24 21.547 5.3867 0.2-0.28 7.1867-26.8-1.2533 0.12-2.44 0.22667-4.3067z" clip-path="url(#clipPath42)" filter="url(#filter312)"/><path transform="translate(-104.66 -45.393)" d="m427.27 388.53 14.64-0.61334 0.72 1.88-0.33334 2.2267 3.3867 2.8667-0.0133 2.3867-0.16 2.9333-2.16 0.64 0.98666 2.04 0.29334 0.62666 1.4667 1.5733 2.0933-0.0933 0.96 4.7733 0.96 1.7867-0.49334 1.9733-16 0.58667-5.36 0.2z" clip-path="url(#clipPath41)" filter="url(#filter313)"/><path transform="translate(-104.66 -45.393)" d="m272.64 348.03h19.08l2.3867 4.0667 5.16-0.38667 6.9733 1.96 0.0667-2.8-3.8-1.44 1.4133-2.8133 3.88 1.5467 0.65334 5.6267 9.6933 7.3867-0.41333 2.92 2.0533 4.8933-4.4 5.0267 0.17333 4.3067-2.7733 2.0267 4.2133 0.96 3.56 9.7067-0.0133 0.0133-10.64 0.0667-4 0.0133-0.0667-15.04-1.4667-1.4533-3.3067 2.9333-4.8267 1.8667-6.44 0.12-1.5733-1.2133-4.4267 1.32-5.1733-1.7733-2.2133 1.0533-2.64-1.2667-1.1733-8.0667 0.04-19.947z" clip-path="url(#clipPath39)" filter="url(#filter314)"/><path transform="translate(-104.66 -45.393)" d="m395.91 367.92 10.68-0.29333 10.747-0.33333 0.73334 21.587-12.227 0.41334-9.24 0.28z" clip-path="url(#clipPath37)" filter="url(#filter315)"/><path transform="translate(-104.66 -45.393)" d="m301.13 239.76 4.6-0.0267 5.2133 0.0133 6.2667-0.04 10.88-0.10666 3.7467-0.0267h0.0133l12.12-0.0933 0.32 21.547-42.64 0.28h-0.42667z" clip-path="url(#clipPath35)" filter="url(#filter316)"/><path transform="translate(-104.66 -45.393)" d="m376.13 239 8.6933-0.2 10.107-0.28 13.547-0.46667 0.85333 23.4-5.96 0.16-0.44-1.7733-26.293 0.69333z" clip-path="url(#clipPath33)" filter="url(#filter317)"/><path transform="translate(-104.66 -45.393)" d="m131.52 319.21 26.627 1.0667 1.28-26.973 41.92 1.36-0.82667 32.653-0.0267 0.04-5.0533 4.5333-3.4133 0.44-4.0933-1.44-0.89333 4.5467-1.8933 1.5733-2.56 8.9733 0.13334 3.8933-47.333-1.7333 0.28-7.1867-5.3867-0.2z" clip-path="url(#clipPath31)" filter="url(#filter318)"/><path transform="translate(-104.66 -45.393)" d="m233.99 372.8 0.48-0.90666 6.8933-2.2133 5.9733 0.69334 3.96 4.44 2.04 0.4 0.25333 1.7733 2.44 1.1333 6.6133-3.7733 11.133 3.3067 2.64 1.2667 2.2133-1.0533-0.0533 14.627 0.74666 5.4267h-1.7067l-44-0.33333z" clip-path="url(#clipPath29)" filter="url(#filter319)"/><path transform="translate(-104.66 -45.393)" d="m384.57 346.76 21.293-0.6 0.72 21.467-10.68 0.29333-10.853 0.25334z" clip-path="url(#clipPath27)" filter="url(#filter320)"/><path transform="translate(-104.66 -45.393)" d="m417.33 367.29 10.747-0.41334 19.453-0.86666 0.78667 18.413 0.13333 3.2133-6.5467 0.28-14.64 0.61334-9.2 0.34666z" clip-path="url(#clipPath25)" filter="url(#filter321)"/><path transform="translate(-104.66 -45.393)" d="m427.24 345.36 19.387-0.86666 0.90666 21.52-19.453 0.86666z" clip-path="url(#clipPath23)" filter="url(#filter322)"/></g><path transform="translate(-104.66 -45.393)" d="m154.25 382.09 4.56-4.12 4.2-0.64 28.427 0.86666 1.64-0.78666-0.36 13.907 1.1333 5.4133-0.32 16.16 0.98667 8.0933-14.787-0.42667-17.373-0.58667-9.4533-0.34666 1.0533-29.533z" clip-path="url(#clipPath21)" fill="url(#pattern219)" filter="url(#filter323)" stroke="#000" stroke-linejoin="round" stroke-miterlimit="10" stroke-width="1.1333"/><g fill="#f8766d" stroke="#000" stroke-linejoin="round" stroke-miterlimit="10" stroke-width="1.1333"><path transform="translate(-104.66 -45.393)" d="m108.59 346.89 26.8 1.2533 47.333 1.7333-0.13334-3.8933 2.56-8.9733 1.8933-1.5733 0.89333-4.5467 4.0933 1.44 3.4133-0.44 5.0533-4.5333-1.0667 32.013-0.94666 17.707-0.68 1.1867-4.72-0.85333-1.64 0.78666-28.427-0.86666 5.3333-6.68 0.49334-3.5333-61.133-2.4133z" clip-path="url(#clipPath19)" filter="url(#filter324)"/><path transform="translate(-104.66 -45.393)" d="m159.81 282.57 2.3333-45.36 2.6533 0.0933 7.56 0.26667 6.64 0.21333 9.6 0.30667 10.36 0.29333 3.7467 0.0933-0.69333 29.28-0.66667 26.907-41.92-1.36z" clip-path="url(#clipPath17)" filter="url(#filter325)"/><path transform="translate(-104.66 -45.393)" d="m271.8 296.47 4.9067 0.42667-1.9867-4.96 2.8933-9.1333 24.067 0.0533 5.92 0.0133 0.13334 21.587h-4.4533l-32.093-0.0267z" clip-path="url(#clipPath15)" filter="url(#filter326)"/><path transform="translate(-104.66 -45.393)" d="m408.48 238.05 6.2933-0.22667 22.347-0.85333-0.18667 3.9467-0.52 3.4667-1.7733 2.2667-1.6933 3.0933-3.0533 2.04-3.4 3.0667-1.0133 2.2 0.38667 1.56 0.4 0.48 2.48 3.0133 1.8133 3.48 1.48 2.5333 1.6133 1.6 2.5067 0.0267 2.48 1.2533 1.7867 0.57333 1.7867 1.7467 0.58667 1.1867-22.773 0.92-0.56 1.88-9.5333 0.29334-0.6-16.147z" clip-path="url(#clipPath13)" filter="url(#filter327)"/><path transform="translate(-104.66 -45.393)" d="m363.12 347.17 21.267-0.4 0.18666-0.0133 0.48 21.413-5.1867 0.08-16.013 0.34666-0.29333-1.0533-0.0933-4.3067z" clip-path="url(#clipPath11)" filter="url(#filter328)"/><path transform="translate(-104.66 -45.393)" d="m344.95 282.57 32.147-0.45334 0.12 5.4 0.98667 32.333-32.12 0.50666-0.22667-15.28-0.50666-1.0133z" clip-path="url(#clipPath10)" filter="url(#filter329)"/><path transform="translate(-104.66 -45.393)" d="m237.75 338.49 0.33333-21.507 0.82667-3.5333 5.0133 1.4933 4.9867-3.64 8.4667 0.88 4.5467 4-0.37333 8.7067 4.16 1.2267-2.4133 5.28 8.5733 1.4133 0.90667 5.24 12.413 2.96 8.5733 4.12-2.04 2.8933h-19.08v1.6133l-30.24-0.25333-5.32-0.04z" clip-path="url(#clipPath9)" filter="url(#filter330)"/><path transform="translate(-104.66 -45.393)" d="m259.23 308.97 2.9333 3.3467 3.4933 0.22667 4.9067-4.76 0.62667-3.36 32.093 0.0267-0.0133 21.667h-37.56l-4.16-1.2267 0.37333-8.7067-4.5467-4z" clip-path="url(#clipPath8)" filter="url(#filter331)"/><path transform="translate(-104.66 -45.393)" d="m233.61 397.59 44 0.33333h1.7067l-0.0267 16.253 0.68 8.08-36.387-0.24-10.32-0.16z" clip-path="url(#clipPath7)" filter="url(#filter332)"/><path transform="translate(-104.66 -45.393)" d="m278.63 377.87 5.1733 1.7733 4.4267-1.32 1.5733 1.2133 6.44-0.12 4.8267-1.8667 3.3067-2.9333 1.4667 1.4533 0.0667 15.04 4-0.0133 0.2 31.093-14.333 0.0667h-15.8l-0.68-8.08 0.0267-16.253-0.74666-5.4267z" clip-path="url(#clipPath6)" filter="url(#filter333)"/><path transform="translate(-104.66 -45.393)" d="m405.84 389.29 12.227-0.41334 9.2-0.34666 0.98666 25.787-10.693 0.42667-0.18667-5.3733-10.787 0.38666z" clip-path="url(#clipPath5)" filter="url(#filter334)"/><path transform="translate(-104.66 -45.393)" d="m433.61 414.12 16-0.58667-0.24 0.94667-2.3333 1.8133 0.94667 2.12-1.1867 1.7467 0.96 1.0933-1.7867 2.36 0.0933 0.86667 0.2 1.8667-1.6933 3.2267-1.88 3.08 0.0133 3.3333 1.6 2.2533 3.0667 2.7867 2.3467 4.8533 0.14667 0.32-0.62667 2.44 0.73333 0.44 1.5067 1.12-2.5333 0.58667-1.16-1.6533-3.9333 0.42667-0.8-1.2667-1.5067-2.3867-2.4-2.2133 0.4-3.4533-3.68-0.0933-1.16-2.1733-0.25334-0.12z" clip-path="url(#clipPath4)" filter="url(#filter335)"/><path transform="translate(-104.66 -45.393)" d="m270.31 261.19 30.92 0.12h0.42667l0.0267 21.547-24.067-0.0533-2.0533-2.8 1.4667-5.5733-2.92-5.6533-6.2667-3.9867z" clip-path="url(#clipPath3)" filter="url(#filter336)"/><path transform="translate(-104.66 -45.393)" d="m395.81 410.13 10.773-0.37334 10.787-0.38666 0.18667 5.3733 0.57333 16.84-0.17333 1.24-2.28-1.6933-1.1467-2.0133-2.9467-0.68-1.76 0.66667-3.4667-0.50667-1.56 1.28-1.4933-0.2-1.4133-0.18667-3.7867-0.04-1.64 0.32z" clip-path="url(#clipPath2)" filter="url(#filter337)"/><path transform="translate(-104.66 -45.393)" d="m201.35 294.67 0.66667-26.907 23.027 0.49333-0.8 5.3733-0.4 21.52-0.66666 2.76 15.973 0.24-0.24 15.307-4.1333 3.3467-5.84 0.18667-0.89334 2.0933-3.32 1.0267-3.3867 4.1733-8.1067-0.88-4.32 3.4533-3.4267-1.08-4.96 1.5467z" clip-path="url(#clipPath1)" filter="url(#filter338)"/></g></svg>
