<?xml version="1.0" encoding="UTF-8" standalone="no"?>
<svg
   xmlns:dc="http://purl.org/dc/elements/1.1/"
   xmlns:cc="http://creativecommons.org/ns#"
   xmlns:rdf="http://www.w3.org/1999/02/22-rdf-syntax-ns#"
   xmlns:svg="http://www.w3.org/2000/svg"
   xmlns="http://www.w3.org/2000/svg"
   xmlns:xlink="http://www.w3.org/1999/xlink"
   xmlns:sodipodi="http://sodipodi.sourceforge.net/DTD/sodipodi-0.dtd"
   xmlns:inkscape="http://www.inkscape.org/namespaces/inkscape"
   viewBox="0 0 448.89603 485.79202"
   height="485.79202"
   width="448.89603"
   xml:space="preserve"
   id="svg2"
   version="1.1"
   sodipodi:docname="TreatmentMapmississippi vs arkansasBW.svg"
   inkscape:version="0.92.4 (5da689c313, 2019-01-14)"><sodipodi:namedview
     pagecolor="#ffffff"
     bordercolor="#666666"
     borderopacity="1"
     objecttolerance="10"
     gridtolerance="10"
     guidetolerance="10"
     inkscape:pageopacity="0"
     inkscape:pageshadow="2"
     inkscape:window-width="1920"
     inkscape:window-height="986"
     id="namedview21749"
     showgrid="false"
     inkscape:zoom="1.3906433"
     inkscape:cx="338.06091"
     inkscape:cy="262.1972"
     inkscape:window-x="-11"
     inkscape:window-y="-11"
     inkscape:window-maximized="1"
     inkscape:current-layer="svg2"
     fit-margin-top="0"
     fit-margin-left="0"
     fit-margin-right="0"
     fit-margin-bottom="0"
     showguides="false" /><metadata
     id="metadata8"><rdf:RDF><cc:Work
         rdf:about=""><dc:format>image/svg+xml</dc:format><dc:type
           rdf:resource="http://purl.org/dc/dcmitype/StillImage" /><dc:title></dc:title></cc:Work></rdf:RDF></metadata><defs
     id="defs6"><clipPath
       id="clipPath44"
       clipPathUnits="userSpaceOnUse"><path
         id="path42"
         d="M 47.73,0 H 456.28 V 360 H 47.73 Z"
         inkscape:connector-curvature="0" /></clipPath><clipPath
       id="clipPath54"
       clipPathUnits="userSpaceOnUse"><path
         id="path52"
         d="M 54.45,6.72 H 363.07 V 340.71 H 54.45 Z"
         inkscape:connector-curvature="0" /></clipPath><pattern
       id="pattern25476"
       xlink:href="#pattern25444"
       inkscape:collect="always"
       patternTransform="matrix(0.09694913,0,0,0.09694913,9.0885414e-6,-7.4218748e-6)" /><pattern
       patternUnits="userSpaceOnUse"
       width="500.06824"
       height="500"
       id="pattern25444"><path
         inkscape:connector-curvature="0"
         id="path25442"
         d="m 0.03411,484.7625 v -15.23749 l 15,14.97499 c 8.25,8.23625 15,15.09312 15,15.2375 0,0.14437 -6.75,0.2625 -15,0.2625 h -15 z M 38.76226,461.2282 2e-5,422.4564 0.26707,396.22447 0.53411,369.99254 65.53123,434.99627 130.52834,500 H 104.02642 77.5245 Z M 88.76495,411.23085 1e-5,322.4617 0.26706,296.22838 0.53411,269.99505 115.53248,384.99753 230.53085,500 H 204.03037 177.5299 Z M 138.76571,361.2316 0,222.4632 0.26706,196.22962 0.53411,169.99604 165.53297,334.99802 330.53184,500 h -26.5002 -26.50023 z M 186.76605,313.23194 0,126.46389 0.26706,100.23022 0.53411,73.99655 213.53323,286.99828 426.53234,500 h -26.5001 -26.5001 z M 236.78332,263.24921 0.03411,26.49842 V 13.24921 0 H 13.28491 26.5357 L 263.2849,236.75079 500.03414,473.50158 V 486.75079 500 h -13.2508 -13.2508 z M 286.53499,213.00172 73.53588,0 h 26.50011 26.50013 l 186.76602,186.76806 186.7661,186.76805 -0.2671,26.23367 -0.267,26.23367 z M 334.53524,165.00198 169.53638,0 h 26.50022 26.50021 l 138.76573,138.7684 138.7657,138.7684 -0.2671,26.23358 -0.267,26.23358 z M 384.53574,115.00247 269.53737,0 h 26.50047 26.5005 l 88.7649,88.76915 88.765,88.76915 -0.2671,26.23332 -0.267,26.23333 z M 434.53704,65.00372 369.53984,0 h 26.502 26.5019 l 38.7622,38.7718 38.7623,38.7718 -0.2671,26.23193 -0.267,26.23193 z M 484.53414,15 469.55914,0 h 15.2375 15.2375 v 15 c 0,8.25 -0.1182,15 -0.2625,15 -0.1444,0 -7.0013,-6.75 -15.2375,-15 z"
         style="fill:#000000" /></pattern><pattern
       patternUnits="userSpaceOnUse"
       width="48.48118"
       height="48.474562"
       patternTransform="matrix(0.75000002,0,0,-0.75000002,428.94476,266.12054)"
       id="pattern25496"><rect
         id="rect25447"
         y="0"
         x="0"
         height="48.474564"
         width="48.481178"
         style="fill:url(#pattern25476);stroke:none;stroke-width:0.09694913" /></pattern><filter
       style="color-interpolation-filters:sRGB"
       inkscape:label="Greyscale"
       id="filter25578"><feColorMatrix
         values="0 0 1 0 0 0 0 1 0 0 0 0 1 0 0 0 0 0 1 0 "
         id="feColorMatrix25576" /></filter></defs><g
     id="g12"
     transform="matrix(1.3333333,0,0,-1.3333333,-53.898666,474.52269)" /><g
     id="g14"
     transform="matrix(1.3333333,0,0,-1.3333333,-53.898666,474.52269)" /><g
     id="g16"
     transform="matrix(1.3333333,0,0,-1.3333333,-53.898666,474.52269)" /><g
     id="g18"
     transform="matrix(1.3333333,0,0,-1.3333333,-53.898666,474.52269)" /><g
     id="g20"
     transform="matrix(1.3333333,0,0,-1.3333333,-53.898666,474.52269)" /><g
     id="g22"
     transform="matrix(1.3333333,0,0,-1.3333333,-53.898666,474.52269)" /><g
     id="g24"
     transform="matrix(1.3333333,0,0,-1.3333333,-53.898666,474.52269)" /><g
     id="g26"
     transform="matrix(1.3333333,0,0,-1.3333333,-53.898666,474.52269)" /><g
     id="g28"
     transform="matrix(1.3333333,0,0,-1.3333333,-53.898666,474.52269)" /><g
     id="g30"
     transform="matrix(1.3333333,0,0,-1.3333333,-53.898666,474.52269)" /><g
     id="g32"
     transform="matrix(1.3333333,0,0,-1.3333333,-53.898666,474.52269)" /><g
     id="g34"
     transform="matrix(1.3333333,0,0,-1.3333333,-53.898666,474.52269)" /><g
     id="g36"
     transform="matrix(1.3333333,0,0,-1.3333333,-53.898666,474.52269)" /><g
     id="g38"
     transform="matrix(1.3333333,0,0,-1.3333333,-53.898666,474.52269)"><g
       id="g40"
       clip-path="url(#clipPath44)" /></g><g
     id="g46"
     transform="matrix(1.3333333,0,0,-1.3333333,-53.898666,474.52269)" /><g
     id="g48"
     transform="matrix(1.3333333,0,0,-1.3333333,-53.898666,474.52269)"
     style="filter:url(#filter25578)"><path
       id="path56"
       style="fill:#00bfc4;fill-opacity:1;fill-rule:nonzero;stroke:#000000;stroke-width:0.85000002;stroke-linecap:butt;stroke-linejoin:round;stroke-miterlimit:10;stroke-dasharray:none;stroke-opacity:1"
       d="m 192.49,212.35 -0.56,8.54 1.09,0.07 3.34,0.26 -0.34,4.26 8.75,0.66 3.48,0.27 3.69,-5.52 1.52,0.6 3.81,-4.85 1.5,-0.19 -0.01,-9.46 -1.48,-1.39 -2.49,-1.98 -0.39,-1.8 2.99,-5.69 -1.5,1.45 -4.21,-1.24 -2.98,0.31 0.8,2.78 -2.77,-1.61 -1.29,1.29 -0.73,0.71 -0.51,2.54 -0.51,2.57 -2.57,0.15 -1.27,3.85 -7.12,-0.18 z"
       inkscape:connector-curvature="0" /><path
       id="path58"
       style="fill:#00bfc4;fill-opacity:1;fill-rule:nonzero;stroke:#000000;stroke-width:0.85000002;stroke-linecap:butt;stroke-linejoin:round;stroke-miterlimit:10;stroke-dasharray:none;stroke-opacity:1"
       d="m 179.81,154.98 0.63,3.01 5.38,4.39 -0.92,4.62 21.83,1.67 1.54,-18.64 -1.19,-0.11 -15.86,-1.47 -7.98,-0.72 v 0 l -3.42,4.07 z"
       inkscape:connector-curvature="0" /><path
       id="path60"
       style="fill:#00bfc4;fill-opacity:1;fill-rule:nonzero;stroke:#000000;stroke-width:0.85000002;stroke-linecap:butt;stroke-linejoin:round;stroke-miterlimit:10;stroke-dasharray:none;stroke-opacity:1"
       d="m 148.7,308.8 2.32,1.76 -0.29,5.46 7.03,0.62 7.86,0.74 0.58,-10.74 0.16,-0.83 0.24,-4.28 -2.01,-2.14 0.77,0.02 0.24,-3.6 -4.27,-0.3 0.28,-4.26 -4.26,-0.29 -0.23,4.24 -0.42,4.85 -2.86,1.57 0.06,2.83 -2.78,0.06 z"
       inkscape:connector-curvature="0" /><path
       id="path62"
       style="fill:#00bfc4;fill-opacity:1;fill-rule:nonzero;stroke:#000000;stroke-width:0.85000002;stroke-linecap:butt;stroke-linejoin:round;stroke-miterlimit:10;stroke-dasharray:none;stroke-opacity:1"
       d="m 68.48,309.78 10.12,0.67 11.19,0.74 4.65,0.32 3.64,0.27 -0.54,-5.96 3.21,-3.27 -2.13,-0.12 -0.51,-3.58 -3.29,-1.75 -14.27,-0.48 0.11,-3.55 -2.04,-2.23 -6.38,-0.29 -0.59,2.9 -1.34,6.67 z"
       inkscape:connector-curvature="0" /><path
       id="path64"
       style="fill:#00bfc4;fill-opacity:1;fill-rule:nonzero;stroke:#000000;stroke-width:0.85000002;stroke-linecap:butt;stroke-linejoin:round;stroke-miterlimit:10;stroke-dasharray:none;stroke-opacity:1"
       d="m 120.36,312.68 0.31,0.8 6.58,0.52 10.7,0.9 -1.17,-0.46 1.18,-18.38 -2.13,-0.13 -12.7,-0.8 -1.42,-0.05 z"
       inkscape:connector-curvature="0" /><path
       id="path66"
       style="fill:#00bfc4;fill-opacity:1;fill-rule:nonzero;stroke:#000000;stroke-width:0.85000002;stroke-linecap:butt;stroke-linejoin:round;stroke-miterlimit:10;stroke-dasharray:none;stroke-opacity:1"
       d="m 169.32,161.47 1.97,8.91 -1.55,10.39 14.49,1.18 0.7,-8.51 -1.28,-3.85 1.25,-2.59 0.92,-4.62 -5.38,-4.39 -0.63,-3.01 -3.93,4.07 -5.64,0.91 0.31,0.84 -0.17,0.29 z"
       inkscape:connector-curvature="0" /><path
       id="path68"
       style="fill:#00bfc4;fill-opacity:1;fill-rule:nonzero;stroke:#000000;stroke-width:0.85000002;stroke-linecap:butt;stroke-linejoin:round;stroke-miterlimit:10;stroke-dasharray:none;stroke-opacity:1"
       d="m 152.18,170.97 2.35,0.83 -0.6,4.84 3.05,0.85 2.27,3.76 -0.15,3.21 10.16,0.55 -0.11,-2.56 0.59,-1.68 1.55,-10.39 -1.97,-8.91 1.06,-0.38 0.17,-0.29 -3.22,-1.73 -5.93,4.27 -1.17,1.66 -2.13,-0.48 -0.54,1.81 -2.03,-0.38 -0.68,2.49 -2.03,0.28 z"
       inkscape:connector-curvature="0" /><path
       id="path70"
       style="fill:#00bfc4;fill-opacity:1;fill-rule:nonzero;stroke:#000000;stroke-width:0.85000002;stroke-linecap:butt;stroke-linejoin:round;stroke-miterlimit:10;stroke-dasharray:none;stroke-opacity:1"
       d="m 98.08,311.78 6.56,0.5 4.56,0.34 6.2,0.46 4.39,0.34 0.88,0.06 -0.31,-0.8 1.35,-17.6 -7.08,-0.39 -2.84,-0.16 -2.98,3.45 -1.82,4.86 -6.24,-0.29 -3.21,3.27 z"
       inkscape:connector-curvature="0" /><path
       id="path72"
       style="fill:#00bfc4;fill-opacity:1;fill-rule:nonzero;stroke:#000000;stroke-width:0.85000002;stroke-linecap:butt;stroke-linejoin:round;stroke-miterlimit:10;stroke-dasharray:none;stroke-opacity:1"
       d="m 206.73,168.67 -0.27,5.8 -0.33,2.71 4.24,0.43 0.14,-2.16 4.3,0.33 1.48,1.55 -0.31,-0.82 v 0 l 1.24,-1.66 0.85,-1.42 1.15,-1.61 1.54,-1.51 -0.97,-2.27 1,-3.27 1.64,-0.15 0.9,-1.9 -0.41,-2.6 -0.59,-2.48 -2.02,-0.04 -0.97,-1.91 2.67,-1.87 -1.41,-2.27 -0.24,-0.38 -4.04,-0.38 -7.05,-0.66 -1,-0.1 z"
       inkscape:connector-curvature="0" /><path
       id="path74"
       style="fill:#00bfc4;fill-opacity:1;fill-rule:nonzero;stroke:#000000;stroke-width:0.85000002;stroke-linecap:butt;stroke-linejoin:round;stroke-miterlimit:10;stroke-dasharray:none;stroke-opacity:1"
       d="m 120.78,207.7 2.86,0.15 2.28,-2.72 6.49,-1.06 6.71,-0.02 0.16,-3.98 6.17,0.54 0.35,-8.42 -2.74,-0.68 3.03,-3.26 0.34,-4.49 -1.03,0.47 -4.47,-2.9 -2.99,0.11 -6.47,2.02 -5.12,5.87 -2.89,5.33 -1.54,6.51 -1.67,0.28 z"
       inkscape:connector-curvature="0" /><path
       id="path76"
       style="fill:#00bfc4;fill-opacity:1;fill-rule:nonzero;stroke:#000000;stroke-width:0.85000002;stroke-linecap:butt;stroke-linejoin:round;stroke-miterlimit:10;stroke-dasharray:none;stroke-opacity:1"
       d="m 221.69,312.39 -0.61,6.46 -1.81,4.02 0.72,0.08 7.43,0.82 3.2,0.36 10.75,1.13 2.62,0.27 0.68,-1.66 0.64,-2.14 2.7,-1.1 0.26,-1.42 0.26,-2.62 -1.8,-2.06 -1.34,-2.7 -1.23,-0.88 -5.19,-0.53 -0.25,2.85 -19.2,-1.77 z"
       inkscape:connector-curvature="0" /><path
       id="path78"
       style="fill:#00bfc4;fill-opacity:1;fill-rule:nonzero;stroke:#000000;stroke-width:0.85000002;stroke-linecap:butt;stroke-linejoin:round;stroke-miterlimit:10;stroke-dasharray:none;stroke-opacity:1"
       d="m 165.31,278.73 16.06,1.17 1.86,0.52 0.62,-8.68 0.24,-3.83 -2.07,-1.14 0.25,-3.81 -10.37,-0.78 -5.64,-0.48 z"
       inkscape:connector-curvature="0" /><path
       id="path80"
       style="fill:#00bfc4;fill-opacity:1;fill-rule:nonzero;stroke:#000000;stroke-width:0.85000002;stroke-linecap:butt;stroke-linejoin:round;stroke-miterlimit:10;stroke-dasharray:none;stroke-opacity:1"
       d="m 162.65,197.26 5.47,0.61 4.18,0.52 11.34,1.15 -0.56,-4.31 0.79,-9.03 0.36,-4.25 -14.49,-1.18 -0.59,1.68 0.11,2.56 -3.16,5.51 -3.29,2.62 z"
       inkscape:connector-curvature="0" /><path
       id="path82"
       style="fill:#00bfc4;fill-opacity:1;fill-rule:nonzero;stroke:#000000;stroke-width:0.85000002;stroke-linecap:butt;stroke-linejoin:round;stroke-miterlimit:10;stroke-dasharray:none;stroke-opacity:1"
       d="m 124.27,155.05 1.63,0.03 2.51,9.31 5.92,0.28 4.26,0.95 0.15,-3.55 5.77,0.32 0.86,-17.55 -8.59,-0.66 -1.7,-0.14 -5.7,-0.43 -4.68,-0.34 z"
       inkscape:connector-curvature="0" /><path
       id="path84"
       style="fill:#00bfc4;fill-opacity:1;fill-rule:nonzero;stroke:#000000;stroke-width:0.85000002;stroke-linecap:butt;stroke-linejoin:round;stroke-miterlimit:10;stroke-dasharray:none;stroke-opacity:1"
       d="m 135.75,246.57 5.35,3.41 1.82,0.35 -0.92,14.1 14.84,0.93 0.27,-4.25 0.23,-4.54 -1.53,-2.33 0.69,-5.64 -1.3,-0.18 -2.88,-2.08 -16.47,-1.36 z"
       inkscape:connector-curvature="0" /><path
       id="path86"
       style="fill:#00bfc4;fill-opacity:1;fill-rule:nonzero;stroke:#000000;stroke-width:0.85000002;stroke-linecap:butt;stroke-linejoin:round;stroke-miterlimit:10;stroke-dasharray:none;stroke-opacity:1"
       d="m 212.45,291.93 6.34,0.48 0.4,4.32 18.37,1.9 0.58,1.6 3.14,0.4 1.61,-14.43 -29.78,-2.89 z"
       inkscape:connector-curvature="0" /><path
       id="path88"
       style="fill:#00bfc4;fill-opacity:1;fill-rule:nonzero;stroke:#000000;stroke-width:0.85000002;stroke-linecap:butt;stroke-linejoin:round;stroke-miterlimit:10;stroke-dasharray:none;stroke-opacity:1"
       d="m 75.57,273.97 11.19,0.44 3.47,0.82 6.43,0.27 2.08,0.09 -2.6,-5.05 -3.58,-0.16 0.18,-4.24 2.13,0.08 -1.65,-6.45 -2.73,0.05 0.6,-2.97 -3.98,-1.96 -0.34,0.09 -1.99,-0.65 -4.99,4.7 -0.82,-2.8 -0.9,5.04 -1.35,6.86 z"
       inkscape:connector-curvature="0" /><path
       id="path90"
       style="fill:#00bfc4;fill-opacity:1;fill-rule:nonzero;stroke:#000000;stroke-width:0.85000002;stroke-linecap:butt;stroke-linejoin:round;stroke-miterlimit:10;stroke-dasharray:none;stroke-opacity:1"
       d="m 236.79,259.84 -1.14,12.81 8.58,0.83 5.84,0.6 1.24,-1.17 1.22,-2.16 -1.04,-3.02 -1.63,-1.67 2.86,-0.87 0.43,-2.25 -0.06,-1.92 0.61,-2.2 -2.83,0.18 -0.65,-1.92 -0.42,-2.05 -2.67,-0.82 -1.36,-0.73 -0.18,-1.65 2.89,-2.52 -0.07,-1.5 -2.28,-1.96 -0.08,-0.07 -3.35,-2.17 -0.25,-0.03 -0.37,3.34 -0.9,11.92 -4.07,-0.66 z"
       inkscape:connector-curvature="0" /><path
       id="path92"
       style="fill:#00bfc4;fill-opacity:1;fill-rule:nonzero;stroke:#000000;stroke-width:0.85000002;stroke-linecap:butt;stroke-linejoin:round;stroke-miterlimit:10;stroke-dasharray:none;stroke-opacity:1"
       d="m 214.68,266.05 -0.4,4.32 17.02,2.15 4.35,0.13 1.14,-12.81 0.32,-1.66 -21.57,-2.17 z"
       inkscape:connector-curvature="0" /><path
       id="path94"
       style="fill:#00bfc4;fill-opacity:1;fill-rule:nonzero;stroke:#000000;stroke-width:0.85000002;stroke-linecap:butt;stroke-linejoin:round;stroke-miterlimit:10;stroke-dasharray:none;stroke-opacity:1"
       d="m 143.06,191.51 2.74,0.68 -0.35,8.42 8.45,0.43 7.52,0.39 3.67,-1.07 3.03,-2.49 -5.47,-0.61 0.16,-4.12 3.29,-2.62 3.16,-5.51 -10.16,-0.55 -12.67,-0.7 -0.34,4.49 z"
       inkscape:connector-curvature="0" /><path
       id="path96"
       style="fill:#00bfc4;fill-opacity:1;fill-rule:nonzero;stroke:#000000;stroke-width:0.85000002;stroke-linecap:butt;stroke-linejoin:round;stroke-miterlimit:10;stroke-dasharray:none;stroke-opacity:1"
       d="m 200.45,196.89 4.99,2.22 1.29,-1.29 2.77,1.61 -0.8,-2.78 2.98,-0.31 4.21,1.24 1.5,-1.45 -2.99,5.69 0.39,1.8 2.49,1.98 5.85,0.6 1.17,0.02 -0.03,-0.35 1.9,-0.52 1.19,-0.99 -0.52,-2.27 -1.99,-0.65 -1.43,-1.03 -0.91,-1.23 -1.79,0.2 -1.53,-1.33 2.22,-0.63 0.55,-1.69 -1.27,-1.64 0.58,-2.55 1.21,-0.77 0.13,-2.07 -2.45,0.37 -1.04,-0.2 -1.17,-1.47 2.91,-1.3 -0.8,-2.73 -3.1,-0.79 2.11,-1.75 -2.21,-1.93 -0.57,-1.57 -1.48,-1.55 -4.3,-0.33 -0.14,2.16 -4.24,-0.43 -0.82,10.56 -4.38,-0.3 z"
       inkscape:connector-curvature="0" /><path
       id="path98"
       style="fill:#00bfc4;fill-opacity:1;fill-rule:nonzero;stroke:#000000;stroke-width:0.85000002;stroke-linecap:butt;stroke-linejoin:round;stroke-miterlimit:10;stroke-dasharray:none;stroke-opacity:1"
       d="m 183.65,169.59 1.28,3.85 -0.7,8.51 -0.36,4.25 12.7,1.25 4.36,-0.01 4.38,0.3 0.82,-10.56 0.33,-2.71 0.27,-5.8 L 184.9,167 Z"
       inkscape:connector-curvature="0" /><path
       id="path100"
       style="fill:#00bfc4;fill-opacity:1;fill-rule:nonzero;stroke:#000000;stroke-width:0.85000002;stroke-linecap:butt;stroke-linejoin:round;stroke-miterlimit:10;stroke-dasharray:none;stroke-opacity:1"
       d="m 155.2,248.42 1.3,0.18 -0.69,5.64 1.53,2.33 -0.23,4.54 9.15,0.59 5.64,0.48 0.9,-14.46 0.15,-2.65 -4.24,-0.28 0.25,-4.25 -7.62,-0.49 -0.34,-4.38 -1.91,4.93 -2.86,0.04 -2.33,1.83 z"
       inkscape:connector-curvature="0" /><path
       id="path102"
       style="fill:#00bfc4;fill-opacity:1;fill-rule:nonzero;stroke:#000000;stroke-width:0.85000002;stroke-linecap:butt;stroke-linejoin:round;stroke-miterlimit:10;stroke-dasharray:none;stroke-opacity:1"
       d="m 93.22,258.18 v 1.59 l 1.65,6.45 -2.13,-0.08 -0.18,4.24 3.58,0.16 2.6,5.05 0.34,0.73 8.18,0.33 0.75,-19.23 -4.04,2.1 0.24,-5.43 -4.3,-0.02 0.16,-4.37 -4.31,-1.06 -1.39,-0.8 -0.88,4.2 z"
       inkscape:connector-curvature="0" /><path
       id="path104"
       style="fill:#00bfc4;fill-opacity:1;fill-rule:nonzero;stroke:#000000;stroke-width:0.85000002;stroke-linecap:butt;stroke-linejoin:round;stroke-miterlimit:10;stroke-dasharray:none;stroke-opacity:1"
       d="m 166.2,306.64 -0.58,10.74 1.18,0.11 5.29,0.52 12.31,1.24 1.17,0.12 7.57,0.68 0.57,-7.92 -4.4,-0.35 0.39,-4.26 -4.96,-0.34 -18.38,-1.37 z"
       inkscape:connector-curvature="0" /><path
       id="path106"
       style="fill:#00bfc4;fill-opacity:1;fill-rule:nonzero;stroke:#000000;stroke-width:0.85000002;stroke-linecap:butt;stroke-linejoin:round;stroke-miterlimit:10;stroke-dasharray:none;stroke-opacity:1"
       d="m 122.69,224.72 0.12,2.86 -0.11,1.42 4.3,0.38 8.57,0.62 4.26,0.37 0.06,-6.61 4.23,0.25 2.88,-1.95 0.92,-4.18 -4.93,-0.29 -0.9,-5.81 -18.61,-1.1 z"
       inkscape:connector-curvature="0" /><path
       id="path108"
       style="fill:#00bfc4;fill-opacity:1;fill-rule:nonzero;stroke:#000000;stroke-width:0.85000002;stroke-linecap:butt;stroke-linejoin:round;stroke-miterlimit:10;stroke-dasharray:none;stroke-opacity:1"
       d="m 153.29,213.97 3.05,2.28 7.48,0.48 -0.12,2.14 6.36,0.48 1.53,0.1 0.87,-12.8 -0.16,-8.26 -4.18,-0.52 -3.03,2.49 -3.67,1.07 -7.52,-0.39 z"
       inkscape:connector-curvature="0" /><path
       id="path110"
       style="fill:#00bfc4;fill-opacity:1;fill-rule:nonzero;stroke:#000000;stroke-width:0.85000002;stroke-linecap:butt;stroke-linejoin:round;stroke-miterlimit:10;stroke-dasharray:none;stroke-opacity:1"
       d="m 219.88,302.31 2.55,3.7 -2.46,-0.24 -0.45,5.73 19.2,1.77 0.25,-2.85 5.19,0.53 -1.15,-0.84 -0.37,-2.28 -2.18,-1.56 -1.43,-3.41 -0.89,-2.63 -0.58,-1.6 -18.37,-1.9 z"
       inkscape:connector-curvature="0" /><path
       id="path112"
       style="fill:#00bfc4;fill-opacity:1;fill-rule:nonzero;stroke:#000000;stroke-width:0.85000002;stroke-linecap:butt;stroke-linejoin:round;stroke-miterlimit:10;stroke-dasharray:none;stroke-opacity:1"
       d="m 102.75,176.93 0.48,0.59 5.13,0.23 -0.48,12.73 2.99,0.12 9.25,-2.44 2.84,0.9 -0.15,-6.45 0.68,-17.05 -9.72,-0.44 -2.21,0.66 -0.38,1.04 -2.05,2.31 0.16,2.12 -0.26,-0.22 -6,2.8 z"
       inkscape:connector-curvature="0" /><path
       id="path114"
       style="fill:#00bfc4;fill-opacity:1;fill-rule:nonzero;stroke:#000000;stroke-width:0.85000002;stroke-linecap:butt;stroke-linejoin:round;stroke-miterlimit:10;stroke-dasharray:none;stroke-opacity:1"
       d="m 123.48,210.68 18.61,1.1 0.9,5.81 4.93,0.29 4.49,-1.11 0.88,-2.8 0.61,-12.93 -8.45,-0.43 -6.17,-0.54 -0.16,3.98 -6.71,0.02 -6.49,1.06 -2.28,2.72 z"
       inkscape:connector-curvature="0" /><path
       id="path116"
       style="fill:#00bfc4;fill-opacity:1;fill-rule:nonzero;stroke:#000000;stroke-width:0.85000002;stroke-linecap:butt;stroke-linejoin:round;stroke-miterlimit:10;stroke-dasharray:none;stroke-opacity:1"
       d="m 89.29,206.15 12.95,0.63 0.9,-7.95 4.28,0.18 0.46,-8.53 0.48,-12.73 -5.13,-0.23 h -0.08 l -0.37,2.18 -3.7,3.95 -1.01,2.13 0.39,1.81 -1.87,5.47 -0.11,5.31 -6.27,-0.15 z"
       inkscape:connector-curvature="0" /><path
       id="path118"
       style="fill:#00bfc4;fill-opacity:1;fill-rule:nonzero;stroke:#000000;stroke-width:0.85000002;stroke-linecap:butt;stroke-linejoin:round;stroke-miterlimit:10;stroke-dasharray:none;stroke-opacity:1"
       d="m 180.19,287.76 3.47,4.06 1.7,0.11 9.81,0.74 0.14,-2.16 4.26,0.34 6.29,0.62 -0.98,-3.9 -4.34,-5.53 0.21,-8.98 -8.47,-0.67 -6.5,-0.45 -1.93,-0.2 -0.62,8.68 -1.86,-0.52 -1.79,4.97 z"
       inkscape:connector-curvature="0" /><path
       id="path120"
       style="fill:#00bfc4;fill-opacity:1;fill-rule:nonzero;stroke:#000000;stroke-width:0.85000002;stroke-linecap:butt;stroke-linejoin:round;stroke-miterlimit:10;stroke-dasharray:none;stroke-opacity:1"
       d="m 164.59,299.39 2.01,2.14 -0.24,4.28 18.38,1.37 1.48,-12.27 -0.86,-2.98 -1.7,-0.11 -3.47,-4.06 -4.84,3.04 -5.66,-0.92 1.5,5.36 -5.83,4.17 z"
       inkscape:connector-curvature="0" /><path
       id="path122"
       style="fill:#00bfc4;fill-opacity:1;fill-rule:nonzero;stroke:#000000;stroke-width:0.85000002;stroke-linecap:butt;stroke-linejoin:round;stroke-miterlimit:10;stroke-dasharray:none;stroke-opacity:1"
       d="m 192.28,272.39 8.47,0.67 -0.21,8.98 4.34,5.53 0.98,3.9 6.59,0.46 0.66,-8.62 1.17,-12.94 0.4,-4.32 -8.46,-0.73 -0.46,4.29 -3.72,-0.71 -9.46,-0.8 z"
       inkscape:connector-curvature="0" /><path
       id="path124"
       style="fill:#00bfc4;fill-opacity:1;fill-rule:nonzero;stroke:#000000;stroke-width:0.85000002;stroke-linecap:butt;stroke-linejoin:round;stroke-miterlimit:10;stroke-dasharray:none;stroke-opacity:1"
       d="m 172.46,206.65 -0.87,12.8 7.19,0.51 2.24,0.17 10.91,0.76 0.56,-8.54 0.24,-3.6 7.12,0.18 1.27,-3.85 2.57,-0.15 0.51,-2.57 -1.4,-1.22 -2.49,1.91 -7.35,2.89 -0.11,-5.46 -0.87,1.33 -8.46,-0.84 0.12,-1.43 -11.34,-1.15 z"
       inkscape:connector-curvature="0" /><path
       id="path126"
       style="fill:#00bfc4;fill-opacity:1;fill-rule:nonzero;stroke:#000000;stroke-width:0.85000002;stroke-linecap:butt;stroke-linejoin:round;stroke-miterlimit:10;stroke-dasharray:none;stroke-opacity:1"
       d="m 107.26,276.65 7.05,0.28 0.08,-1.41 14.14,0.84 0.34,-6.4 -2.13,-0.11 0.37,-6.37 -2.89,-0.16 0.39,-6.98 -4.78,-0.4 -1.01,4.94 -10.81,-3.46 z"
       inkscape:connector-curvature="0" /><path
       id="path128"
       style="fill:#00bfc4;fill-opacity:1;fill-rule:nonzero;stroke:#000000;stroke-width:0.85000002;stroke-linecap:butt;stroke-linejoin:round;stroke-miterlimit:10;stroke-dasharray:none;stroke-opacity:1"
       d="m 110.2,148.54 3.9,1.14 -0.23,1.74 2.65,6.44 -1.69,0.35 0.1,2.39 -2.05,2.62 0.89,1.9 9.72,0.44 0.07,-1.4 4.85,0.23 -2.51,-9.31 -1.63,-0.03 0.43,-11.78 -1.25,-0.09 -8.34,-0.59 -3.45,-0.26 -2.56,3.7 z"
       inkscape:connector-curvature="0" /><path
       id="path130"
       style="fill:#00bfc4;fill-opacity:1;fill-rule:nonzero;stroke:#000000;stroke-width:0.85000002;stroke-linecap:butt;stroke-linejoin:round;stroke-miterlimit:10;stroke-dasharray:none;stroke-opacity:1"
       d="m 198.3,307.46 3.46,1.68 7.44,-4.48 0.53,-1.71 0.57,1.86 9.67,0.96 2.46,0.24 -2.55,-3.7 -0.69,-5.58 -0.4,-4.32 -6.34,-0.48 -6.59,-0.46 -6.29,-0.62 z"
       inkscape:connector-curvature="0" /><path
       id="path132"
       style="fill:#00bfc4;fill-opacity:1;fill-rule:nonzero;stroke:#000000;stroke-width:0.85000002;stroke-linecap:butt;stroke-linejoin:round;stroke-miterlimit:10;stroke-dasharray:none;stroke-opacity:1"
       d="m 214.55,242.08 -0.17,2.17 27.7,2.67 0.37,-3.34 -2.23,-0.27 -0.17,-2.29 -1.16,-1.33 -1.32,-3.22 0.03,-1.9 -0.84,-1.65 -0.94,0.37 -18.31,-1.78 -0.31,4.32 -2.14,-0.2 z"
       inkscape:connector-curvature="0" /><path
       id="path134"
       style="fill:#00bfc4;fill-opacity:1;fill-rule:nonzero;stroke:#000000;stroke-width:0.85000002;stroke-linecap:butt;stroke-linejoin:round;stroke-miterlimit:10;stroke-dasharray:none;stroke-opacity:1"
       d="m 183.08,195.23 0.56,4.31 -0.12,1.43 8.46,0.84 0.87,-1.33 0.11,5.46 7.35,-2.89 2.49,-1.91 1.4,1.22 0.51,-2.54 0.73,-0.71 -4.99,-2.22 0.48,-9.45 -4.36,0.01 -12.7,-1.25 z"
       inkscape:connector-curvature="0" /><path
       id="path136"
       style="fill:#00bfc4;fill-opacity:1;fill-rule:nonzero;stroke:#000000;stroke-width:0.85000002;stroke-linecap:butt;stroke-linejoin:round;stroke-miterlimit:10;stroke-dasharray:none;stroke-opacity:1"
       d="m 81.69,177.91 -0.25,7.42 2.8,0.39 4.6,-5.25 5.07,-1.77 5.8,0.09 3.44,-1.27 h 0.08 l -0.48,-0.59 0.28,-3.1 6,-2.8 -0.4,-0.37 -1.07,0.3 -0.67,-1.02 -0.69,-0.56 -0.13,0.59 -0.66,-0.22 0.61,-0.6 -0.35,-0.32 -0.67,0.51 -0.59,-1.4 -0.6,-0.08 -0.12,0.74 -0.92,-0.05 0.4,-0.68 -0.46,-0.97 -2.4,0.65 -1.26,0.93 -2.89,0.07 -1.7,0.59 -1.17,-1.14 -1.05,0.23 -2.62,-0.78 -1.43,0.04 -0.62,-0.56 -1.41,0.35 -1.3,0.48 -2.91,2.78 z"
       inkscape:connector-curvature="0" /><path
       id="path138"
       style="fill:#00bfc4;fill-opacity:1;fill-rule:nonzero;stroke:#000000;stroke-width:0.85000002;stroke-linecap:butt;stroke-linejoin:round;stroke-miterlimit:10;stroke-dasharray:none;stroke-opacity:1"
       d="m 91.64,242.74 -0.09,2.14 4.35,0.18 -0.13,3.45 -0.01,0.13 4.31,1.06 -0.16,4.37 4.3,0.02 -0.24,5.43 4.04,-2.1 10.81,3.46 1.01,-4.94 4.78,0.4 0.88,-0.65 0.28,-4.87 -7.1,-0.4 -2.68,-3.66 -7.06,-1.05 0.45,-5.61 -14.86,-0.75 -2.79,1.24 z"
       inkscape:connector-curvature="0" /><path
       id="path140"
       style="fill:#00bfc4;fill-opacity:1;fill-rule:nonzero;stroke:#000000;stroke-width:0.85000002;stroke-linecap:butt;stroke-linejoin:round;stroke-miterlimit:10;stroke-dasharray:none;stroke-opacity:1"
       d="m 172.8,247.72 4.24,0.88 4.62,-1.95 4,0.54 0.42,-5.32 4.42,0.34 0.79,-12.09 2.71,-2.08 0.54,-3.46 -1.52,-3.62 -1.09,-0.07 -10.91,-0.76 -2.24,-0.17 -0.52,6.43 -3.21,-0.23 0.82,4.92 -0.88,14.15 -2.04,-0.16 z"
       inkscape:connector-curvature="0" /><path
       id="path142"
       style="fill:#00bfc4;fill-opacity:1;fill-rule:nonzero;stroke:#000000;stroke-width:0.85000002;stroke-linecap:butt;stroke-linejoin:round;stroke-miterlimit:10;stroke-dasharray:none;stroke-opacity:1"
       d="m 96.35,291.66 1.76,7.19 0.51,3.58 2.13,0.12 6.24,0.29 1.82,-4.86 2.98,-3.45 2.84,0.16 1.49,-2.05 0.2,-5.54 -2.6,-4.42 0.59,-5.75 -7.05,-0.28 -8.18,-0.33 -0.34,-0.73 -2.08,-0.09 z"
       inkscape:connector-curvature="0" /><path
       id="path144"
       style="fill:#00bfc4;fill-opacity:1;fill-rule:nonzero;stroke:#000000;stroke-width:0.85000002;stroke-linecap:butt;stroke-linejoin:round;stroke-miterlimit:10;stroke-dasharray:none;stroke-opacity:1"
       d="m 136.78,314.44 1.17,0.46 0.6,0.05 2.61,0.23 8.19,0.72 1.38,0.12 0.29,-5.46 -2.32,-1.76 2.42,-4.29 2.78,-0.06 -0.06,-2.83 2.86,-1.57 0.42,-4.85 -16.85,-1.12 -0.18,2.14 -2.13,-0.16 z"
       inkscape:connector-curvature="0" /><path
       id="path146"
       style="fill:#00bfc4;fill-opacity:1;fill-rule:nonzero;stroke:#000000;stroke-width:0.85000002;stroke-linecap:butt;stroke-linejoin:round;stroke-miterlimit:10;stroke-dasharray:none;stroke-opacity:1"
       d="m 100.31,167.55 2.4,-0.65 0.46,0.97 -0.4,0.68 0.92,0.05 0.12,-0.74 0.6,0.08 0.59,1.4 0.67,-0.51 0.35,0.32 -0.61,0.6 0.66,0.22 0.13,-0.59 0.69,0.56 0.67,1.02 1.07,-0.3 0.4,0.37 0.26,0.22 -0.16,-2.12 2.05,-2.31 0.38,-1.04 2.21,-0.66 -0.89,-1.9 2.05,-2.62 -0.1,-2.39 1.69,-0.35 -2.65,-6.44 0.23,-1.74 -3.9,-1.14 -1.1,-2.51 2.56,-3.7 -0.31,-0.02 -9.41,-0.68 -0.41,6.87 -0.35,5.4 -0.18,2.89 -0.32,5.13 z"
       inkscape:connector-curvature="0" /><path
       id="path148"
       style="fill:#00bfc4;fill-opacity:1;fill-rule:nonzero;stroke:#000000;stroke-width:0.85000002;stroke-linecap:butt;stroke-linejoin:round;stroke-miterlimit:10;stroke-dasharray:none;stroke-opacity:1"
       d="m 241.28,300.63 7.3,0.93 5.69,0.73 2.29,0.29 6.62,0.87 2.11,-2.35 1.51,-1.11 0.22,-0.8 0.13,-0.47 -2.86,-1.4 -0.13,-1.3 0.45,-1.83 -2.77,-1.66 -2.45,-2.02 -2.08,0.11 -1.31,-3.09 2.52,-1.89 1.01,-1.08 -2.11,-1.18 -0.24,-2.37 -0.44,-0.97 -3.19,0.04 -0.04,-2.65 1.15,-1.8 -0.71,-2.15 -1.04,0.27 -1.6,-0.84 -1.24,1.17 -5.84,-0.6 -1.34,12.72 z"
       inkscape:connector-curvature="0" /><path
       id="path150"
       style="fill:#00bfc4;fill-opacity:1;fill-rule:nonzero;stroke:#000000;stroke-width:0.85000002;stroke-linecap:butt;stroke-linejoin:round;stroke-miterlimit:10;stroke-dasharray:none;stroke-opacity:1"
       d="m 201.52,230.92 2.91,0.22 -0.86,12.04 2.96,0.29 -0.26,3.55 2.14,1.16 3.52,0.28 0.31,-4.42 2.31,-1.96 0.51,-6.45 2.14,0.2 0.31,-4.32 0.7,-8.52 2.2,0.16 0.53,-6.48 -2.17,-0.22 -1.5,0.19 -3.81,4.85 -1.52,-0.6 -3.69,5.52 -3.48,-0.27 -3.03,1.94 z"
       inkscape:connector-curvature="0" /><path
       id="path152"
       style="fill:#00bfc4;fill-opacity:1;fill-rule:nonzero;stroke:#000000;stroke-width:0.85000002;stroke-linecap:butt;stroke-linejoin:round;stroke-miterlimit:10;stroke-dasharray:none;stroke-opacity:1"
       d="m 101.46,222.19 2.28,2.44 2.14,0.1 4.2,2.01 12.73,0.84 -0.12,-2.86 0.79,-14.04 0.16,-2.83 -2.86,-0.15 -18.54,-0.92 z"
       inkscape:connector-curvature="0" /><path
       id="path154"
       style="fill:#00bfc4;fill-opacity:1;fill-rule:nonzero;stroke:#000000;stroke-width:0.85000002;stroke-linecap:butt;stroke-linejoin:round;stroke-miterlimit:10;stroke-dasharray:none;stroke-opacity:1"
       d="m 123.49,165.56 -0.68,17.05 0.15,6.45 1.57,-0.27 1.82,0.54 5.12,-5.87 6.47,-2.02 0.65,-15.82 -4.26,-0.95 -5.92,-0.28 -4.85,-0.23 z"
       inkscape:connector-curvature="0" /><path
       id="path156"
       style="fill:#00bfc4;fill-opacity:1;fill-rule:nonzero;stroke:#000000;stroke-width:0.85000002;stroke-linecap:butt;stroke-linejoin:round;stroke-miterlimit:10;stroke-dasharray:none;stroke-opacity:1"
       d="m 113.72,282.68 2.6,4.42 -0.2,5.54 -1.49,2.05 7.08,0.39 1.42,0.05 12.7,0.8 0.4,-2.11 0.22,-3.99 0.57,-12.98 -8.49,-0.49 -14.14,-0.84 -0.08,1.41 z"
       inkscape:connector-curvature="0" /><path
       id="path158"
       style="fill:#00bfc4;fill-opacity:1;fill-rule:nonzero;stroke:#000000;stroke-width:0.85000002;stroke-linecap:butt;stroke-linejoin:round;stroke-miterlimit:10;stroke-dasharray:none;stroke-opacity:1"
       d="m 138.59,165.62 -0.65,15.82 2.99,-0.11 4.47,2.9 1.03,-0.47 12.67,0.7 0.15,-3.21 -2.27,-3.76 -3.05,-0.85 0.6,-4.84 -2.35,-0.83 0.64,-2.25 2.03,-0.28 0.68,-2.49 2.03,0.38 0.54,-1.81 2.13,0.48 1.17,-1.66 -3.8,-0.88 -13.09,-0.07 -5.77,-0.32 z"
       inkscape:connector-curvature="0" /><path
       id="path160"
       style="fill:#00bfc4;fill-opacity:1;fill-rule:nonzero;stroke:#000000;stroke-width:0.85000002;stroke-linecap:butt;stroke-linejoin:round;stroke-miterlimit:10;stroke-dasharray:none;stroke-opacity:1"
       d="m 125.92,234.3 9.93,10.68 16.47,1.36 2.88,2.08 -1.3,-5.95 2.33,-1.83 -8.25,-2.76 0.1,-1.93 0.68,-0.84 0.06,-1.24 -3.69,1.02 -9.83,-0.68 0.27,-4.21 -8.57,-0.62 z"
       inkscape:connector-curvature="0" /><path
       id="path162"
       style="fill:#00bfc4;fill-opacity:1;fill-rule:nonzero;stroke:#000000;stroke-width:0.85000002;stroke-linecap:butt;stroke-linejoin:round;stroke-miterlimit:10;stroke-dasharray:none;stroke-opacity:1"
       d="m 218.76,206.99 0.01,9.46 2.17,0.22 -0.53,6.48 -2.2,-0.16 -0.7,8.52 18.31,1.78 0.94,-0.37 -0.42,-0.84 1.76,-2.14 -0.59,-2.19 -0.01,-0.03 -0.25,-3.25 0.55,-2.09 -2.51,-1.82 -0.53,-2.42 -2.91,1.08 -1.36,-1.2 0.76,-2.55 -2.38,-0.75 -0.89,-2.22 -2.15,-0.81 0.67,-1.9 -0.37,-1.19 -1.71,-0.78 -0.11,-1.42 -0.01,-0.18 -1.17,-0.02 -5.85,-0.6 z"
       inkscape:connector-curvature="0" /><path
       id="path164"
       style="fill:#00bfc4;fill-opacity:1;fill-rule:nonzero;stroke:#000000;stroke-width:0.85000002;stroke-linecap:butt;stroke-linejoin:round;stroke-miterlimit:10;stroke-dasharray:none;stroke-opacity:1"
       d="m 102.24,206.78 18.54,0.92 -0.53,-6.25 1.67,-0.28 1.54,-6.51 2.89,-5.33 -1.82,-0.54 -1.57,0.27 -2.84,-0.9 -9.25,2.44 -2.99,-0.12 -0.46,8.53 -4.28,-0.18 z"
       inkscape:connector-curvature="0" /><path
       id="path166"
       style="fill:#00bfc4;fill-opacity:1;fill-rule:nonzero;stroke:#000000;stroke-width:0.85000002;stroke-linecap:butt;stroke-linejoin:round;stroke-miterlimit:10;stroke-dasharray:none;stroke-opacity:1"
       d="m 213.11,283.31 29.78,2.89 1.34,-12.72 -8.58,-0.83 -4.35,-0.13 -17.02,-2.15 z"
       inkscape:connector-curvature="0" /><path
       id="path168"
       style="fill:#00bfc4;fill-opacity:1;fill-rule:nonzero;stroke:#000000;stroke-width:0.85000002;stroke-linecap:butt;stroke-linejoin:round;stroke-miterlimit:10;stroke-dasharray:none;stroke-opacity:1"
       d="m 80.73,205.77 -0.25,7.22 -0.22,6.23 -0.15,4.59 5.56,0.25 15.04,-1.18 0.75,-0.69 0.78,-15.41 -12.95,-0.63 0.92,-7.93 -9.19,-0.72 z"
       inkscape:connector-curvature="0" /><path
       id="path170"
       style="fill:#00bfc4;fill-opacity:1;fill-rule:nonzero;stroke:#000000;stroke-width:0.85000002;stroke-linecap:butt;stroke-linejoin:round;stroke-miterlimit:10;stroke-dasharray:none;stroke-opacity:1"
       d="m 124.22,263.32 2.89,0.16 -0.37,6.37 2.13,0.11 -0.34,6.4 8.49,0.49 5.64,0.37 0.51,-8.47 -1.17,-4.32 0.92,-14.1 -1.82,-0.35 -4.96,-0.83 -1.37,-2.24 -0.7,2.65 -8.58,6.13 -0.88,0.65 z"
       inkscape:connector-curvature="0" /><path
       id="path172"
       style="fill:#00bfc4;fill-opacity:1;fill-rule:nonzero;stroke:#000000;stroke-width:0.85000002;stroke-linecap:butt;stroke-linejoin:round;stroke-miterlimit:10;stroke-dasharray:none;stroke-opacity:1"
       d="m 185.66,247.19 3.92,1.97 3.89,-1.7 0.67,3.56 4.76,0.37 -0.41,-1.5 4.65,0.09 0.43,-6.8 0.86,-12.04 -2.91,-0.22 0.22,-2.84 3.03,-1.94 -8.75,-0.66 0.34,-4.26 -3.34,-0.26 1.52,3.62 -0.54,3.46 -2.71,2.08 -0.79,12.09 -4.42,-0.34 z"
       inkscape:connector-curvature="0" /><path
       id="path174"
       style="fill:#00bfc4;fill-opacity:1;fill-rule:nonzero;stroke:#000000;stroke-width:0.85000002;stroke-linecap:butt;stroke-linejoin:round;stroke-miterlimit:10;stroke-dasharray:none;stroke-opacity:1"
       d="m 147.98,237.88 8.25,2.76 2.86,-0.04 1.91,-4.93 0.34,4.38 7.62,0.49 -0.25,4.25 4.24,0.28 2.04,0.16 0.88,-14.15 -0.82,-4.92 3.21,0.23 0.52,-6.43 -7.19,-0.51 -1.53,-0.1 -0.28,4.25 -4.22,-0.31 -0.08,2.12 -3.99,-0.3 -0.1,2.21 -4.45,0.45 -0.18,3.53 -4.22,-0.23 -0.21,4.26 -3.57,-0.22 -0.68,0.84 z"
       inkscape:connector-curvature="0" /><path
       id="path176"
       style="fill:#00bfc4;fill-opacity:1;fill-rule:nonzero;stroke:#000000;stroke-width:0.85000002;stroke-linecap:butt;stroke-linejoin:round;stroke-miterlimit:10;stroke-dasharray:none;stroke-opacity:1"
       d="m 194.91,320.21 10.92,1.17 4.26,0.47 9.18,1.02 1.81,-4.02 0.61,-6.46 -2.17,-0.89 0.45,-5.73 -9.67,-0.96 -0.57,-1.86 -0.53,1.71 -7.44,4.48 -1.17,5.63 -5.76,5.43 z"
       inkscape:connector-curvature="0" /><path
       id="path178"
       style="fill:#00bfc4;fill-opacity:1;fill-rule:nonzero;stroke:#000000;stroke-width:0.85000002;stroke-linecap:butt;stroke-linejoin:round;stroke-miterlimit:10;stroke-dasharray:none;stroke-opacity:1"
       d="m 211.93,248.46 4.18,0.37 -0.57,7.18 21.57,2.17 4.07,0.66 0.9,-11.92 -27.7,-2.67 0.17,-2.17 -2.31,1.96 z"
       inkscape:connector-curvature="0" /><path
       id="path180"
       style="fill:#00bfc4;fill-opacity:1;fill-rule:nonzero;stroke:#000000;stroke-width:0.85000002;stroke-linecap:butt;stroke-linejoin:round;stroke-miterlimit:10;stroke-dasharray:none;stroke-opacity:1"
       d="m 135.3,234.21 9.83,0.68 3.69,-1.02 -0.06,1.24 3.57,0.22 0.21,-4.26 4.22,0.23 0.18,-3.53 4.45,-0.45 0.1,-2.21 3.99,0.3 0.08,-2.12 4.22,0.31 0.28,-4.25 -6.36,-0.48 0.12,-2.14 -7.48,-0.48 -3.05,-2.28 -0.88,2.8 -4.49,1.11 -0.92,4.18 -2.88,1.95 -4.23,-0.25 -0.06,6.61 -4.26,-0.37 z"
       inkscape:connector-curvature="0" /><path
       id="path182"
       style="fill:#00bfc4;fill-opacity:1;fill-rule:nonzero;stroke:#000000;stroke-width:0.85000002;stroke-linecap:butt;stroke-linejoin:round;stroke-miterlimit:10;stroke-dasharray:none;stroke-opacity:1"
       d="m 79.86,231.7 -0.06,2.13 8.62,2.27 -0.17,4.35 3.39,2.29 0.09,-2.15 2.79,-1.24 14.86,0.75 0.7,-13.36 -4.2,-2.01 -2.14,-0.1 -2.28,-2.44 -0.75,0.69 -15.04,1.18 -5.56,-0.25 z"
       inkscape:connector-curvature="0" /><path
       id="path184"
       style="fill:#00bfc4;fill-opacity:1;fill-rule:nonzero;stroke:#000000;stroke-width:0.85000002;stroke-linecap:butt;stroke-linejoin:round;stroke-miterlimit:10;stroke-dasharray:none;stroke-opacity:1"
       d="m 136.45,289.83 -0.22,3.99 -0.4,2.11 2.13,0.13 2.13,0.16 0.18,-2.14 16.85,1.12 0.23,-4.24 0.66,-9.14 -8.46,-0.64 0.23,-3.54 -7.12,-0.42 -5.64,-0.37 z"
       inkscape:connector-curvature="0" /><path
       id="path186"
       style="fill:#00bfc4;fill-opacity:1;fill-rule:nonzero;stroke:#000000;stroke-width:0.85000002;stroke-linecap:butt;stroke-linejoin:round;stroke-miterlimit:10;stroke-dasharray:none;stroke-opacity:1"
       d="m 79.61,240.11 -0.32,10.43 -0.12,4.58 -0.16,0.86 -0.04,0.25 0.82,2.8 4.99,-4.7 1.99,0.65 0.34,-0.09 3.98,1.96 -0.6,2.97 2.73,-0.05 v -1.59 l 0.27,-6.14 0.88,-4.2 1.39,0.8 0.01,-0.13 0.13,-3.45 -4.35,-0.18 0.09,-2.14 -3.39,-2.29 0.17,-4.35 -8.62,-2.27 z"
       inkscape:connector-curvature="0" /><path
       id="path188"
       style="fill:#00bfc4;fill-opacity:1;fill-rule:nonzero;stroke:#000000;stroke-width:0.85000002;stroke-linecap:butt;stroke-linejoin:round;stroke-miterlimit:10;stroke-dasharray:none;stroke-opacity:1"
       d="m 81.32,189.17 -0.3,8.33 9.19,0.72 6.27,0.15 0.11,-5.31 1.87,-5.47 -0.39,-1.81 1.01,-2.13 3.7,-3.95 0.37,-2.18 -3.44,1.27 -5.8,-0.09 -5.07,1.77 -4.6,5.25 -2.8,-0.39 z"
       inkscape:connector-curvature="0" /><path
       id="path190"
       style="fill:#00bfc4;fill-opacity:1;fill-rule:nonzero;stroke:#000000;stroke-width:0.85000002;stroke-linecap:butt;stroke-linejoin:round;stroke-miterlimit:10;stroke-dasharray:none;stroke-opacity:1"
       d="m 186.22,294.91 -1.48,12.27 4.96,0.34 -0.39,4.26 4.4,0.35 -0.57,7.92 1.69,0.15 5.76,-5.43 1.17,-5.63 -3.46,-1.68 1.27,-16.61 -4.26,-0.34 -0.14,2.16 -9.81,-0.74 z"
       inkscape:connector-curvature="0" /><path
       id="path192"
       style="fill:#00bfc4;fill-opacity:1;fill-rule:nonzero;stroke:#000000;stroke-width:0.85000002;stroke-linecap:butt;stroke-linejoin:round;stroke-miterlimit:10;stroke-dasharray:none;stroke-opacity:1"
       d="m 158.01,281.82 -0.66,9.14 4.26,0.29 -0.28,4.26 4.27,0.3 -0.24,3.6 5.83,-4.17 -1.5,-5.36 5.66,0.92 4.84,-3.04 -0.61,-2.89 1.79,-4.97 -16.06,-1.17 -7.07,-0.45 z"
       inkscape:connector-curvature="0" /><path
       id="path194"
       style="fill:#00bfc4;fill-opacity:1;fill-rule:nonzero;stroke:#000000;stroke-width:0.85000002;stroke-linecap:butt;stroke-linejoin:round;stroke-miterlimit:10;stroke-dasharray:none;stroke-opacity:1"
       d="m 144.51,162.39 13.09,0.07 3.8,0.88 5.93,-4.27 3.22,1.73 -0.31,-0.84 5.64,-0.91 3.93,-4.07 0.01,-3.18 3.42,-4.07 -6.33,-0.55 -11.47,-0.88 -9.15,-0.69 h -0.05 l -10.15,-0.72 -0.72,-0.05 z"
       inkscape:connector-curvature="0" /><path
       id="path196"
       style="fill:#00bfc4;fill-opacity:1;fill-rule:nonzero;stroke:#000000;stroke-width:0.85000002;stroke-linecap:butt;stroke-linejoin:round;stroke-miterlimit:10;stroke-dasharray:none;stroke-opacity:1"
       d="m 143.17,268.75 -0.51,8.47 7.12,0.42 -0.23,3.54 8.46,0.64 0.23,-3.54 7.07,0.45 0.95,-17.03 -9.15,-0.59 -0.27,4.25 -14.84,-0.93 z"
       inkscape:connector-curvature="0" /><path
       id="path198"
       style="fill:#00bfc4;fill-opacity:1;fill-rule:nonzero;stroke:#000000;stroke-width:0.85000002;stroke-linecap:butt;stroke-linejoin:round;stroke-miterlimit:10;stroke-dasharray:none;stroke-opacity:1"
       d="m 72.24,290.55 6.38,0.29 2.04,2.23 -0.11,3.55 14.27,0.48 3.29,1.75 -1.76,-7.19 0.31,-16.16 -6.43,-0.27 -3.47,-0.82 -11.19,-0.44 -0.08,0.44 -2.13,10.62 z"
       inkscape:connector-curvature="0" /><path
       id="path200"
       style="fill:#00bfc4;fill-opacity:1;fill-rule:nonzero;stroke:#000000;stroke-width:0.85000002;stroke-linecap:butt;stroke-linejoin:round;stroke-miterlimit:10;stroke-dasharray:none;stroke-opacity:1"
       d="m 171.9,262.18 10.37,0.78 -0.25,3.81 2.07,1.14 -0.24,3.83 1.93,0.2 6.5,0.45 0.3,-4.29 9.46,0.8 -0.3,-1.51 -3.02,-2.28 0.73,-3.65 2.03,-2 -0.06,-2.38 -2.55,-2.47 0.03,-3.22 -4.76,-0.37 -0.67,-3.56 -3.89,1.7 -3.92,-1.97 -4,-0.54 -4.62,1.95 -4.24,-0.88 z"
       inkscape:connector-curvature="0" /><path
       id="path202"
       style="fill:#00bfc4;fill-opacity:1;fill-rule:nonzero;stroke:#000000;stroke-width:0.85000002;stroke-linecap:butt;stroke-linejoin:round;stroke-miterlimit:10;stroke-dasharray:none;stroke-opacity:1"
       d="m 198.9,251.39 -0.03,3.22 2.55,2.47 0.06,2.38 -2.03,2 -0.73,3.65 3.02,2.28 0.3,1.51 3.72,0.71 0.46,-4.29 8.46,0.73 0.86,-10.04 0.57,-7.18 -4.18,-0.37 -3.52,-0.28 -2.14,-1.16 0.26,-3.55 -2.96,-0.29 -0.43,6.8 -4.65,-0.09 z"
       inkscape:connector-curvature="0" /><path
       id="path204"
       style="opacity:0.93999999;fill:url(#pattern25496);fill-opacity:1;fill-rule:nonzero;stroke:#000000;stroke-width:0.85000002;stroke-linecap:butt;stroke-linejoin:round;stroke-miterlimit:10;stroke-dasharray:none;stroke-opacity:1"
       d="m 109.38,240.1 -0.45,5.61 7.06,1.05 2.68,3.66 7.1,0.4 -0.28,4.87 8.58,-6.13 0.7,-2.65 1.37,2.24 4.96,0.83 -5.35,-3.41 0.1,-1.59 -9.93,-10.68 1.08,-4.92 -4.3,-0.38 0.11,-1.42 -12.73,-0.84 z"
       inkscape:connector-curvature="0" /><path
       id="path206"
       style="fill:#f8766d;fill-opacity:1;fill-rule:nonzero;stroke:#000000;stroke-width:0.85000002;stroke-linecap:butt;stroke-linejoin:round;stroke-miterlimit:10;stroke-dasharray:none;stroke-opacity:1"
       d="m 208.92,64.91 2.42,-0.06 2.2,1.69 -1.33,2.15 -0.06,2.54 0.71,2.45 -0.53,2.86 1,1.86 2.12,0.79 -1,1.93 -0.4,1.57 2.74,1.44 0.24,4.35 0.03,0.01 2.52,0.87 -0.09,0.12 0.1,0.1 0.61,-1.82 0.24,0.15 -0.01,-0.31 0.21,0.01 -0.06,-0.36 0.23,-0.09 0.12,-0.3 -0.02,-0.21 -0.3,-0.34 0.15,-0.18 -0.1,-0.24 6.38,-2.39 0.97,-12.8 -6.27,0.05 -6.62,-2.69 -0.47,-4.63 -4.14,-2.07 0.03,0.09 -2.45,1.75 z"
       inkscape:connector-curvature="0" /><path
       id="path208"
       style="fill:#f8766d;fill-opacity:1;fill-rule:nonzero;stroke:#000000;stroke-width:0.85000002;stroke-linecap:butt;stroke-linejoin:round;stroke-miterlimit:10;stroke-dasharray:none;stroke-opacity:1"
       d="m 304.95,259.18 1.45,0.2 12.63,1.75 3.56,0.48 0.68,0.09 1.38,-11.67 -14.13,-1.87 -1.38,-0.18 -0.59,4.95 -2.82,-0.39 z"
       inkscape:connector-curvature="0" /><path
       id="path210"
       style="fill:#f8766d;fill-opacity:1;fill-rule:nonzero;stroke:#000000;stroke-width:0.85000002;stroke-linecap:butt;stroke-linejoin:round;stroke-miterlimit:10;stroke-dasharray:none;stroke-opacity:1"
       d="m 231.91,70.72 3.43,0.84 14.64,1.6 3.56,0.4 1.64,-16.95 -0.82,-0.1 -8.05,-0.89 -2.82,-0.31 -9.85,-1.05 -1.21,13.72 -1.68,1.74 z"
       inkscape:connector-curvature="0" /><path
       id="path212"
       style="fill:#f8766d;fill-opacity:1;fill-rule:nonzero;stroke:#000000;stroke-width:0.85000002;stroke-linecap:butt;stroke-linejoin:round;stroke-miterlimit:10;stroke-dasharray:none;stroke-opacity:1"
       d="m 272.82,153.51 4.56,14.41 1.59,3.68 2.3,0.29 7.81,0.98 5.61,0.69 0.9,-8.59 0.9,-8.61 -16.84,-2.16 0.24,-2.18 -9.65,-1.42 z"
       inkscape:connector-curvature="0" /><path
       id="path214"
       style="fill:#f8766d;fill-opacity:1;fill-rule:nonzero;stroke:#000000;stroke-width:0.85000002;stroke-linecap:butt;stroke-linejoin:round;stroke-miterlimit:10;stroke-dasharray:none;stroke-opacity:1"
       d="m 283.82,256.38 6.17,0.8 6.85,0.92 0.37,0.05 0.77,-6.62 -2.58,-2.48 1.22,-10.55 -5.36,-0.72 -0.86,-0.82 -2.11,-0.29 -1.5,12.71 -2.13,-0.27 z"
       inkscape:connector-curvature="0" /><path
       id="path216"
       style="fill:#f8766d;fill-opacity:1;fill-rule:nonzero;stroke:#000000;stroke-width:0.85000002;stroke-linecap:butt;stroke-linejoin:round;stroke-miterlimit:10;stroke-dasharray:none;stroke-opacity:1"
       d="m 215.98,176.51 0.31,0.82 0.57,1.57 2.21,1.93 -2.11,1.75 3.1,0.79 0.8,2.73 -2.91,1.3 1.17,1.47 1.04,0.2 2.45,-0.37 -0.13,2.07 -1.21,0.77 -0.58,2.55 1.27,1.64 -0.55,1.69 -2.22,0.63 1.53,1.33 1.79,-0.2 0.91,1.23 1.43,1.03 1.99,0.65 0.52,2.27 -1.19,0.99 -1.9,0.52 0.03,0.35 0.01,0.18 11.53,1.19 0.73,-6.37 1.72,-18.06 -4.27,-0.48 0.4,-4.21 z"
       inkscape:connector-curvature="0" /><path
       id="path218"
       style="fill:#f8766d;fill-opacity:1;fill-rule:nonzero;stroke:#000000;stroke-width:0.85000002;stroke-linecap:butt;stroke-linejoin:round;stroke-miterlimit:10;stroke-dasharray:none;stroke-opacity:1"
       d="m 282.09,215.15 10.67,1.3 0.52,-4.23 4.25,0.55 1.52,-12.71 -2.11,-0.3 0.33,-3.56 -0.91,-0.93 -11.79,-1.49 -0.79,7.07 z"
       inkscape:connector-curvature="0" /><path
       id="path220"
       style="fill:#f8766d;fill-opacity:1;fill-rule:nonzero;stroke:#000000;stroke-width:0.85000002;stroke-linecap:butt;stroke-linejoin:round;stroke-miterlimit:10;stroke-dasharray:none;stroke-opacity:1"
       d="m 258.98,175.7 2.78,2.39 -1.08,9.8 -1.09,0.67 13.86,1.63 1.42,-12.64 5.74,0.02 0.66,-5.68 -2.3,-0.29 -1.59,-3.68 -17.97,3.72 z"
       inkscape:connector-curvature="0" /><path
       id="path222"
       style="fill:#f8766d;fill-opacity:1;fill-rule:nonzero;stroke:#000000;stroke-width:0.85000002;stroke-linecap:butt;stroke-linejoin:round;stroke-miterlimit:10;stroke-dasharray:none;stroke-opacity:1"
       d="m 296.94,199.76 2.11,0.3 -1.52,12.71 12.7,1.7 4.26,0.55 1.49,-12.78 -8.56,-1.09 0.31,-2.82 -4.08,-1.26 -6.38,-0.87 z"
       inkscape:connector-curvature="0" /><path
       id="path224"
       style="fill:#f8766d;fill-opacity:1;fill-rule:nonzero;stroke:#000000;stroke-width:0.85000002;stroke-linecap:butt;stroke-linejoin:round;stroke-miterlimit:10;stroke-dasharray:none;stroke-opacity:1"
       d="m 288.28,180.02 2.82,1.69 4.55,3.45 6.96,1.61 v -0.03 l 0.48,-4.22 0.9,-7.75 -0.35,-4.38 -4.27,-0.57 0.47,-4.28 -4.25,-0.57 -0.9,8.59 -5.61,-0.69 z"
       inkscape:connector-curvature="0" /><path
       id="path226"
       style="fill:#f8766d;fill-opacity:1;fill-rule:nonzero;stroke:#000000;stroke-width:0.85000002;stroke-linecap:butt;stroke-linejoin:round;stroke-miterlimit:10;stroke-dasharray:none;stroke-opacity:1"
       d="m 222.49,96.11 2.05,2.33 -0.08,2.6 2.44,0.92 1.36,1.93 -0.05,1.31 1.62,2.66 -0.23,0.32 4.15,-1.02 8.21,8.08 1.24,-8.53 1.01,-9.89 -0.55,-2.93 -4.84,-0.55 0.26,2.04 -7.31,0.96 -9.62,-0.62 z"
       inkscape:connector-curvature="0" /><path
       id="path228"
       style="fill:#f8766d;fill-opacity:1;fill-rule:nonzero;stroke:#000000;stroke-width:0.85000002;stroke-linecap:butt;stroke-linejoin:round;stroke-miterlimit:10;stroke-dasharray:none;stroke-opacity:1"
       d="m 317.04,124.17 19.91,2.83 0.09,-8.59 0.05,-5.9 0.23,-1.9 -6.27,-2.68 -7.51,-2.16 -4.16,-0.86 z"
       inkscape:connector-curvature="0" /><path
       id="path230"
       style="fill:#f8766d;fill-opacity:1;fill-rule:nonzero;stroke:#000000;stroke-width:0.85000002;stroke-linecap:butt;stroke-linejoin:round;stroke-miterlimit:10;stroke-dasharray:none;stroke-opacity:1"
       d="m 303.65,197.07 4.08,1.26 -0.31,2.82 8.56,1.09 0.77,-6.36 8.83,1.17 0.48,-0.24 v -0.03 l -0.01,-0.02 -0.01,-0.01 v -0.02 l -0.02,-0.02 -0.01,-0.01 -0.01,-0.02 h -0.01 l -0.02,0.01 v 0 l -0.01,0.01 h -0.01 l -0.01,0.02 -0.01,0.03 -0.02,0.01 -0.01,0.01 -0.01,0.01 v 0 l -0.03,0.02 -0.01,0.02 -0.02,0.01 -0.02,0.01 h -0.01 l -0.02,0.01 h -0.03 l -0.02,-0.01 h -0.01 -0.01 l -0.01,-0.01 v 0 h -0.01 v -0.01 0 l -0.02,-0.02 -0.02,-0.03 v 0 l -0.01,-0.02 -0.01,-0.02 v -0.04 l -0.01,-0.06 v -0.05 l 0.01,-0.05 v -0.02 0 l 0.01,-0.03 0.01,-0.04 0.01,-0.06 v -0.01 l -0.01,-0.01 -0.03,-0.02 h -0.03 l -0.07,-0.05 -0.03,-0.04 -0.04,-0.04 -0.05,-0.06 -0.02,-0.01 -0.02,-0.01 -0.05,-0.02 -0.03,-0.01 -0.02,-0.02 -0.02,-0.02 v -0.07 -0.07 -0.05 -0.01 l 0.01,-0.05 -0.01,-0.06 -0.01,-0.04 v -0.03 l 0.01,-0.06 0.02,-0.05 0.01,-0.01 v -0.01 -0.01 l 2.41,-5.87 -7.96,-1.98 -0.35,2.86 -4.02,-0.53 -10.06,-1.48 -0.35,3.06 -0.83,1.35 z"
       inkscape:connector-curvature="0" /><path
       id="path232"
       style="fill:#f8766d;fill-opacity:1;fill-rule:nonzero;stroke:#000000;stroke-width:0.85000002;stroke-linecap:butt;stroke-linejoin:round;stroke-miterlimit:10;stroke-dasharray:none;stroke-opacity:1"
       d="m 224.42,207.82 1.71,0.78 0.37,1.19 -0.67,1.9 2.15,0.81 0.89,2.22 2.38,0.75 -0.76,2.55 1.36,1.2 2.91,-1.08 0.53,2.42 2.51,1.82 -0.55,2.09 0.25,3.25 7.34,-4.12 0.83,-7.89 -2.09,-0.19 0.92,-9.22 0.43,-4.24 -8.36,-0.84 -0.73,6.37 -11.53,-1.19 z"
       inkscape:connector-curvature="0" /><path
       id="path234"
       style="fill:#f8766d;fill-opacity:1;fill-rule:nonzero;stroke:#000000;stroke-width:0.85000002;stroke-linecap:butt;stroke-linejoin:round;stroke-miterlimit:10;stroke-dasharray:none;stroke-opacity:1"
       d="m 243.66,93.89 0.55,2.93 -1.01,9.89 20.25,2.32 6.43,-12.61 -0.5,-1.29 -1.3,-0.42 -3.64,-1.87 -5.43,-2.2 -1.53,0.57 -13.44,-1.57 z"
       inkscape:connector-curvature="0" /><path
       id="path236"
       style="fill:#f8766d;fill-opacity:1;fill-rule:nonzero;stroke:#000000;stroke-width:0.85000002;stroke-linecap:butt;stroke-linejoin:round;stroke-miterlimit:10;stroke-dasharray:none;stroke-opacity:1"
       d="m 284.56,98 4.21,0.8 10.39,2.08 1.98,-17.59 -2.19,-0.27 -5.64,-0.71 -0.41,3.87 -7.53,3.82 z"
       inkscape:connector-curvature="0" /><path
       id="path238"
       style="fill:#f8766d;fill-opacity:1;fill-rule:nonzero;stroke:#000000;stroke-width:0.85000002;stroke-linecap:butt;stroke-linejoin:round;stroke-miterlimit:10;stroke-dasharray:none;stroke-opacity:1"
       d="m 248.41,247.81 0.07,1.5 -2.89,2.52 20.56,2.37 1.42,0.17 1.41,0.17 1.23,-10.79 -7.57,-0.9 -4.39,-3.71 -5.93,1.82 -0.98,-1.82 -0.77,6.61 -4.44,0.1 z"
       inkscape:connector-curvature="0" /><path
       id="path240"
       style="fill:#f8766d;fill-opacity:1;fill-rule:nonzero;stroke:#000000;stroke-width:0.85000002;stroke-linecap:butt;stroke-linejoin:round;stroke-miterlimit:10;stroke-dasharray:none;stroke-opacity:1"
       d="m 298.95,83.02 2.19,0.27 10.56,1.33 2.31,-21.02 0.83,-4.34 -8.52,-1.07 -0.44,4.08 -0.43,0.74 -1.71,16.31 -4.31,-0.55 z"
       inkscape:connector-curvature="0" /><path
       id="path242"
       style="fill:#f8766d;fill-opacity:1;fill-rule:nonzero;stroke:#000000;stroke-width:0.85000002;stroke-linecap:butt;stroke-linejoin:round;stroke-miterlimit:10;stroke-dasharray:none;stroke-opacity:1"
       d="m 227.04,83.5 17.38,1.89 4.35,0.49 1.21,-12.72 -14.64,-1.6 -3.43,-0.84 -1.16,-1 -2.2,1.07 -0.54,-0.09 z"
       inkscape:connector-curvature="0" /><path
       id="path244"
       style="fill:#f8766d;fill-opacity:1;fill-rule:nonzero;stroke:#000000;stroke-width:0.85000002;stroke-linecap:butt;stroke-linejoin:round;stroke-miterlimit:10;stroke-dasharray:none;stroke-opacity:1"
       d="m 325.44,60.66 2.13,0.26 -0.48,4.25 17.11,2.29 2.05,-12.65 -17.71,-2.42 -2.13,-0.21 z"
       inkscape:connector-curvature="0" /><path
       id="path246"
       style="fill:#f8766d;fill-opacity:1;fill-rule:nonzero;stroke:#000000;stroke-width:0.85000002;stroke-linecap:butt;stroke-linejoin:round;stroke-miterlimit:10;stroke-dasharray:none;stroke-opacity:1"
       d="m 324.4,86.24 16.33,2.28 0.12,-0.7 2.44,-14.78 0.91,-5.58 -17.11,-2.29 -0.32,0.37 z"
       inkscape:connector-curvature="0" /><path
       id="path248"
       style="fill:#f8766d;fill-opacity:1;fill-rule:nonzero;stroke:#000000;stroke-width:0.85000002;stroke-linecap:butt;stroke-linejoin:round;stroke-miterlimit:10;stroke-dasharray:none;stroke-opacity:1"
       d="m 258.57,194.95 8.45,1.71 -0.37,3.61 6.52,-0.73 10.61,1.31 0.79,-7.07 0.25,-2.15 -11.37,-1.44 -13.86,-1.63 -0.59,2.13 z"
       inkscape:connector-curvature="0" /><path
       id="path250"
       style="fill:#f8766d;fill-opacity:1;fill-rule:nonzero;stroke:#000000;stroke-width:0.85000002;stroke-linecap:butt;stroke-linejoin:round;stroke-miterlimit:10;stroke-dasharray:none;stroke-opacity:1"
       d="m 293.52,34.25 1.99,2.63 4.26,1.21 -0.66,6.37 8.55,1.02 1.52,-14.03 1.71,-2.44 -1.54,-0.72 -3.14,-2.73 -0.76,-2.08 -1.13,-0.8 -2.01,-0.77 -3.7,1.33 -1.58,4.28 -2.4,4.9 z"
       inkscape:connector-curvature="0" /><path
       id="path252"
       style="fill:#f8766d;fill-opacity:1;fill-rule:nonzero;stroke:#000000;stroke-width:0.85000002;stroke-linecap:butt;stroke-linejoin:round;stroke-miterlimit:10;stroke-dasharray:none;stroke-opacity:1"
       d="m 307.66,45.48 4.11,1.96 14.96,1.92 1.13,-13.8 -3.24,-0.55 -4.61,-1.71 -4.19,-2.34 -4.42,-1.71 -0.51,-0.24 -1.71,2.44 z"
       inkscape:connector-curvature="0" /><path
       id="path254"
       style="fill:#f8766d;fill-opacity:1;fill-rule:nonzero;stroke:#000000;stroke-width:0.85000002;stroke-linecap:butt;stroke-linejoin:round;stroke-miterlimit:10;stroke-dasharray:none;stroke-opacity:1"
       d="m 241.96,115.24 0.4,6.02 2.73,1.66 2.77,6.84 1.33,-0.08 2.64,3.77 0.42,-4.15 8.51,0.93 0.42,-4.25 4.98,0.54 2.38,0.28 -3.28,-5.92 -0.82,-0.61 -0.19,-4.36 -2.31,-2.07 1.51,-4.81 -20.25,-2.32 z"
       inkscape:connector-curvature="0" /><path
       id="path256"
       style="fill:#f8766d;fill-opacity:1;fill-rule:nonzero;stroke:#000000;stroke-width:0.85000002;stroke-linecap:butt;stroke-linejoin:round;stroke-miterlimit:10;stroke-dasharray:none;stroke-opacity:1"
       d="m 250.05,158.9 3.96,2.51 -0.86,8.01 1.94,2.02 -1.89,1.54 6.21,-1.34 17.97,-3.72 -4.56,-14.41 -2.58,-2.91 -16.32,5.12 -0.67,-0.65 z"
       inkscape:connector-curvature="0" /><path
       id="path258"
       style="fill:#f8766d;fill-opacity:1;fill-rule:nonzero;stroke:#000000;stroke-width:0.85000002;stroke-linecap:butt;stroke-linejoin:round;stroke-miterlimit:10;stroke-dasharray:none;stroke-opacity:1"
       d="m 237.58,166.07 6.58,0.75 -0.29,2.85 4.18,0.48 2.09,-4.39 3.01,3.66 0.86,-8.01 -3.96,-2.51 3.2,-3.83 -3.49,-0.47 0.39,-4.17 -8.49,-0.98 -0.88,8.45 -1.79,-0.21 0.88,0.4 -0.5,4.83 z"
       inkscape:connector-curvature="0" /><path
       id="path260"
       style="fill:#f8766d;fill-opacity:1;fill-rule:nonzero;stroke:#000000;stroke-width:0.85000002;stroke-linecap:butt;stroke-linejoin:round;stroke-miterlimit:10;stroke-dasharray:none;stroke-opacity:1"
       d="m 220.6,151.55 7.97,0.8 2.11,0.09 -1.25,-8.46 0.75,-8.52 9.97,1.04 1.43,-1.12 -1.1,-0.97 -0.1,-2.59 -5.49,-0.16 0.57,-6.47 -4.07,-1.95 -0.78,7.98 -3.48,-0.5 -0.03,0.04 -0.27,0.23 -1.09,0.95 -1.18,4.03 1.54,2.14 -2.4,0.45 -1.97,1.57 -0.33,1.75 0.82,1.87 2.59,2.22 -0.29,2.39 -2.75,1.8 -1.41,1.01 z"
       inkscape:connector-curvature="0" /><path
       id="path262"
       style="fill:#f8766d;fill-opacity:1;fill-rule:nonzero;stroke:#000000;stroke-width:0.85000002;stroke-linecap:butt;stroke-linejoin:round;stroke-miterlimit:10;stroke-dasharray:none;stroke-opacity:1"
       d="m 319.32,234.96 8.55,1.09 6.99,0.95 0.14,-7 0.21,-11.55 -13.72,-1.77 z"
       inkscape:connector-curvature="0" /><path
       id="path264"
       style="fill:#f8766d;fill-opacity:1;fill-rule:nonzero;stroke:#000000;stroke-width:0.85000002;stroke-linecap:butt;stroke-linejoin:round;stroke-miterlimit:10;stroke-dasharray:none;stroke-opacity:1"
       d="m 326.73,49.36 -0.32,2.82 2.13,0.21 17.71,2.42 0.03,-0.18 1.41,-9.08 1.35,-8.37 -0.47,-1.4 -1.58,0.06 -0.91,-1.49 -2.25,0.69 -2.46,-0.77 -1.44,0.93 -2.18,0.11 -1.46,-1.1 -1.97,-0.06 -2.31,0.17 -0.8,0.06 -3.35,1.18 z"
       inkscape:connector-curvature="0" /><path
       id="path266"
       style="fill:#f8766d;fill-opacity:1;fill-rule:nonzero;stroke:#000000;stroke-width:0.85000002;stroke-linecap:butt;stroke-linejoin:round;stroke-miterlimit:10;stroke-dasharray:none;stroke-opacity:1"
       d="m 300.15,121.98 16.89,2.19 2.34,-19.26 -1.36,-0.27 -15.37,-3.07 z"
       inkscape:connector-curvature="0" /><path
       id="path268"
       style="fill:#f8766d;fill-opacity:1;fill-rule:nonzero;stroke:#000000;stroke-width:0.85000002;stroke-linecap:butt;stroke-linejoin:round;stroke-miterlimit:10;stroke-dasharray:none;stroke-opacity:1"
       d="m 218.03,93.99 2.35,-0.22 1.77,1.95 9.62,0.62 7.31,-0.96 -0.26,-2.04 4.84,0.55 0.38,-4.25 0.38,-4.25 -17.38,-1.89 -6.38,2.39 0.1,0.24 -0.15,0.18 0.3,0.34 0.02,0.21 -0.12,0.3 -0.23,0.09 0.06,0.36 -0.21,-0.01 0.01,0.31 -0.24,-0.15 -0.61,1.82 -0.1,-0.1 -1.85,2.34 z"
       inkscape:connector-curvature="0" /><path
       id="path270"
       style="fill:#f8766d;fill-opacity:1;fill-rule:nonzero;stroke:#000000;stroke-width:0.85000002;stroke-linecap:butt;stroke-linejoin:round;stroke-miterlimit:10;stroke-dasharray:none;stroke-opacity:1"
       d="m 275.49,96.29 9.07,1.71 0.81,-8 7.53,-3.82 0.41,-3.87 -2.81,-0.33 -7.1,-0.84 0.26,-2.14 -5.67,-0.64 -1.37,6.31 z"
       inkscape:connector-curvature="0" /><path
       id="path272"
       style="fill:#f8766d;fill-opacity:1;fill-rule:nonzero;stroke:#000000;stroke-width:0.85000002;stroke-linecap:butt;stroke-linejoin:round;stroke-miterlimit:10;stroke-dasharray:none;stroke-opacity:1"
       d="m 299.16,100.88 3.49,0.69 15.37,3.07 2.14,-18.97 -8.46,-1.05 -10.56,-1.33 z"
       inkscape:connector-curvature="0" /><path
       id="path274"
       style="fill:#f8766d;fill-opacity:1;fill-rule:nonzero;stroke:#000000;stroke-width:0.85000002;stroke-linecap:butt;stroke-linejoin:round;stroke-miterlimit:10;stroke-dasharray:none;stroke-opacity:1"
       d="m 313.1,158.25 4.17,0.51 19.02,2.72 0.22,-10.68 0.13,-6.57 -21.59,-2.95 z"
       inkscape:connector-curvature="0" /><path
       id="path276"
       style="fill:#f8766d;fill-opacity:1;fill-rule:nonzero;stroke:#000000;stroke-width:0.85000002;stroke-linecap:butt;stroke-linejoin:round;stroke-miterlimit:10;stroke-dasharray:none;stroke-opacity:1"
       d="m 271.46,233.16 2.12,0.27 7.71,0.94 2.29,-1.44 3.92,0.83 3.37,-1.06 0.64,-5.65 1.25,-10.6 -10.67,-1.3 -0.15,1.41 -8.54,-0.98 z"
       inkscape:connector-curvature="0" /><path
       id="path278"
       style="fill:#f8766d;fill-opacity:1;fill-rule:nonzero;stroke:#000000;stroke-width:0.85000002;stroke-linecap:butt;stroke-linejoin:round;stroke-miterlimit:10;stroke-dasharray:none;stroke-opacity:1"
       d="m 290.5,81.98 2.81,0.33 5.64,0.71 0.48,-4.25 4.31,0.55 1.71,-16.31 -3.05,-1.75 -3.37,1.24 -6.33,-1.44 z"
       inkscape:connector-curvature="0" /><path
       id="path280"
       style="fill:#f8766d;fill-opacity:1;fill-rule:nonzero;stroke:#000000;stroke-width:0.85000002;stroke-linecap:butt;stroke-linejoin:round;stroke-miterlimit:10;stroke-dasharray:none;stroke-opacity:1"
       d="m 315.05,141.28 21.59,2.95 0.25,-13.25 0.05,-2.88 0.01,-1.1 -19.91,-2.83 z"
       inkscape:connector-curvature="0" /><path
       id="path282"
       style="fill:#f8766d;fill-opacity:1;fill-rule:nonzero;stroke:#000000;stroke-width:0.85000002;stroke-linecap:butt;stroke-linejoin:round;stroke-miterlimit:10;stroke-dasharray:none;stroke-opacity:1"
       d="m 264.44,92.84 3.64,1.87 1.3,0.42 6.11,1.16 1.13,-11.62 1.37,-6.31 -3.43,-0.2 0.29,-2.84 -0.81,-0.45 -2.12,0.83 -5.65,-0.67 z"
       inkscape:connector-curvature="0" /><path
       id="path284"
       style="fill:#f8766d;fill-opacity:1;fill-rule:nonzero;stroke:#000000;stroke-width:0.85000002;stroke-linecap:butt;stroke-linejoin:round;stroke-miterlimit:10;stroke-dasharray:none;stroke-opacity:1"
       d="m 281.18,139.84 -1.29,12.18 -0.24,2.18 16.84,2.16 1.98,-17.23 -0.2,-0.03 -16.79,-2.02 z"
       inkscape:connector-curvature="0" /><path
       id="path286"
       style="fill:#f8766d;fill-opacity:1;fill-rule:nonzero;stroke:#000000;stroke-width:0.85000002;stroke-linecap:butt;stroke-linejoin:round;stroke-miterlimit:10;stroke-dasharray:none;stroke-opacity:1"
       d="m 308.54,228.55 0.67,6.51 2.05,0.96 7.81,1.07 0.25,-2.13 2.17,-18.28 -6.82,-0.91 -0.18,-0.75 -4.26,-0.55 z"
       inkscape:connector-curvature="0" /><path
       id="path288"
       style="fill:#f8766d;fill-opacity:1;fill-rule:nonzero;stroke:#000000;stroke-width:0.85000002;stroke-linecap:butt;stroke-linejoin:round;stroke-miterlimit:10;stroke-dasharray:none;stroke-opacity:1"
       d="m 245.76,193.58 10.93,1.15 0.1,-2.14 -4.35,-1.22 0.08,-2.61 2.22,2.2 4.26,-0.27 0.59,-2.13 1.09,-0.67 1.08,-9.8 -2.78,-2.39 0.43,-4.06 -6.21,1.34 1.89,-1.54 -1.94,-2.02 -3.01,-3.66 -2.09,4.39 z"
       inkscape:connector-curvature="0" /><path
       id="path290"
       style="fill:#f8766d;fill-opacity:1;fill-rule:nonzero;stroke:#000000;stroke-width:0.85000002;stroke-linecap:butt;stroke-linejoin:round;stroke-miterlimit:10;stroke-dasharray:none;stroke-opacity:1"
       d="m 244.04,89.64 13.44,1.57 1.53,-0.57 5.43,2.2 1.83,-17.81 -0.69,-0.08 -12.04,-1.39 -3.56,-0.4 -1.21,12.72 -4.35,-0.49 z"
       inkscape:connector-curvature="0" /><path
       id="path292"
       style="fill:#f8766d;fill-opacity:1;fill-rule:nonzero;stroke:#000000;stroke-width:0.85000002;stroke-linecap:butt;stroke-linejoin:round;stroke-miterlimit:10;stroke-dasharray:none;stroke-opacity:1"
       d="m 319.72,187.69 7.96,1.98 -2.41,5.87 4.22,1.72 2.86,3.96 3.11,0.4 0.04,-2.27 0.17,-8.11 0.25,-12.09 -14.84,-2.09 z"
       inkscape:connector-curvature="0" /><path
       id="path294"
       style="fill:#f8766d;fill-opacity:1;fill-rule:nonzero;stroke:#000000;stroke-width:0.85000002;stroke-linecap:butt;stroke-linejoin:round;stroke-miterlimit:10;stroke-dasharray:none;stroke-opacity:1"
       d="m 251.83,133.45 1.86,0.25 1.55,1.59 3.27,3.17 3.47,0.67 5.57,4.08 2.69,7.39 9.65,1.42 1.29,-12.18 -1.53,-1.56 -0.44,-1 -2.34,0.03 -0.86,-0.96 -3.65,-4.59 -2.29,-0.96 -2.02,-3.09 0.49,-0.91 -2.38,-0.28 -4.98,-0.54 -0.42,4.25 -8.51,-0.93 z"
       inkscape:connector-curvature="0" /><path
       id="path296"
       style="fill:#f8766d;fill-opacity:1;fill-rule:nonzero;stroke:#000000;stroke-width:0.85000002;stroke-linecap:butt;stroke-linejoin:round;stroke-miterlimit:10;stroke-dasharray:none;stroke-opacity:1"
       d="m 274.56,78.16 3.43,0.2 5.67,0.64 -0.26,2.14 7.1,0.84 2.2,-20.92 -3.11,-0.38 v 0.01 l -4.52,-0.56 -0.37,3.53 -3.56,-0.43 -1.01,2.74 -4.14,1.61 -1.14,7.74 z"
       inkscape:connector-curvature="0" /><path
       id="path298"
       style="fill:#f8766d;fill-opacity:1;fill-rule:nonzero;stroke:#000000;stroke-width:0.85000002;stroke-linecap:butt;stroke-linejoin:round;stroke-miterlimit:10;stroke-dasharray:none;stroke-opacity:1"
       d="m 268.98,254.54 3.21,0.38 8.35,1.03 3.28,0.43 0.84,-7.27 2.13,0.27 1.5,-12.71 2.11,0.29 0.47,-4.26 -3.37,1.06 -3.92,-0.83 -2.29,1.44 -7.71,-0.94 -0.73,6.37 -2.13,-0.26 -0.51,4.21 z"
       inkscape:connector-curvature="0" /><path
       id="path300"
       style="fill:#f8766d;fill-opacity:1;fill-rule:nonzero;stroke:#000000;stroke-width:0.85000002;stroke-linecap:butt;stroke-linejoin:round;stroke-miterlimit:10;stroke-dasharray:none;stroke-opacity:1"
       d="m 315.98,202.24 -1.49,12.78 0.18,0.75 6.82,0.91 13.72,1.77 0.02,-1.39 0.23,-15.44 -3.11,-0.4 -2.86,-3.96 -4.22,-1.72 v 0.01 0.01 l -0.01,0.01 -0.02,0.05 -0.01,0.06 v 0.03 l 0.01,0.04 0.01,0.06 -0.01,0.05 v 0.01 0.05 0.07 0.07 l 0.02,0.02 0.02,0.02 0.03,0.01 0.05,0.02 0.02,0.01 0.02,0.01 0.05,0.06 0.04,0.04 0.03,0.04 0.07,0.05 h 0.03 l 0.03,0.02 0.01,0.01 v 0.01 l -0.01,0.06 -0.01,0.04 -0.01,0.03 v 0 0.02 l -0.01,0.05 v 0.05 l 0.01,0.06 v 0.04 l 0.01,0.02 0.01,0.02 v 0 l 0.02,0.03 0.02,0.02 v 0 0.01 h 0.01 v 0 l 0.01,0.01 h 0.01 0.01 l 0.02,0.01 h 0.03 l 0.02,-0.01 h 0.01 l 0.02,-0.01 0.02,-0.01 0.01,-0.02 0.03,-0.02 v 0 l 0.01,-0.01 0.01,-0.01 0.02,-0.01 0.01,-0.03 0.01,-0.02 h 0.01 l 0.01,-0.01 v 0 l 0.02,-0.01 H 326 l 0.01,0.02 0.01,0.01 0.02,0.02 v 0.02 l 0.01,0.01 0.01,0.02 v 0.03 l -0.48,0.24 -8.83,-1.17 z"
       inkscape:connector-curvature="0" /><path
       id="path302"
       style="fill:#f8766d;fill-opacity:1;fill-rule:nonzero;stroke:#000000;stroke-width:0.85000002;stroke-linecap:butt;stroke-linejoin:round;stroke-miterlimit:10;stroke-dasharray:none;stroke-opacity:1"
       d="m 273.45,190.19 11.37,1.44 1.18,-10.58 5.1,0.66 -2.82,-1.69 0.8,-7.15 -7.81,-0.98 -0.66,5.68 -5.74,-0.02 z"
       inkscape:connector-curvature="0" /><path
       id="path304"
       style="fill:#f8766d;fill-opacity:1;fill-rule:nonzero;stroke:#000000;stroke-width:0.85000002;stroke-linecap:butt;stroke-linejoin:round;stroke-miterlimit:10;stroke-dasharray:none;stroke-opacity:1"
       d="m 296.49,156.36 12.36,1.57 3.63,-0.13 0.62,0.45 1.95,-16.97 -16.58,-2.15 z"
       inkscape:connector-curvature="0" /><path
       id="path306"
       style="fill:#f8766d;fill-opacity:1;fill-rule:nonzero;stroke:#000000;stroke-width:0.85000002;stroke-linecap:butt;stroke-linejoin:round;stroke-miterlimit:10;stroke-dasharray:none;stroke-opacity:1"
       d="m 298.27,139.1 0.2,0.03 16.58,2.15 1.99,-17.11 -16.89,-2.19 z"
       inkscape:connector-curvature="0" /><path
       id="path308"
       style="fill:#f8766d;fill-opacity:1;fill-rule:nonzero;stroke:#000000;stroke-width:0.85000002;stroke-linecap:butt;stroke-linejoin:round;stroke-miterlimit:10;stroke-dasharray:none;stroke-opacity:1"
       d="m 315.21,176.25 5.87,0.81 14.84,2.09 0.1,-5.13 0.21,-9.48 0.06,-3.06 -19.02,-2.72 z"
       inkscape:connector-curvature="0" /><path
       id="path310"
       style="fill:#f8766d;fill-opacity:1;fill-rule:nonzero;stroke:#000000;stroke-width:0.85000002;stroke-linecap:butt;stroke-linejoin:round;stroke-miterlimit:10;stroke-dasharray:none;stroke-opacity:1"
       d="m 302.61,186.74 v 0.03 l -0.15,1.4 2.83,0.37 10.06,1.48 4.02,0.53 0.35,-2.86 1.36,-10.63 -5.87,-0.81 -6.23,-0.83 -4.99,-0.65 -0.9,7.75 z"
       inkscape:connector-curvature="0" /><path
       id="path312"
       style="fill:#f8766d;fill-opacity:1;fill-rule:nonzero;stroke:#000000;stroke-width:0.85000002;stroke-linecap:butt;stroke-linejoin:round;stroke-miterlimit:10;stroke-dasharray:none;stroke-opacity:1"
       d="m 252.27,230.88 19.19,2.28 1.94,-17.58 0.13,-1.41 -8.48,-0.99 -1.07,-0.36 -7.15,-0.81 -0.5,5.11 -2.59,1.48 -1.24,10.18 z"
       inkscape:connector-curvature="0" /><path
       id="path314"
       style="fill:#f8766d;fill-opacity:1;fill-rule:nonzero;stroke:#000000;stroke-width:0.85000002;stroke-linecap:butt;stroke-linejoin:round;stroke-miterlimit:10;stroke-dasharray:none;stroke-opacity:1"
       d="m 286.41,46.8 1.42,4.74 1.29,4.7 0.47,4.44 3.11,0.38 6.33,1.44 3.37,-1.24 3.05,1.75 0.43,-0.74 0.44,-4.08 1.34,-12.71 -8.55,-1.02 0.66,-6.37 -4.26,-1.21 -1.99,-2.63 -0.65,1.07 -3.71,3.19 -1.73,4.33 -0.3,1.18 z"
       inkscape:connector-curvature="0" /><path
       id="path316"
       style="fill:#f8766d;fill-opacity:1;fill-rule:nonzero;stroke:#000000;stroke-width:0.85000002;stroke-linecap:butt;stroke-linejoin:round;stroke-miterlimit:10;stroke-dasharray:none;stroke-opacity:1"
       d="m 311.7,84.62 8.46,1.05 4.24,0.57 2.37,-20.7 0.32,-0.37 0.48,-4.25 -2.13,-0.26 -10.6,-1.4 -0.83,4.34 z"
       inkscape:connector-curvature="0" /><path
       id="path318"
       style="fill:#f8766d;fill-opacity:1;fill-rule:nonzero;stroke:#000000;stroke-width:0.85000002;stroke-linecap:butt;stroke-linejoin:round;stroke-miterlimit:10;stroke-dasharray:none;stroke-opacity:1"
       d="m 253.54,73.56 12.04,1.39 1.7,-16.96 -3.63,-0.42 -0.05,-0.01 -8.42,-0.95 z"
       inkscape:connector-curvature="0" /><path
       id="path320"
       style="fill:#f8766d;fill-opacity:1;fill-rule:nonzero;stroke:#000000;stroke-width:0.85000002;stroke-linecap:butt;stroke-linejoin:round;stroke-miterlimit:10;stroke-dasharray:none;stroke-opacity:1"
       d="m 291.51,227.05 12.77,1.65 4.26,-0.15 1.69,-14.08 -12.7,-1.7 -4.25,-0.55 -0.52,4.23 z"
       inkscape:connector-curvature="0" /><path
       id="path322"
       style="fill:#f8766d;fill-opacity:1;fill-rule:nonzero;stroke:#000000;stroke-width:0.85000002;stroke-linecap:butt;stroke-linejoin:round;stroke-miterlimit:10;stroke-dasharray:none;stroke-opacity:1"
       d="m 310.79,240.28 0.67,0.39 -0.94,7.49 14.13,1.87 1.48,-0.53 1.74,-13.45 -8.55,-1.09 -0.25,2.13 -7.81,-1.07 z"
       inkscape:connector-curvature="0" /><path
       id="path324"
       style="fill:#f8766d;fill-opacity:1;fill-rule:nonzero;stroke:#000000;stroke-width:0.85000002;stroke-linecap:butt;stroke-linejoin:round;stroke-miterlimit:10;stroke-dasharray:none;stroke-opacity:1"
       d="m 243.58,215.52 2.09,0.19 -0.83,7.89 3.94,0.49 -0.53,4.12 4.25,0.57 1.24,-10.18 2.59,-1.48 0.5,-5.11 0.43,-4.24 -12.76,-1.47 z"
       inkscape:connector-curvature="0" /><path
       id="path326"
       style="fill:#f8766d;fill-opacity:1;fill-rule:nonzero;stroke:#000000;stroke-width:0.85000002;stroke-linecap:butt;stroke-linejoin:round;stroke-miterlimit:10;stroke-dasharray:none;stroke-opacity:1"
       d="m 261.94,113.84 2.31,2.07 0.19,4.36 0.82,0.61 3.28,5.92 -0.49,0.91 2.02,3.09 2.29,0.96 3.65,4.59 0.86,0.96 2.34,-0.03 3.43,-11.1 0.66,-6.35 0.91,-8.49 -20.76,-2.31 z"
       inkscape:connector-curvature="0" /><path
       id="path328"
       style="fill:#f8766d;fill-opacity:1;fill-rule:nonzero;stroke:#000000;stroke-width:0.85000002;stroke-linecap:butt;stroke-linejoin:round;stroke-miterlimit:10;stroke-dasharray:none;stroke-opacity:1"
       d="m 279.65,138.28 1.53,1.56 0.3,-2.76 16.79,2.02 1.88,-17.12 -15.67,-1.92 -1.18,-0.23 -0.66,6.35 -3.43,11.1 z"
       inkscape:connector-curvature="0" /><path
       id="path330"
       style="fill:#f8766d;fill-opacity:1;fill-rule:nonzero;stroke:#000000;stroke-width:0.85000002;stroke-linecap:butt;stroke-linejoin:round;stroke-miterlimit:10;stroke-dasharray:none;stroke-opacity:1"
       d="m 229.43,143.98 1.25,8.46 -0.41,4.36 8.72,0.89 1.79,0.21 0.88,-8.45 -3.83,-4.68 2.78,-0.69 -1.58,-4.41 3.37,-2.49 -2.25,-0.68 -9.97,-1.04 z"
       inkscape:connector-curvature="0" /><path
       id="path332"
       style="fill:#f8766d;fill-opacity:1;fill-rule:nonzero;stroke:#000000;stroke-width:0.85000002;stroke-linecap:butt;stroke-linejoin:round;stroke-miterlimit:10;stroke-dasharray:none;stroke-opacity:1"
       d="m 263.45,109.03 20.76,2.31 2.82,0.35 1.74,-12.89 -4.21,-0.8 -9.07,-1.71 -6.11,-1.16 0.5,1.29 z"
       inkscape:connector-curvature="0" /><path
       id="path334"
       style="fill:#f8766d;fill-opacity:1;fill-rule:nonzero;stroke:#000000;stroke-width:0.85000002;stroke-linecap:butt;stroke-linejoin:round;stroke-miterlimit:10;stroke-dasharray:none;stroke-opacity:1"
       d="m 283.3,119.83 1.18,0.23 15.67,1.92 2.5,-20.41 -3.49,-0.69 -10.39,-2.08 -1.74,12.89 -2.82,-0.35 z"
       inkscape:connector-curvature="0" /><path
       id="path336"
       style="fill:#f8766d;fill-opacity:1;fill-rule:nonzero;stroke:#000000;stroke-width:0.85000002;stroke-linecap:butt;stroke-linejoin:round;stroke-miterlimit:10;stroke-dasharray:none;stroke-opacity:1"
       d="m 306.32,58.19 8.52,1.07 10.6,1.4 0.97,-8.48 0.32,-2.82 -14.96,-1.92 -4.11,-1.96 z"
       inkscape:connector-curvature="0" /><path
       id="path338"
       style="fill:#f8766d;fill-opacity:1;fill-rule:nonzero;stroke:#000000;stroke-width:0.85000002;stroke-linecap:butt;stroke-linejoin:round;stroke-miterlimit:10;stroke-dasharray:none;stroke-opacity:1"
       d="m 234.42,178.47 -0.4,4.21 4.27,0.48 -1.72,18.06 8.36,0.84 0.83,-8.48 2.29,-23.43 -4.18,-0.48 0.29,-2.85 -6.58,-0.75 -1.95,-0.2 z"
       inkscape:connector-curvature="0" /><path
       id="path340"
       style="fill:#f8766d;fill-opacity:1;fill-rule:nonzero;stroke:#000000;stroke-width:0.85000002;stroke-linecap:butt;stroke-linejoin:round;stroke-miterlimit:10;stroke-dasharray:none;stroke-opacity:1"
       d="m 244.93,202.06 -0.43,4.24 12.76,1.47 -0.43,4.24 7.15,0.81 1.07,0.36 0.36,-1.12 1.24,-11.79 0.37,-3.61 -8.45,-1.71 0.43,-4.26 -4.26,0.27 -2.22,-2.2 -0.08,2.61 4.35,1.22 -0.1,2.14 -10.93,-1.15 z"
       inkscape:connector-curvature="0" /><path
       id="path342"
       style="fill:#f8766d;fill-opacity:1;fill-rule:nonzero;stroke:#000000;stroke-width:0.85000002;stroke-linecap:butt;stroke-linejoin:round;stroke-miterlimit:10;stroke-dasharray:none;stroke-opacity:1"
       d="m 250.2,237.91 1.14,1.23 0.98,1.82 5.93,-1.82 4.39,3.71 7.57,0.9 0.51,-4.21 2.13,0.26 0.73,-6.37 -2.12,-0.27 -19.19,-2.28 -2.02,3.3 z"
       inkscape:connector-curvature="0" /><path
       id="path344"
       style="fill:#f8766d;fill-opacity:1;fill-rule:nonzero;stroke:#000000;stroke-width:0.85000002;stroke-linecap:butt;stroke-linejoin:round;stroke-miterlimit:10;stroke-dasharray:none;stroke-opacity:1"
       d="m 295.4,249.05 2.58,2.48 -0.77,6.62 7.74,1.03 0.78,-6.64 2.82,0.39 0.59,-4.95 1.38,0.18 0.94,-7.49 -0.67,-0.39 -14.17,-1.78 z"
       inkscape:connector-curvature="0" /><path
       id="path346"
       style="fill:#f8766d;fill-opacity:1;fill-rule:nonzero;stroke:#000000;stroke-width:0.85000002;stroke-linecap:butt;stroke-linejoin:round;stroke-miterlimit:10;stroke-dasharray:none;stroke-opacity:1"
       d="m 323.27,261.7 4.2,0.57 2.31,0.33 2.26,-3.3 2.45,-1.14 0.22,-13.29 0.04,-2.02 0.11,-5.85 -6.99,-0.95 -1.74,13.45 -1.48,0.53 z"
       inkscape:connector-curvature="0" /><path
       id="path348"
       style="fill:#f8766d;fill-opacity:1;fill-rule:nonzero;stroke:#000000;stroke-width:0.85000002;stroke-linecap:butt;stroke-linejoin:round;stroke-miterlimit:10;stroke-dasharray:none;stroke-opacity:1"
       d="m 236.76,232.92 0.84,1.65 -0.03,1.9 1.32,3.22 1.16,1.33 0.17,2.29 2.23,0.27 0.25,0.03 3.35,2.17 0.08,0.07 4.44,-0.1 0.77,-6.61 -1.14,-1.23 0.05,-3.73 2.02,-3.3 0.23,-2.1 -4.25,-0.57 0.53,-4.12 -3.94,-0.49 -7.34,4.12 0.01,0.03 0.59,2.19 -1.76,2.14 z"
       inkscape:connector-curvature="0" /><path
       id="path350"
       style="fill:#f8766d;fill-opacity:1;fill-rule:nonzero;stroke:#000000;stroke-width:0.85000002;stroke-linecap:butt;stroke-linejoin:round;stroke-miterlimit:10;stroke-dasharray:none;stroke-opacity:1"
       d="m 290.87,232.7 -0.47,4.26 0.86,0.82 5.36,0.72 14.17,1.78 0.47,-4.26 -2.05,-0.96 -0.67,-6.51 -4.26,0.15 -12.77,-1.65 z"
       inkscape:connector-curvature="0" /><path
       id="path352"
       style="fill:#f8766d;fill-opacity:1;fill-rule:nonzero;stroke:#000000;stroke-width:0.85000002;stroke-linecap:butt;stroke-linejoin:round;stroke-miterlimit:10;stroke-dasharray:none;stroke-opacity:1"
       d="m 265.58,74.95 0.69,0.08 5.65,0.67 2.12,-0.83 0.81,0.45 1.14,-7.74 4.14,-1.61 1.01,-2.74 3.56,0.43 0.37,-3.53 -2.59,-0.32 -15.2,-1.82 z"
       inkscape:connector-curvature="0" /><path
       id="path354"
       style="fill:#f8766d;fill-opacity:1;fill-rule:nonzero;stroke:#000000;stroke-width:0.85000002;stroke-linecap:butt;stroke-linejoin:round;stroke-miterlimit:10;stroke-dasharray:none;stroke-opacity:1"
       d="m 226.29,112.74 4.83,0.83 1.49,3.53 0.84,2.97 -2.76,0.18 0.53,3.64 -3.66,0.28 -0.64,3.56 2.01,0.42 -1.8,2.57 3.48,0.5 0.78,-7.98 4.07,1.95 -0.57,6.47 5.49,0.16 0.1,2.59 2.8,-1.12 0.24,-2.12 4.34,-1.41 -2.77,-6.84 -2.73,-1.66 -0.4,-6.02 -8.21,-8.08 -4.15,1.02 z"
       inkscape:connector-curvature="0" /><path
       id="path356"
       style="fill:#f8766d;fill-opacity:1;fill-rule:nonzero;stroke:#000000;stroke-width:0.85000002;stroke-linecap:butt;stroke-linejoin:round;stroke-miterlimit:10;stroke-dasharray:none;stroke-opacity:1"
       d="m 215.98,176.51 18.44,1.96 1.21,-12.6 1.95,0.2 1.79,-3.15 0.5,-4.83 -0.88,-0.4 -8.72,-0.89 0.41,-4.36 -2.11,-0.09 -7.97,-0.8 1.41,2.27 -2.67,1.87 0.97,1.91 2.02,0.04 0.59,2.48 0.41,2.6 -0.9,1.9 -1.64,0.15 -1,3.27 0.97,2.27 -1.54,1.51 -1.15,1.61 -0.85,1.42 z"
       inkscape:connector-curvature="0" /><path
       id="path358"
       style="fill:#f8766d;fill-opacity:1;fill-rule:nonzero;stroke:#000000;stroke-width:0.85000002;stroke-linecap:butt;stroke-linejoin:round;stroke-miterlimit:10;stroke-dasharray:none;stroke-opacity:1"
       d="m 318.02,104.64 1.36,0.27 4.16,0.86 7.51,2.16 6.27,2.68 0.59,-5 0.74,-4.47 0.61,-3.67 1.47,-8.95 -16.33,-2.28 -4.24,-0.57 z"
       inkscape:connector-curvature="0" /><path
       id="path360"
       style="fill:#f8766d;fill-opacity:1;fill-rule:nonzero;stroke:#000000;stroke-width:0.85000002;stroke-linecap:butt;stroke-linejoin:round;stroke-miterlimit:10;stroke-dasharray:none;stroke-opacity:1"
       d="m 284.57,193.78 11.79,1.49 0.91,0.93 6.38,0.87 0.46,-4.12 0.83,-1.35 0.35,-3.06 -2.83,-0.37 0.15,-1.4 -6.96,-1.61 -4.55,-3.45 -5.1,-0.66 -1.18,10.58 z"
       inkscape:connector-curvature="0" /><path
       id="path362"
       style="fill:#f8766d;fill-opacity:1;fill-rule:nonzero;stroke:#000000;stroke-width:0.85000002;stroke-linecap:butt;stroke-linejoin:round;stroke-miterlimit:10;stroke-dasharray:none;stroke-opacity:1"
       d="m 209.71,52.13 2.67,2.44 -1.61,1.89 -1.32,2.1 1.06,2.8 4.14,2.07 0.47,4.63 6.62,2.69 6.27,-0.05 0.54,0.09 2.2,-1.07 1.68,-1.74 1.21,-13.72 -4.88,-0.51 -2.02,-0.21 -17.37,-1.72 z"
       inkscape:connector-curvature="0" /><path
       id="path364"
       style="fill:#f8766d;fill-opacity:1;fill-rule:nonzero;stroke:#000000;stroke-width:0.85000002;stroke-linecap:butt;stroke-linejoin:round;stroke-miterlimit:10;stroke-dasharray:none;stroke-opacity:1"
       d="m 295.59,164.97 4.25,0.57 -0.47,4.28 4.27,0.57 0.35,4.38 4.99,0.65 6.23,0.83 2.06,-17.49 -4.17,-0.51 -0.62,-0.45 -3.63,0.13 -12.36,-1.57 z"
       inkscape:connector-curvature="0" /><path
       id="path366"
       style="fill:#f8766d;fill-opacity:1;fill-rule:nonzero;stroke:#000000;stroke-width:0.85000002;stroke-linecap:butt;stroke-linejoin:round;stroke-miterlimit:10;stroke-dasharray:none;stroke-opacity:1"
       d="m 265.05,213.18 8.48,0.99 -0.13,1.41 8.54,0.98 0.15,-1.41 1.69,-14.3 -10.61,-1.31 -6.52,0.73 -1.24,11.79 z"
       inkscape:connector-curvature="0" /><path
       id="path368"
       style="fill:#f8766d;fill-opacity:1;fill-rule:nonzero;stroke:#000000;stroke-width:0.85000002;stroke-linecap:butt;stroke-linejoin:round;stroke-miterlimit:10;stroke-dasharray:none;stroke-opacity:1"
       d="m 237.83,144.77 3.83,4.68 8.49,0.98 -0.39,4.17 3.49,0.47 0.67,0.65 16.32,-5.12 -2.69,-7.39 -5.57,-4.08 -3.47,-0.67 -3.27,-3.17 -1.55,-1.59 -1.86,-0.25 -2.64,-3.77 -1.33,0.08 -4.34,1.41 -0.24,2.12 -2.8,1.12 1.1,0.97 -1.43,1.12 2.25,0.68 -3.37,2.49 1.58,4.41 z"
       inkscape:connector-curvature="0" /><rect
       style="fill:url(#pattern25496);stroke:none"
       width="36.360886"
       height="0"
       x="428.94476"
       y="266.12054"
       id="rect25499" /></g><g
     id="g370"
     transform="matrix(1.3333333,0,0,-1.3333333,-53.898666,474.52269)" /><g
     id="g372"
     transform="matrix(1.3333333,0,0,-1.3333333,-53.898666,474.52269)" /><g
     id="g374"
     transform="matrix(1.3333333,0,0,-1.3333333,-53.898666,474.52269)" /><g
     id="g376"
     transform="matrix(1.3333333,0,0,-1.3333333,-53.898666,474.52269)" /><g
     id="g378"
     transform="matrix(1.3333333,0,0,-1.3333333,-53.898666,474.52269)" /><g
     id="g380"
     transform="matrix(1.3333333,0,0,-1.3333333,-53.898666,474.52269)" /><g
     id="g382"
     transform="matrix(1.3333333,0,0,-1.3333333,-53.898666,474.52269)" /><g
     id="g384"
     transform="matrix(1.3333333,0,0,-1.3333333,-53.898666,474.52269)" /><g
     id="g386"
     transform="matrix(1.3333333,0,0,-1.3333333,-53.898666,474.52269)" /><g
     id="g388"
     transform="matrix(1.3333333,0,0,-1.3333333,-53.898666,474.52269)" /><g
     id="g390"
     transform="matrix(1.3333333,0,0,-1.3333333,-53.898666,474.52269)" /><g
     id="g392"
     transform="matrix(1.3333333,0,0,-1.3333333,-53.898666,474.52269)" /><g
     id="g394"
     transform="matrix(1.3333333,0,0,-1.3333333,-53.898666,474.52269)" /><g
     id="g396"
     transform="matrix(1.3333333,0,0,-1.3333333,-53.898666,474.52269)" /><g
     id="g398"
     transform="matrix(1.3333333,0,0,-1.3333333,-53.898666,474.52269)" /><g
     id="g400"
     transform="matrix(1.3333333,0,0,-1.3333333,-53.898666,474.52269)" /><g
     id="g402"
     transform="matrix(1.3333333,0,0,-1.3333333,-53.898666,474.52269)" /><g
     id="g404"
     transform="matrix(1.3333333,0,0,-1.3333333,-53.898666,474.52269)" /><g
     id="g406"
     transform="matrix(1.3333333,0,0,-1.3333333,-53.898666,474.52269)" /><g
     id="g408"
     transform="matrix(1.3333333,0,0,-1.3333333,-53.898666,474.52269)" /><g
     id="g410"
     transform="matrix(1.3333333,0,0,-1.3333333,-53.898666,474.52269)" /><g
     id="g412"
     transform="matrix(1.3333333,0,0,-1.3333333,-53.898666,474.52269)" /><g
     id="g414"
     transform="matrix(1.3333333,0,0,-1.3333333,-53.898666,474.52269)" /><g
     id="g416"
     transform="matrix(1.3333333,0,0,-1.3333333,-53.898666,474.52269)" /><g
     id="g418"
     transform="matrix(1.3333333,0,0,-1.3333333,-53.898666,474.52269)" /><g
     id="g420"
     transform="matrix(1.3333333,0,0,-1.3333333,-53.898666,474.52269)" /><g
     id="g422"
     transform="matrix(1.3333333,0,0,-1.3333333,-53.898666,474.52269)" /><g
     id="g424"
     transform="matrix(1.3333333,0,0,-1.3333333,-53.898666,474.52269)" /><g
     id="g426"
     transform="matrix(1.3333333,0,0,-1.3333333,-53.898666,474.52269)" /><g
     id="g428"
     transform="matrix(1.3333333,0,0,-1.3333333,-53.898666,474.52269)" /><g
     id="g430"
     transform="matrix(1.3333333,0,0,-1.3333333,-53.898666,474.52269)" /><g
     id="g432"
     transform="matrix(1.3333333,0,0,-1.3333333,-53.898666,474.52269)" /><g
     id="g434"
     transform="matrix(1.3333333,0,0,-1.3333333,-53.898666,474.52269)" /><g
     id="g436"
     transform="matrix(1.3333333,0,0,-1.3333333,-53.898666,474.52269)" /><g
     id="g438"
     transform="matrix(1.3333333,0,0,-1.3333333,-53.898666,474.52269)" /><g
     id="g440"
     transform="matrix(1.3333333,0,0,-1.3333333,-53.898666,474.52269)" /><g
     id="g442"
     transform="matrix(1.3333333,0,0,-1.3333333,-53.898666,474.52269)" /><g
     id="g444"
     transform="matrix(1.3333333,0,0,-1.3333333,-53.898666,474.52269)" /><g
     id="g446"
     transform="matrix(1.3333333,0,0,-1.3333333,-53.898666,474.52269)" /><g
     id="g448"
     transform="matrix(1.3333333,0,0,-1.3333333,-53.898666,474.52269)" /><g
     id="g450"
     transform="matrix(1.3333333,0,0,-1.3333333,-53.898666,474.52269)" /><g
     id="g456"
     transform="matrix(1.3333333,0,0,-1.3333333,-53.898666,474.52269)" /><g
     id="g458"
     transform="matrix(1.3333333,0,0,-1.3333333,-53.898666,474.52269)" /><g
     id="g460"
     transform="matrix(1.3333333,0,0,-1.3333333,-53.898666,474.52269)" /><g
     id="g468"
     transform="matrix(1.3333333,0,0,-1.3333333,-53.898666,474.52269)" /><g
     id="g470"
     transform="matrix(1.3333333,0,0,-1.3333333,-53.898666,474.52269)" /><g
     id="g472"
     transform="matrix(1.3333333,0,0,-1.3333333,-53.898666,474.52269)" /><g
     id="g478"
     transform="matrix(1.3333333,0,0,-1.3333333,-53.898666,474.52269)" /><g
     id="g484"
     transform="matrix(1.3333333,0,0,-1.3333333,-53.898666,474.52269)" /><g
     id="g490"
     transform="matrix(1.3333333,0,0,-1.3333333,-53.898666,474.52269)" /><g
     id="g496"
     transform="matrix(1.3333333,0,0,-1.3333333,-53.898666,474.52269)" /><g
     id="g502"
     transform="matrix(1.3333333,0,0,-1.3333333,-53.898666,474.52269)" /><g
     id="g508"
     transform="matrix(1.3333333,0,0,-1.3333333,-53.898666,474.52269)" /><g
     id="g510"
     transform="matrix(1.3333333,0,0,-1.3333333,-53.898666,474.52269)" /><g
     id="g512"
     transform="matrix(1.3333333,0,0,-1.3333333,-53.898666,474.52269)" /><g
     id="g520"
     transform="matrix(1.3333333,0,0,-1.3333333,-53.898666,474.52269)" /><g
     id="g522"
     transform="matrix(1.3333333,0,0,-1.3333333,-53.898666,474.52269)" /><g
     id="g524"
     transform="matrix(1.3333333,0,0,-1.3333333,-53.898666,474.52269)" /><g
     id="g526"
     transform="matrix(1.3333333,0,0,-1.3333333,-53.898666,474.52269)" /><g
     id="g528"
     transform="matrix(1.3333333,0,0,-1.3333333,-53.898666,474.52269)" /><g
     id="g536"
     transform="matrix(1.3333333,0,0,-1.3333333,-53.898666,474.52269)" /><g
     id="g538"
     transform="matrix(1.3333333,0,0,-1.3333333,-53.898666,474.52269)" /><g
     id="g540"
     transform="matrix(1.3333333,0,0,-1.3333333,-53.898666,474.52269)" /><g
     id="g542"
     transform="matrix(1.3333333,0,0,-1.3333333,-53.898666,474.52269)" /><g
     id="g544"
     transform="matrix(1.3333333,0,0,-1.3333333,-53.898666,474.52269)" /><g
     id="g552"
     transform="matrix(1.3333333,0,0,-1.3333333,-53.898666,474.52269)" /><g
     id="g554"
     transform="matrix(1.3333333,0,0,-1.3333333,-53.898666,474.52269)" /><g
     id="g556"
     transform="matrix(1.3333333,0,0,-1.3333333,-53.898666,474.52269)" /><g
     id="g558"
     transform="matrix(1.3333333,0,0,-1.3333333,-53.898666,474.52269)" /><g
     id="g560"
     transform="matrix(1.3333333,0,0,-1.3333333,-53.898666,474.52269)" /><g
     id="g562"
     transform="matrix(1.3333333,0,0,-1.3333333,-53.898666,474.52269)" /><g
     id="g564"
     transform="matrix(1.3333333,0,0,-1.3333333,-53.898666,474.52269)" /><g
     id="g566"
     transform="matrix(1.3333333,0,0,-1.3333333,-53.898666,474.52269)" /><g
     id="g568"
     transform="matrix(1.3333333,0,0,-1.3333333,-53.898666,474.52269)" /><g
     id="g576"
     transform="matrix(1.3333333,0,0,-1.3333333,-53.898666,474.52269)" /><g
     id="g578"
     transform="matrix(1.3333333,0,0,-1.3333333,-53.898666,474.52269)" /><g
     id="g580"
     transform="matrix(1.3333333,0,0,-1.3333333,-53.898666,474.52269)" /><g
     id="g582"
     transform="matrix(1.3333333,0,0,-1.3333333,-53.898666,474.52269)" /><g
     id="g584"
     transform="matrix(1.3333333,0,0,-1.3333333,-53.898666,474.52269)" /><g
     id="g586"
     transform="matrix(1.3333333,0,0,-1.3333333,-53.898666,474.52269)" /><g
     id="g588"
     transform="matrix(1.3333333,0,0,-1.3333333,-53.898666,474.52269)" /></svg>