<?xml version="1.0" encoding="UTF-8"?>
<svg width="489.79" height="350.59" version="1.1" viewBox="0 0 489.79 350.59" xml:space="preserve" xmlns="http://www.w3.org/2000/svg" xmlns:cc="http://creativecommons.org/ns#" xmlns:dc="http://purl.org/dc/elements/1.1/" xmlns:rdf="http://www.w3.org/1999/02/22-rdf-syntax-ns#"><metadata><rdf:RDF><cc:Work rdf:about=""><dc:format>image/svg+xml</dc:format><dc:type rdf:resource="http://purl.org/dc/dcmitype/StillImage"/></cc:Work></rdf:RDF></metadata><defs><clipPath><path d="m0 22.38h504v315.23h-504z"/></clipPath><clipPath id="clipPath50"><path d="m6.72 29.11h404.08v289.22h-404.08z"/></clipPath><filter id="filter1" x="-.001157" y="-.0016163" width="1.0023" height="1.0032" color-interpolation-filters="sRGB"><feColorMatrix values="0 0 1 0 0 0 0 1 0 0 0 0 1 0 0 0 0 0 1 0 "/></filter></defs><g transform="matrix(1.3333 0 0 -1.3333 -33.453 406.92)" filter="url(#filter1)"><g clip-path="url(#clipPath50)" stroke="#000" stroke-linejoin="round" stroke-miterlimit="10" stroke-width=".85"><g fill="#00bfc4"><path d="m220.15 187.74 5.8 4.3 0.97 1.52 1.26 3.24 4.92 2.32 0.83 2.29 5.13-2.06 1.23-3.74-5.3-11.53-0.49-4.1-9.61-0.97 0.12 1.08-2.96 2.3z"/><path d="m185.21 157.66-0.25 5.52 7.65 8.93-0.1 1.18 1.51 0.18 3.19-3.3 1.49 2.15 0.58-5.11 4.74-3.83 1.74-3.7-0.9-1.4-4.66-0.5-5.41-0.6-9.03-0.99z"/><path d="m227.53 238.67 2.51 2.67 1.97 2.32 0.5 3.27 5.48-0.99 1.37 1.57 1.66-1-0.38-2.63 3-3.8-5.67-1.94-3.57-4.15-4.32 0.64-0.94-1.26-1.31 3.91z"/><path d="m62.76 161.74 2.56 4.03 1.47 2.84 2.23 2.27 2.91 0.56 6.95-14.22-11.26-3.63-1.18 1.47 0.1 0.73-1.64 1.13-0.06 1.98-2 2.74z"/><path d="m195.25 180.76 1.76-0.14-0.19 6.32 6.64 0.08 6.8 2.36-1.14-1.95 1.15-1.39 3.03-14.45-1.38-0.52-7.9-7.69-4.74 3.83-0.58 5.11-1.49-2.15-3.19 3.3z"/><path d="m276.19 258.72 4.43 6.76 5.23 0.79 4.57-5.91 0.3 0.98 5.19-4.17 3.16-0.2-1.21-1.88-3.3-0.2 0.22-2.61-3.48 0.23-3.95-2.44-6.53 6.44-4.16 0.42z"/><path d="m292.19 175.11 3 2.93 2.47 5.98 8.55 9.9-1.25 1.12 3.63-0.25 1.26-2.16 1.13-8.88 2.39-3.28-2.85-0.58-3.46-2.49-2.3-2.32-0.48-1.12-8.84-1.52-1.59-0.24z"/><path d="m229.25 298.01 1.28 1.68 1.44 1.8 2.5 2.81 1.67-0.51 1.87-1.58 2.5-0.65 2.91-10.59v-4.33l-1.63-1.7-5.75 3.52-0.84-0.17 0.29 1.35-1.99 0.47-1.57 0.63-0.63 0.26 1.51 2.58-1.08 2.01-1.46 1.42z"/><path d="m255.67 259.87 4.54 1.18 0.93 1.54 1.04 0.17 3.13 3.92 5.27-5.3 5.81-1.65-0.2-1.01-0.44-1.13-3.14-3.88-8.25-4.3-4.38 1.66 0.39 3.83-2.26 1.22-0.82 0.2z"/><path d="m323.31 279.6 1.31 2.57 3.61 4.94 2.25-1.25 1.63-2.77 0.34-2.23 0.3-1.96 1.41-1.34 0.31-3.72-0.04-0.47-1.52 1.12-7.33-2.81-0.31 6.62-2.04 0.21z"/><path d="m236.8 219.87-0.15 1.82-0.07 0.8 9.53 3.9 2.11 0.15 4.55-2.65-0.12-0.92 0.17-0.88-7.45-5.29-2.02-1.28-6.17-0.4z"/><path d="m260.27 290.05 3.42-0.25 3.64-0.29h0.04l2.9 1.45 2.23-0.27 1.08-0.19-1.93-10.13-4.02 0.05-2.76-3.59-2.26-0.39 0.17 1.55 0.33 0.53-3.63 12.73z"/><path d="m299.92 224.93 1.1 7.65 1.33-0.8 2.56 4.51 7.43 0.33 5.48-2.41 1.65 1.77 3.79-1.93 3.56-3.8-6.18-0.19-0.3-6.67-4.25 1.29-6.05-7.15-3.3 1.61-3.75-3.24-0.26 4.6z"/><path d="m165.67 220.67 1.45-0.43 0.21 3.03 3.9 0.42-1.21 3.45-0.44 3.83 1.4 0.53 11.86-7.33 4.57-3.59-3.58-12.05-5.55-2.42-4.84 2.35-3-3.75-2.5 2.64-0.28 2.34 0.59 0.1-3.32 6.75z"/><path d="m196.79 235.66 6.84 3.79 7.81 1.17 3.97 2.63-0.19-0.79-2.6-5.69 1.36-0.91-2.77-6.38-3.84-4.59-2.41-0.59-4.87 2.92-1.29 3.47-4.01 2.29z"/><path d="m161.29 176.74-1.75 2.85 0.54 3.86 2.67 6.91 2.63-0.96 5.61 5.97 5.65-0.9 1.11-2.12 4.26-7.72-4.39 0.42-5.35-1.39-0.77-10.22-7.85 1.9-4.26 0.02z"/><path d="m108.54 176.21 11.32 10.38-0.32-1.65-1.41-1.79 2.58-4.12 6.07-4.2-0.36-7.14-0.83-1.21-5.04-3.59-0.89 0.39-8.73 10.65-2.36-0.07z"/><path d="m94.66 148.09 16.37 2.12 1.63-2 0.62-1.5 0.99-2.5 1.52-4.15-0.36-2.92-0.12-0.02-3.23-0.54-15.84-2.08z"/><path d="m245.41 303.83 0.23 0.06 0.39 0.87 0.74 0.43 0.77-0.27 0.81-1.55 1.71-1.79 3.29-0.42 0.29-0.33 1.3-1.49 0.71-1.76 3.08-3.63 0.05-0.32-5.89-4.63-1.23-0.55-1.49 0.44-1.69 9.44-3.37 5.42z"/><path d="m65.16 146.27-0.02 3.21 0.89 2.6 0.41 2.98 1.18-1.47 11.26 3.63 0.18-0.37 1.16-9.47-11.09-1.49-1.77 1.12-2.19-0.89z"/><path d="m216.26 278.22 1.72-0.73 1.78-1.08 0.7-0.43 1.63 0.74 2.73 3.08 1.98 1.31 3.19-3.84 1.35-0.73-0.23-0.69-5.06-3.93-3.85-1.34-1.77-0.61-6.52 7.48z"/><path d="m301.76 270.99 4.46 2.04-1.17 4.64 2.16 4.82 5.22-1.09 4.15-3.17 6.65 0.28 2.04-0.21 0.31-6.62-0.84-2.18-3.93-2.69-5.56-0.35-6.06 3.1-2.03-4.61-2.58 0.45z"/><path d="m234.72 205.68 2.19 2.04 1.26 0.14-0.99 7.26 6.17 0.4 2.02 1.28 0.98-6.6 6.1-2.63 1.27-3.15-0.05-3.43-6.63-8.05-2.17-1.18-4.58 3.85-1.23 3.74-5.13 2.06z"/><path d="m126.42 167.69 0.36 7.14 7.28-1.34 7.67 4.03 0.17-1.38 3.7-2.73-0.02-23.95-0.52-0.09-12.76-2.11-2.3-0.41-0.95 18.16-3.46 1.47z"/><path d="m263.33 239.77 1.03 9.64 8.25 4.3 6.65-9.05-2-3.83 1.4-1.51-2.97-1.38-0.51 1.57-7.91-0.24-0.88 2.16-2.51-1.92z"/><path d="m286.87 208 1.78 0.53 4.05 6.12 5.54 1.62 6.39-4.31 1.04-1.06-1.17-4.07 0.8-4.79 3.29-7.25-3.63 0.25-2.23-0.24-6.49 3.05-4.36 0.16-1.24 3.34-4.08 2.01z"/><path d="m234.39 163.27 1.1 6.79 0.36 6.22-1.13 1.54 5.56-2.26 2.06 2.13 3.53-5.09 1.38-7.11 1.16-0.35-5.33-0.52-7.84-1.2-0.62-0.1z"/><path d="m95.6 184.51 2.98 3.07 5.27 1.54 3.94 1.73-0.29 0.86 1.87 2.66 4.05-3.14 0.65-3.84 3.47 1.15 2.32-1.95-11.32-10.38 0.03-2.35-3.44-3.46-0.56 1.09-2 6.7-5.18 6.19-1.41-0.25z"/><path d="m218.99 174.29 1.96-0.85 3.94 5.57 9.61 0.97-1.61-1.8 2.96-1.9-0.36-6.22-1.1-6.79-6.02-1.52-3.26 3.48 0.75 2.51-2-0.46-4.16 4.11z"/><path d="m134.77 207.97 4.82 3.86-2.52 1.79 0.25 4.16 1.58-0.75 0.71-0.35 3.43-0.91 2.09-1.57 1.68-1.94 1.57 3.57 0.26 2.69 1.04 2.65 1.35 0.54-0.17-1.64 4.1-0.16 4.18-7.37 0.77-3.44-5.29-3.24-3.29-4.4-4.44 0.13-12.43 4.09z"/><path d="m177.75 192.35 11.96 3.08 1.34-0.07 5.68-5.75 0.09-2.67 0.19-6.32-1.76 0.14-4.89 1.58-2.54-1.73-5.81 4.02z"/><path d="m307.15 260.62 2.17 3.44-0.34 0.32-0.45-0.01-0.44-0.27-0.51 0.11-0.21-0.13-0.28 0.17-0.71 0.25 0.14 0.19 0.59-0.14 0.05 0.4 2.03 4.61 6.06-3.1 5.56 0.35 2.18-3.05-4.53-6.9-7.32-1.31-3.59 1.98z"/><path d="m275.24 227.71 1.36 1.7-0.65 7.34-2.12 0.49 1.35 2.27 0.51-1.57 2.97 1.38 0.52 0.7 4.31-4.14 5.5 0.93 2.76-1.71-3.76-3.6-2.34-7.35-2.93 1.59-5.18-1.86z"/><path d="m249.53 249.37 0.5 1.05 8.08 5.7 2.26-1.22-0.39-3.83 4.38-1.66-1.03-9.64 0.55-0.26-1.63-2.91-2.12-0.31-2.76 4.69-4.22 1.29-1.08 0.32-2.97 0.39z"/><path d="m275.23 275.38 3.35-1.36 8.45 5.56 3.48-4.58 5.92-1.59-1.14-6.54-1.88-3.35-2.69-2.18-0.3-0.98-4.57 5.91-5.23-0.79-0.04 2.32-3.44 0.54-3.48 3.77z"/><path d="m324.93 241.85 7.57 3.84 5.11-0.95 2.99-0.82 0.66-0.4-2.01-1.22 1.4-9.12 2.03-1.65-2.05-9.43-1.41-1.51-3.68 7.1-2.99-1.23-0.38 2.88-4.2 0.22 1.46 3.05z"/><path d="m232.22 255.04 1.24 3.43-1.75-0.13 3.5 2.84 1.68-0.71 3.43-0.37 2.1 1.16 1.52-6.64 0.61-1.76-5.41-4.03 0.22-1.32-1.37-1.57-5.48 0.99z"/><path d="m49.54 132.4 2.91-0.09 3.15 0.18 0.9 3.43 2.24 0.38 0.11 0.02 2.3-2.27 2.32-0.16 0.86 3.23 0.86 1.53 1.27 0.04 5.64-2.41 3.76 0.46 1.73-0.58 3.52-3.68-5.69-0.75-10.85-1.22-5.83-0.99-3.15-0.53-5.34-0.73-1.66 2.01z"/><path d="m226.8 281.11 2.28 1.51 4.32 1.48 1.89 0.12-0.21 3.58 0.12 0.49 0.84 0.17 5.75-3.52-4.95-1.61 0.21-2.46-0.93-1.19-4.78-3.14-1.35 0.73z"/><path d="m250.46 227.75-2 4.56 2.85-1.23-0.23 1.42 4.4-3.73 1.56 2.58 3.89-3.27 5.88-7.78-0.5-3.81-3.22 0.12-9.79 5.1 0.42 0.75-1.07 0.51 0.12 0.92-4.55 2.65z"/><path d="m236.84 283.33 4.95 1.61 1.63 1.7 3.59 0.1 4.75-13.07-0.05-1.92-2.89-1.42-0.79-1.27-9.54 6.37-1.44 5.44z"/><path d="m80.11 146.08 0.11 1.3-1.16 9.47 14.34 1.69 1.26-10.45 1.58-13.59-1-0.13-0.2-0.02-13.15-1.77z"/><path d="m167.41 203.78 3.03 0.93 3 3.75 4.84-2.35 5.55 2.42 7.13-0.28 3.85-5.88 1.69-2.8-1.56-2.83-3.89-1.38-1.34 0.07-11.96-3.08-1.11 2.12-5.65 0.9z"/><path d="m211.14 196.9 0.67 6.83 0.56 2.87 2.19 0.28 0.25-2.02 5.21-2.95 6.9-8.35-0.97-1.52-5.8-4.3-4.68 0.05-2.83 2.71z"/><path d="m310.26 288.25 1.05 5.15-0.62 1.79 0.63 0.87 2.73 1.32 2.12 1.17 0.44-0.73 0.71-1.15 0.5-2.16 1.54-3.84 2.01-1.38 0.58-0.39 3.21 0.36 2.5-1.83 0.57-0.32-3.61-4.94-1.31-2.57-0.08-1.09-6.65-0.28-4.15 3.17-5.22 1.09z"/><path d="m151.03 221.71 2.06 0.85 1.93 2.3 2.46 1.8 0.1 0.07 1.65-1.99 2.99-3.08 2.92-0.83 0.53-0.16-0.74-4.13 3.32-6.75-0.59-0.1-8.52 2.85-4.18 7.37-4.1 0.16z"/><path d="m187.41 220.58 5.98 2.1 0.85 3.35-1.9 6.11 0.8 0.83 0.94 0.79 0.71-0.78 4.01-2.29 1.29-3.47 4.87-2.92 0.33-1.66 2.81-2.24-1.69-4.63-5.03-7.04 0.16-5.75-6.73-0.61-3.85 5.88-7.13 0.28z"/><path d="m309.85 192.63 3.54 0.42 0.07 1.74 5.52 3.81 2.81 3.51 2.78-0.56-0.89-2.68 8.57 5.08 3.43-1.6 0.73-2.85-0.55-1.45-0.35-0.92-4.67-2.93-2.74-0.38-1.13-3.29-0.39-3.06-4.14-1.76-6.05-3.49-1.97-1.54-1.05-0.21-2.39 3.28z"/><path d="m251.71 271.75 0.05 1.92 1.29-0.5 1.73 2.08 8 2.74-0.17-1.55 2.26 0.39-0.37-3.22 1.62-0.75 2.2-0.68-3.01-5.5-3.13-3.92-1.04-0.17-0.93-1.54-4.54-1.18 0.25 0.94-2.71 5.15-4.39 4.37z"/><path d="m194.94 196.74 1.56 2.83-1.69 2.8 6.73 0.61 10.27 0.75-0.67-6.83 1.5-6.4-2.38-1.12-6.8-2.36-6.64-0.08-0.09 2.67-5.68 5.75z"/><path d="m110.75 214.6 2.01 1.03 3.11-2.09 3.49 1.45 0.51-0.42 1.56-1.28 2.42 0.14 0.39 2.66 2.25 1.82 2.82 0.14 1.5 0.99 1.21 0.79 4-1.42 1.3-0.63-0.25-4.16 2.52-1.79-4.82-3.86-0.31-2.29-2.62-1.44-0.83-1.09-10.22-2.04-2.1 6.58-2.28-0.34-5.76 6.78z"/><path d="m216.9 264.44 1.42 0.46 3.88 5.68 3.85 1.34 4.88-3.8 1.29-4 1.94 1.62 2.73-5.27-1.68 0.71-3.5-2.84-12.28-0.97-3.59 5.03z"/><path d="m63.6 142.06 1.73 2.4-0.16 1.66 2.19 0.89 1.77-1.12 11.09 1.49-0.11-1.3 1.78-13.5-0.46-0.06-0.32-0.04-3.52 3.68-1.73 0.58-3.76-0.46-5.64 2.41-1.27-0.04 0.38 0.66z"/><path d="m119.54 184.94 8.65 7.47 3.96 2.03 4.62 5.27 3.33-9.02 1.46-0.15-3.03-7.03 3.2-5.99-7.67-4.03-7.28 1.34-6.07 4.2-2.58 4.12z"/><path d="m274.14 222.74 3.4 1.14 5.18 1.86 2.93-1.59 1.11-1.19 0.45-2.18 5.49-6.13-4.05-6.12-1.78-0.53-2.68-0.37-5.9 3.47-0.4-0.97v2.14l-4.59 8.36z"/><path d="m194.08 233.76 1.13 0.96 0.02 4.6-0.21 3.81-0.02 0.47 1.89 3.19 0.62 2.52 0.96-0.11 1.94-0.23 2.62 2 1.16 2.85 0.18 2.02 2.43-1.76 5.06-1.88 0.38-0.18 2.88-0.7 0.23-6.45 0.06-1.62-3.97-2.63-7.81-1.17-6.84-3.79-2-2.68z"/><path d="m249.31 234.47-0.99 0.43 0.78 8.08 2.97-0.39 1.08-0.32 4.22-1.29 2.76-4.69-1.79-0.01 1.08-2.58-2.38-2.35-1.56-2.58-4.4 3.73 0.23-1.42-2.85 1.23z"/><path d="m322.2 251.27-1.89 3.55 1.18 2.29 5.43-0.69 10.2-2.83-2.18-1.99 2.67-6.86-5.11 0.95-7.57-3.84-1.23 4.15-2.97 3.02z"/><path d="m241.15 301.4 2.13 1.87 1.83 0.48 3.37-5.42 1.69-9.44 1.49-0.44-4.65-1.71-3.59-0.1v4.33l-2.91 10.59z"/><path d="m320.34 223.39 0.3 6.67 6.18 0.19 1.15-0.69 4.2-0.22 0.38-2.88 2.99 1.23 3.68-7.1-0.79-0.94-3.67-0.93-5.83-6.63-1.14 1.07-3.33 2.05-2.49-0.99z"/><path d="m283.36 190.8 5.5 2.26 3.02 4.95 4.36-0.16 6.49-3.05 2.23 0.24 1.25-1.12-8.55-9.9-2.47-5.98-3.88 1.49-1.8 3.77-4.04 2.19z"/><path d="m201.38 208.73 5.03 7.04 1.69 4.63 4.12-1.44-0.02-8.55 4.28 1.52 0.83-0.15 2.31-4.25-1.53 0.69-3.53-1.34-2.19-0.28-0.56-2.87-10.27-0.75z"/><path d="m271.87 188.79 1.62 4.74-0.48 6.25 0.66 5.02 4.22 5.33 0.4 0.97 5.9-3.47 2.68 0.37-0.31-4.64 4.08-2.01 1.24-3.34-3.02-4.95-5.5-2.26-3.77-1.65-3.53 1.2-1.45-1.79-2.94-0.7z"/><path d="m318.46 256.86 4.53 6.9-2.18 3.05 3.93 2.69 0.84 2.18 7.33 2.81 1.52-1.12-0.17-2.26-0.45-3.82 4.01-3.19 4.48-3.9-0.2-2.2-4.44-0.08-0.54-4.33-10.2 2.83-5.43 0.69-1.18-2.29z"/><path d="m285.65 224.15 2.34 7.35 3.76 3.6 0.6 0.12 4.37-1.91 4.3-0.73-1.1-7.65-2.74 1.35-7.73-4.52-2.69 1.2z"/><path d="m304.5 206.83 1.17 4.07 3.82 5.53 4.13-4.5 5.77-1.71 2.21-3.58 0.19-4.53-2.81-3.51-5.52-3.81-0.07-1.74-3.54-0.42-1.26 2.16-3.29 7.25z"/><path d="m324.57 201.55 2.69 1.48-1.24 5.74 1.77 4.39 1.14-1.07 5.83 6.63 3.67 0.93 2.51-1.87 2.16 1.52 3.27-2.22-6-6.01 0.74-2.87-0.87-2.09-2.61-1.5-1.95-2.26-3.43 1.6-8.57-5.08z"/><path d="m285.79 285.96 0.3 2.09 3.69 2.02 4.23-0.98 2.77 0.12 2.74-1.63 1.67-0.97 0.78 0.94 0.88 1.05 2.89 0.13 1.62 1.46 0.37 1.84 2.54 2.59 0.42 0.57 0.62-1.79-1.05-5.15-3.05-5.76-2.16-4.82 1.17-4.64-4.46-2.04-3.76 3.56-1.57-1.14-5.92 1.59-3.48 4.58-0.15 4.81-1.25 1.46z"/><path d="m245.37 216.8 7.45 5.29-0.17 0.88 1.07-0.51-0.42-0.75 9.79-5.1-0.93-8.97-2.54 1.03-5.95-7.68 0.05 3.43-1.27 3.15-6.1 2.63z"/><path d="m90.5 180.18 0.49 3.45 1.89 1.45 0.11-0.02 2.61-0.55 0.38-0.38 1.41 0.25 5.18-6.19 2-6.7-1.16-3.81 1.53-4.31-1.22-1.17-4.86 3.71-5.97-2.98-0.35 2.48 0.33 0.05 1.15 1.85 0.5 2.91-2.52 3.54-2.36 3.6z"/><path d="m154.62 174.17 3.22 1.21 1.55-0.02 4.26-0.02 7.85-1.9 3.67-5.9-1.87-0.68-2.95-8.78 0.11-4.34-2.16-0.4-10.76-1.86z"/><path d="m104.94 163.37-1.53 4.31 1.16 3.81 0.56-1.09 3.44 3.46 2.36 0.07 8.73-10.65-5.1-3.51-6.42-3.31-1.88 3.53-2.54 2.21z"/><path d="m72.01 171.46 0.17-0.05 4.23-1.09 3.84-1.8 2.66-0.39 3.77-1.05 2.39-1.27 1.4-0.74 1.78 0.29 0.29 0.05 0.35-2.48 0.05-1.18 0.46-3.21-14.34-1.69-0.18 0.37-6.95 14.22z"/><path d="m262.01 177.68 1.67 0.87-0.43 3.45 6.21 5.64 2.41 1.15-0.2-0.93 2.94 0.7 0.17-6.25-1.42-1.54 3.35-6.88 4.28-3.92-1.48-0.25-10.36-1.74-12.13-1.9z"/><path d="m131.01 203.15 0.83 1.09 2.62 1.44 12.43-4.09 4.44-0.13-3.59-4.77 2.08-3.52-4.51-2.66-3.75 0.03-1.46 0.15-3.33 9.02-4.86 0.98z"/><path d="m259.42 233.7-1.08 2.58 1.79 0.01 2.12 0.31 1.63 2.91 2.51 1.92 0.88-2.16 7.91 0.24-1.35-2.27 2.12-0.49 0.65-7.34-1.36-1.7 2.3-3.83-3.4-1.14-0.84-2.11-2.86-0.97-3.63 0.64-5.88 7.78-3.89 3.27z"/><path d="m310.46 241.66 5.62 6.67-0.99 1.5 5.64-0.81 2.97-3.02 1.23-4.15 4.5-9.24-1.46-3.05-1.15 0.69-3.56 3.8-3.79 1.93-1.65-1.77-5.48 2.41-1.01 2.21z"/><path d="m216.48 211.93 1.86 7.68 1.69 2.8 2.91-3.68 8.05 0.08 5.81 1.06 0.38-4.75 0.99-7.26-1.26-0.14-2.71 1.72-4.76-2.7-4.46 1.96-5.36-1.17-2.31 4.25z"/><path d="m93.4 158.54-0.46 3.21-0.05 1.18 5.97 2.98 4.86-3.71 2.54-2.21 1.88-3.53 1.62-3.08 1.27-3.17-16.37-2.12z"/><path d="m334.94 251.6 2.18 1.99 0.54 4.33 4.44 0.08-0.11-1.24 3.39-1.78 1.17-1.4 1.65-1.98 2.23-1.74 0.46-0.82-3.55-2.66 0.82-2.14-6.9-0.72-0.66 0.4-2.99 0.82z"/><path d="m271.65 280.37 1.93 10.13 2.35-0.43 1.11-1.77 2.32-0.68 0.86-1.94 2.98-0.53 1.19-0.22 1.24 0.92 1.25-1.46 0.15-4.81-8.45-5.56-3.35 1.36-2.63 4.79z"/><path d="m171.64 231.75 1.28 2.47 0.02 0.02 1.66 2.37 1.22 0.79 1.39 0.91 2.23-2.36 3.72-3.65 4.83 0.09 2.99-1.64 1.36 1.39 1.9-6.11-0.85-3.35-5.98-2.1-4.57 3.59-11.86 7.33z"/><path d="m286.79 249.39 0.56 0.68 3.95 2.44 3.48-0.23-0.22 2.61 3.3 0.2 1.84-1.52 1.07 1.17 0.49-5.04-1.83-4.44 0.5-0.36-1.99-2.66-3.41-0.47-1.45 0.23-5.32 3.64z"/><path d="m234.4 233.99 3.57 4.15 5.67 1.94-0.78-3.15 3.24-3.24 2.22 1.21 0.99-0.43-0.85-2.16 2-4.56-2.24-1.21-2.11-0.15-9.53-3.9-0.56 9.73-1.57 1.22z"/><path d="m209.12 187.43 1.14 1.95 2.38 1.12 2.83-2.71 4.68-0.05 1.9-5.35 2.96-2.3-0.12-1.08-3.94-5.57-1.96 0.85 0.71-2.9-0.86 0.67-5.54-0.47-3.03 14.45z"/><path d="m204.02 163.38 7.9 7.69 1.38 0.52 5.54 0.47 0.86-0.67 4.16-4.11 2 0.46-0.75-2.51 3.26-3.48-2.23-0.56-10.62-1.55-2.47-0.35-3.72-0.53-4.47-0.48 0.9 1.4z"/><path d="m275.75 257.59 0.44 1.13 0.47-1.79 4.16-0.42 6.53-6.44-0.56-0.68 0.97-3.75-1.78-1.37-6.72 0.39-6.65 9.05z"/><path d="m299.43 245.26 1.83 4.44-0.49 5.04 0.01 0.73 6.37 5.15 0.4-3.09 3.59-1.98 7.32 1.31 1.85-2.04 1.89-3.55-1.47-2.25-5.64 0.81 0.99-1.5-5.62-6.67 0.87-2.83-6.31 4.4-4.45 0.79-0.64 0.88z"/><path d="m138.53 183.51 3.03 7.03 3.75-0.03 4.51 2.66-0.97-4.63 2.56 2.33 4.1-2.34 0.52-2.54 4.05-2.54-0.54-3.86 1.75-2.85-1.9-1.38-1.55 0.02-3.22-1.21-8.38-2.44-0.64 1.68-3.7 2.73-0.17 1.38z"/><path d="m204.96 224.3 2.41 0.59 3.84 4.59 2.77 6.38 4.27-2.08 9.58 3.5 1.31-3.91-1.73-3.17-2.31 0.7-5.07-8.49-1.69-2.8-1.86-7.68-4.28-1.52 0.02 8.55-4.12 1.44-2.81 2.24z"/><path d="m268.32 272.18 4.7-1.16 0.64 1.09 3.48-3.77 3.44-0.54 0.04-2.32-4.43-6.76 0.2 1.01-5.81 1.65-5.27 5.3z"/><path d="m149.82 193.17-2.08 3.52 3.59 4.77 3.29 4.4 5.29 3.24-0.77 3.44 8.52-2.85 0.28-2.34 2.5-2.64-3.03-0.93 3.58-8.41-5.61-5.97-2.63 0.96-2.67-6.91-4.05 2.54-0.52 2.54-4.1 2.34-2.56-2.33z"/><path d="m204.57 258.03 1.14 2.07 3.6 1.62 0.71 2.13 1.57 1.39v0.01l2.34 0.12 2.97-0.93-1.06-2.04 3.59-5.03-1.32-2.92-5.87-2.43-0.38 0.18-5.06 1.88-2.43 1.76z"/><path d="m226.05 271.92 5.06 3.93 0.23 0.69 4.78 3.14 0.93 1.19 1.44-5.44 9.54-6.37-4.32-6.57-1.29-1.23-2.1-1.16-3.43 0.37-2.73 5.27-1.94-1.62-1.29 4z"/><path d="m286.76 222.96 2.69-1.2 7.73 4.52 2.74-1.35 2.81-4.43 0.26-4.6 0.29-2.6 1.35-1.34-6.39 4.31-5.54-1.62-5.49 6.13z"/><path d="m247.01 286.74 4.65 1.71 1.23 0.55 5.89 4.63 0.28-1.74 0.42-0.64 3.63-12.73-0.33-0.53-8-2.74-1.73-2.08-1.29 0.5z"/><path d="m302.99 215.9 3.75 3.24 3.3-1.61 6.05 7.15 4.25-1.29 1.63-9.17 2.49 0.99 3.33-2.05-1.77-4.39 1.24-5.74-2.69-1.48-2.78 0.56-0.19 4.53-2.21 3.58-5.77 1.71-4.13 4.5-3.82-5.53-1.04 1.06-1.35 1.34z"/><path d="m339.22 220.59 1.41 1.51 2.05 9.43-2.03 1.65-1.4 9.12 2.01 1.22 6.9 0.72-0.82 2.14 3.55 2.66 1.68-3.01 3.33-1.14 4.21-2.35 3.82-2.01 4.15 0.53-8.14-10.96-3.77-5.05-0.17-0.25-1.42-2.06-3.77-2.01-4.01-3.25-0.17-0.14-0.26-0.26-3.27 2.22-2.16-1.52-2.51 1.87z"/><path d="m277.26 240.83 2 3.83 6.72-0.39 1.78 1.37 5.32-3.64 1.45-0.23-2.18-6.55-0.6-0.12-2.76 1.71-5.5-0.93-4.31 4.14-0.52-0.7z"/><path d="m247.04 192.94 6.63 8.05 5.95 7.68 2.54-1.03 10.11-7.19 0.74-0.67 0.48-6.25-1.62-4.74-2.41-1.15-6.21-5.64-5.41 5.36-3.71-1.98-3.19 1.64-3.47 2.13z"/><path d="m264.87 276.83 2.76 3.59 4.02-0.05 0.95-0.2 2.63-4.79-1.57-3.27-0.64-1.09-4.7 1.16-2.2 0.68-1.62 0.75z"/><path d="m263.09 216.61 3.22-0.12 0.5 3.81 3.63-0.64 2.86 0.97 4.59-8.36v-2.14l-4.22-5.33-0.66-5.02-0.74 0.67-10.11 7.19z"/><path d="m293.41 263.52 1.88 3.35 1.14 6.54 1.57 1.14 3.76-3.56 2.82-5.59 2.58-0.45-0.05-0.4-0.59 0.14-0.14-0.19 0.71-0.25 0.28-0.17 0.21 0.13 0.51-0.11 0.44 0.27 0.45 0.01 0.34-0.32-2.17-3.44-6.37-5.15-0.01-0.73-1.07-1.17-1.84 1.52 1.21 1.88-3.16 0.2-5.19 4.17z"/><path d="m234.5 179.98 0.49 4.1 5.3 11.53 4.58-3.85 2.17 1.18 0.43-3.79 3.47-2.13-4.39-2.92-0.27-2.48-3.94-3.93-2.06-2.13-5.56 2.26 1.13-1.54-2.96 1.9z"/><path d="m242.42 261.26 1.29 1.23 4.32 6.57 0.79 1.27 4.39-4.37 2.71-5.15-0.25-0.94 1.62-3.55 0.82-0.2-8.08-5.7-0.5-1.05-1.53 3.08-3.45 0.41-0.61 1.76z"/><path d="m212.24 252.02 5.87 2.43 1.32 2.92 12.28 0.97 1.75 0.13-1.24-3.43 0.29-8.11-0.5-3.27-1.97-2.32-4.35 1.32-1.68 0.51-8.66 1.7-0.23 6.45z"/><path d="m170.35 158.08 2.95 8.78 1.87 0.68 1.65-2.67 8.12 0.04 0.02-1.73 0.25-5.52 0.55-1.47-4.22-0.46-1.77-1.09-0.5 0.07-2.02 0.31-6.79-1.28z"/><path d="m212.62 236.77 2.6 5.69 0.19 0.79-0.06 1.62 8.66-1.7 1.68-0.51 4.35-1.32-2.51-2.67 0.3-1.39-9.58-3.5-4.27 2.08z"/><path d="m214.56 206.88 3.53 1.34 1.53-0.69 5.36 1.17 4.46-1.96 4.76 2.7 2.71-1.72-2.19-2.04-0.79-4.27-0.83-2.29-4.92-2.32-1.26-3.24-6.9 8.35-5.21 2.95z"/><path d="m145.6 173.41 0.64-1.68 8.38 2.44 2.92-22.69-2.36-0.4-9.6-1.62z"/><path d="m108.14 156.46 6.42 3.31 5.1 3.51 0.89-0.39 5.04 3.59 3.46-1.47 0.95-18.16-6.91-1.21-0.07 1.68-7.17-0.3-2.57-0.31-0.62 1.5-1.63 2-1.27 3.17z"/><path d="m209.21 275.41 1.84 1.59 2.52 0.33 0.34 0.12 6.52-7.48 1.77 0.61-3.88-5.68-1.42-0.46-2.97 0.93-2.34-0.12 0.53 1.34-1.02 2.05-0.31 0.61-0.66 3.3z"/><path d="m102.37 199.31 0.88 2.51 2.8 2.92 0.94 3.28 2.61-0.58 1.42 0.64 1.17 1.73-1.87 2.66 0.33 1.66 5.76-6.78 2.28 0.34 2.1-6.58-7.37-9.88-4.05 3.14-1.87-2.66-0.44 1.31-2.88 2.04-0.05 0.12z"/><path d="m172.27 183.66 5.35 1.39 4.39-0.42 5.81-4.02 2.54 1.73 4.89-1.58-1.23-7.29-1.51-0.18 0.1-1.18-7.65-8.93-0.02 1.73-8.12-0.04-1.65 2.67-3.67 5.9z"/><path d="m220.03 222.41 5.07 8.49 2.31-0.7 1.73 3.17 0.94 1.26 4.32-0.64 0.05-0.55 1.57-1.22 0.56-9.73 0.07-0.8 0.15-1.82-5.81-1.06-8.05-0.08z"/><path d="m242.34 177.69 3.94 3.93 0.27 2.48 4.39 2.92 3.19-1.64 3.71 1.98 5.41-5.36 0.43-3.45-1.67-0.87-4.99-11.6-0.3-0.04-6.95-0.76-1.36-0.14-1.16 0.35-1.38 7.11z"/><path d="m113.42 191.23 7.37 9.88 10.22 2.04 0.9-2.46 4.86-0.98-4.62-5.27-3.96-2.03-8.65-7.47 0.32 1.65-2.32 1.95-3.47-1.15z"/><path d="m274.78 182.31-0.17 6.25 1.45 1.79 3.53-1.2 3.77 1.65 2.11-5.31 4.04-2.19 1.8-3.77 3.88-1.49-3-2.93 1.66-2.91-2.47-0.37-0.01-0.01-10.38-1.85-4.28 3.92-3.35 6.88z"/><path d="m294.53 241.77 3.41 0.47 1.99 2.66 0.64-0.88 4.45-0.79 6.31-4.4 1.01-2.21-7.43-0.33-2.56-4.51-1.33 0.8-4.3 0.73-4.37 1.91z"/><path d="m239.14 248.83 5.41 4.03 3.45-0.41 1.53-3.08-0.43-6.39-0.78-8.08-2.22-1.21-3.24 3.24 0.78 3.15-3 3.8 0.38 2.63-1.66 1z"/></g><g fill="#f8766d"><path d="m275.73 144.98 1.52 0.92 0.96 2.53 6.06-1.05-0.01 3.77 6.98 0.53 0.95 4.18 1.52-1.47 0.42-0.92 3.11-3.1-5.51-7.64 1.85-1.47-5.54-3.49-2.9-3.49 0.34-1.63-2.88 4.01-1.48 2.93-5.57 4.13z"/><path d="m183.52 102.28 4.15 1.32 6.82-3.29 2.31 2.92 4.53-1.06 1.92-9.65-0.69-2.35-6.53-6.28-4.84 1.21-3.37 0.02h-0.86l-3 6.43z"/><path d="m111.02 115.45 4.65 8.09-0.18 0.73-0.35 1.45-0.64 0.8 0.25 1.66-0.3 1.01 2.81 0.43 1.79 0.28 0.49-0.31 2.24-4.62-0.08-1.18 2.15-5.96-3.36-9.59 4.5-1.32-0.98-5.1-0.18-1.42-3.81 1.34-5.54-1.01-1.75-0.21z"/><path d="m238.04 104.83 5.63 9.58 0.11 2.49 14.25 2.73 0.6-0.26-6.72-11.86-1-4.64 0.97-1.69-1.62-0.42-1.65-5.95-9.02 6.11-1.87 2.4z"/><path d="m293.94 119.56-2.29 3.22-0.59 5.05 1.05-0.32-0.56 2.91 5.74 0.53 0.53 2.59 6.57-1.11 2.14 2.99 5.58-8.74 2.06-0.77 1.18-6.64-4.71-1.25-2.96-2.98-2.56-3.05-1.47-1.05-0.23-0.16 0.61 1.79-3.01 2.9-3.77-1.22-5.33 2.86z"/><path d="m259.31 84.56 2.21 8.85 2.37 4.09 0.88-0.02 6.62-2.39-0.75-1.33 2.16-0.22-0.15-0.7 0.79-3.77-1.72-10.53-1.53-0.29-2.25-0.41-5.12-0.96 0.46 1.64-2.78 3.82z"/><path d="m279.43 152.48-2.57 9.65 0.44 2.51 2.73 0.64 0.47 1.35-0.99 3.09 1.48 0.25 10.38 1.85 0.01 0.01 0.41-1.56 1.76-2.95 0.87-1.4 1.33-2.31 0.81-0.28-0.37-1.87-1.46-0.3-0.14-5.78-0.88-0.99-1.52 1.47-0.95-4.18-6.98-0.53 0.01-3.77-6.06 1.05z"/><path d="m203.56 118.27-0.83 2.09 2.59 1.55 3.42-0.17 6.38-4.69 0.33-0.94-3.87-7.77 0.97-2.72-4.46-1.49-5.67 2.22z"/><path d="m90.29 109.39 1.27 3.2 5.44 0.64-0.17 2 14.05 1.63 0.14-1.41 1.71-14.93 1.75 0.21 0.15-1.59-17.3-1.98-1.41-2.14-4.43-0.5z"/><path d="m366.47 174.94-0.26 1.37 4.75 1.25 7.67 7.76-1.72-8.32 6.48-4.37-0.72-2.22-1.85-6.25-2.03-1.5-0.04-0.01-1.98-0.5-0.93 1.59-3.29 0.57-0.33-0.36-3.82 4.68-2.42-0.46z"/><path d="m150.18 134.19 6.22 6.59 2.77-1.46 3.87-2.53 2.98 1.44 0.43-0.84-1.72-5.79-1.67-12.8-0.57 0.15-1.38-0.32-4.31-0.33 0.46 7.13-2.45 3.63 1.33 3.34h-5.97z"/><path d="m87.93 73.93 6.96 4.33 2.09 5.76 2.14 0.24 3.18-3.72 6.4-0.18 0.65-4 0.18-2.08-9.08-1.18-3.15-1.61-2.76-6.65-2.76-0.37-1.02 4.37z"/><path d="m291.38 171.83 2.47 0.37 1.59 0.24 8.84 1.52 0.48 1.12 8.79 1.68 3.83-2.85 2-3.85-0.29-2.64-5.72-4.5-5.23-2.24-0.53 0.59-2.84-0.53-4.03 4.3-4.18-1.71-0.81 0.28-1.33 2.31-0.87 1.4-1.76 2.95z"/><path d="m212.78 158.61 0.27 0.68 2.47 0.35 10.62 1.55 2.23 0.56 6.02 1.52 0.23 0.05 0.62 0.1 0.87-2.8-0.4-2.41-6.73-3.05-1.3-5.53-4.1 3.11-6.01 1.79-4.58-2.07z"/><path d="m328.06 140.71-0.16 5.73 0.84-0.27 0.22 4.83-0.88 2.02 3.04 0.8-1.02 2.46 0.87 0.51-0.04-1.34 3.39-1.34 10.97-8.24-0.66-0.53 1-2.73-1.16-2.9-0.95-1.99-0.38-0.79-3.11-0.36-2-1.06-2.68-1.26-1.23-2.38-2.4-1.01-0.02-0.06-1.34 5.89-2.84 3.4z"/><path d="m201.78 88.64 0.78 1.53 0.69 2.35-1.92 9.65-0.48 3.1 1.57 1.08 5.67-2.22 4.46 1.49 2.33-4.42 3.57-2.16 1.52-7.74-1.19-5.29-5.47 2.12-5.94 0.06-4.34-2.34z"/><path d="m63.05 94.72-0.26 1 2.74 0.65 3.3 6.7 2.54-1.44 1.87-5.61 8.96-2.4 1.11-0.6-4.91-6.87-2.31 0.87-12.54 3.73-0.94 1.45z"/><path d="m242.87 118.29 0.87 0.45-0.75 6.25-1.53 3.42-0.28 6.73 4.1 0.67 1.94 2.53 2.81 2.28 5.43 0.2 5.06-2.75 4.56-4.5 2.54-4.37-1.69-3.11-1.98-2.23-0.85-0.26-4.47-4.23-0.6 0.26-14.25-2.73z"/><path d="m163.06 118.8 1.67 12.8 1.72 5.79-0.43 0.84 4.11-1.17 2.63 3.52 6.25-7.37 2.04-0.23 2.52-5.72 2.09-1.57-1.27-0.92-2.21-7.01-8.09 2.52-6.18-0.08-4.35-4.21-1.07 2.96z"/><path d="m113.81 83.07 1.77 4.69-0.95 11.38-0.15 1.59 5.54 1.01 3.81-1.34-2.12-5.77 0.63-5.2 3.42-5.09-2.46-4.59 1.69-0.94 1.64-0.78-2.18-1.02-7.53-1.77-2.31 2.09-0.36 0.84z"/><path d="m205.74 128.19 6.29 2.79 2.21-0.92 2.15 2.48 2.29-3.04 5.83-2.06-0.43-2.51 2.39-6.5-2.04-1.25-8.29-0.58-0.69-0.49-0.33 0.94-6.38 4.69-3.03 5.56z"/><path d="m138.97 122.71 1.36 4.15-0.19 4.73 9.37 0.18 0.66 0.63h5.97l-1.33-3.34 2.45-3.63-0.46-7.13 0.2-4.07-0.46-1-14.78-0.36-0.98 1.14z"/><path d="m46.47 101.39 0.17 3.45 1.5 1.35 2.05 2.02-1.69 2.42-0.19 0.11 6.13 0.88 0.08 1.4 14.5 1.41 0.77-9.79-1.8-1.02 0.84-0.55-3.3-6.7-2.74-0.65-2.83 2.98-10.19-2.23-0.67-1.16-0.24 0.9-1.7 1.24-2.36 2.63z"/><path d="m53.07 66.58 0.66 0.79 6.23 1.57 12.95 1.32 1.92-22.01-6.9-0.91-3.68-0.47-9.36-1.15z"/><path d="m243.95 152.75 1.97 8.82 4.17 2.02 9.67-1.39 4.35-6.43-1.59-1.66-3.55-4.79-3.28-1.26-0.23-7.24-5.43-0.2-2.81-2.28-0.9 0.18 1.16 3.08-2.69 5.57z"/><path d="m202.18 74.22-0.13 6 1.78 5.22-0.8 0.41 4.34 2.34 5.94-0.06 5.47-2.12 2.34-3.27 0.54-0.59 1.83-12.17-19.91-3.09-0.33-0.05z"/><path d="m67.99 103.62 1.8 1.02-0.77 9.79 8.53 0.95-0.08 1.16 4.81-4.08 8.01-3.07 1.2-14.87-9.29-0.9-8.96 2.4-1.87 5.61-2.54 1.44z"/><path d="m160.35 76.8 0.07 7.81 3.26 1.77 7.75-0.96 3.2-5.22 3.85-2.19 1.74-14.78-16.72-2.25-0.26-0.03-0.33-0.05-1.77 15.69z"/><path d="m307.22 151.62 0.39 9.65 0.53-0.59 5.23 2.24 5.72 4.5 3.82-0.63 0.96 0.56-0.2-0.93 2.35-4.56-3.24-0.23-4.47-5.32-0.34-2.5-3.29-0.24-5.22-4.24 0.95-1.72-0.23-0.63-1.67 1.29-1.98 2.7z"/><path d="m330.97 156.79 0.97 0.57 2.04 3.5 5.35 6.3 9.36 6.2 2.97 1.1 2.13-14.87 2.8-2.23 0.15-3.29-1.24 1.14-3.74-3.25-2.1-1.89 0.07-2.25-0.96-1.79-2.18 0.87-1.3-1.03-10.97 8.24-3.39 1.34z"/><path d="m218.78 86.01 1.19 5.29-1.52 7.74 2.66-0.64 9.16 3.08 6.43-5.86-2.48-5.29-6.41-2.78-0.74-4.24-5.95-0.57z"/><path d="m318.31 156.31 4.47 5.32 3.24 0.23 3.45 3.86 4.51-4.86-2.04-3.5-0.97-0.57-0.87-0.51 1.02-2.46-3.04-0.8 0.88-2.02-2.19 2.12-6.81-0.04-1.99 0.73z"/><path d="m240.81 72.77 4.08 5.67-1.62 3.88 4.76 10.42 0.58 2.07 1.65 5.95 1.62 0.42 1.53-1.37 3.94-0.38-0.34-1.73 4.51-4.29-2.21-8.85 1.19-2.22 2.78-3.82-0.46-1.64-0.12-0.03-2.9-0.53-9.73-1.84-0.55-0.1-3.81-0.76-0.93-0.19z"/><path d="m313.55 176.76 8.46 1.64 12.61 2.42 6.66 1.3-4.66-3.82-2.81 0.58-4.25-3.67-5.69-7.86-0.96-0.56-3.82 0.63 0.29 2.64-2 3.85z"/><path d="m72.91 70.26-0.16 1.96 4.61 0.52 10.57 1.19 2.83-5.09 1.02-4.37 1.45-13.76-1.63-0.22-8.67-1.16-0.42-0.06-7.68-1.02z"/><path d="m109.51 70.02 0.02 4.26-0.18 2.08 4.48 0.5 0.78 0.47 2.31-2.09 7.53 1.77 2.6-4.98 1.9-15.78-0.68-0.1-9.07-1.17 0.22-0.66-2.59-0.37-4.71-0.64-0.76-0.1z"/><path d="m323.87 167.35 5.69 7.86 4.25 3.67 2.81-0.58 4.66 3.82 9.51 2.08 0.75-4.11-3.31-4.29 1.18-1.08-0.72-1.36-9.36-6.2-5.35-6.3-4.51 4.86-3.45-3.86-2.35 4.56z"/><path d="m57.62 78.46 2.93 13.75 2.06-0.01 0.94-1.45 12.54-3.73 1.27-14.28-4.61-0.52 0.16-1.96-12.95-1.32-0.7 7.85z"/><path d="m97.17 86.15-1.25 8.87 1.41 2.14 17.3 1.98 0.95-11.38-1.77-4.69 0.44-4.9 0.36-0.84-0.78-0.47-4.48-0.5-0.65 4-6.4 0.18-3.18 3.72-2.14-0.24z"/><path d="m95.04 134.35 0.2 0.02 1 0.13 15.84 2.08 3.23 0.54 0.05-3.1 3.69-4.12-1.79-0.28-2.81-0.43 0.3-1.01-0.25-1.66 0.64-0.8 0.35-1.45 0.18-0.73-4.65-8.09-0.14 1.41-14.05-1.63z"/><path d="m134.87 103.28-0.06 3.72 7.21 4.6-0.26 1.27 14.78 0.36 0.26-1 0.08-4.98-0.65-8.45-3.37-2.8-4.99-3.19-5.9 1.22-2.84-2.85-4.18 2.42z"/><path d="m119.54 129.59 7.14-0.33 4.37 2.84 5.39 0.77 0.43-1.38 3.27 0.1 0.19-4.73-1.36-4.15-0.98 0.93-9.68 1.2-6.61-1.05 0.08 1.18z"/><path d="m120.49 108.24 3.36 9.59-2.15 5.96 6.61 1.05 9.68-1.2 0.98-0.93 1.81-8.7 0.98-1.14 0.26-1.27-7.21-4.6 0.06-3.72-5.74-2.78-5.12 1.32 0.98 5.1z"/><path d="m213.12 147.6-0.13 4.86 4.58 2.07 6.01-1.79 4.1-3.11 0.15-1.54 0.73-3.93-2.03-4.77-9.85-0.87-2.22 0.58z"/><path d="m308.24 147.31 1.94-0.33 0.23 0.63-0.95 1.72 5.22 4.24 3.29 0.24 1.99-0.73 6.81 0.04 2.19-2.12-0.22-4.83-0.84 0.27 0.16-5.73-0.54-0.62-7.41 0.03-9.77 4.54z"/><path d="m378.63 185.32 3.81 6.12 1.78 1.11 7.75 1.57-1.05-1.58-0.4-2.98 0.95-3.67-1.08-3.32 0.65-1.19 1.39-2.58-2.74-0.47-2.84-0.27-2.74-3.17-0.28-0.88-0.44-1.38-6.48 4.37z"/><path d="m285.14 134.28 2.9 3.49 5.54 3.49-1.85 1.47 5.51 7.64 1.83-1.07 7.46 1.67 1.98-2.7 1.67-1.29-1.94 0.33 2.1-2.65 1.48-2.63-5.29-6.61-2.14-2.99-6.57 1.11-0.53-2.59-5.74-0.53 0.56-2.91-1.05 0.32-0.73 0.71-4.37 3.46-0.48 0.65z"/><path d="m45.71 113.89 3.39-0.15 1.87 2.43-2.73 1.39 0.29 1.91 2.43 0.38 0.98 0.15 0.33 1.9-1.67 2.1 0.68 2.39-1.03 1.87 5.34 0.73 3.15 0.53-0.07-5.1-2.61-9.94-1.54-1.46-0.08-1.4-6.13-0.88-3.1 1.8z"/><path d="m38.22 85.71 2.33-0.12 2.75 2.27 3.1 1.85-0.51 2.06 0.15 1.45 3.2 1.57-0.14 0.52 0.67 1.16 10.19 2.23 2.83-2.98 0.26-1-0.44-2.52-2.06 0.01-2.93-13.75-5.83 3.24-7.52-1.87-4.5-5.92-1.69 1.03 0.26 2.66 2.37 1.33-1.14 1.2-2.82 2.12z"/><path d="m147.01 61.27-0.79 0.41-1.88 18.58 5.45 2.04-0.27 2.03 6.92 0.31 3.07-0.38 0.91 0.35-0.07-7.81 0.79-0.21 1.77-15.69-17.06-2.32z"/><path d="m139.74 89.02-0.61 2.16 2.84 2.85 5.9-1.22 4.99 3.19-0.02-4.14 2.7-1.6 1.55-2.12-0.65-3.5-6.92-0.31 0.27-2.03-5.45-2.04-3.67 3.57-3.25 0.11z"/><path d="m178.48 78.01 3.69-0.02 5.81 5.05-0.16 2.08 3.37-0.02 0.25-2.36 6.59-3.17 2.18-5.89 1.97 0.54 1.07-7.38-6.62-1.1-14.06-2.19-2.35-0.32z"/><path d="m274.24 115.67 8.64 12.13 0.21 3.43 2.87 0.77 4.37-3.46 0.73-0.71 0.59-5.05 2.29-3.22-2.02-2.45-4.9 1.55-9.46-1.17-0.57-2.44-1.85-0.03z"/><path d="m266.29 103.26 6.39 12.14 1.56 0.27 0.9-0.65 1.85 0.03 7.2-11.27 0.98-3.62-3.75-3.21-7.42-2.35-1.35-1.76 0.15 0.7-2.16 0.22 0.75 1.33-6.62 2.39z"/><path d="m91.78 64.47 2.76 0.37 2.76 6.65 3.15 1.61 9.08 1.18-0.02-4.26 1.85-16.81-3.99-0.54-14.14-1.96z"/><path d="m195.36 149.52-0.57 7.66 5.41 0.6 4.66 0.5 4.47 0.48 3.72 0.53-0.27-0.68 0.21-6.15 0.13-4.86-3.02-0.03-3.67-0.32-8.4-0.39-2.98 1.91z"/><path d="m76.09 87.02 2.31-0.87 4.91 6.87-1.11 0.6 9.29 0.9 4.43 0.5 1.25-8.87-0.19-2.13-2.09-5.76-6.96-4.33-10.57-1.19z"/><path d="m221.12 82.74 5.95 0.57 0.74 4.24 6.41 2.78 7.69-4 1.36-4.01 1.62-3.88-4.08-5.67-5.82-0.95-11.5-1.84-1.83 12.17z"/><path d="m171.43 85.42 4.08 6.67 1.56 10.31 1.42-0.34 2.78 1.2 2.25-0.98 0.44-10.73 3-6.43h0.86l0.16-2.08-5.81-5.05-3.69 0.02-3.85 2.19z"/><path d="m152.86 96 3.37 2.8 0.65 8.45 8.32-1.74 1.53-0.71 3.15-0.53 7.19-1.87-1.56-10.31-4.08-6.67-7.75 0.96-3.26-1.77-0.91-0.35-3.07 0.38 0.65 3.5-1.55 2.12-2.7 1.6z"/><path d="m257.35 99.43 1.59 3.51 2.71-0.85 1.82 3.37-1.09 2.76 3.45 0.77-0.52 6.68 2.43 1.33-0.6 3.42 5-1.59 0.54-3.43-6.39-12.14-1.52-5.78-0.88 0.02-2.37-4.09-4.51 4.29z"/><path d="m277.56 117.49 9.46 1.17 4.9-1.55 5.33-2.86 3.77 1.22 3.01-2.9-0.61-1.79-0.57-0.41-1.71-2.86 0.96-1.82-1.12-1.52 1.13-2.72-0.21-0.25-2.59-3-3.51-1.04-2.25 1.16-2.23-2.8 0.04-1.16-1.85 0.41-1.5 0.52-6.59 1.66 3.75 3.21-0.98 3.62-7.2 11.27z"/><path d="m132.3 147.26 12.76 2.11 0.52 0.09 9.6 1.62-0.94-4.44 2.16-5.86-6.22-6.59-0.01-1.79-0.66-0.63-9.37-0.18-3.27-0.1-0.43 1.38z"/><path d="m191.19 85.1 4.84-1.21 6.53 6.28-0.78-1.53 1.25-2.79 0.8-0.41-1.78-5.22 0.13-6-1.97-0.54-2.18 5.89-6.59 3.17z"/><path d="m255.69 148.06 3.28 1.26 3.55 4.79 6.82-6.61 6.39-2.52-0.18-1.26 5.57-4.13-3.96-4.27-6.6-3.03-2.94-3.09-2.54 4.37-4.56 4.5-5.06 2.75z"/><path d="m56.06 114.48 2.61 9.94 0.07 5.1 5.83 0.99 10.85 1.22 5.69 0.75 0.32 0.04 1.08-4.9-5.81-0.81 0.77-10.27 0.08-1.16-8.53-0.95-14.5-1.41z"/><path d="m227.68 149.63 1.3 5.53 6.73 3.05 0.99 0.38 7.25-5.84 0.84-5.58 2.69-5.57-1.16-3.08-3.76-0.24-10.93 3.34-3.07 2.54-0.73 3.93z"/><path d="m123.3 79.75 2.46 4.59-3.42 5.09-0.63 5.2 2.12 5.77 0.18 1.42 5.12-1.32 5.74 2.78 0.08-9.68 4.18-2.42 0.61-2.16-2.32-5.08-11.81-3.36-0.62-1.77z"/><path d="m236.11 160.62-0.87 2.8 7.84 1.2 5.33 0.52 1.36 0.14 6.95 0.76 3.04-3.84-9.67 1.39-4.17-2.02-1.97-8.82-7.25 5.84-0.99-0.38z"/><path d="m271.72 78.54 1.72 10.53-0.79 3.77 1.35 1.76 7.42 2.35 6.59-1.66 1.5-0.52 1.85-0.41 0.45-12.07-8.28-1.57-4.98-0.91-4.68-0.88z"/><path d="m215.68 136.6 1 1.92 9.85 0.87 2.03 4.77 3.07-2.54 10.93-3.34 3.76 0.24 0.9-0.18-1.94-2.53-4.1-0.67 0.28-6.73-2.43 2.49-9.11 1.21-5.41-4.67-5.83 2.06-2.29 3.04z"/><path d="m250.91 102.87 1 4.64 6.72 11.86 4.47 4.23 0.85 0.26 1.83-3.61 1.36 0.17 0.6-3.42-2.43-1.33 0.52-6.68-3.45-0.77 1.09-2.76-1.82-3.37-2.71 0.85-1.59-3.51-3.94 0.38-1.53 1.37z"/><path d="m263.95 123.86 1.98 2.23 1.69 3.11 2.94 3.09 6.6 3.03 3.96 4.27 1.48-2.93 2.88-4.01 0.48-0.65-2.87-0.77-0.21-3.43-8.64-12.13-1.56-0.27-0.54 3.43-5 1.59-1.36-0.17z"/><path d="m154.24 146.64 0.94 4.44 2.36 0.4 10.76 1.86 2.16 0.4 6.79 1.28 2.02-0.31-3.84-13.61-2.67-0.52-2.63-3.52-4.11 1.17-2.98-1.44-3.87 2.53-2.77 1.46z"/><path d="m181.27 103.26 2.57 4.88-1.66 9.62 2.21 7.01 1.27 0.92 12.69-5.68 4.38 0.35 0.83-2.09-1.14-11.92-1.57-1.08 0.48-3.1-4.53 1.06-2.31-2.92-6.82 3.29-4.15-1.32z"/><path d="m256.72 166.04 0.3 0.04 12.13 1.9 10.36 1.74 0.99-3.09-0.47-1.35-2.73-0.64-0.44-2.51 2.57-9.65-1.22-4.05-0.96-2.53-1.52-0.92-6.39 2.52-6.82 6.61 1.59 1.66-4.35 6.43z"/><path d="m232.45 101.94 4.18 1.5 1.41 1.39-0.32-1.51 1.87-2.4 9.02-6.11-0.58-2.07-4.76-10.42-1.36 4.01-7.69 4 2.48 5.29-6.43 5.86z"/><path d="m306.53 135.42 5.29 6.61-1.48 2.63 9.77-4.54 7.41-0.03 2.84-3.4 1.34-5.89-0.26-0.73-0.97-2.74-2.21-0.29-2.77-3.32-1.27-0.72-1.61-2.57-3.96-0.56-2.88-0.49-0.42-0.11-1.18 6.64-2.06 0.77z"/><path d="m25.29 44.1 1.52 0.81 2.99 0.93 0.47 2.3 0.74 2.15 3.17-0.21-0.68 2.47 0.06 2.15-0.48 2.52-3.21 0.98 1.83 1.87 1.17 3.38-1.37 2.42 1.79 0.94 1.17-0.3 0.36-1 7.79 0.62 7.16 1.85 3.3-1.4 1.82-20.86-3.59-0.44-1.58-0.19-1.59-0.19-23.04-2.65z"/><path d="m200.63 139.02 1.94 3.65 4.11 3.46-0.25 1.12 3.67 0.32 3.02 0.03 1.34-8.5 2.22-0.58-1-1.92 0.71-4.06-2.15-2.48-2.21 0.92-6.29-2.79-3.96 9.52z"/><path d="m113.28 146.71 2.57 0.31 7.17 0.3 0.07-1.68 6.91 1.21 2.3 0.41 4.14-14.39-5.39-0.77-4.37-2.84-7.14 0.33-0.49 0.31-3.69 4.12-0.05 3.1 0.12 0.02 0.36 2.92-1.52 4.15z"/><path d="m348.23 175.8 3.31 4.29-0.75 4.11 5.24 1.15 8.32 1.75 2.18 0.46 2.99 0.63 1.22 0.26 9.09 1.98 0.26 1.29 4.13 0.83-1.78-1.11-3.81-6.12-7.67-7.76-4.75-1.25-5.78 1.62-7.51-2.95-3.51-0.26z"/><path d="m175.43 141.1 3.84 13.61 0.5-0.07 1.77 1.09 4.22 0.46 9.03 0.99 0.57-7.66-0.31-0.75-1.48-2.17 0.24-5.83-0.39-1.95-6.87 0.09-2.59-3.62-1.69 2.01-1.22-4.32-2.04 0.23-6.25 7.37z"/><path d="m34.01 73.91 3.57-0.05 0.5 1.08 1.69-1.03 4.5 5.92 7.52 1.87 5.83-3.24 1.64-1.67 0.7-7.85-6.23-1.57-0.66-0.79-3.3 1.4-7.16-1.85-7.79-0.62-0.36 1 0.79 2.41-1.29 2.01z"/><path d="m193.57 146.6 1.48 2.17 2.98-1.91 8.4 0.39 0.25-1.12-4.11-3.46-1.94-3.65-3.43 2.04-2.18-2.75-1.21 2.46z"/><path d="m357.3 153.56-0.56 0.51-0.15 3.29 2.38 3.47 4.48 1.76 2.53 5.58 2.42 0.46 3.82-4.68-1.69-1.84-1.45 0.02-1.93-1.45-2.38-2.3-0.22-0.63-1.37-4.04-1.63-1.72-1.87-1.98-2.51 0.62z"/><path d="m293.71 154.39 0.88 0.99 0.14 5.78 1.46 0.3 0.37 1.87 4.18 1.71 4.03-4.3 2.84 0.53-0.39-9.65-0.69-0.65-7.46-1.67-1.83 1.07-3.11 3.1z"/><path d="m228.22 115.81 0.1 0.65 2.5-0.07 1.07-0.1-0.43 0.77 0.33 0.53 0.87-0.37 0.97 1.07 2.3-0.04 6.87 1.62 0.07-1.58 0.91-1.39-0.11-2.49-5.63-9.58-1.41-1.39-4.18-1.5-2.36 4.32-2.12 7.59z"/><path d="m211.58 108.34 3.87 7.77 0.69 0.49 8.29 0.58 0.91-0.5 2.88-0.87-0.25-1.96 2.12-7.59 2.36-4.32-2.18-0.46-9.16-3.08-2.66 0.64-3.57 2.16-2.33 4.42z"/><path d="m349.41 174.72 3.51 0.26 7.51 2.95 5.78-1.62 0.26-1.37-0.49-6.77-2.53-5.58-4.48-1.76-2.38-3.47-2.8 2.23-2.13 14.87-2.97-1.1z"/><path d="m124.45 77.01 2.18 1.02-1.64 0.78 0.62 1.77 11.81 3.36 3.25-0.11 3.67-3.57 1.88-18.58 0.79-0.41-1.16-2.69-0.84-0.12-10.13-1.37-5.93-0.84-1.9 15.78z"/><path d="m76.7 126.81 5.81 0.81-1.08 4.9 0.46 0.06 13.15 1.77 1.79-19.12 0.17-2-5.44-0.64-1.27-3.2-8.01 3.07-4.81 4.08z"/><path d="m224.43 117.18 2.04 1.25-2.39 6.5 0.43 2.51 5.41 4.67 9.11-1.21 2.43-2.49 1.53-3.42 0.75-6.25-0.87-0.45-0.07 1.58-6.87-1.62-2.3 0.04-0.97-1.07-0.87 0.37-0.33-0.53 0.43-0.77-1.07 0.1-2.5 0.07-0.1-0.65-2.88 0.87z"/><path d="m156.8 112.23-0.26 1 0.46 1-0.2 4.07 4.31 0.33 1.38 0.32 1.07-2.96 4.35 4.21 6.18 0.08 8.09-2.52 1.66-9.62-2.57-4.88-2.78-1.2-1.42 0.34-7.19 1.87-3.15 0.53-1.53 0.71-8.32 1.74z"/><path d="m181.05 132.98 1.22 4.32 1.69-2.01 2.59 3.62 6.87-0.09 0.39 1.95 1.21-2.46 2.18 2.75 3.43-2.04 1.15-1.31 3.96-9.52-0.03-0.89 3.03-5.56-3.42 0.17-2.59-1.55-4.38-0.35-12.69 5.68-2.09 1.57z"/></g></g></g></svg>
