<?xml version="1.0" encoding="UTF-8" standalone="no"?>
<svg
   xmlns:dc="http://purl.org/dc/elements/1.1/"
   xmlns:cc="http://creativecommons.org/ns#"
   xmlns:rdf="http://www.w3.org/1999/02/22-rdf-syntax-ns#"
   xmlns:svg="http://www.w3.org/2000/svg"
   xmlns="http://www.w3.org/2000/svg"
   viewBox="0 0 672 480"
   height="480"
   width="672"
   xml:space="preserve"
   id="svg2"
   version="1.1"><metadata
     id="metadata8"><rdf:RDF><cc:Work
         rdf:about=""><dc:format>image/svg+xml</dc:format><dc:type
           rdf:resource="http://purl.org/dc/dcmitype/StillImage" /></cc:Work></rdf:RDF></metadata><defs
     id="defs6"><clipPath
       id="clipPath40"
       clipPathUnits="userSpaceOnUse"><path
         id="path38"
         d="m 9.45,0 h 485.1 V 360 H 9.45 Z" /></clipPath><clipPath
       id="clipPath50"
       clipPathUnits="userSpaceOnUse"><path
         id="path48"
         d="M 16.17,6.72 H 401.35 V 340.71 H 16.17 Z" /></clipPath></defs><g
     transform="matrix(1.3333333,0,0,-1.3333333,0,480)"
     id="g10"><g
       id="g12" /><g
       id="g14" /><g
       id="g16" /><g
       id="g18" /><g
       id="g20" /><g
       id="g22" /><g
       id="g24" /><g
       id="g26" /><g
       id="g28" /><g
       id="g30" /><g
       id="g32" /><g
       id="g34"><g
         clip-path="url(#clipPath40)"
         id="g36" /></g><g
       id="g42" /><g
       id="g44"><g
         clip-path="url(#clipPath50)"
         id="g46"><path
           id="path52"
           style="fill:#f8766d;fill-opacity:1;fill-rule:nonzero;stroke:#000000;stroke-width:0.85000002;stroke-linecap:butt;stroke-linejoin:round;stroke-miterlimit:10;stroke-dasharray:none;stroke-opacity:1"
           d="m 243.55,109 5.74,-1.18 0.37,-0.57 5.39,-8.3 0.4,-0.21 -1.52,-7.91 -1.81,-8.77 -7.26,1.42 -2.45,3.46 -0.29,3.69 -2.2,0.34 2.15,5.69 1.23,6.1 -0.99,0.21 z" /><path
           id="path54"
           style="fill:#f8766d;fill-opacity:1;fill-rule:nonzero;stroke:#000000;stroke-width:0.85000002;stroke-linecap:butt;stroke-linejoin:round;stroke-miterlimit:10;stroke-dasharray:none;stroke-opacity:1"
           d="m 242.51,147.89 1.21,1.87 -0.24,1.87 0.8,1.72 1.73,1.31 0.02,0.02 0.96,1.12 2.45,4.6 0.23,0.47 8.44,-1.8 0.4,-5.14 3.3,-1.44 1.03,-1.81 -4.03,-6.42 -0.94,-2.83 0.76,-3.02 -1.47,-4 0.06,-3.09 -1.3,0.7 -2.6,-1.88 -2.65,0.54 -2.65,2.27 0.87,4.31 -1.98,2.16 1.24,6.13 -6.44,1.42 z" /><path
           id="path56"
           style="fill:#f8766d;fill-opacity:1;fill-rule:nonzero;stroke:#000000;stroke-width:0.85000002;stroke-linecap:butt;stroke-linejoin:round;stroke-miterlimit:10;stroke-dasharray:none;stroke-opacity:1"
           d="m 333.1,61.74 2.22,2.17 15.71,-2.38 -0.86,-2.46 -2.02,-1.66 0.43,-2.38 -0.88,-2.31 0.57,-2.38 3.6,0.14 0.84,-3.74 0.06,-7.22 -1.35,-5.54 -2.11,1.36 -3.68,0.54 -1.33,2.55 -3.66,-0.41 1.43,4.47 -2.88,2.18 1.78,4.88 -2.55,3.5 0.46,6.29 -0.83,1.97 -5.09,-0.94 z" /><path
           id="path58"
           style="fill:#f8766d;fill-opacity:1;fill-rule:nonzero;stroke:#000000;stroke-width:0.85000002;stroke-linecap:butt;stroke-linejoin:round;stroke-miterlimit:10;stroke-dasharray:none;stroke-opacity:1"
           d="m 358.19,31.25 2.61,4.78 -0.9,2.43 0.57,0.43 -0.22,5.53 6.46,-0.66 2.11,-1.64 1.19,1.64 -0.4,-4.42 1.62,-0.4 3.44,0.98 -0.81,-5.78 -1.6,-12.23 -8.53,1.15 -2.53,0.31 -0.95,0.14 v 0 2.67 l -1.89,1.15 z" /><path
           id="path60"
           style="fill:#f8766d;fill-opacity:1;fill-rule:nonzero;stroke:#000000;stroke-width:0.85000002;stroke-linecap:butt;stroke-linejoin:round;stroke-miterlimit:10;stroke-dasharray:none;stroke-opacity:1"
           d="m 257.02,235.66 9.64,-1.88 1.31,1.3 6,-1.29 -2.87,-13.65 -2.92,1.14 -8.89,1.73 -4.08,4.34 0.21,0.95 0.79,3.64 z" /><path
           id="path62"
           style="fill:#f8766d;fill-opacity:1;fill-rule:nonzero;stroke:#000000;stroke-width:0.85000002;stroke-linecap:butt;stroke-linejoin:round;stroke-miterlimit:10;stroke-dasharray:none;stroke-opacity:1"
           d="m 327.41,68.38 0.98,6.1 1.53,-0.25 1.16,5.74 3.04,-0.5 0.49,3.05 2.99,-0.33 0.5,2.91 1.48,-0.11 3.01,-0.47 -1.08,-7.07 10.56,-1.62 1.44,-0.75 -0.23,-1.53 5.62,-0.85 -0.42,-2.95 5.97,-0.88 -1.33,-9.19 -12.09,1.85 -15.71,2.38 -2.22,-2.17 -2.17,-2.83 -4.89,0.77 z" /><path
           id="path64"
           style="fill:#f8766d;fill-opacity:1;fill-rule:nonzero;stroke:#000000;stroke-width:0.85000002;stroke-linecap:butt;stroke-linejoin:round;stroke-miterlimit:10;stroke-dasharray:none;stroke-opacity:1"
           d="m 282.08,105.27 0.78,0.72 2.8,1.46 1.48,-0.28 -0.41,-2.28 3.31,-0.61 2.45,-3.46 1.71,1.66 3.56,-1.54 1.75,0.16 0.08,-2.04 4.57,-4.29 1.25,1.18 0.99,-2.53 2.15,-2.45 1.46,-3.18 2.54,0.11 1.18,-3.33 -0.78,-4.55 6.91,-1.18 -0.47,-2.89 9,-1.47 -0.98,-6.1 -6,0.98 -1.79,-12.26 1.49,-0.24 -0.48,-3.05 -1.78,-1.51 -1.7,0.4 -1.43,2.36 -2.64,-0.22 1.02,6.31 1.51,-0.26 1.98,12.3 -7.63,1.29 -16.74,2.92 0.28,4.53 -3.48,0.88 0.32,3.62 1.25,1.44 -1.89,2.14 0.4,0.93 -2.21,1.54 1.33,5.09 -0.73,2.91 -3.64,-0.16 -2.95,2.97 z" /><path
           id="path66"
           style="fill:#f8766d;fill-opacity:1;fill-rule:nonzero;stroke:#000000;stroke-width:0.85000002;stroke-linecap:butt;stroke-linejoin:round;stroke-miterlimit:10;stroke-dasharray:none;stroke-opacity:1"
           d="m 251.92,119.77 1.47,-0.29 2.49,-0.64 0.85,3.05 14.43,-2.91 3.11,0.28 1.66,2.81 1.51,-0.53 2.59,-2.05 -0.34,-3.33 3.26,-2.33 -1.11,-3.29 0.61,-4.06 -1.97,0.07 -1.43,1.81 -0.45,3.95 -1.15,0.51 0.64,-1.2 -3.13,-4.23 -5.86,-0.71 -1.58,-3.03 -1.09,0.42 -1.29,-2.29 -2.22,-1.84 -2.67,-0.45 -2.3,-1.26 -2.5,0.51 -0.4,0.21 -5.39,8.3 -0.37,0.57 z" /><path
           id="path68"
           style="fill:#f8766d;fill-opacity:1;fill-rule:nonzero;stroke:#000000;stroke-width:0.85000002;stroke-linecap:butt;stroke-linejoin:round;stroke-miterlimit:10;stroke-dasharray:none;stroke-opacity:1"
           d="m 262.22,259.28 0.61,2.76 2.44,10.32 1.85,8.13 1.49,6.59 5.62,-1.19 -2.65,-12.06 16.83,-3.49 -0.16,-0.72 -1.24,-5.97 -0.68,-3.27 -0.67,-3.17 -0.91,-4.36 0.13,-0.58 -1.53,2.09 -3.55,1.68 -1.4,-1.23 -0.93,-4.43 -4.07,0.85 0.78,3.51 -3.1,0.14 -9.39,2.04 z" /><path
           id="path70"
           style="fill:#f8766d;fill-opacity:1;fill-rule:nonzero;stroke:#000000;stroke-width:0.85000002;stroke-linecap:butt;stroke-linejoin:round;stroke-miterlimit:10;stroke-dasharray:none;stroke-opacity:1"
           d="m 342.59,84.52 22.6,-3.38 1.5,-0.39 4.21,-0.6 3.95,-0.56 0.54,-2.87 3.91,-2.07 -0.85,-6.52 -1.13,-8.57 -0.25,-1.86 -13.95,1.98 1.33,9.19 -5.97,0.88 0.42,2.95 -5.62,0.85 0.23,1.53 -1.44,0.75 -10.56,1.62 z" /><path
           id="path72"
           style="fill:#f8766d;fill-opacity:1;fill-rule:nonzero;stroke:#000000;stroke-width:0.85000002;stroke-linecap:butt;stroke-linejoin:round;stroke-miterlimit:10;stroke-dasharray:none;stroke-opacity:1"
           d="m 269.81,292.38 6.22,-1.33 7.69,-1.63 8.34,-1.71 -3.65,-17.37 -16.83,3.49 2.65,12.06 -5.62,1.19 z" /><path
           id="path74"
           style="fill:#f8766d;fill-opacity:1;fill-rule:nonzero;stroke:#000000;stroke-width:0.85000002;stroke-linecap:butt;stroke-linejoin:round;stroke-miterlimit:10;stroke-dasharray:none;stroke-opacity:1"
           d="m 311.25,89.45 8.6,3.84 1.29,1.53 1.21,-0.92 -1.9,3.1 0.98,6.52 1.04,-0.18 1,6.1 2.39,-0.41 8.13,-1.3 -1.45,-9.18 7.5,-1.22 -1.94,-12.23 -0.5,-2.91 -2.99,0.33 -0.49,-3.05 -3.04,0.5 -1.16,-5.74 -1.53,0.25 -9,1.47 0.47,2.89 -6.91,1.18 0.78,4.55 -1.18,3.33 -2.54,-0.11 z" /><path
           id="path76"
           style="fill:#f8766d;fill-opacity:1;fill-rule:nonzero;stroke:#000000;stroke-width:0.85000002;stroke-linecap:butt;stroke-linejoin:round;stroke-miterlimit:10;stroke-dasharray:none;stroke-opacity:1"
           d="m 277.92,94.84 1.32,0.27 0.61,4.48 2.05,3.7 2.95,-2.97 3.64,0.16 0.73,-2.91 -1.33,-5.09 2.21,-1.54 -0.4,-0.93 1.89,-2.14 -1.25,-1.44 -0.32,-3.62 3.48,-0.88 -0.28,-4.53 -5.57,0.96 -12.43,2.29 z" /><path
           id="path78"
           style="fill:#f8766d;fill-opacity:1;fill-rule:nonzero;stroke:#000000;stroke-width:0.85000002;stroke-linecap:butt;stroke-linejoin:round;stroke-miterlimit:10;stroke-dasharray:none;stroke-opacity:1"
           d="m 230.96,112.26 1.36,1.79 0.45,-1.72 2.2,-2.06 3.6,-0.23 4.98,-1.04 -1.24,-6.03 0.99,-0.21 -1.23,-6.1 -2.15,-5.69 -1.58,0.9 -0.64,2.45 -3.2,4.62 -0.76,4.37 -1.6,0.66 -2.28,3.3 z" /><path
           id="path80"
           style="fill:#f8766d;fill-opacity:1;fill-rule:nonzero;stroke:#000000;stroke-width:0.85000002;stroke-linecap:butt;stroke-linejoin:round;stroke-miterlimit:10;stroke-dasharray:none;stroke-opacity:1"
           d="m 348.15,57.41 2.02,1.66 0.86,2.46 12.09,-1.85 13.95,-1.98 -0.26,-1.93 -1.12,-8.51 -1.02,-7.34 -3.44,-0.98 -1.62,0.4 0.4,4.42 -1.19,-1.64 -2.11,1.64 -6.46,0.66 0.22,-5.53 -0.57,-0.43 -3.4,1.03 -3.73,0.03 -0.06,7.22 -0.84,3.74 -3.6,-0.14 -0.57,2.38 0.88,2.31 z" /><path
           id="path82"
           style="fill:#f8766d;fill-opacity:1;fill-rule:nonzero;stroke:#000000;stroke-width:0.85000002;stroke-linecap:butt;stroke-linejoin:round;stroke-miterlimit:10;stroke-dasharray:none;stroke-opacity:1"
           d="m 290.76,49.6 5.55,-0.99 0.63,3.4 1.78,0.12 1.81,0.01 4.06,0.07 1.81,-1.65 1.25,0.39 3.18,3.81 2.25,0.08 2.64,0.22 1.43,-2.36 1.7,-0.4 1.38,-1.52 4.43,-0.77 -1.36,-9.15 -1.8,-11.55 h -0.02 l -6.44,0.97 -6.43,0.96 -8.34,1.24 -5.76,1.18 -6.2,1.1 z" /><path
           id="path84"
           style="fill:#f8766d;fill-opacity:1;fill-rule:nonzero;stroke:#000000;stroke-width:0.85000002;stroke-linecap:butt;stroke-linejoin:round;stroke-miterlimit:10;stroke-dasharray:none;stroke-opacity:1"
           d="m 333.99,107.73 4.51,-0.86 0.64,6.19 0.14,0.06 0.03,1.25 2.63,1.62 0.7,0.03 2.57,-0.84 3.15,-0.89 1.96,-1.45 1.14,2.73 2.02,1.11 1.48,-1.12 2.32,-0.89 2.31,-0.02 4.21,0.32 1.29,-2.07 2.83,1.33 2.16,-0.43 -0.79,-5.47 -4.35,0.64 -0.43,-2.97 -1.52,0.22 -0.8,-4.52 -1.62,-1.32 -3.01,0.44 -0.47,-3.04 -3.05,0.47 -13.51,2.12 -0.49,-3.04 -7.5,1.22 z" /><path
           id="path86"
           style="fill:#f8766d;fill-opacity:1;fill-rule:nonzero;stroke:#000000;stroke-width:0.85000002;stroke-linecap:butt;stroke-linejoin:round;stroke-miterlimit:10;stroke-dasharray:none;stroke-opacity:1"
           d="m 265.24,207.08 2.99,-0.67 2.23,10.69 16.34,-3.37 15.95,-3.12 0.68,-0.8 -0.69,-1.55 1.12,-2.24 1.93,-1.56 0.28,-1.49 1.62,-0.26 0.48,-0.39 1.06,-0.88 -0.23,-1.94 0.69,-0.33 -0.21,-0.65 -25.75,-0.88 -0.33,-1.22 -2.89,-2.13 -1.76,-3.12 -0.86,0.11 -4.12,2.32 -1.43,2.3 -2.18,0.8 -0.1,1.17 -2.89,0.95 -1.05,2.18 0.24,1.17 -2.03,0.06 z" /><path
           id="path88"
           style="fill:#f8766d;fill-opacity:1;fill-rule:nonzero;stroke:#000000;stroke-width:0.85000002;stroke-linecap:butt;stroke-linejoin:round;stroke-miterlimit:10;stroke-dasharray:none;stroke-opacity:1"
           d="m 279.64,124.16 0.17,3.46 -1.09,0.65 0.85,2.69 3.03,0.75 0.93,2.76 1.73,1.05 3.04,-2.23 4.1,2.39 -0.57,-2.07 1.55,-3.11 1.78,-0.61 1.81,-3.46 3.08,0.74 2.56,3.08 -0.59,1.18 5.37,4.08 0.48,-1.57 -0.91,-3.23 3.04,-0.11 0.96,-3.89 4.1,-6.45 7.38,-3.85 1.44,0.94 1.98,-5.32 v -3 l -2.39,0.41 -1,-6.1 -1.04,0.18 -0.98,-6.52 1.9,-3.1 -1.21,0.92 -1.29,-1.53 -8.6,-3.84 -1.24,-1.66 -1.46,3.18 -2.15,2.45 -0.99,2.53 -1.25,-1.18 -4.57,4.29 -0.08,2.04 -1.75,-0.16 -3.56,1.54 -1.71,-1.66 -2.45,3.46 -3.31,0.61 0.41,2.28 -1.48,0.28 -2.8,-1.46 -0.41,0.49 -0.61,4.06 1.11,3.29 -3.26,2.33 0.34,3.33 -2.59,2.05 z" /><path
           id="path90"
           style="fill:#f8766d;fill-opacity:1;fill-rule:nonzero;stroke:#000000;stroke-width:0.85000002;stroke-linecap:butt;stroke-linejoin:round;stroke-miterlimit:10;stroke-dasharray:none;stroke-opacity:1"
           d="m 244.86,83.48 7.26,-1.42 1.81,8.77 1.52,7.91 2.5,-0.51 2.3,1.26 2.67,0.45 2.22,1.84 1.29,2.29 1.09,-0.42 1.58,3.03 5.86,0.71 3.13,4.23 -0.64,1.2 1.15,-0.51 0.45,-3.95 1.43,-1.81 1.97,-0.07 0.41,-0.49 -0.78,-0.72 -0.18,-1.98 -2.05,-3.7 -0.61,-4.48 -1.32,-0.27 -2.7,-14.19 -1.83,-9.92 1.23,-0.32 -0.91,-5.02 -10.6,1.99 1.39,5.65 -4.44,1.75 -3.88,0.14 -0.28,1.28 -3.45,1.74 -1.13,-1.88 -4.1,3.36 -1.17,1.52 0.49,1.12 z" /><path
           id="path92"
           style="fill:#f8766d;fill-opacity:1;fill-rule:nonzero;stroke:#000000;stroke-width:0.85000002;stroke-linecap:butt;stroke-linejoin:round;stroke-miterlimit:10;stroke-dasharray:none;stroke-opacity:1"
           d="m 345.63,35.88 3.68,-0.54 2.11,-1.36 1.35,5.54 3.73,-0.03 3.4,-1.03 0.9,-2.43 -2.61,-4.78 0.17,-3.92 1.89,-1.15 v -2.67 l -6.32,0.89 -9.33,1.31 0.88,6.05 1.34,2.25 z" /><path
           id="path94"
           style="fill:#f8766d;fill-opacity:1;fill-rule:nonzero;stroke:#000000;stroke-width:0.85000002;stroke-linecap:butt;stroke-linejoin:round;stroke-miterlimit:10;stroke-dasharray:none;stroke-opacity:1"
           d="m 354.04,98.25 3.05,-0.47 0.47,3.04 3.01,-0.44 1.62,1.32 0.8,4.52 1.52,-0.22 0.43,2.97 4.35,-0.64 0.79,5.47 1.34,-0.26 1.23,0.82 1.73,3.21 0.38,0.53 0.57,0.81 1.51,1.02 0.18,-0.16 1.19,-1.13 1.09,-2.17 0.89,-1.73 0.34,-1.76 1.25,-1.6 0.32,-1.55 1.74,-0.95 -0.48,-3.48 -1.22,-9.15 -0.6,-4.63 -3.77,-1.32 -5.37,0.43 -2.55,0.58 -1.68,-1.4 -6.95,1.54 -3.36,1.55 0.22,1.53 -4.5,0.68 z" /><path
           id="path96"
           style="fill:#f8766d;fill-opacity:1;fill-rule:nonzero;stroke:#000000;stroke-width:0.85000002;stroke-linecap:butt;stroke-linejoin:round;stroke-miterlimit:10;stroke-dasharray:none;stroke-opacity:1"
           d="m 239.82,116.11 3.48,-0.76 1.6,2.77 1.97,-0.43 0.62,3 2.32,-0.49 1.48,5.91 2.03,4.03 2.6,1.88 1.3,-0.7 -1.1,-6.11 -1.5,0.3 -1.23,-6.03 -1.47,0.29 -2.63,-11.95 -5.74,1.18 -4.98,1.04 z" /><path
           id="path98"
           style="fill:#f8766d;fill-opacity:1;fill-rule:nonzero;stroke:#000000;stroke-width:0.85000002;stroke-linecap:butt;stroke-linejoin:round;stroke-miterlimit:10;stroke-dasharray:none;stroke-opacity:1"
           d="m 275.22,80.65 12.43,-2.29 -2.14,-12.17 -0.66,-0.28 -1.15,-6.67 -4.9,1.44 -0.6,3.4 -1.85,0.76 1.39,3.08 -1.14,2.23 -1.98,0.26 -1.23,0.32 z" /><path
           id="path100"
           style="fill:#f8766d;fill-opacity:1;fill-rule:nonzero;stroke:#000000;stroke-width:0.85000002;stroke-linecap:butt;stroke-linejoin:round;stroke-miterlimit:10;stroke-dasharray:none;stroke-opacity:1"
           d="m 251.33,181.7 1.31,0.39 0.38,2.57 1.72,1.61 1.53,0.92 2.62,-1.64 1.33,4.49 2.05,1.94 5.9,-2.73 1.75,1.82 2.96,-0.23 -2.21,3.1 -0.51,2.76 2.18,-0.8 1.43,-2.3 4.12,-2.32 0.86,-0.11 1.76,3.12 2.89,2.13 0.33,1.22 25.75,0.88 0.21,0.65 0.99,-0.47 2.27,-0.25 2.33,0.3 0.51,-0.6 0.31,-0.35 -0.7,-2.37 -0.93,-2.35 -1.29,-0.11 -0.12,-3.12 -1.06,-0.7 -0.71,-2.63 -0.46,-1.25 -0.44,-1.24 -0.31,-2.23 -1.69,0.09 -0.44,-1.46 1.3,-1.25 -0.92,-2.25 0.68,-1.64 0.77,-1.11 -0.59,-1.7 0.42,-1.13 -1.01,-0.79 -2.4,-0.27 -1.46,-1.76 1.03,-2.27 -0.21,-1.88 -1,-0.49 -0.33,-1.52 0.21,-0.81 -4.13,-3.38 -2.93,1.89 -0.45,-2.52 3.71,-5.76 -2.83,-3.05 -31.28,5.98 0.14,0.84 -3.95,-1.4 -0.91,-1.67 -3.3,1.44 -0.4,5.14 -8.44,1.8 0.73,1.5 3.03,4.04 2.96,3.88 1.3,1.51 -1.08,2.62 0.2,1.88 -1.06,1.83 -1.71,0.49 -1.38,1.9 -1.13,0.75 z" /><path
           id="path102"
           style="fill:#f8766d;fill-opacity:1;fill-rule:nonzero;stroke:#000000;stroke-width:0.85000002;stroke-linecap:butt;stroke-linejoin:round;stroke-miterlimit:10;stroke-dasharray:none;stroke-opacity:1"
           d="m 340.04,97.33 0.49,3.04 13.51,-2.12 -0.46,-3.04 4.5,-0.68 -0.22,-1.53 -1.06,-6.08 1.3,0.25 4.92,-4.7 2.17,-1.33 -22.6,3.38 -3.01,0.47 -1.48,0.11 z" /><path
           id="path104"
           style="fill:#f8766d;fill-opacity:1;fill-rule:nonzero;stroke:#000000;stroke-width:0.85000002;stroke-linecap:butt;stroke-linejoin:round;stroke-miterlimit:10;stroke-dasharray:none;stroke-opacity:1"
           d="m 284.85,65.91 0.66,0.28 5.83,-1.05 0.25,-1.55 7.53,-1.35 -0.26,-1.52 3.02,-0.53 -1.35,-8.05 -1.81,-0.01 -1.14,0.29 -2.38,-0.81 -2.55,2.77 -5.4,2.43 -3.55,2.43 z" /><path
           id="path106"
           style="fill:#f8766d;fill-opacity:1;fill-rule:nonzero;stroke:#000000;stroke-width:0.85000002;stroke-linecap:butt;stroke-linejoin:round;stroke-miterlimit:10;stroke-dasharray:none;stroke-opacity:1"
           d="m 261.69,256.92 9.39,-2.04 3.1,-0.14 -0.78,-3.51 4.07,-0.85 -3.5,-16.59 -6,1.29 -1.31,-1.3 -9.64,1.88 2.8,12.84 z" /><path
           id="path108"
           style="fill:#f8766d;fill-opacity:1;fill-rule:nonzero;stroke:#000000;stroke-width:0.85000002;stroke-linecap:butt;stroke-linejoin:round;stroke-miterlimit:10;stroke-dasharray:none;stroke-opacity:1"
           d="m 255.21,227.35 4.08,-4.34 8.89,-1.73 2.92,-1.14 -0.64,-3.04 -2.23,-10.69 -2.99,0.67 -3.67,0.85 -3.2,-2.54 -7.6,1.59 z" /><path
           id="path110"
           style="fill:#f8766d;fill-opacity:1;fill-rule:nonzero;stroke:#000000;stroke-width:0.85000002;stroke-linecap:butt;stroke-linejoin:round;stroke-miterlimit:10;stroke-dasharray:none;stroke-opacity:1"
           d="m 292.4,135.68 2.73,2.49 1.45,9.14 1.23,1.43 2.83,3.05 -3.71,5.76 0.45,2.52 2.93,-1.89 4.13,3.38 0.26,-0.99 1.1,-0.76 1.83,-2.18 2.09,-0.81 1.03,1.88 1.64,-0.02 2.87,1.6 1.97,1.46 0.24,1.48 1.1,-0.03 0.45,-0.73 0.97,-1.56 0.78,-0.88 1.2,-0.98 -0.38,-2.78 0.78,-1.67 -0.4,-1.84 0.5,-1.63 -0.44,-2.08 1.55,-3.53 1.22,-4.04 1.4,-1.27 1.21,-1.66 0.04,-1.9 -0.59,-1.82 -0.88,-1.39 0.89,-2.61 1.07,-0.46 1.66,-1.57 1.48,0.62 2.53,-2.51 0.42,-2.1 0.84,-2.98 -0.59,-1.78 1.02,-2.29 -0.27,-1.64 1.08,-2.15 1.52,-1.56 1.51,0.66 -0.64,-6.19 -4.51,0.86 -8.13,1.3 v 3 l -1.98,5.32 -1.44,-0.94 -7.38,3.85 -4.1,6.45 -0.96,3.89 -3.04,0.11 0.91,3.23 -0.48,1.57 -5.37,-4.08 0.59,-1.18 -2.56,-3.08 -3.08,-0.74 -1.81,3.46 -1.78,0.61 -1.55,3.11 z" /><path
           id="path112"
           style="fill:#f8766d;fill-opacity:1;fill-rule:nonzero;stroke:#000000;stroke-width:0.85000002;stroke-linecap:butt;stroke-linejoin:round;stroke-miterlimit:10;stroke-dasharray:none;stroke-opacity:1"
           d="m 256.89,197.79 8.34,-1.11 0.89,4.32 1.05,-2.18 2.89,-0.95 0.1,-1.17 0.51,-2.76 2.21,-3.1 -2.96,0.23 -1.75,-1.82 -5.9,2.73 -2.05,-1.94 -1.33,-4.49 -2.62,1.64 -1.53,-0.92 z" /><path
           id="path114"
           style="fill:#f8766d;fill-opacity:1;fill-rule:nonzero;stroke:#000000;stroke-width:0.85000002;stroke-linecap:butt;stroke-linejoin:round;stroke-miterlimit:10;stroke-dasharray:none;stroke-opacity:1"
           d="m 287.65,78.36 5.57,-0.96 16.74,-2.92 -2.03,-12.27 -1.76,-2.77 -4.29,0.75 -3.02,0.53 0.26,1.52 -7.53,1.35 -0.25,1.55 -5.83,1.05 z" /><path
           id="path116"
           style="fill:#f8766d;fill-opacity:1;fill-rule:nonzero;stroke:#000000;stroke-width:0.85000002;stroke-linecap:butt;stroke-linejoin:round;stroke-miterlimit:10;stroke-dasharray:none;stroke-opacity:1"
           d="m 357.86,93 3.36,-1.55 6.95,-1.54 1.68,1.4 2.55,-0.58 -1.5,-10.58 -4.21,0.6 -1.5,0.39 -2.17,1.33 -4.92,4.7 -1.3,-0.25 z" /><path
           id="path118"
           style="fill:#f8766d;fill-opacity:1;fill-rule:nonzero;stroke:#000000;stroke-width:0.85000002;stroke-linecap:butt;stroke-linejoin:round;stroke-miterlimit:10;stroke-dasharray:none;stroke-opacity:1"
           d="m 301.88,60.19 4.29,-0.75 1.76,2.77 2.03,12.27 7.63,-1.29 -1.98,-12.3 -1.51,0.26 -1.02,-6.31 -2.25,-0.08 -3.18,-3.81 -1.25,-0.39 -1.81,1.65 -4.06,-0.07 z" /><path
           id="path120"
           style="fill:#f8766d;fill-opacity:1;fill-rule:nonzero;stroke:#000000;stroke-width:0.85000002;stroke-linecap:butt;stroke-linejoin:round;stroke-miterlimit:10;stroke-dasharray:none;stroke-opacity:1"
           d="m 249.87,202.37 0.1,0.57 0.27,1.61 0.53,2.43 7.6,-1.59 3.2,2.54 3.67,-0.85 -0.91,-4.85 2.03,-0.06 -0.24,-1.17 -0.89,-4.32 -8.34,1.11 -2.15,-11.52 -1.72,-1.61 -0.38,-2.57 -1.31,-0.39 -1.03,2.27 -0.27,1.93 -0.42,1.43 -0.15,2.42 -0.76,1.03 1.54,1.77 0.49,0.93 -0.72,1.2 0.37,1.87 -0.4,1.91 -1.18,2.09 z" /><path
           id="path122"
           style="fill:#f8766d;fill-opacity:1;fill-rule:nonzero;stroke:#000000;stroke-width:0.85000002;stroke-linecap:butt;stroke-linejoin:round;stroke-miterlimit:10;stroke-dasharray:none;stroke-opacity:1"
           d="m 323.3,40.86 8.93,-1.37 0.47,3.07 4.02,-0.63 0.45,3.05 2.02,-0.31 2.88,-2.18 -1.43,-4.47 3.66,0.41 1.33,-2.55 1.19,-1.87 -1.34,-2.25 -0.88,-6.05 v 0 l -1.28,0.23 -2.74,0.49 -9.94,1.51 -9.14,1.37 z" /><path
           id="path124"
           style="fill:#f8766d;fill-opacity:1;fill-rule:nonzero;stroke:#000000;stroke-width:0.85000002;stroke-linecap:butt;stroke-linejoin:round;stroke-miterlimit:10;stroke-dasharray:none;stroke-opacity:1"
           d="m 229.21,104.34 0.65,2.93 2.28,-3.3 1.6,-0.66 0.76,-4.37 3.2,-4.62 0.64,-2.45 1.58,-0.9 2.2,-0.34 0.29,-3.69 2.45,-3.46 1.68,-1.42 -0.49,-1.12 1.17,-1.52 4.1,-3.36 1.13,1.88 3.45,-1.74 0.28,-1.28 3.88,-0.14 4.44,-1.75 -1.39,-5.65 10.6,-1.99 -4.89,-26.93 -7.12,1.25 -8.02,1.59 -6.29,1.21 -11.89,2.4 -7.52,1.55 -10.04,2.19 -0.2,0.05 2.69,13.2 3.09,14.95 1.56,7.59 z" /><path
           id="path126"
           style="fill:#f8766d;fill-opacity:1;fill-rule:nonzero;stroke:#000000;stroke-width:0.85000002;stroke-linecap:butt;stroke-linejoin:round;stroke-miterlimit:10;stroke-dasharray:none;stroke-opacity:1"
           d="m 232.66,114.5 1.04,2.96 0.9,1.5 -0.59,2.16 2.46,1.93 11.02,-2.36 -0.62,-3 -1.97,0.43 -1.6,-2.77 -3.48,0.76 -1.25,-6.07 -3.6,0.23 -2.2,2.06 -0.45,1.72 z" /><path
           id="path128"
           style="fill:#f8766d;fill-opacity:1;fill-rule:nonzero;stroke:#000000;stroke-width:0.85000002;stroke-linecap:butt;stroke-linejoin:round;stroke-miterlimit:10;stroke-dasharray:none;stroke-opacity:1"
           d="m 321.41,69.36 6,-0.98 -1.37,-8.7 4.89,-0.77 2.17,2.83 -0.14,-1.37 5.09,0.94 0.83,-1.97 -0.46,-6.29 2.55,-3.5 -1.78,-4.88 -2.02,0.31 -0.45,-3.05 -4.02,0.63 -0.47,-3.07 -8.93,1.37 1.36,9.15 -4.43,0.77 -1.38,1.52 1.78,1.51 0.48,3.05 -1.49,0.24 z" /><path
           id="path130"
           style="fill:#f8766d;fill-opacity:1;fill-rule:nonzero;stroke:#000000;stroke-width:0.85000002;stroke-linecap:butt;stroke-linejoin:round;stroke-miterlimit:10;stroke-dasharray:none;stroke-opacity:1"
           d="m 278.4,254.81 1.4,1.23 3.55,-1.68 1.53,-2.09 0.1,-0.43 1.1,-2.95 0.97,-2.2 1.08,-1.24 -0.15,-1.93 2.14,-2.76 -0.59,-1.41 0.76,-1.28 -0.96,-1.52 -0.22,-1.54 1.57,-2.16 -1.54,-0.59 -0.68,-1.29 2.73,-2.38 0.72,-2.07 1.23,-1.3 2.19,-1.14 0.99,-0.53 0.5,-1.77 0.62,-1.39 1.26,-1.83 1.14,-2.74 0.91,-1.6 0.6,-1.94 1.4,-1.67 -15.95,3.12 -16.34,3.37 0.64,3.04 2.87,13.65 3.5,16.59 z" /><path
           id="path132"
           style="fill:#f8766d;fill-opacity:1;fill-rule:nonzero;stroke:#000000;stroke-width:0.85000002;stroke-linecap:butt;stroke-linejoin:round;stroke-miterlimit:10;stroke-dasharray:none;stroke-opacity:1"
           d="m 372.4,90.73 5.37,-0.43 3.77,1.32 -0.33,-2.64 -1.04,-7.76 -0.87,-6.57 -3.91,2.07 -0.54,2.87 -3.95,0.56 z" /><path
           id="path134"
           style="fill:#f8766d;fill-opacity:1;fill-rule:nonzero;stroke:#000000;stroke-width:0.85000002;stroke-linecap:butt;stroke-linejoin:round;stroke-miterlimit:10;stroke-dasharray:none;stroke-opacity:1"
           d="m 273.71,65.39 0.91,5.02 1.98,-0.26 1.14,-2.23 -1.39,-3.08 1.85,-0.76 0.6,-3.4 4.9,-1.44 3.55,-2.43 5.4,-2.43 2.55,-2.77 2.38,0.81 1.14,-0.29 -1.78,-0.12 -0.63,-3.4 -5.55,0.99 -2.45,-14.84 v 0 l -8.17,1.47 -7.73,1.61 -3.59,0.62 z" /><path
           id="path136"
           style="fill:#f8766d;fill-opacity:1;fill-rule:nonzero;stroke:#000000;stroke-width:0.85000002;stroke-linecap:butt;stroke-linejoin:round;stroke-miterlimit:10;stroke-dasharray:none;stroke-opacity:1"
           d="m 254.62,125.51 1.5,-0.3 1.1,6.11 -0.06,3.09 1.47,4 -0.76,3.02 0.94,2.83 4.03,6.42 -1.03,1.81 0.91,1.67 3.95,1.4 -0.14,-0.84 31.28,-5.98 -1.23,-1.43 -1.45,-9.14 -2.73,-2.49 -4.1,-2.39 -3.04,2.23 -1.73,-1.05 -0.93,-2.76 -3.03,-0.75 -0.85,-2.69 1.09,-0.65 -0.17,-3.46 -2.2,-2.62 -1.51,0.53 -1.66,-2.81 -3.11,-0.28 -14.43,2.91 -0.85,-3.05 -2.49,0.64 z" /><path
           id="path138"
           style="fill:#f8766d;fill-opacity:1;fill-rule:nonzero;stroke:#000000;stroke-width:0.85000002;stroke-linecap:butt;stroke-linejoin:round;stroke-miterlimit:10;stroke-dasharray:none;stroke-opacity:1"
           d="m 229.71,133.18 0.96,1.11 0.12,1.88 1.77,1.22 0.85,1.05 1.88,3.04 1.35,2.45 1.41,0.78 2.23,0.62 1.43,1.64 6.44,-1.42 -1.24,-6.13 1.98,-2.16 -0.87,-4.31 2.65,-2.27 2.65,-0.54 -2.03,-4.03 -1.48,-5.91 -2.32,0.49 -11.02,2.36 0.06,0.05 0.01,0.91 -1.44,0.84 0.15,1.48 -2.15,0.52 -1.22,1.73 -1.36,-0.39 -0.93,1.28 0.18,0.25 0.73,1.02 -0.37,1.23 z" /><path
           id="path140"
           style="fill:#00bfc4;fill-opacity:1;fill-rule:nonzero;stroke:#000000;stroke-width:0.85000002;stroke-linecap:butt;stroke-linejoin:round;stroke-miterlimit:10;stroke-dasharray:none;stroke-opacity:1"
           d="m 200.91,151.2 3.7,0.54 2.36,-0.31 0.64,3.95 1.66,-0.3 0.34,3.33 3.46,2.37 3.52,-2.61 3.54,1.49 1.08,-2.67 5.2,-1.13 0.67,3.01 7.23,-1.56 11.72,-2.63 -0.02,-0.02 -1.73,-1.31 -0.8,-1.72 0.24,-1.87 -1.21,-1.87 -0.8,-0.92 -1.43,-1.64 -2.23,-0.62 -1.41,-0.78 -1.35,-2.45 -1.88,-3.04 -0.85,-1.05 -1.77,-1.22 -0.12,-1.88 -0.96,-1.11 0.42,-1.21 0.37,-1.23 -0.73,-1.02 -6.74,1.62 0.66,3.03 -2.12,2.56 -9.35,2.07 -5.55,-4 -2.3,-1.06 -6.52,1.48 3.74,6.35 3.6,4.15 -1.23,2.38 -3,1.4 z" /><path
           id="path142"
           style="fill:#00bfc4;fill-opacity:1;fill-rule:nonzero;stroke:#000000;stroke-width:0.85000002;stroke-linecap:butt;stroke-linejoin:round;stroke-miterlimit:10;stroke-dasharray:none;stroke-opacity:1"
           d="m 69.3,172.4 2.88,0.8 0.63,2.53 2.93,-0.9 2.82,9.91 7.15,-2.21 3.66,-1.08 1.1,-2.94 -2.49,0.14 -2.92,-2.08 0.61,-1.95 -2.5,-5.81 1.08,-2.13 -9.99,2.75 -4.31,1.58 z" /><path
           id="path144"
           style="fill:#00bfc4;fill-opacity:1;fill-rule:nonzero;stroke:#000000;stroke-width:0.85000002;stroke-linecap:butt;stroke-linejoin:round;stroke-miterlimit:10;stroke-dasharray:none;stroke-opacity:1"
           d="m 102.01,199.96 0.59,0.13 0.21,0.71 2.29,-1.2 1,3.48 0.91,-0.28 1.29,0.55 3.5,-0.89 15.64,-4.52 0.8,-0.17 2.06,-3.84 -1.07,-4 0.27,-0.41 -1.92,-2.36 1.23,-2.89 -0.48,-1.19 -3.99,-0.87 0.48,-4.85 -15.95,4.53 -2.73,2.7 -0.61,3.25 -2.22,2.11 -1.25,2.97 2.43,4.15 -2.63,0.79 z" /><path
           id="path146"
           style="fill:#00bfc4;fill-opacity:1;fill-rule:nonzero;stroke:#000000;stroke-width:0.85000002;stroke-linecap:butt;stroke-linejoin:round;stroke-miterlimit:10;stroke-dasharray:none;stroke-opacity:1"
           d="m 85,239.46 1.39,-2.53 1.84,-0.1 2.1,0.13 0.67,-1.1 1.61,0.52 1.86,-0.1 1.21,0.76 1.68,-0.14 0.79,-1.73 -0.56,-1.6 1.01,-1.64 0.18,-0.05 -3.71,-12.58 -8.45,2.33 -5.64,2.13 0.67,1.81 0.6,2.47 -0.2,1.51 1.64,0.65 0.87,2.15 0.35,3.62 -1.3,2.51 z" /><path
           id="path148"
           style="fill:#00bfc4;fill-opacity:1;fill-rule:nonzero;stroke:#000000;stroke-width:0.85000002;stroke-linecap:butt;stroke-linejoin:round;stroke-miterlimit:10;stroke-dasharray:none;stroke-opacity:1"
           d="m 98.78,231.88 1.93,-0.64 1.84,0.42 1.25,0.29 1.14,-0.48 2.08,-2.54 0.67,-1.28 1.15,-1.13 0.43,-2.71 0.44,-2.13 -0.42,-1.67 0.17,-1.73 -0.24,-0.55 -0.59,-1.36 0.3,-1.98 -0.43,-1.01 -0.5,-0.14 -3.39,1.02 -1.8,2.69 -7.74,2.35 z" /><path
           id="path150"
           style="fill:#00bfc4;fill-opacity:1;fill-rule:nonzero;stroke:#000000;stroke-width:0.85000002;stroke-linecap:butt;stroke-linejoin:round;stroke-miterlimit:10;stroke-dasharray:none;stroke-opacity:1"
           d="m 41.5,134.43 1.52,2.84 1.04,2.08 0.8,1.48 -0.1,1.23 1.56,1.03 2.58,2.7 2.55,3.74 0.9,1.73 8.3,-2.66 -0.94,-3.17 1.44,-0.43 -0.88,-2.91 1.27,-0.73 -1.73,-5.61 1.46,-0.46 -1.65,-5.87 -1.49,0.3 -0.88,-2.97 -1.46,0.44 -1.85,-7.19 -2.96,0.37 -2.63,-2.52 -3.56,0.39 0.08,2.72 1.58,3.65 -1.07,3.45 -0.73,1.02 -5.43,1.68 z" /><path
           id="path152"
           style="fill:#00bfc4;fill-opacity:1;fill-rule:nonzero;stroke:#000000;stroke-width:0.85000002;stroke-linecap:butt;stroke-linejoin:round;stroke-miterlimit:10;stroke-dasharray:none;stroke-opacity:1"
           d="m 135.33,156.14 2.89,-0.78 0.77,2.98 3.92,-1.05 0.76,2.98 10.69,-2.76 -1.11,-4.43 8.88,-2.19 -0.4,-1.7 2.95,-0.76 -0.7,-2.87 5.94,-1.48 -2.98,-12.05 -2.9,0.73 -2.27,-9.03 -2.95,0.75 -8.87,2.28 0.73,3 -2.94,0.76 0.75,3.02 -9.06,2.33 0.75,2.97 -5.79,1.67 1.54,5.99 -2.77,0.9 z" /><path
           id="path154"
           style="fill:#00bfc4;fill-opacity:1;fill-rule:nonzero;stroke:#000000;stroke-width:0.85000002;stroke-linecap:butt;stroke-linejoin:round;stroke-miterlimit:10;stroke-dasharray:none;stroke-opacity:1"
           d="m 36.27,127.42 2.89,3.25 0.06,0.09 5.43,-1.68 0.73,-1.02 1.07,-3.45 -1.58,-3.65 -0.08,-2.72 3.56,-0.39 2.63,2.52 2.96,-0.37 0.8,0.15 1.49,-1.03 -4.35,-4.35 -2.79,-4.07 -2.95,0.75 -1.93,-3.47 3.44,-2.41 1.25,-4.64 -2.67,-3.02 0.43,-1.91 -0.91,-3.16 -4.46,1.39 -5.22,1.69 -0.99,2.07 -0.86,1.11 -0.29,2.41 0.28,1.82 -0.09,1.77 -0.44,1.01 0.59,1.95 0.09,1.64 0.67,3.1 1.91,3.14 0.54,1.99 0.32,2.16 -0.74,0.9 0.2,0.47 -1.05,2.01 z" /><path
           id="path156"
           style="fill:#00bfc4;fill-opacity:1;fill-rule:nonzero;stroke:#000000;stroke-width:0.85000002;stroke-linecap:butt;stroke-linejoin:round;stroke-miterlimit:10;stroke-dasharray:none;stroke-opacity:1"
           d="m 107.4,135.55 -0.2,1.34 1.55,3.35 0.57,3.33 1.62,1.45 1.45,-0.31 0.81,1.76 3.42,4.12 0.88,4.09 -0.15,1.5 -0.76,1.23 0.96,3.7 17.78,-4.97 -2.17,-8.74 2.77,-0.9 -1.54,-5.99 5.79,-1.67 -0.75,-2.97 9.06,-2.33 -0.75,-3.02 2.94,-0.76 -0.73,-3 8.87,-2.28 -0.72,-3.02 -11.2,2.88 -0.63,0.32 -23.48,6.25 -16.41,4.5 z" /><path
           id="path158"
           style="fill:#00bfc4;fill-opacity:1;fill-rule:nonzero;stroke:#000000;stroke-width:0.85000002;stroke-linecap:butt;stroke-linejoin:round;stroke-miterlimit:10;stroke-dasharray:none;stroke-opacity:1"
           d="m 53.95,154.33 2.43,5.15 5.16,-1.64 3.72,1.93 2.97,-0.93 1.81,-1.42 1.25,-3.78 1.23,-1.12 2.95,-0.92 -0.29,-0.99 5.11,-1.55 -1.71,-5.97 0.07,-2.48 8.97,-2.46 -1.03,-3.69 14.96,-4.19 2.09,-4.14 0.12,-3.11 -2.06,-1.19 -2.63,-4.37 -4.74,1.02 -0.67,-2.45 -2.92,0.84 -2,-1.54 -2.62,0.19 -3.3,-0.67 -3.9,-2.7 -3.9,1.01 -1.67,-0.35 -3.48,1.17 -2.43,-1.27 -0.82,1.34 -4.51,0.27 -3,2.28 -3.33,1 0.45,1.52 -1.49,1.03 -0.8,-0.15 1.85,7.19 1.46,-0.44 0.88,2.97 1.49,-0.3 1.65,5.87 -1.46,0.46 1.73,5.61 -1.27,0.73 0.88,2.91 -1.44,0.43 0.94,3.17 -8.3,2.66 z" /><path
           id="path160"
           style="fill:#00bfc4;fill-opacity:1;fill-rule:nonzero;stroke:#000000;stroke-width:0.85000002;stroke-linecap:butt;stroke-linejoin:round;stroke-miterlimit:10;stroke-dasharray:none;stroke-opacity:1"
           d="m 158.51,187.45 1.23,1.89 3.41,0.29 0.49,1.24 -1.62,6.53 2.01,-0.55 3.08,0.01 1.74,-0.28 2.07,1.21 1.79,-0.02 1.91,0.48 -5.01,-19.11 2.97,-0.79 -0.8,-3.03 2.98,-0.75 -0.78,-3.04 -0.84,-0.28 -16.93,4.37 -0.07,0.58 1.79,1.82 -1.47,3.03 z" /><path
           id="path162"
           style="fill:#00bfc4;fill-opacity:1;fill-rule:nonzero;stroke:#000000;stroke-width:0.85000002;stroke-linecap:butt;stroke-linejoin:round;stroke-miterlimit:10;stroke-dasharray:none;stroke-opacity:1"
           d="m 175.38,168.01 0.68,-0.19 11.62,-2.81 15.58,-3.75 1.74,-1.63 1.97,0.58 2.64,-1.8 -0.34,-3.33 -1.66,0.3 -0.64,-3.95 -2.36,0.31 -3.7,-0.54 0.05,-1.5 3,-1.4 1.23,-2.38 -3.6,-4.15 -3.74,-6.35 6.52,-1.48 -0.26,-1.53 -1.33,-6.01 -8.85,2.07 -5.6,1.6 -0.7,-3.02 -20.69,4.98 2.98,12.05 4.47,17.86 z" /><path
           id="path164"
           style="fill:#00bfc4;fill-opacity:1;fill-rule:nonzero;stroke:#000000;stroke-width:0.85000002;stroke-linecap:butt;stroke-linejoin:round;stroke-miterlimit:10;stroke-dasharray:none;stroke-opacity:1"
           d="m 151.35,97.63 2.19,9.08 0.89,-0.22 3.67,14.97 0.72,3.02 2.95,-0.75 2.27,9.03 2.9,-0.73 20.69,-4.98 0.7,3.02 5.6,-1.6 8.85,-2.07 -2.21,-9.33 -6.27,-29.85 -4.85,-22.23 0.43,-0.42 -2.11,-9.38 -7.76,1.72 -7.03,1.55 -5.72,1.39 -5.28,1.25 -2.94,0.73 -0.91,0.23 6.01,26.23 -14.53,3.51 z" /><path
           id="path166"
           style="fill:#00bfc4;fill-opacity:1;fill-rule:nonzero;stroke:#000000;stroke-width:0.85000002;stroke-linecap:butt;stroke-linejoin:round;stroke-miterlimit:10;stroke-dasharray:none;stroke-opacity:1"
           d="m 127.62,205.1 0.62,0.11 1.09,0.85 1.45,0.09 1.68,-0.94 1.68,-0.06 3.4,-0.15 0.19,-0.15 1.73,-1.4 -1.68,-6.19 -3.43,-8.74 -5.12,1.41 1.07,4 -2.06,3.84 -1.49,2.63 z" /><path
           id="path168"
           style="fill:#00bfc4;fill-opacity:1;fill-rule:nonzero;stroke:#000000;stroke-width:0.85000002;stroke-linecap:butt;stroke-linejoin:round;stroke-miterlimit:10;stroke-dasharray:none;stroke-opacity:1"
           d="m 63.41,98.56 2.01,7.04 2.02,7.11 2.43,1.27 3.48,-1.17 1.67,0.35 3.9,-1.01 3.9,2.7 3.3,0.67 2.62,-0.19 2,1.54 2.92,-0.84 -4.95,-17.97 -0.4,-1.16 -4.09,-14.9 -5.3,1.54 -7.53,2 -6.15,1.76 -2.46,0.95 -2.17,0.48 z" /><path
           id="path170"
           style="fill:#00bfc4;fill-opacity:1;fill-rule:nonzero;stroke:#000000;stroke-width:0.85000002;stroke-linecap:butt;stroke-linejoin:round;stroke-miterlimit:10;stroke-dasharray:none;stroke-opacity:1"
           d="m 118.39,164.52 2.25,3.19 0.69,3.12 1.71,2.44 -1.08,1.74 1.88,0.56 0.63,-0.34 15.25,-4.27 17.28,-4.64 -1.04,-0.72 -1.6,-8.09 -10.69,2.76 -0.76,-2.98 -3.92,1.05 -0.77,-2.98 -2.89,0.78 -17.78,4.97 z" /><path
           id="path172"
           style="fill:#00bfc4;fill-opacity:1;fill-rule:nonzero;stroke:#000000;stroke-width:0.85000002;stroke-linecap:butt;stroke-linejoin:round;stroke-miterlimit:10;stroke-dasharray:none;stroke-opacity:1"
           d="m 46.14,111.45 2.95,-0.75 2.79,4.07 4.35,4.35 -0.45,-1.52 3.33,-1 3,-2.28 4.51,-0.27 0.82,-1.34 -2.02,-7.11 -2.01,-7.04 -2.8,-9.83 -2.97,0.67 -2.16,0.74 -2.13,0.54 -3.48,0.9 -4.12,1.26 0.91,3.16 -0.43,1.91 2.67,3.02 -1.25,4.64 -3.44,2.41 z" /><path
           id="path174"
           style="fill:#00bfc4;fill-opacity:1;fill-rule:nonzero;stroke:#000000;stroke-width:0.85000002;stroke-linecap:butt;stroke-linejoin:round;stroke-miterlimit:10;stroke-dasharray:none;stroke-opacity:1"
           d="m 84.22,82 4.09,14.9 0.4,1.16 4.95,17.97 0.67,2.45 4.74,-1.02 2.63,4.37 2.06,1.19 -0.12,3.11 -2.09,4.14 1.13,4.02 3.7,1.12 16.41,-4.5 -2.35,-8.97 -5.94,-20.95 11.6,-3.2 -6.49,-25.99 -3.93,1.04 -5.41,1.6 -4.76,1.27 -0.2,0.05 -5.71,1.68 -4.28,1.28 -6.4,1.88 -4.69,1.4 z" /><path
           id="path176"
           style="fill:#00bfc4;fill-opacity:1;fill-rule:nonzero;stroke:#000000;stroke-width:0.85000002;stroke-linecap:butt;stroke-linejoin:round;stroke-miterlimit:10;stroke-dasharray:none;stroke-opacity:1"
           d="m 120.44,121.94 2.35,8.97 23.48,-6.25 0.63,-0.32 11.2,-2.88 -3.67,-14.97 -0.89,0.22 -2.19,-9.08 -1.74,-5.83 14.53,-3.51 -6.01,-26.23 -9.27,2.36 -6.95,1.67 -4.62,1.17 -8.1,2.05 -4.84,1.25 -4.74,1.24 6.49,25.99 -11.6,3.2 z" /><path
           id="path178"
           style="fill:#00bfc4;fill-opacity:1;fill-rule:nonzero;stroke:#000000;stroke-width:0.85000002;stroke-linecap:butt;stroke-linejoin:round;stroke-miterlimit:10;stroke-dasharray:none;stroke-opacity:1"
           d="m 57.11,161.02 2.67,6.42 1.63,4.39 0.34,1.44 3.67,-1.1 0.56,0.04 3.97,-1.2 4.31,-1.58 9.99,-2.75 -0.47,-2.98 6.27,-1.83 0.62,1.99 1.2,0.7 2.51,-0.62 2.56,-1.63 1.31,-1.83 4.55,-1.71 1.73,0.83 12.82,-3.42 0.15,-1.5 -0.88,-4.09 -3.42,-4.12 -0.81,-1.76 -1.45,0.31 -1.62,-1.45 -0.57,-3.33 -1.55,-3.35 0.2,-1.34 -1.02,-0.14 -3.7,-1.12 -1.13,-4.02 -14.96,4.19 1.03,3.69 -8.97,2.46 -0.07,2.48 1.71,5.97 -5.11,1.55 0.29,0.99 -2.95,0.92 -1.23,1.12 -1.25,3.78 -1.81,1.42 -2.97,0.93 -3.72,-1.93 -5.16,1.64 z" /><path
           id="path180"
           style="fill:#00bfc4;fill-opacity:1;fill-rule:nonzero;stroke:#000000;stroke-width:0.85000002;stroke-linecap:butt;stroke-linejoin:round;stroke-miterlimit:10;stroke-dasharray:none;stroke-opacity:1"
           d="m 61.84,173.62 2.08,4.2 0.9,2.92 1.81,4.36 0.77,2.41 0.74,3.33 0.64,1.19 2.13,3.63 1.32,3.16 6.74,-2.11 -3.14,-10.46 0.3,-0.76 2.43,-0.75 -2.82,-9.91 -2.93,0.9 -0.63,-2.53 -2.88,-0.8 0.65,-1.39 -3.97,1.2 -0.56,-0.04 -3.67,1.1 z" /><path
           id="path182"
           style="fill:#00bfc4;fill-opacity:1;fill-rule:nonzero;stroke:#000000;stroke-width:0.85000002;stroke-linecap:butt;stroke-linejoin:round;stroke-miterlimit:10;stroke-dasharray:none;stroke-opacity:1"
           d="m 85.06,176.57 2.92,2.08 2.49,-0.14 -1.1,2.94 0.41,0.94 2.32,-1.11 0.33,-1.99 6.43,2.11 2,-1.29 1.82,-0.02 3.03,-2.12 4.78,-1.74 0.64,-1.98 2.47,0.32 2.16,-2.08 5.57,-1.66 -0.69,-3.12 -2.25,-3.19 -0.84,-3.41 -0.96,-3.7 0.76,-1.23 -12.82,3.42 -1.73,-0.83 -4.55,1.71 -1.31,1.83 -2.56,1.63 -2.51,0.62 -1.2,-0.7 -0.62,-1.99 -6.27,1.83 0.47,2.98 -1.08,2.13 2.5,5.81 z" /><path
           id="path184"
           style="fill:#00bfc4;fill-opacity:1;fill-rule:nonzero;stroke:#000000;stroke-width:0.85000002;stroke-linecap:butt;stroke-linejoin:round;stroke-miterlimit:10;stroke-dasharray:none;stroke-opacity:1"
           d="m 204.37,133.94 2.3,1.06 5.55,4 9.35,-2.07 2.12,-2.56 -0.66,-3.03 6.74,-1.62 -0.18,-0.25 0.93,-1.28 1.36,0.39 1.22,-1.73 2.15,-0.52 -0.15,-1.48 1.44,-0.84 -0.01,-0.91 -0.06,-0.05 -2.46,-1.93 0.59,-2.16 -0.9,-1.5 -1.04,-2.96 -0.34,-0.45 -1.36,-1.79 -1.1,-4.99 -0.65,-2.93 -4.13,-19.9 -1.56,-7.59 -3.09,-14.95 -2.69,-13.2 -4.4,0.95 -5.27,1.1 -5.64,1.21 -6.38,1.41 -8.28,1.82 v 0 l 2.11,9.38 -0.43,0.42 4.85,22.23 6.27,29.85 2.21,9.33 1.33,6.01 z" /><path
           id="path186"
           style="fill:#00bfc4;fill-opacity:1;fill-rule:nonzero;stroke:#000000;stroke-width:0.85000002;stroke-linecap:butt;stroke-linejoin:round;stroke-miterlimit:10;stroke-dasharray:none;stroke-opacity:1"
           d="m 92.4,188.4 1.69,-0.01 0.74,4.66 2.13,0.94 -0.01,3.87 2.35,1.69 2.56,-1.69 2.63,-0.79 -2.43,-4.15 1.25,-2.97 2.22,-2.11 0.61,-3.25 2.73,-2.7 15.95,-4.53 -0.98,-1.79 -1.88,-0.56 1.08,-1.74 -1.71,-2.44 -5.57,1.66 -2.16,2.08 -2.47,-0.32 -0.64,1.98 -4.78,1.74 -3.03,2.12 -1.82,0.02 -2,1.29 -6.43,-2.11 -0.33,1.99 -2.32,1.11 1.85,1.88 -1.65,2.12 z" /><path
           id="path188"
           style="fill:#00bfc4;fill-opacity:1;fill-rule:nonzero;stroke:#000000;stroke-width:0.85000002;stroke-linecap:butt;stroke-linejoin:round;stroke-miterlimit:10;stroke-dasharray:none;stroke-opacity:1"
           d="m 174.62,198.25 0.92,0.24 2.43,-0.12 1.64,-0.07 3.23,-0.47 2.19,1.76 0.74,0.03 1.82,-1.16 1.38,-0.09 -2.7,-10.73 4.43,-1.14 -0.71,-2.97 2.46,-0.61 -3.65,-15 -1.12,-2.91 -11.62,2.81 -0.68,0.19 -2.88,0.71 0.64,2.53 0.84,0.28 0.78,3.04 -2.98,0.75 0.8,3.03 -2.97,0.79 z" /><path
           id="path190"
           style="fill:#00bfc4;fill-opacity:1;fill-rule:nonzero;stroke:#000000;stroke-width:0.85000002;stroke-linecap:butt;stroke-linejoin:round;stroke-miterlimit:10;stroke-dasharray:none;stroke-opacity:1"
           d="m 104.61,214.26 3.39,-1.02 0.5,0.14 -0.66,-1.6 0.24,-0.74 0.25,-0.76 1.88,-1.83 3.31,-1.95 1.07,-1.05 1.5,0.03 0.88,-1.28 1.59,-0.61 0.37,0.11 1.82,0.51 1.99,-0.36 2.63,0.46 1.5,0.65 0.75,0.14 -0.87,-4.7 1.49,-2.63 -0.8,0.17 -15.64,4.52 -3.5,0.89 -1.29,-0.55 -0.91,0.28 0.05,0.17 0.78,2.69 -2.17,3.45 -1.01,1.92 z" /><path
           id="path192"
           style="fill:#00bfc4;fill-opacity:1;fill-rule:nonzero;stroke:#000000;stroke-width:0.85000002;stroke-linecap:butt;stroke-linejoin:round;stroke-miterlimit:10;stroke-dasharray:none;stroke-opacity:1"
           d="m 78.97,196.71 0.34,1.09 15.52,-4.75 -0.74,-4.66 -1.69,0.01 -2.42,-2.01 1.65,-2.12 -1.85,-1.88 -0.41,-0.94 -3.66,1.08 -7.15,2.21 -2.43,0.75 -0.3,0.76 z" /><path
           id="path194"
           style="fill:#00bfc4;fill-opacity:1;fill-rule:nonzero;stroke:#000000;stroke-width:0.85000002;stroke-linecap:butt;stroke-linejoin:round;stroke-miterlimit:10;stroke-dasharray:none;stroke-opacity:1"
           d="m 145.92,187.18 1.44,-0.27 2.92,2.57 2.04,3.66 -1.55,2.02 0.69,3.13 0.39,-0.29 1.21,0.73 4.34,0.48 1.57,0.7 1.04,-0.26 1.6,-2.13 0.41,-0.12 1.62,-6.53 -0.49,-1.24 -3.41,-0.29 -1.23,-1.89 -2.05,-6.4 1.47,-3.03 -1.79,-1.82 -5.42,1.44 0.58,1.59 -3.33,3.52 -3.07,1.43 z" /><path
           id="path196"
           style="fill:#00bfc4;fill-opacity:1;fill-rule:nonzero;stroke:#000000;stroke-width:0.85000002;stroke-linecap:butt;stroke-linejoin:round;stroke-miterlimit:10;stroke-dasharray:none;stroke-opacity:1"
           d="m 72.26,198.89 1.83,3.11 0.8,2.43 0.9,2.09 0.31,2.44 1.32,2.7 0.24,2.14 1.47,2.36 1.21,3.26 0.48,1.6 -0.17,1.86 0.33,0.88 5.64,-2.13 8.45,-2.33 -0.71,-2.44 -2.9,0.89 0.69,-2.93 2.61,-1.87 -4.98,-2.82 -0.68,-1.97 -2.19,-7.45 -7.58,2.32 -1.43,-4.78 1.41,-0.45 -0.34,-1.09 -6.74,2.11 z" /><path
           id="path198"
           style="fill:#00bfc4;fill-opacity:1;fill-rule:nonzero;stroke:#000000;stroke-width:0.85000002;stroke-linecap:butt;stroke-linejoin:round;stroke-miterlimit:10;stroke-dasharray:none;stroke-opacity:1"
           d="m 188.97,198.37 1.68,-0.11 h 2.71 l 3.05,-1.01 1.75,0.52 2.11,1 v 0 l 7.36,-1.73 1.69,-0.4 5.68,-1.35 8.83,-2.06 0.46,-0.11 -0.97,-4.28 -0.02,-0.59 -0.35,-1.52 -1.72,0.4 -1.53,-4.35 -1.22,0.28 -1.71,-7.57 -1.96,0.44 -0.34,-1.5 -5.54,1.36 -0.59,-2.57 -6.56,1.2 -0.7,-3.05 0.99,-0.23 -0.5,-2.12 2.64,-0.62 -0.96,-4.03 0.01,-3.11 -15.58,3.75 1.12,2.91 3.65,15 -2.46,0.61 0.71,2.97 -4.43,1.14 z" /><path
           id="path200"
           style="fill:#00bfc4;fill-opacity:1;fill-rule:nonzero;stroke:#000000;stroke-width:0.85000002;stroke-linecap:butt;stroke-linejoin:round;stroke-miterlimit:10;stroke-dasharray:none;stroke-opacity:1"
           d="m 201.78,174.42 6.56,-1.2 0.59,2.57 5.54,-1.36 0.34,1.5 1.96,-0.44 1.71,7.57 1.22,-0.28 1.53,4.35 1.72,-0.4 0.35,1.52 5.4,-1.21 -0.69,-3.04 -0.98,0.22 -0.64,-2.93 0.89,-2.85 -0.8,-3.55 0.39,-5.53 1.74,-1.4 0.91,-2.77 -0.41,-2.02 0.74,-1.74 5.11,-1.13 -0.65,-2.99 -7.23,1.56 -0.67,-3.01 -5.2,1.13 -1.08,2.67 -3.54,-1.49 -3.52,2.61 -3.46,-2.37 -2.64,1.8 -1.97,-0.58 -1.74,1.63 -0.01,3.11 0.96,4.03 -2.64,0.62 0.5,2.12 -0.99,0.23 z" /><path
           id="path202"
           style="fill:#00bfc4;fill-opacity:1;fill-rule:nonzero;stroke:#000000;stroke-width:0.85000002;stroke-linecap:butt;stroke-linejoin:round;stroke-miterlimit:10;stroke-dasharray:none;stroke-opacity:1"
           d="m 224.29,193.12 6.19,-1.42 2.73,-0.65 2.94,-0.7 3,-0.71 10.46,-2.31 0.42,-1.43 0.27,-1.93 1.03,-2.27 0.2,-0.43 1.13,-0.75 1.38,-1.9 1.71,-0.49 1.06,-1.83 -0.2,-1.88 1.08,-2.62 -1.3,-1.51 -2.96,-3.88 -3.03,-4.04 -0.73,-1.5 -0.23,-0.47 -2.45,-4.6 -0.96,-1.12 -11.72,2.63 0.65,2.99 -5.11,1.13 -0.74,1.74 0.41,2.02 -0.91,2.77 -1.74,1.4 -0.39,5.53 0.8,3.55 -0.89,2.85 0.64,2.93 0.98,-0.22 0.69,3.04 -5.4,1.21 0.02,0.59 z" /><path
           id="path204"
           style="fill:#00bfc4;fill-opacity:1;fill-rule:nonzero;stroke:#000000;stroke-width:0.85000002;stroke-linecap:butt;stroke-linejoin:round;stroke-miterlimit:10;stroke-dasharray:none;stroke-opacity:1"
           d="m 124.34,182.21 3.99,0.87 0.48,1.19 -1.23,2.89 1.92,2.36 -0.27,0.41 5.12,-1.41 3.43,8.74 1.68,6.19 0.36,-0.29 2.13,-0.18 2.57,-1.95 0.16,-2.44 1.55,-0.07 1.18,0.86 3.42,-0.61 0.63,-0.48 -0.69,-3.13 1.55,-2.02 -2.04,-3.66 -2.92,-2.57 -1.44,0.27 -1.02,-3 3.07,-1.43 3.33,-3.52 -0.58,-1.59 5.42,-1.44 0.07,-0.58 -0.84,-7.25 1.63,-2.05 -17.28,4.64 -15.25,4.27 -0.63,0.34 0.98,1.79 z" /><path
           id="path206"
           style="fill:#00bfc4;fill-opacity:1;fill-rule:nonzero;stroke:#000000;stroke-width:0.85000002;stroke-linecap:butt;stroke-linejoin:round;stroke-miterlimit:10;stroke-dasharray:none;stroke-opacity:1"
           d="m 91.46,217.75 2.9,-0.89 0.71,2.44 7.74,-2.35 1.8,-2.69 -0.86,-2.95 1.01,-1.92 2.17,-3.45 -0.78,-2.69 -0.05,-0.17 -1,-3.48 -2.29,1.2 -0.21,-0.71 -0.59,-0.13 -2.12,1.72 -0.88,2.44 -2.15,1.71 -7.76,2.33 0.68,1.97 4.98,2.82 -2.61,1.87 z" /><path
           id="path208"
           style="fill:#00bfc4;fill-opacity:1;fill-rule:nonzero;stroke:#000000;stroke-width:0.85000002;stroke-linecap:butt;stroke-linejoin:round;stroke-miterlimit:10;stroke-dasharray:none;stroke-opacity:1"
           d="m 156.21,175.62 16.93,-4.37 -0.64,-2.53 2.88,-0.71 -0.99,-6.07 -4.47,-17.86 -5.94,1.48 0.7,2.87 -2.95,0.76 0.4,1.7 -8.88,2.19 1.11,4.43 1.6,8.09 1.04,0.72 -1.63,2.05 z" /><path
           id="path210"
           style="fill:#00bfc4;fill-opacity:1;fill-rule:nonzero;stroke:#000000;stroke-width:0.85000002;stroke-linecap:butt;stroke-linejoin:round;stroke-miterlimit:10;stroke-dasharray:none;stroke-opacity:1"
           d="m 79.33,203.03 7.58,-2.32 2.19,7.45 7.76,-2.33 2.15,-1.71 0.88,-2.44 2.12,-1.72 -0.15,-2.1 -2.56,1.69 -2.35,-1.69 0.01,-3.87 -2.13,-0.94 -15.52,4.75 -1.41,0.45 z" /><path
           id="path212"
           style="fill:#00bfc4;fill-opacity:1;fill-rule:nonzero;stroke:#000000;stroke-width:0.85000002;stroke-linecap:butt;stroke-linejoin:round;stroke-miterlimit:10;stroke-dasharray:none;stroke-opacity:1"
           d="m 199.05,232.59 9,-2.26 3.03,12.11 23.67,-5.65 -2.74,-12.01 -2.36,-4.2 -4.94,-0.54 -3.51,0.74 -23.67,5.76 z" /><path
           id="path214"
           style="fill:#00bfc4;fill-opacity:1;fill-rule:nonzero;stroke:#000000;stroke-width:0.85000002;stroke-linecap:butt;stroke-linejoin:round;stroke-miterlimit:10;stroke-dasharray:none;stroke-opacity:1"
           d="m 237.1,194.68 1.45,-0.32 2.01,9.08 4.74,-0.02 0.4,1.77 0.17,-1.44 4.1,-0.81 -0.1,-0.57 -1.07,-1.82 1.18,-2.09 0.4,-1.91 -0.37,-1.87 0.72,-1.2 -0.49,-0.93 -1.54,-1.77 0.76,-1.03 0.15,-2.42 -10.46,2.31 -3,0.71 z" /><path
           id="path216"
           style="fill:#00bfc4;fill-opacity:1;fill-rule:nonzero;stroke:#000000;stroke-width:0.85000002;stroke-linecap:butt;stroke-linejoin:round;stroke-miterlimit:10;stroke-dasharray:none;stroke-opacity:1"
           d="m 184.77,225.73 6.15,-0.85 3.2,2.14 0.94,-2.01 0.61,-2.59 2.32,-3.95 -1.98,-8.64 4.59,-4.06 1.14,-2.23 -0.15,-4.07 -1.32,-0.7 -2.11,-1 -1.75,-0.52 -3.05,1.01 h -2.71 l -1.68,0.11 -1.38,0.09 -1.82,1.16 -0.74,-0.03 -2.19,-1.76 -3.23,0.47 -1.64,0.07 1.83,7 z" /><path
           id="path218"
           style="fill:#00bfc4;fill-opacity:1;fill-rule:nonzero;stroke:#000000;stroke-width:0.85000002;stroke-linecap:butt;stroke-linejoin:round;stroke-miterlimit:10;stroke-dasharray:none;stroke-opacity:1"
           d="m 168.67,280.53 -0.39,1.69 3.45,0.35 3.29,2.38 -0.87,5.15 -1.37,1.18 2.09,5.63 5.64,0.67 2.61,-1.2 1.17,-0.12 -0.22,-2.48 -1.03,-2.31 1.68,-1.82 -0.91,-1.31 1.61,-0.75 0.5,-1.66 2.14,-3.11 -0.73,-1.38 2.64,-3.59 1.47,-0.9 0.86,-3.86 4.4,-1.35 -4.38,-5.41 -5.27,0.09 -0.37,-2.34 -4.61,-6.58 -0.17,-0.48 0.04,-0.44 -0.04,-0.47 0.1,-0.74 -0.04,-0.44 0.09,-0.31 0.52,-0.47 3.6,-2.6 -0.88,-2.6 -6.81,1.73 -2.58,3.4 -3,1.13 -2.44,3.58 -2.58,0.95 -0.97,3.56 -1.49,1.6 -0.44,1.84 0.65,3.08 1.54,0.63 -0.59,2.61 1.55,1.31 -1.81,3.17 z" /><path
           id="path220"
           style="fill:#00bfc4;fill-opacity:1;fill-rule:nonzero;stroke:#000000;stroke-width:0.85000002;stroke-linecap:butt;stroke-linejoin:round;stroke-miterlimit:10;stroke-dasharray:none;stroke-opacity:1"
           d="m 91.92,318.09 1.66,-0.37 1.95,-2.03 2.91,-3.53 2.67,-1.6 2.79,-2.69 0.71,-1.69 3.62,-1.79 3.4,-0.98 1.25,-0.39 2.59,-1.23 2.15,-1.68 2.74,-1.23 1.74,-0.36 2.72,1.33 1.18,-2.43 1.08,-1.45 1.38,-0.11 0.91,0.14 -0.15,-1.62 -1.17,0.35 -2.05,-6.79 -12.38,4.3 -24.81,7.83 -0.2,0.34 -0.2,2.94 0.66,2.98 0.51,1.7 -0.17,2.1 1.44,2.04 1.32,2.46 z" /><path
           id="path222"
           style="fill:#00bfc4;fill-opacity:1;fill-rule:nonzero;stroke:#000000;stroke-width:0.85000002;stroke-linecap:butt;stroke-linejoin:round;stroke-miterlimit:10;stroke-dasharray:none;stroke-opacity:1"
           d="m 109.22,217.73 1.8,0.21 0.62,2.14 1.41,-0.6 4.82,0.82 2.48,-1.88 3.58,2.58 -5,-17.3 -0.37,-0.11 -1.59,0.61 -0.88,1.28 -1.5,-0.03 -1.07,1.05 -3.31,1.95 -1.88,1.83 -0.25,0.76 -0.24,0.74 0.66,1.6 0.43,1.01 -0.3,1.98 z" /><path
           id="path224"
           style="fill:#00bfc4;fill-opacity:1;fill-rule:nonzero;stroke:#000000;stroke-width:0.85000002;stroke-linecap:butt;stroke-linejoin:round;stroke-miterlimit:10;stroke-dasharray:none;stroke-opacity:1"
           d="m 223.1,215.09 0.27,-0.23 0.91,-1.44 6.98,-0.26 0.97,0.97 -1.5,-5.29 2.99,-0.65 0.43,-4.98 1.5,-0.31 -2.44,-11.85 -2.73,0.65 -6.19,1.42 -0.46,0.11 1.78,7.17 -2.97,0.7 0.71,3.03 -2.98,0.68 z" /><path
           id="path226"
           style="fill:#00bfc4;fill-opacity:1;fill-rule:nonzero;stroke:#000000;stroke-width:0.85000002;stroke-linecap:butt;stroke-linejoin:round;stroke-miterlimit:10;stroke-dasharray:none;stroke-opacity:1"
           d="m 104.62,239.05 22.67,-6.69 -3.36,-11.36 -3.58,-2.58 -2.48,1.88 -4.82,-0.82 -1.41,0.6 -0.62,-2.14 -1.8,-0.21 0.24,0.55 -0.17,1.73 0.42,1.67 -0.44,2.13 -0.43,2.71 -1.15,1.13 -0.67,1.28 -2.08,2.54 -1.14,0.48 -1.25,-0.29 z" /><path
           id="path228"
           style="fill:#00bfc4;fill-opacity:1;fill-rule:nonzero;stroke:#000000;stroke-width:0.85000002;stroke-linecap:butt;stroke-linejoin:round;stroke-miterlimit:10;stroke-dasharray:none;stroke-opacity:1"
           d="m 182.07,257.5 4.61,6.58 0.37,2.34 5.27,-0.09 4.38,5.41 0.24,3.23 3.23,1.17 2.13,-1.61 -0.93,-1.35 0.65,-1.34 3.63,1.38 1.98,0.02 1.87,-1.48 1.6,2.03 0.84,-0.7 2.79,0.93 2.07,-0.85 0.42,-3.54 0.99,-1.14 -1.21,-1.79 -2.78,0.67 -0.89,-1.41 -2.23,-0.53 -0.76,-3.01 -2.61,-2.02 -1.38,-3.38 -2.07,-0.01 -3.68,-2.19 -0.77,-2.99 -7.93,1.87 -1.64,-2.26 -2.38,-1.03 -0.95,-3.43 -1.54,0.61 -0.1,1.36 0.88,2.6 -3.6,2.6 -0.52,0.47 -0.09,0.31 0.04,0.44 -0.1,0.74 0.04,0.47 -0.04,0.44 z" /><path
           id="path230"
           style="fill:#00bfc4;fill-opacity:1;fill-rule:nonzero;stroke:#000000;stroke-width:0.85000002;stroke-linecap:butt;stroke-linejoin:round;stroke-miterlimit:10;stroke-dasharray:none;stroke-opacity:1"
           d="m 225.5,290.01 0.73,-0.18 2.99,11.99 14.35,-3.44 -1.07,-2.06 -0.21,-3.48 0.93,-2.53 -0.43,-4.44 -2.12,-4.37 -1.7,-1.44 -0.54,-5.39 0.28,-2.24 -1.59,-1.35 -0.37,-1.86 -1.52,-0.58 -0.22,-2.47 -1.17,-0.63 -2.97,0.26 0.72,-2.25 -0.46,-2.73 -1.15,-1.98 -3.6,2.73 -0.2,1.82 -2.61,1.01 -0.87,-1.24 -2.75,2.67 0.19,0.16 4.46,17.93 -0.58,0.13 z" /><path
           id="path232"
           style="fill:#00bfc4;fill-opacity:1;fill-rule:nonzero;stroke:#000000;stroke-width:0.85000002;stroke-linecap:butt;stroke-linejoin:round;stroke-miterlimit:10;stroke-dasharray:none;stroke-opacity:1"
           d="m 195.06,225.01 1.96,-0.53 0.51,2.06 23.67,-5.76 3.51,-0.74 -0.95,0.05 -0.39,-5.23 -0.27,0.23 -5.69,1.48 -4.16,-2.41 -1.17,-3.04 -3.11,-1.26 -1,-2.01 -2.59,-1.05 -4.15,-0.31 -0.63,-0.72 -4.59,4.06 1.98,8.64 -2.32,3.95 z" /><path
           id="path234"
           style="fill:#00bfc4;fill-opacity:1;fill-rule:nonzero;stroke:#000000;stroke-width:0.85000002;stroke-linecap:butt;stroke-linejoin:round;stroke-miterlimit:10;stroke-dasharray:none;stroke-opacity:1"
           d="m 232.23,214.13 3.16,1.83 3.2,-1.52 3.35,0.24 1.27,-3.38 2.51,-3.1 -0.02,-3.01 -0.4,-1.77 -4.74,0.02 -2.01,-9.08 -1.45,0.32 -0.95,-4.33 -2.94,0.7 2.44,11.85 -1.5,0.31 -0.43,4.98 -2.99,0.65 z" /><path
           id="path236"
           style="fill:#00bfc4;fill-opacity:1;fill-rule:nonzero;stroke:#000000;stroke-width:0.85000002;stroke-linecap:butt;stroke-linejoin:round;stroke-miterlimit:10;stroke-dasharray:none;stroke-opacity:1"
           d="m 186.21,243.7 0.72,3.28 0.95,3.43 2.38,1.03 1.64,2.26 7.93,-1.87 0.77,2.99 3.68,2.19 2.07,0.01 1.38,3.38 2.61,2.02 0.76,3.01 2.23,0.53 0.89,1.41 2.78,-0.67 0.04,-0.69 -5.96,-23.57 -3.03,-12.11 -9,2.26 -1.52,-6.05 -0.51,-2.06 -1.96,0.53 -0.94,2.01 -3.2,-2.14 -6.15,0.85 -0.62,0.52 -0.73,3.83 1.61,1.85 0.39,5.25 -0.63,4.94 z" /><path
           id="path238"
           style="fill:#00bfc4;fill-opacity:1;fill-rule:nonzero;stroke:#000000;stroke-width:0.85000002;stroke-linecap:butt;stroke-linejoin:round;stroke-miterlimit:10;stroke-dasharray:none;stroke-opacity:1"
           d="m 90.82,286.36 6.76,-2.71 12.21,-3.83 -2.7,-8.87 -1.48,-6.13 6.58,-1.92 0.07,-3.35 -1.78,-5.77 -0.35,-1.15 -4.38,1.33 -0.47,0.09 -16.61,5.22 0.08,0.6 0.17,3.51 -0.74,1.01 0.99,2.25 1.31,5.71 0.01,0.61 0.31,4.16 -1.14,2.92 z" /><path
           id="path240"
           style="fill:#00bfc4;fill-opacity:1;fill-rule:nonzero;stroke:#000000;stroke-width:0.85000002;stroke-linecap:butt;stroke-linejoin:round;stroke-miterlimit:10;stroke-dasharray:none;stroke-opacity:1"
           d="m 134.46,300.09 1.59,1.59 1.89,3.06 1.83,-0.38 1.66,-4.93 0.86,-2.49 -1.24,-2.13 0.61,-3.54 -1.1,-5.16 -2.18,-2.03 -1.05,-0.94 -0.6,3.96 -1.41,1.21 0.77,0.38 0.39,0.97 -1.1,1.62 1.01,2.66 -0.24,2.04 -1.45,1.56 z" /><path
           id="path242"
           style="fill:#00bfc4;fill-opacity:1;fill-rule:nonzero;stroke:#000000;stroke-width:0.85000002;stroke-linecap:butt;stroke-linejoin:round;stroke-miterlimit:10;stroke-dasharray:none;stroke-opacity:1"
           d="m 88.81,300.07 24.81,-7.83 12.38,-4.3 2.05,6.79 1.17,-0.35 0.15,1.62 2,0.33 1.72,-0.19 0.98,-1.79 -0.97,-2.96 -0.43,-1.48 0.6,-2.11 0.41,-0.05 0.45,-1.65 -3.82,-2.4 -2.56,-3.52 -4.47,-1.15 -12.58,3.76 -0.91,-2.97 -12.21,3.83 -6.76,2.71 0.08,0.43 0.33,5.37 -0.51,3.01 -0.76,2.88 z" /><path
           id="path244"
           style="fill:#00bfc4;fill-opacity:1;fill-rule:nonzero;stroke:#000000;stroke-width:0.85000002;stroke-linecap:butt;stroke-linejoin:round;stroke-miterlimit:10;stroke-dasharray:none;stroke-opacity:1"
           d="m 130.61,269.29 3.5,4.17 2.52,8.01 2.51,-0.73 1.27,-0.39 0.61,-0.19 25.56,-7.1 0.59,-2.61 -1.54,-0.63 -0.65,-3.08 -1.41,0.12 -7.04,-4.19 -1.89,-2.07 0.22,-2.48 1.9,-0.82 -1.09,-1.8 0.83,-3.05 -2.47,-1.58 h -0.01 l -4.34,2.37 -0.8,1.52 -3.61,1.74 -3.59,-0.26 -3.04,2.96 -0.51,2.47 -1.96,0.57 -2.33,0.67 -0.08,0.02 -0.19,0.67 -1.39,2.63 -1.8,0.01 -0.45,0.79 z" /><path
           id="path246"
           style="fill:#00bfc4;fill-opacity:1;fill-rule:nonzero;stroke:#000000;stroke-width:0.85000002;stroke-linecap:butt;stroke-linejoin:round;stroke-miterlimit:10;stroke-dasharray:none;stroke-opacity:1"
           d="m 123.28,279.03 4.47,1.15 2.56,3.52 3.82,2.4 -0.45,1.65 0.41,-0.04 1.23,0.6 1.41,-1.21 0.6,-3.96 -0.7,-1.67 -2.52,-8.01 -3.5,-4.17 -6.01,1.78 1.19,4.01 -5.39,1.6 z" /><path
           id="path248"
           style="fill:#00bfc4;fill-opacity:1;fill-rule:nonzero;stroke:#000000;stroke-width:0.85000002;stroke-linecap:butt;stroke-linejoin:round;stroke-miterlimit:10;stroke-dasharray:none;stroke-opacity:1"
           d="m 154.64,260.6 1.89,2.07 7.04,4.19 1.41,-0.12 0.44,-1.84 1.49,-1.6 0.97,-3.56 2.58,-0.95 2.44,-3.58 3,-1.13 2.58,-3.4 6.81,-1.73 0.1,-1.36 1.54,-0.61 -0.72,-3.28 -1.42,-1.58 0.63,-4.94 -0.39,-5.25 -1.61,-1.85 -12.51,3.29 0.83,3 -2.91,0.8 0.78,2.98 -9.09,2.42 -0.72,3.14 -3.49,4.58 -2.28,0.58 2.47,1.58 -0.83,3.05 1.09,1.8 -1.9,0.82 z" /><path
           id="path250"
           style="fill:#00bfc4;fill-opacity:1;fill-rule:nonzero;stroke:#000000;stroke-width:0.85000002;stroke-linecap:butt;stroke-linejoin:round;stroke-miterlimit:10;stroke-dasharray:none;stroke-opacity:1"
           d="m 138.68,216.45 2.11,-0.59 16.93,-4.72 22.08,-5.77 -1.83,-7 -2.43,0.12 -0.92,-0.24 -1.91,-0.48 -1.79,0.02 -2.07,-1.21 -1.74,0.28 -3.08,-0.01 -2.01,0.55 -0.41,0.12 -1.6,2.13 -1.04,0.26 -1.57,-0.7 -4.34,-0.48 -1.21,-0.73 -0.39,0.29 -0.63,0.48 -3.42,0.61 -1.18,-0.86 -1.55,0.07 -0.16,2.44 -2.57,1.95 -2.13,0.18 -0.36,0.29 -1.73,1.4 -1.46,2.58 z" /><path
           id="path252"
           style="fill:#00bfc4;fill-opacity:1;fill-rule:nonzero;stroke:#000000;stroke-width:0.85000002;stroke-linecap:butt;stroke-linejoin:round;stroke-miterlimit:10;stroke-dasharray:none;stroke-opacity:1"
           d="m 105.28,254.05 0.47,-0.09 4.38,-1.33 -0.31,-1 22.07,-6.55 8.01,-3.57 2.46,1.36 7.03,-1.97 1.67,-3.14 -4.22,-6.54 0.24,-4.27 -3.02,0.77 v 0.01 l -11.89,3.32 -1.92,0.5 -2.86,0.8 -0.1,0.01 -22.67,6.69 -0.97,0.22 -2.3,0.71 z" /><path
           id="path254"
           style="fill:#00bfc4;fill-opacity:1;fill-rule:nonzero;stroke:#000000;stroke-width:0.85000002;stroke-linecap:butt;stroke-linejoin:round;stroke-miterlimit:10;stroke-dasharray:none;stroke-opacity:1"
           d="m 217.04,266.01 0.64,-0.2 2.27,0.02 2.75,-2.67 0.87,1.24 2.61,-1.01 0.2,-1.82 3.6,-2.73 1.15,1.98 2.59,1.2 0.79,-0.12 1.89,-5.76 4.92,0.6 1.22,-1.07 -4.6,-19.62 -3.19,0.74 -23.67,5.65 z" /><path
           id="path256"
           style="fill:#00bfc4;fill-opacity:1;fill-rule:nonzero;stroke:#000000;stroke-width:0.85000002;stroke-linecap:butt;stroke-linejoin:round;stroke-miterlimit:10;stroke-dasharray:none;stroke-opacity:1"
           d="m 110.7,282.79 12.58,-3.76 -2.88,-2.35 5.39,-1.6 -1.19,-4.01 -2.68,-4.69 0.1,-2.35 -2.24,-0.71 -0.45,1.33 -0.28,-0.05 -0.3,-0.5 -0.46,-0.18 -0.86,-0.12 -0.27,-0.22 -0.31,-0.63 -0.52,-0.18 -0.61,0.15 -0.38,-0.18 -0.19,-0.51 h -0.7 l -2.26,0.67 -6.58,1.92 1.48,6.13 2.7,8.87 z" /><path
           id="path258"
           style="fill:#00bfc4;fill-opacity:1;fill-rule:nonzero;stroke:#000000;stroke-width:0.85000002;stroke-linecap:butt;stroke-linejoin:round;stroke-miterlimit:10;stroke-dasharray:none;stroke-opacity:1"
           d="m 184.22,313.43 2.99,-0.83 7.59,-2.01 8.35,-2.24 12.16,-3.08 7.28,-1.83 6.63,-1.62 -2.99,-11.99 -0.73,0.18 -1.48,-5.96 0.58,-0.13 -4.46,-17.93 -0.19,-0.16 -2.27,-0.02 -0.64,0.2 -0.04,0.69 1.21,1.79 -0.99,1.14 -0.42,3.54 -2.07,0.85 -2.79,-0.93 -0.84,0.7 -1.6,-2.03 -1.87,1.48 -1.98,-0.02 -3.63,-1.38 -0.65,1.34 0.93,1.35 -2.13,1.61 -3.23,-1.17 -0.24,-3.23 -4.4,1.35 -0.86,3.86 -1.47,0.9 -2.64,3.59 0.73,1.38 -2.14,3.11 -0.5,1.66 -1.61,0.75 0.91,1.31 -1.68,1.82 1.03,2.31 0.22,2.48 -1.17,0.12 0.72,1.44 -1.77,2.3 1.11,0.88 2.79,1.74 -1.2,2.62 0.74,2.68 z" /><path
           id="path260"
           style="fill:#00bfc4;fill-opacity:1;fill-rule:nonzero;stroke:#000000;stroke-width:0.85000002;stroke-linecap:butt;stroke-linejoin:round;stroke-miterlimit:10;stroke-dasharray:none;stroke-opacity:1"
           d="m 88.67,259.27 16.61,-5.22 -3.93,-14.07 -8.5,2.64 -1.01,-3.19 -0.9,-0.33 -0.99,0.63 -2.07,-1 -0.72,0.44 -0.71,1.4 -0.19,0.6 -2.83,-0.02 1,1.92 1.95,5.64 1.17,4.78 2.56,-0.59 1.24,0.97 -0.75,1.79 -2.2,1.48 z" /><path
           id="path262"
           style="fill:#00bfc4;fill-opacity:1;fill-rule:nonzero;stroke:#000000;stroke-width:0.85000002;stroke-linecap:butt;stroke-linejoin:round;stroke-miterlimit:10;stroke-dasharray:none;stroke-opacity:1"
           d="m 254.28,286.48 1.49,-0.32 0.75,3.25 1.48,-0.32 0.68,2.99 1.55,-0.35 0.62,2.68 3.64,-0.83 5.32,-1.2 -1.2,-5.3 -1.49,-6.59 -1.85,-8.13 -2.44,-10.32 -0.61,-2.76 -9.09,2.08 0.68,3.04 -1.49,0.33 4.2,18.09 -2.93,0.65 z" /><path
           id="path264"
           style="fill:#00bfc4;fill-opacity:1;fill-rule:nonzero;stroke:#000000;stroke-width:0.85000002;stroke-linecap:butt;stroke-linejoin:round;stroke-miterlimit:10;stroke-dasharray:none;stroke-opacity:1"
           d="m 121.92,266.38 2.68,4.69 6.01,-1.78 -0.68,-2.26 0.45,-0.79 1.8,-0.01 1.39,-2.63 0.19,-0.67 0.08,-0.02 2.33,-0.67 1.96,-0.57 0.51,-2.47 3.04,-2.96 3.59,0.26 3.61,-1.74 0.8,-1.52 4.34,-2.37 -3.33,-5.15 -2.02,-1.32 0.72,-3.5 -7.03,1.97 -2.46,-1.36 -8.01,3.57 -1.41,0.49 -0.27,2.42 -3.92,2.59 0.3,1.33 -1.24,1.42 -1.58,3.06 0.22,3.51 -1.11,1.9 -0.86,2.23 z" /><path
           id="path266"
           style="fill:#00bfc4;fill-opacity:1;fill-rule:nonzero;stroke:#000000;stroke-width:0.85000002;stroke-linecap:butt;stroke-linejoin:round;stroke-miterlimit:10;stroke-dasharray:none;stroke-opacity:1"
           d="m 128.09,317.83 3.86,-0.56 1.35,0.39 1.52,1.8 1.01,0.01 2.17,-2.35 0.82,-3.33 -1.84,-1.59 0.18,-1.63 -0.72,-1.78 -1.13,-0.6 -0.25,-1.99 -1.68,0.11 -0.97,1.11 -2.27,1.43 -1.8,2.24 -0.47,3.32 z" /><path
           id="path268"
           style="fill:#00bfc4;fill-opacity:1;fill-rule:nonzero;stroke:#000000;stroke-width:0.85000002;stroke-linecap:butt;stroke-linejoin:round;stroke-miterlimit:10;stroke-dasharray:none;stroke-opacity:1"
           d="m 138.11,307.09 1.41,1.57 0.77,1.94 -0.05,2.14 1.21,-1.08 0.97,-0.14 1.59,0.11 6.36,-1.85 14.5,-4.28 14.66,-4.1 3.65,-0.4 -1.11,-0.88 1.77,-2.3 -0.72,-1.44 -2.61,1.2 -5.64,-0.67 -2.09,-5.63 1.37,-1.18 -12.94,3.69 -14.01,3.96 -5.77,1.68 -1.66,4.93 -1.83,0.38 0.08,0.13 z" /><path
           id="path270"
           style="fill:#00bfc4;fill-opacity:1;fill-rule:nonzero;stroke:#000000;stroke-width:0.85000002;stroke-linecap:butt;stroke-linejoin:round;stroke-miterlimit:10;stroke-dasharray:none;stroke-opacity:1"
           d="m 123.93,221 3.36,11.36 0.1,-0.01 2.86,-0.8 1.92,-0.5 11.89,-3.32 v -0.01 l -3.27,-11.86 -2.11,0.59 -2.41,-9.02 1.46,-2.58 -0.19,0.15 -3.4,0.15 -1.68,0.06 -1.68,0.94 -1.45,-0.09 -1.09,-0.85 -0.62,-0.11 -0.75,-0.14 -1.5,-0.65 -2.63,-0.46 -1.99,0.36 -1.82,-0.51 z" /><path
           id="path272"
           style="fill:#00bfc4;fill-opacity:1;fill-rule:nonzero;stroke:#000000;stroke-width:0.85000002;stroke-linecap:butt;stroke-linejoin:round;stroke-miterlimit:10;stroke-dasharray:none;stroke-opacity:1"
           d="m 141.43,299.43 5.77,-1.68 14.01,-3.96 12.94,-3.69 0.87,-5.15 -3.29,-2.38 -3.45,-0.35 0.39,-1.69 -2.35,-2.99 1.81,-3.17 -1.55,-1.31 -25.56,7.1 -0.61,0.19 -1.27,0.39 -2.51,0.73 0.7,1.67 1.05,0.94 2.18,2.03 1.1,5.16 -0.61,3.54 1.24,2.13 z" /><path
           id="path274"
           style="fill:#00bfc4;fill-opacity:1;fill-rule:nonzero;stroke:#000000;stroke-width:0.85000002;stroke-linecap:butt;stroke-linejoin:round;stroke-miterlimit:10;stroke-dasharray:none;stroke-opacity:1"
           d="m 242.54,255.67 3.08,0.41 3.25,-2.99 1.97,8.8 2.29,-0.53 9.09,-2.08 -0.53,-2.36 -1.87,-8.42 -2.8,-12.84 -0.81,-3.72 -18.27,4.11 z" /><path
           id="path276"
           style="fill:#00bfc4;fill-opacity:1;fill-rule:nonzero;stroke:#000000;stroke-width:0.85000002;stroke-linecap:butt;stroke-linejoin:round;stroke-miterlimit:10;stroke-dasharray:none;stroke-opacity:1"
           d="m 230.87,265.8 2.97,-0.26 1.17,0.63 0.22,2.47 1.52,0.58 0.37,1.86 1.59,1.35 -0.28,2.24 0.54,5.39 1.7,1.44 2.12,4.37 0.43,4.44 -0.93,2.53 0.21,3.48 1.07,2.06 4.4,-1.02 8.89,-2.03 3.99,-0.92 -0.62,-2.68 -1.55,0.35 -0.68,-2.99 -1.48,0.32 -0.75,-3.25 -1.49,0.32 -0.69,-3.01 2.93,-0.65 -4.2,-18.09 1.49,-0.33 -0.68,-3.04 -2.29,0.53 -1.97,-8.8 -3.25,2.99 -3.08,-0.41 -1.22,1.07 -4.92,-0.6 -1.89,5.76 -0.79,0.12 -2.59,-1.2 0.46,2.73 z" /><path
           id="path278"
           style="fill:#00bfc4;fill-opacity:1;fill-rule:nonzero;stroke:#000000;stroke-width:0.85000002;stroke-linecap:butt;stroke-linejoin:round;stroke-miterlimit:10;stroke-dasharray:none;stroke-opacity:1"
           d="m 112.19,262.9 2.26,-0.67 h 0.7 l 0.19,0.51 0.38,0.18 0.61,-0.15 0.52,0.18 0.31,0.63 0.27,0.22 0.86,0.12 0.46,0.18 0.3,0.5 0.28,0.05 0.45,-1.33 2.24,0.71 0.86,-2.23 1.11,-1.9 -0.22,-3.51 1.58,-3.06 1.24,-1.42 -0.3,-1.33 3.92,-2.59 0.27,-2.42 1.41,-0.49 -22.07,6.55 0.31,1 0.35,1.15 1.78,5.77 z" /><path
           id="path280"
           style="fill:#00bfc4;fill-opacity:1;fill-rule:nonzero;stroke:#000000;stroke-width:0.85000002;stroke-linecap:butt;stroke-linejoin:round;stroke-miterlimit:10;stroke-dasharray:none;stroke-opacity:1"
           d="m 92.85,242.62 8.5,-2.64 2.3,-0.71 0.97,-0.22 -2.07,-7.39 -1.84,-0.42 -1.93,0.64 -0.18,0.05 -1.01,1.64 0.56,1.6 -0.79,1.73 -1.68,0.14 -2.74,1.14 -0.33,1.53 -0.77,-0.28 z" /><path
           id="path282"
           style="fill:#00bfc4;fill-opacity:1;fill-rule:nonzero;stroke:#000000;stroke-width:0.85000002;stroke-linecap:butt;stroke-linejoin:round;stroke-miterlimit:10;stroke-dasharray:none;stroke-opacity:1"
           d="m 201.23,206.49 4.15,0.31 2.59,1.05 1,2.01 3.11,1.26 1.17,3.04 4.16,2.41 5.69,-1.48 -2.73,-10.28 2.98,-0.68 -0.71,-3.03 2.97,-0.7 -1.78,-7.17 -8.83,2.06 -5.68,1.35 -1.69,0.4 -7.36,1.73 v 0 l 1.32,0.7 0.15,4.07 -1.14,2.23 z" /><path
           id="path284"
           style="fill:#00bfc4;fill-opacity:1;fill-rule:nonzero;stroke:#000000;stroke-width:0.85000002;stroke-linecap:butt;stroke-linejoin:round;stroke-miterlimit:10;stroke-dasharray:none;stroke-opacity:1"
           d="m 139.97,323.87 2.04,1.66 11.19,-3.3 3.38,-0.99 7.63,-2.37 7.91,-2.14 6,-1.6 6.1,-1.7 1.29,-5.39 -0.74,-2.68 1.2,-2.62 -2.79,-1.74 -3.65,0.4 -14.66,4.1 -14.5,4.28 -6.36,1.85 -1.59,-0.11 -0.97,0.14 -1.21,1.08 -0.07,2.89 0.47,2.36 0.23,1.76 -0.89,1.94 z" /><path
           id="path286"
           style="fill:#00bfc4;fill-opacity:1;fill-rule:nonzero;stroke:#000000;stroke-width:0.85000002;stroke-linecap:butt;stroke-linejoin:round;stroke-miterlimit:10;stroke-dasharray:none;stroke-opacity:1"
           d="m 223.76,220.09 0.95,-0.05 4.94,0.54 2.36,4.2 2.74,12.01 3.19,-0.74 18.27,-4.11 -0.79,-3.64 -0.21,-0.95 -4.44,-20.37 -0.53,-2.43 -0.27,-1.61 -4.1,0.81 -0.17,1.44 0.02,3.01 -2.51,3.1 -1.27,3.38 -3.35,-0.24 -3.2,1.52 -3.16,-1.83 -0.97,-0.97 -6.98,0.26 -0.91,1.44 z" /><path
           id="path288"
           style="fill:#00bfc4;fill-opacity:1;fill-rule:nonzero;stroke:#000000;stroke-width:0.85000002;stroke-linecap:butt;stroke-linejoin:round;stroke-miterlimit:10;stroke-dasharray:none;stroke-opacity:1"
           d="m 150.69,245.72 3.33,5.15 h 0.01 l 2.28,-0.58 3.49,-4.58 0.72,-3.14 9.09,-2.42 -0.78,-2.98 2.91,-0.8 -0.83,-3 12.51,-3.29 0.73,-3.83 0.62,-0.52 -4.97,-20.36 -22.08,5.77 -16.93,4.72 3.27,11.86 3.02,-0.77 -0.24,4.27 4.22,6.54 -1.67,3.14 -0.72,3.5 z" /></g></g><g
       id="g290" /><g
       id="g292" /><g
       id="g294" /><g
       id="g296" /><g
       id="g298" /><g
       id="g300" /><g
       id="g302" /><g
       id="g304" /><g
       id="g306" /><g
       id="g308" /><g
       id="g310" /><g
       id="g312" /><g
       id="g314" /><g
       id="g316" /><g
       id="g318" /><g
       id="g320" /><g
       id="g322" /><g
       id="g324" /><g
       id="g326" /><g
       id="g328" /><g
       id="g330" /><g
       id="g332" /><g
       id="g334" /><g
       id="g336" /><g
       id="g338" /><g
       id="g340" /><g
       id="g342" /><g
       id="g344" /><g
       id="g346" /><g
       id="g348" /><g
       id="g350" /><g
       id="g352" /><g
       id="g354" /><g
       id="g356" /><g
       id="g358" /><g
       id="g360" /><g
       id="g362" /><g
       id="g364" /><g
       id="g366" /><g
       id="g368" /><g
       id="g370" /><g
       id="g372"><path
         id="path374"
         style="fill:#ffffff;fill-opacity:1;fill-rule:nonzero;stroke:none"
         d="m 410.32,6.72 h 79.75 v 56.45 h -79.75 z" /></g><g
       id="g376" /><g
       id="g378" /><g
       id="g380" /><g
       id="g382"><text
         id="text386"
         style="font-variant:normal;font-weight:normal;font-size:9px;font-family:Helvetica;-inkscape-font-specification:Helvetica;writing-mode:lr-tb;fill:#000000;fill-opacity:1;fill-rule:nonzero;stroke:none"
         transform="matrix(1,0,0,-1,414.8,51.24)"><tspan
           id="tspan384"
           y="0"
           x="0 4.2750001 9.2790003 11.277 16.281 21.285">values</tspan></text>
</g><g
       id="g388" /><g
       id="g390" /><g
       id="g392" /><g
       id="g394"><path
         id="path396"
         style="fill:#ffffff;fill-opacity:1;fill-rule:nonzero;stroke:none"
         d="m 414.8,28.49 h 17.28 V 45.77 H 414.8 Z" /></g><g
       id="g398" /><g
       id="g400"><path
         id="path402"
         style="fill:#f8766d;fill-opacity:1;fill-rule:nonzero;stroke:#000000;stroke-width:0.85000002;stroke-linecap:butt;stroke-linejoin:miter;stroke-miterlimit:10;stroke-dasharray:none;stroke-opacity:1"
         d="m 415.37,29.05 h 16.15 V 45.2 h -16.15 z" /></g><g
       id="g404" /><g
       id="g406"><path
         id="path408"
         style="fill:#ffffff;fill-opacity:1;fill-rule:nonzero;stroke:none"
         d="m 414.8,11.21 h 17.28 V 28.49 H 414.8 Z" /></g><g
       id="g410" /><g
       id="g412"><path
         id="path414"
         style="fill:#00bfc4;fill-opacity:1;fill-rule:nonzero;stroke:#000000;stroke-width:0.85000002;stroke-linecap:butt;stroke-linejoin:miter;stroke-miterlimit:10;stroke-dasharray:none;stroke-opacity:1"
         d="m 415.37,11.77 h 16.15 v 16.15 h -16.15 z" /></g><g
       id="g416" /><g
       id="g418" /><g
       id="g420" /><g
       id="g422"><text
         id="text426"
         style="font-variant:normal;font-weight:normal;font-size:7px;font-family:Helvetica;-inkscape-font-specification:Helvetica;writing-mode:lr-tb;fill:#000000;fill-opacity:1;fill-rule:nonzero;stroke:none"
         transform="matrix(1,0,0,-1,436.56,34.61)"><tspan
           id="tspan424"
           y="0"
           x="0 5.0539999 6.6079998 10.5 12.446 17.5 21.392 23.337999 25.284 29.952999 33.452999 37.345001 41.237 45.129002">Did Not Expand</tspan></text>
</g><g
       id="g428" /><g
       id="g430" /><g
       id="g432" /><g
       id="g434" /><g
       id="g436" /><g
       id="g438"><text
         id="text442"
         style="font-variant:normal;font-weight:normal;font-size:7px;font-family:Helvetica;-inkscape-font-specification:Helvetica;writing-mode:lr-tb;fill:#000000;fill-opacity:1;fill-rule:nonzero;stroke:none"
         transform="matrix(1,0,0,-1,436.56,17.33)"><tspan
           id="tspan440"
           y="0"
           x="0 4.6690001 8.1689997 12.061 15.953 19.844999 23.737 27.629">Expanded</tspan></text>
</g><g
       id="g444" /><g
       id="g446" /><g
       id="g448" /><g
       id="g450" /><g
       id="g452" /><g
       id="g454" /><g
       id="g456" /><g
       id="g458" /><g
       id="g460" /><g
       id="g462"><text
         id="text466"
         style="font-variant:normal;font-weight:normal;font-size:11px;font-family:Helvetica;-inkscape-font-specification:Helvetica;writing-mode:lr-tb;fill:#000000;fill-opacity:1;fill-rule:nonzero;stroke:none"
         transform="matrix(1,0,0,-1,16.17,347.62)"><tspan
           id="tspan464"
           y="0"
           x="0 9.1630001 15.279 21.395 23.837 29.337 35.452999 37.895 44.011002 47.069 54.405998 59.905998 66.022003 72.138 78.253998 83.753998 86.195999 92.311996 98.428001 101.486 108.823 111.881 117.997 121.055 127.171 132.67101 135.729 141.625 147.125 150.183 158.125 164.241 170.35699 176.47301 179.53101">Medicaid Expansion Status by County</tspan></text>
</g><g
       id="g468" /><g
       id="g470" /><g
       id="g472" /><g
       id="g474" /><g
       id="g476" /><g
       id="g478" /><g
       id="g480" /></g></svg>